<svg width="445" height="682" viewBox="0 0 445 682" fill="none" xmlns="http://www.w3.org/2000/svg">
<path fill-rule="evenodd" clip-rule="evenodd" d="M129.802 1.38932C120.61 3.88432 112.542 10.8143 108.137 20.0003L105.499 25.5003L105.23 121.562L104.96 217.625L99.2296 217.257C87.9086 216.531 83.2826 222.714 77.4256 246.396C70.6196 273.912 62.5476 295.163 48.5226 322.486C27.9466 362.572 23.7076 398.002 30.1046 476.425C33.1236 513.434 24.0276 550.316 4.60059 579.845C-0.685412 587.879 -0.749406 588.064 1.35359 589.189C3.59659 590.388 80.6326 632.577 137.841 663.938C156.18 673.99 171.518 681.829 171.927 681.358C172.335 680.886 177.412 673.3 183.208 664.5C207.447 627.697 225.518 607.471 253.499 585.831C278.623 566.4 289.596 553.304 298.5 532.127L301.707 524.5L332.103 524C362.405 523.502 362.516 523.492 368.147 520.852C375.339 517.48 381.479 511.34 384.851 504.148C387.345 498.829 387.518 497.481 387.828 481L388.157 463.5L399.025 457.207C414.152 448.448 418.933 442.138 418.977 430.876C419.004 424.095 417.293 418.927 412.591 411.576C408.17 404.665 402.46 400.47 395.288 398.865C390.08 397.7 389.201 397.798 381.549 400.396C370.259 404.229 358.39 411.559 353.84 417.51C344.197 430.118 344.949 448.884 355.521 459.455C359.789 463.723 366.128 466.945 370.321 466.978L373.143 467L372.821 481.828C372.514 495.978 372.376 496.841 369.815 500.707C368.201 503.143 365.384 505.603 362.749 506.879L358.368 509L246.433 508.978C138.633 508.957 134.344 508.886 130.315 507.057C127.683 505.862 125.087 503.579 123.315 500.902L120.499 496.647L120.232 412.178L119.966 327.71L122.967 319.928C128.167 306.442 131.138 293.397 131.718 281.5C132.594 263.544 129.678 246.9 123.486 234.5L119.99 227.5L119.995 128.566C119.999 29.7963 120.003 29.6243 122.12 25.2503C123.396 22.6133 125.856 19.7993 128.294 18.1843C132.326 15.5133 132.449 15.4993 153.544 15.1963L174.742 14.8923L175.206 20.4873C175.698 26.4193 177.614 29.8773 182.383 33.4383C185.092 35.4613 186.305 35.5053 245.822 35.7613C302.075 36.0033 306.753 35.8933 309.979 34.2613C315.228 31.6053 317.999 26.7803 317.999 20.2973V14.8903L339.338 15.1953L360.677 15.5003L364.803 18.3623C367.146 19.9873 369.808 23.0393 370.964 25.4273C372.972 29.5753 372.999 31.0613 372.999 136.316C372.999 204.145 373.35 243 373.963 243C375.917 243 421.3 217.319 431.653 210.355C438.04 206.06 441.57 200.847 443.768 192.467C445.362 186.386 445.362 185.614 443.768 179.533C441.676 171.56 437.896 165.688 432.563 162.127C420.577 154.124 410.407 154.217 396.185 162.461L388.499 166.916L387.999 96.2083C387.504 26.1953 387.478 25.4543 385.32 20.7833C382.264 14.1693 374.757 6.52032 368.124 3.26232L362.499 0.500318L248.499 0.307317C158.743 0.155317 133.5 0.385318 129.802 1.38932ZM196.819 18.4963C195.879 20.5583 195.997 21.3403 197.495 22.9963C200.602 26.4293 204.999 24.9663 204.999 20.5003C204.999 15.6953 198.788 14.1743 196.819 18.4963ZM288.819 18.4963C287.879 20.5583 287.997 21.3403 289.495 22.9963C292.602 26.4293 296.999 24.9663 296.999 20.5003C296.999 15.6953 290.788 14.1743 288.819 18.4963ZM220.341 19.5513C220.007 20.4223 220.161 21.5623 220.683 22.0843C221.249 22.6503 232.135 22.9263 247.566 22.7673C272.743 22.5083 273.499 22.4423 273.499 20.5003C273.499 18.5583 272.743 18.4923 247.224 18.2333C224.014 17.9983 220.878 18.1513 220.341 19.5513ZM386.556 245.036C334.316 273.845 331.205 275.968 326.619 285.949C323.469 292.805 323.756 303.823 327.263 310.623C330.536 316.972 337.627 323.344 343.733 325.425C349.188 327.284 358.336 327.476 363.055 325.831C368.621 323.89 414.219 297.233 417.883 293.777C422.555 289.37 424.951 283.659 424.977 276.866C424.995 272.241 424.264 269.762 420.895 263.032C413.871 248.998 407.843 244.117 396.528 243.298C391.663 242.946 389.738 243.282 386.556 245.036ZM393.318 316.907C391.569 317.354 378.969 324.106 365.318 331.912C337.702 347.705 332.511 351.932 329.464 361.106C324.482 376.104 332.576 393.313 347.086 398.574C352.464 400.524 362.812 400.716 367.24 398.949C369.033 398.234 381.074 391.601 393.999 384.209C420.811 368.876 425.929 364.627 428.003 355.982C430.069 347.371 427.967 340.403 419.385 327.416C413.869 319.069 402.617 314.533 393.318 316.907ZM238.669 436.623C224.429 440.998 217.826 459.058 225.754 471.944C232.984 483.695 247.869 487.273 259.32 480.012C272.483 471.663 274.53 453.478 263.541 442.49C260.528 439.477 257.557 437.649 253.91 436.566C247.544 434.676 244.977 434.685 238.669 436.623Z" fill="black"/>
</svg>
