<svg width="465" height="375" viewBox="0 0 465 375" fill="none" xmlns="http://www.w3.org/2000/svg">
<g clip-path="url(#clip0_1104_18738)">
<path d="M239.5 351C291.691 351 334 344.956 334 337.5C334 330.044 291.691 324 239.5 324C187.309 324 145 330.044 145 337.5C145 344.956 187.309 351 239.5 351Z" fill="#9FB6C2"/>
<path d="M364.5 324.6C385.211 324.6 402 322.227 402 319.3C402 316.373 385.211 314 364.5 314C343.789 314 327 316.373 327 319.3C327 322.227 343.789 324.6 364.5 324.6Z" fill="#9FB6C2"/>
<path d="M417.5 339C440.42 339 459 336.09 459 332.5C459 328.91 440.42 326 417.5 326C394.58 326 376 328.91 376 332.5C376 336.09 394.58 339 417.5 339Z" fill="#9FB6C2"/>
<path d="M326.7 66.8999C327.7 69.6999 329.6 71.3999 330.5 72.1999C334.6 75.7999 339.6 75.9999 341.1 75.9999C377.9 75.9999 414.6 75.9999 451.4 75.9999C453.6 74.8999 457.4 72.6999 460.5 68.3999C461.9 66.4999 467.9 58.1999 464.3 49.3999C460.9 40.9999 451.5 38.8999 450.6 38.7999C450.7 26.8999 445 15.9999 435.4 10.6999C422.5 3.59991 404.6 7.59991 394.3 21.2999C392.7 20.8999 389.6 20.3999 385.9 21.2999C380.1 22.7999 376.9 26.8999 376 28.0999C372.7 26.4999 367.8 24.8999 362.3 25.7999C351.4 27.5999 342.3 38.5999 340.2 53.1999C339.4 52.7999 335.1 50.5999 331.1 52.3999C326.2 54.7999 325 62.0999 326.7 66.8999Z" fill="#C3D0D7"/>
<path d="M352.7 98.7999C353.5 101 355 102.4 355.7 103C359 105.8 362.8 106 364 106C392.8 106 421.6 106 450.5 106C452.2 105.1 455.2 103.4 457.7 99.9999C458.8 98.4999 463.5 91.9999 460.7 85.0999C458 78.4999 450.7 76.8999 450 76.7999C450.1 67.4999 445.6 58.8999 438.1 54.6999C428 49.0999 414 52.1999 405.9 62.9999C404.6 62.6999 402.2 62.2999 399.3 62.9999C394.8 64.1999 392.3 67.3999 391.5 68.3999C388.9 67.0999 385.1 65.8999 380.8 66.5999C372.3 67.9999 365.2 76.5999 363.5 88.0999C362.9 87.7999 359.5 85.9999 356.3 87.4999C352.3 89.3999 351.4 95.0999 352.7 98.7999Z" fill="#5BA6D0"/>
<path d="M310.3 321H166C157.3 321 150.2 313.9 150.2 305.2V15.8C150.2 7.1 157.3 0 166 0H310.3C319 0 326.1 7.1 326.1 15.8V305.2C326.1 313.9 319 321 310.3 321Z" fill="#1E6C98"/>
<path d="M305.2 312.9H171.1C164.6 312.9 159.3 307.6 159.3 301.1V21.3C159.3 14.8 164.6 9.5 171.1 9.5H305.2C311.7 9.5 317 14.8 317 21.3V301.2C317 307.7 311.7 312.9 305.2 312.9Z" fill="white"/>
<path d="M270.7 18.6H205.7C203.5 18.6 201.8 16.8 201.8 14.7V11.4C201.8 9.2 203.6 7.5 205.7 7.5H270.7C272.9 7.5 274.6 9.3 274.6 11.4V14.7C274.6 16.8 272.8 18.6 270.7 18.6Z" fill="#1E6C98"/>
<path d="M246.9 13H229.4C228.9 13 228.5 12.6 228.5 12.1V11.1C228.5 10.6 228.9 10.2 229.4 10.2H246.9C247.4 10.2 247.8 10.6 247.8 11.1V12.1C247.8 12.6 247.4 13 246.9 13Z" fill="white"/>
<path fill-rule="evenodd" clip-rule="evenodd" d="M181.7 34C180.312 34 178.993 34.2743 177.792 34.7706C177.282 34.9815 176.697 34.7387 176.486 34.2283C176.275 33.7179 176.518 33.1331 177.028 32.9222C178.468 32.3273 180.046 32 181.7 32H185.729C186.281 32 186.729 32.4477 186.729 33C186.729 33.5523 186.281 34 185.729 34H181.7ZM192.786 33C192.786 32.4477 193.233 32 193.786 32H201.843C202.395 32 202.843 32.4477 202.843 33C202.843 33.5523 202.395 34 201.843 34H193.786C193.233 34 192.786 33.5523 192.786 33ZM208.9 33C208.9 32.4477 209.348 32 209.9 32H217.957C218.509 32 218.957 32.4477 218.957 33C218.957 33.5523 218.509 34 217.957 34H209.9C209.348 34 208.9 33.5523 208.9 33ZM225.014 33C225.014 32.4477 225.462 32 226.014 32H234.071C234.624 32 235.071 32.4477 235.071 33C235.071 33.5523 234.624 34 234.071 34H226.014C225.462 34 225.014 33.5523 225.014 33ZM241.129 33C241.129 32.4477 241.576 32 242.129 32H250.186C250.738 32 251.186 32.4477 251.186 33C251.186 33.5523 250.738 34 250.186 34H242.129C241.576 34 241.129 33.5523 241.129 33ZM257.243 33C257.243 32.4477 257.691 32 258.243 32H266.3C266.852 32 267.3 32.4477 267.3 33C267.3 33.5523 266.852 34 266.3 34H258.243C257.691 34 257.243 33.5523 257.243 33ZM273.357 33C273.357 32.4477 273.805 32 274.357 32H282.414C282.967 32 283.414 32.4477 283.414 33C283.414 33.5523 282.967 34 282.414 34H274.357C273.805 34 273.357 33.5523 273.357 33ZM289.471 33C289.471 32.4477 289.919 32 290.471 32H294.5C296.154 32 297.732 32.3273 299.172 32.9222C299.682 33.1331 299.925 33.7179 299.714 34.2283C299.503 34.7387 298.918 34.9815 298.408 34.7706C297.207 34.2743 295.888 34 294.5 34H290.471C289.919 34 289.471 33.5523 289.471 33ZM304.472 38.9861C304.982 38.7752 305.567 39.018 305.778 39.5284C306.373 40.9681 306.7 42.5463 306.7 44.2C306.7 45.846 306.382 47.4179 305.8 48.8532C305.593 49.3651 305.01 49.612 304.498 49.4047C303.986 49.1974 303.739 48.6143 303.947 48.1024C304.432 46.9036 304.7 45.5865 304.7 44.2C304.7 42.8121 304.426 41.4932 303.929 40.2922C303.718 39.7818 303.961 39.197 304.472 38.9861ZM171.728 38.9861C172.239 39.197 172.482 39.7818 172.271 40.2922C171.774 41.4932 171.5 42.8121 171.5 44.2C171.5 45.5879 171.774 46.9068 172.271 48.1078C172.482 48.6182 172.239 49.203 171.728 49.4139C171.218 49.6248 170.633 49.382 170.422 48.8716C169.827 47.4319 169.5 45.8537 169.5 44.2C169.5 42.5463 169.827 40.9681 170.422 39.5284C170.633 39.018 171.218 38.7752 171.728 38.9861ZM176.486 54.1717C176.697 53.6613 177.282 53.4185 177.792 53.6294C178.993 54.1257 180.312 54.4 181.7 54.4H185.732C186.284 54.4 186.732 54.8477 186.732 55.4C186.732 55.9523 186.284 56.4 185.732 56.4H181.7C180.046 56.4 178.468 56.0727 177.028 55.4778C176.518 55.2669 176.275 54.6821 176.486 54.1717ZM299.796 54.1704C300.008 54.6803 299.767 55.2656 299.257 55.4777C297.825 56.0729 296.253 56.4 294.6 56.4H290.568C290.016 56.4 289.568 55.9523 289.568 55.4C289.568 54.8477 290.016 54.4 290.568 54.4H294.6C295.987 54.4 297.299 54.126 298.489 53.631C298.999 53.419 299.584 53.6604 299.796 54.1704ZM192.796 55.4C192.796 54.8477 193.244 54.4 193.796 54.4H201.861C202.413 54.4 202.861 54.8477 202.861 55.4C202.861 55.9523 202.413 56.4 201.861 56.4H193.796C193.244 56.4 192.796 55.9523 192.796 55.4ZM208.925 55.4C208.925 54.8477 209.373 54.4 209.925 54.4H217.989C218.542 54.4 218.989 54.8477 218.989 55.4C218.989 55.9523 218.542 56.4 217.989 56.4H209.925C209.373 56.4 208.925 55.9523 208.925 55.4ZM225.054 55.4C225.054 54.8477 225.501 54.4 226.054 54.4H234.118C234.67 54.4 235.118 54.8477 235.118 55.4C235.118 55.9523 234.67 56.4 234.118 56.4H226.054C225.501 56.4 225.054 55.9523 225.054 55.4ZM241.182 55.4C241.182 54.8477 241.63 54.4 242.182 54.4H250.246C250.799 54.4 251.246 54.8477 251.246 55.4C251.246 55.9523 250.799 56.4 250.246 56.4H242.182C241.63 56.4 241.182 55.9523 241.182 55.4ZM257.311 55.4C257.311 54.8477 257.758 54.4 258.311 54.4H266.375C266.927 54.4 267.375 54.8477 267.375 55.4C267.375 55.9523 266.927 56.4 266.375 56.4H258.311C257.758 56.4 257.311 55.9523 257.311 55.4ZM273.439 55.4C273.439 54.8477 273.887 54.4 274.439 54.4H282.504C283.056 54.4 283.504 54.8477 283.504 55.4C283.504 55.9523 283.056 56.4 282.504 56.4H274.439C273.887 56.4 273.439 55.9523 273.439 55.4Z" fill="#D02323"/>
<path d="M415 48.5001L305 72.5001C298.7 73.9001 292.4 69.9001 291 63.5001L290.8 62.4001C289.4 56.1001 293.4 49.8001 299.8 48.4001L409.7 24.5001C416 23.1001 422.3 27.1001 423.7 33.5001L423.9 34.6001C425.3 40.9001 421.3 47.1001 415 48.5001Z" fill="#1E6C98"/>
<path d="M412.3 47.0001L302 71.0001C295.9 72.3001 290 68.5001 288.7 62.4001C287.4 56.3001 291.2 50.4001 297.3 49.1001L407.6 25.1001C413.7 23.8001 419.6 27.6001 420.9 33.7001C422.2 39.7001 418.3 45.6001 412.3 47.0001Z" fill="white"/>
<path fill-rule="evenodd" clip-rule="evenodd" d="M404.72 30.2877C402.04 30.8711 400.379 33.3768 400.911 35.8236C401.444 38.2704 403.997 39.8587 406.676 39.2754C409.356 38.692 411.018 36.1863 410.485 33.7395C409.953 31.2927 407.4 29.7044 404.72 30.2877ZM399.542 36.1217C398.829 32.8484 401.058 29.6504 404.422 28.9181C407.786 28.1858 411.142 30.168 411.855 33.4414C412.567 36.7147 410.339 39.9126 406.975 40.645C403.61 41.3773 400.254 39.3951 399.542 36.1217Z" fill="#1E6C98"/>
<path fill-rule="evenodd" clip-rule="evenodd" d="M410.039 37.1796C410.272 36.8699 410.711 36.8071 411.021 37.0394L417.021 41.5394C417.33 41.7716 417.393 42.2109 417.161 42.5206C416.928 42.8302 416.489 42.893 416.179 42.6607L410.179 38.1607C409.87 37.9285 409.807 37.4892 410.039 37.1796Z" fill="#1E6C98"/>
<path d="M258.8 74.9999H217.4C216.4 74.9999 215.6 74.1999 215.6 73.1999C215.6 72.1999 216.4 71.3999 217.4 71.3999H258.8C259.8 71.3999 260.6 72.1999 260.6 73.1999C260.6 74.1999 259.8 74.9999 258.8 74.9999Z" fill="#5BA6D0"/>
<path d="M229.5 80.6H188.1C187.1 80.6 186.3 79.8 186.3 78.8C186.3 77.8 187.1 77 188.1 77H229.5C230.5 77 231.3 77.8 231.3 78.8C231.2 79.8 230.5 80.6 229.5 80.6Z" fill="#1E6C98"/>
<path d="M288.4 80.6H247C246 80.6 245.2 79.8 245.2 78.8C245.2 77.8 246 77 247 77H288.4C289.4 77 290.2 77.8 290.2 78.8C290.1 79.8 289.3 80.6 288.4 80.6Z" fill="#1E6C98"/>
<path d="M258.8 229.9H217.4C216.4 229.9 215.6 229.1 215.6 228.1C215.6 227.1 216.4 226.3 217.4 226.3H258.8C259.8 226.3 260.6 227.1 260.6 228.1C260.6 229.1 259.8 229.9 258.8 229.9Z" fill="#1E6C98"/>
<path d="M229.5 206.1H188.1C187.1 206.1 186.3 205.3 186.3 204.3C186.3 203.3 187.1 202.5 188.1 202.5H229.5C230.5 202.5 231.3 203.3 231.3 204.3C231.2 205.3 230.5 206.1 229.5 206.1Z" fill="#1E6C98"/>
<path d="M288.4 206.1H247C246 206.1 245.2 205.3 245.2 204.3C245.2 203.3 246 202.5 247 202.5H288.4C289.4 202.5 290.2 203.3 290.2 204.3C290.1 205.3 289.3 206.1 288.4 206.1Z" fill="#1E6C98"/>
<path fill-rule="evenodd" clip-rule="evenodd" d="M192.367 132.945C192.568 131.462 192.843 129.974 193.194 128.487C193.546 127 193.965 125.547 194.449 124.13C194.627 123.608 195.195 123.328 195.718 123.507C196.241 123.685 196.52 124.253 196.341 124.776C195.879 126.132 195.477 127.523 195.141 128.947C194.805 130.371 194.541 131.795 194.349 133.214C194.275 133.761 193.771 134.145 193.223 134.071C192.676 133.996 192.293 133.493 192.367 132.945ZM192.972 140.937C193.524 140.903 193.998 141.322 194.033 141.873C194.215 144.788 194.685 147.65 195.423 150.425C195.565 150.958 195.247 151.506 194.714 151.648C194.18 151.79 193.632 151.472 193.49 150.939C192.719 148.038 192.227 145.045 192.037 141.998C192.002 141.447 192.421 140.972 192.972 140.937ZM198.565 117.253C198.087 116.976 197.925 116.364 198.202 115.886C199.736 113.246 201.515 110.789 203.502 108.54C203.867 108.126 204.499 108.087 204.913 108.453C205.327 108.818 205.366 109.45 205.001 109.864C203.1 112.016 201.398 114.365 199.932 116.89C199.655 117.368 199.043 117.53 198.565 117.253ZM197.122 158.083C197.617 157.84 198.216 158.045 198.46 158.541C199.734 161.14 201.261 163.611 203.016 165.914C203.35 166.353 203.266 166.98 202.826 167.315C202.387 167.65 201.76 167.565 201.425 167.126C199.591 164.719 197.996 162.138 196.664 159.421C196.421 158.926 196.626 158.326 197.122 158.083ZM209.945 103.774C209.611 103.335 209.696 102.707 210.135 102.373C212.541 100.539 215.123 98.9438 217.839 97.6118C218.335 97.3687 218.934 97.5735 219.177 98.0694C219.42 98.5652 219.215 99.1643 218.72 99.4075C216.12 100.682 213.65 102.209 211.347 103.963C210.908 104.298 210.28 104.213 209.945 103.774ZM207.505 172.347C207.87 171.933 208.502 171.894 208.916 172.26C211.068 174.161 213.417 175.862 215.943 177.329C216.42 177.606 216.583 178.218 216.305 178.695C216.028 179.173 215.416 179.335 214.938 179.058C212.298 177.525 209.841 175.746 207.592 173.759C207.178 173.393 207.139 172.761 207.505 172.347ZM225.612 95.6615C225.471 95.1278 225.788 94.5801 226.322 94.4382C229.222 93.6671 232.215 93.1747 235.263 92.9846C235.814 92.9502 236.289 93.3692 236.323 93.9203C236.357 94.4715 235.938 94.9462 235.387 94.9806C232.473 95.1624 229.61 95.6333 226.836 96.3709C226.302 96.5128 225.754 96.1952 225.612 95.6615ZM222.559 181.543C222.737 181.02 223.306 180.741 223.828 180.919C225.184 181.382 226.575 181.783 227.999 182.12C229.423 182.456 230.847 182.719 232.266 182.912C232.814 182.986 233.197 183.49 233.123 184.037C233.049 184.584 232.545 184.968 231.997 184.893C230.514 184.692 229.026 184.417 227.54 184.066C226.053 183.715 224.599 183.295 223.182 182.812C222.66 182.633 222.381 182.065 222.559 181.543ZM243.19 94.1713C243.264 93.6241 243.768 93.2407 244.315 93.3149C245.799 93.5162 247.286 93.7912 248.773 94.1423C250.26 94.4934 251.713 94.9128 253.13 95.3964C253.653 95.5748 253.932 96.1431 253.754 96.6658C253.575 97.1884 253.007 97.4675 252.484 97.2891C251.128 96.8264 249.737 96.4249 248.313 96.0887C246.89 95.7525 245.466 95.4893 244.046 95.2967C243.499 95.2224 243.116 94.7186 243.19 94.1713ZM239.99 184.288C239.955 183.737 240.374 183.262 240.925 183.228C243.84 183.046 246.702 182.575 249.477 181.837C250.011 181.695 250.558 182.013 250.7 182.547C250.842 183.081 250.524 183.628 249.991 183.77C247.09 184.541 244.097 185.034 241.05 185.224C240.499 185.258 240.024 184.839 239.99 184.288ZM260.007 99.5129C260.285 99.0353 260.897 98.8729 261.374 99.1502C264.015 100.683 266.471 102.463 268.72 104.45C269.134 104.815 269.173 105.447 268.808 105.861C268.442 106.275 267.81 106.314 267.396 105.948C265.245 104.048 262.895 102.346 260.37 100.88C259.892 100.602 259.73 99.9905 260.007 99.5129ZM257.135 180.139C256.892 179.643 257.097 179.044 257.593 178.801C260.193 177.526 262.663 176 264.966 174.245C265.405 173.91 266.032 173.995 266.367 174.434C266.702 174.873 266.617 175.501 266.178 175.836C263.771 177.669 261.19 179.264 258.474 180.596C257.978 180.84 257.379 180.635 257.135 180.139ZM273.486 110.893C273.926 110.559 274.553 110.643 274.888 111.083C276.721 113.489 278.317 116.07 279.649 118.787C279.892 119.283 279.687 119.882 279.191 120.125C278.695 120.368 278.096 120.163 277.853 119.667C276.578 117.068 275.052 114.598 273.297 112.295C272.962 111.855 273.047 111.228 273.486 110.893ZM271.399 169.756C270.985 169.39 270.946 168.758 271.312 168.344C273.213 166.193 274.914 163.843 276.381 161.318C276.658 160.84 277.27 160.678 277.748 160.955C278.225 161.233 278.388 161.844 278.11 162.322C276.577 164.963 274.798 167.419 272.811 169.668C272.445 170.082 271.813 170.121 271.399 169.756ZM281.599 126.56C282.133 126.418 282.68 126.736 282.822 127.27C283.593 130.17 284.086 133.163 284.276 136.211C284.31 136.762 283.891 137.236 283.34 137.271C282.789 137.305 282.314 136.886 282.28 136.335C282.098 133.421 281.627 130.558 280.889 127.784C280.748 127.25 281.065 126.702 281.599 126.56ZM280.595 154.701C280.072 154.523 279.793 153.955 279.971 153.432C280.434 152.076 280.836 150.685 281.172 149.261C281.508 147.837 281.771 146.414 281.964 144.994C282.038 144.447 282.542 144.063 283.089 144.138C283.636 144.212 284.02 144.716 283.946 145.263C283.744 146.747 283.469 148.234 283.118 149.721C282.767 151.208 282.348 152.661 281.864 154.078C281.686 154.601 281.117 154.88 280.595 154.701Z" fill="#D02323"/>
<path d="M167.5 122.4C193.457 122.4 214.5 101.357 214.5 75.3999C214.5 49.4425 193.457 28.3999 167.5 28.3999C141.543 28.3999 120.5 49.4425 120.5 75.3999C120.5 101.357 141.543 122.4 167.5 122.4Z" fill="#1E6C98"/>
<path d="M211.5 83.1001C207.9 97.5001 197.9 108.7 185.3 114.4C175.9 118.6 165.1 119.9 154.4 117.1C145 114.7 137 109.7 131 103C120.9 91.8001 116.4 75.8001 120.4 60.0001C126.8 34.9001 152.3 19.6001 177.4 26.0001C202.5 32.4001 217.9 58.0001 211.5 83.1001Z" fill="white"/>
<path fill-rule="evenodd" clip-rule="evenodd" d="M177.153 26.9689C152.594 20.7068 127.635 35.6765 121.369 60.2461C117.454 75.711 121.859 91.3698 131.743 102.33L131.745 102.333C137.614 108.886 145.441 113.78 154.647 116.131L154.653 116.133C165.114 118.87 175.68 117.602 184.89 113.488C197.224 107.907 207.008 96.946 210.53 82.8574L210.531 82.8529C216.793 58.2946 201.724 33.2342 177.153 26.9689ZM119.431 59.7529C125.966 34.123 152.007 18.4931 177.647 25.0309C203.275 31.5655 219.006 57.7037 212.47 83.3447C208.791 98.0543 198.576 109.492 185.712 115.311L185.708 115.313C176.119 119.597 165.087 120.929 154.15 118.068C144.558 115.619 136.387 110.514 130.256 103.669C119.941 92.2293 115.346 75.8889 119.431 59.7545L119.431 59.7529Z" fill="#1E6C98"/>
<path d="M170.1 78.7C178.219 78.7 184.8 72.1186 184.8 64C184.8 55.8815 178.219 49.3 170.1 49.3C161.981 49.3 155.4 55.8815 155.4 64C155.4 72.1186 161.981 78.7 170.1 78.7Z" fill="#1E6C98"/>
<path d="M186.3 111.4C186 112.4 185.7 113.4 185.4 114.3C176 118.5 165.2 119.8 154.5 117C145.1 114.6 137.1 109.6 131.1 102.9C131.2 101.1 131.5 99.3 131.9 97.5C135.7 82.5 150.9 73.4 166 77.2C181 81.2 190.1 96.4 186.3 111.4Z" fill="#1E6C98"/>
<path d="M300.4 302.8H175.9C172.9 302.8 170.5 300.4 170.5 297.4V251.4C170.5 248.4 172.9 246 175.9 246H300.4C303.4 246 305.8 248.4 305.8 251.4V297.4C305.8 300.4 303.4 302.8 300.4 302.8Z" fill="#C3D0D7"/>
<path fill-rule="evenodd" clip-rule="evenodd" d="M175.9 246.701C173.287 246.701 171.201 248.787 171.201 251.4V297.4C171.201 300.013 173.287 302.099 175.9 302.099H300.4C303.013 302.099 305.099 300.013 305.099 297.4V251.4C305.099 248.787 303.013 246.701 300.4 246.701H175.9ZM169.799 251.4C169.799 248.013 172.513 245.299 175.9 245.299H300.4C303.787 245.299 306.501 248.013 306.501 251.4V297.4C306.501 300.787 303.787 303.501 300.4 303.501H175.9C172.513 303.501 169.799 300.787 169.799 297.4V251.4Z" fill="#1E6C98"/>
<path fill-rule="evenodd" clip-rule="evenodd" d="M179.867 252.967H224.333V294.233H179.867V252.967ZM180.733 253.833V293.367H223.467V253.833H180.733Z" fill="#1E6C98"/>
<path d="M193.2 269.3C196.458 269.3 199.1 266.703 199.1 263.5C199.1 260.297 196.458 257.7 193.2 257.7C189.942 257.7 187.3 260.297 187.3 263.5C187.3 266.703 189.942 269.3 193.2 269.3Z" fill="#FFC852"/>
<path d="M223.9 272.7V293.8H180.3V284.9L186.9 277.9L198.2 288.2L217.4 267.5L223.9 272.7Z" fill="#003553"/>
<path d="M293.9 266.7H234.2C232.1 266.7 230.4 265 230.4 262.9V256.7C230.4 254.6 232.1 252.9 234.2 252.9H293.9C296 252.9 297.7 254.6 297.7 256.7V262.9C297.7 265 296 266.7 293.9 266.7Z" fill="#1E6C98"/>
<path d="M230.8 272.7H242.1C242.4 272.7 242.7 273 242.7 273.3V273.9C242.7 274.2 242.4 274.5 242.1 274.5H230.8C230.5 274.5 230.2 274.2 230.2 273.9V273.3C230.2 273 230.5 272.7 230.8 272.7Z" fill="#1E6C98"/>
<path d="M230.8 290.7H242.1C242.4 290.7 242.7 291 242.7 291.3V291.9C242.7 292.2 242.4 292.5 242.1 292.5H230.8C230.5 292.5 230.2 292.2 230.2 291.9V291.3C230.2 291 230.5 290.7 230.8 290.7Z" fill="#1E6C98"/>
<path d="M266.6 277H277.9C278.2 277 278.5 277.3 278.5 277.6V278.2C278.5 278.5 278.2 278.8 277.9 278.8H266.6C266.3 278.8 266 278.5 266 278.2V277.6C266 277.2 266.3 277 266.6 277Z" fill="#1E6C98"/>
<path d="M282.6 277H297C297.4 277 297.6 277.3 297.6 277.6V278C297.6 278.4 297.3 278.6 297 278.6H282.6C282.2 278.6 282 278.3 282 278V277.6C282 277.3 282.3 277 282.6 277Z" fill="#1E6C98"/>
<path d="M274.9 281.3H296.9C297.3 281.3 297.7 281.7 297.7 282.1V282.2C297.7 282.6 297.3 283 296.9 283H274.9C274.5 283 274.1 282.6 274.1 282.2V282.1C274.1 281.6 274.5 281.3 274.9 281.3Z" fill="#1E6C98"/>
<path d="M231.1 277H262.5C263 277 263.4 277.4 263.4 277.9C263.4 278.4 263 278.8 262.5 278.8H231.1C230.6 278.8 230.2 278.4 230.2 277.9C230.2 277.4 230.6 277 231.1 277Z" fill="#1E6C98"/>
<path d="M231.1 286.4H262.5C263 286.4 263.4 286.8 263.4 287.3C263.4 287.8 263 288.2 262.5 288.2H231.1C230.6 288.2 230.2 287.8 230.2 287.3C230.2 286.8 230.6 286.4 231.1 286.4Z" fill="#1E6C98"/>
<path d="M248.5 272.7H296.8C297.3 272.7 297.7 273.1 297.7 273.6C297.7 274.1 297.3 274.5 296.8 274.5H248.5C248 274.5 247.6 274.1 247.6 273.6C247.7 273.1 248.1 272.7 248.5 272.7Z" fill="#1E6C98"/>
<path d="M231 281.3H269C269.4 281.3 269.8 281.6 269.8 282.1V282.3C269.8 282.7 269.5 283.1 269 283.1H231C230.6 283.1 230.2 282.8 230.2 282.3V282.1C230.2 281.6 230.6 281.3 231 281.3Z" fill="#1E6C98"/>
<path d="M267 286.4H297C297.4 286.4 297.7 286.7 297.7 287.1V287.4C297.7 287.8 297.4 288.1 297 288.1H267C266.6 288.1 266.3 287.8 266.3 287.4V287.1C266.3 286.8 266.6 286.4 267 286.4Z" fill="#1E6C98"/>
<path d="M248.8 290.7H296.8C297.3 290.7 297.7 291.1 297.7 291.6C297.7 292.1 297.3 292.5 296.8 292.5H248.8C248.3 292.5 247.9 292.1 247.9 291.6C247.9 291.1 248.3 290.7 248.8 290.7Z" fill="#1E6C98"/>
<path d="M238.2 222.9C241.514 222.9 244.2 220.214 244.2 216.9C244.2 213.586 241.514 210.9 238.2 210.9C234.886 210.9 232.2 213.586 232.2 216.9C232.2 220.214 234.886 222.9 238.2 222.9Z" fill="#5BA6D0"/>
<path d="M220.4 222.9C223.714 222.9 226.4 220.214 226.4 216.9C226.4 213.586 223.714 210.9 220.4 210.9C217.086 210.9 214.4 213.586 214.4 216.9C214.4 220.214 217.086 222.9 220.4 222.9Z" fill="#1E6C98"/>
<path d="M256.1 222.9C259.414 222.9 262.1 220.214 262.1 216.9C262.1 213.586 259.414 210.9 256.1 210.9C252.786 210.9 250.1 213.586 250.1 216.9C250.1 220.214 252.786 222.9 256.1 222.9Z" fill="#1E6C98"/>
<path d="M407 321C410.1 315 412.8 308.8 414.9 302.5C417 296.1 418.5 289.6 418.8 283C418.9 281.3 418.8 279.7 418.7 278.1C418.6 276.5 418.3 274.8 418 273.3C417.3 270.1 415.9 267.1 413.7 264.8C411.5 262.5 408.3 261.3 405.1 260.8C401.8 260.3 398.4 260.6 395.1 261.1C398.3 260.2 401.8 259.6 405.2 259.8C406.9 259.9 408.7 260.2 410.3 260.8C412 261.4 413.5 262.4 414.8 263.6C417.4 266.1 419 269.4 419.9 272.8C420.8 276.2 421 279.7 420.9 283.1C420.6 290 418.9 296.7 416.5 303.1C414 309.4 410.8 315.4 407 321Z" fill="#124A69"/>
<path d="M390.5 197.5C387.3 196.2 384 195.2 380.7 194.5C377.4 193.8 373.9 193.5 370.6 194.1C369 194.4 367.4 194.9 365.9 195.7C364.5 196.5 363.3 197.7 362.4 199.1C360.6 201.9 360 205.3 359.8 208.6C359.5 215.3 360.8 222.1 362.5 228.6C364.2 235.2 366.5 241.6 369 248C373.9 260.8 379.8 273.1 385.9 285.4C389 291.5 392.1 297.6 395.4 303.6C398.6 309.7 402 315.6 405.4 321.6C401.6 315.9 398.1 310 394.6 304.1C391.2 298.2 387.8 292.2 384.6 286.1C381.3 280.1 378.3 273.9 375.4 267.7C372.5 261.5 369.7 255.2 367.2 248.8C364.7 242.4 362.5 235.8 360.8 229.2C359.1 222.5 357.8 215.6 358.3 208.6C358.6 205.1 359.4 201.6 361.4 198.5C362.4 197 363.8 195.7 365.4 194.9C367 194 368.7 193.5 370.5 193.3C374 192.9 377.5 193.4 380.8 194.2C384.2 194.8 387.4 196 390.5 197.5Z" fill="#1E6C98"/>
<path d="M396.5 153.5C400.4 151.6 404.1 149.5 408.3 148.3C410.4 147.7 412.6 147.5 414.8 147.8C417 148.1 419.1 148.9 420.9 150.2C428.1 155.2 432.6 163.4 434.7 171.7C435.8 175.9 436.5 180.2 436.8 184.5C437.1 188.8 437.2 193.1 437.1 197.4C436.8 206 435.9 214.6 434.5 223.1C433.1 231.6 431.3 240 429.2 248.3C427.1 256.6 424.8 264.9 422.2 273.1C419.6 281.3 416.9 289.4 413.9 297.5C410.9 305.5 407.8 313.5 404.4 321.4C407.4 313.4 410.3 305.3 413 297.2C415.7 289.1 418.3 280.9 420.7 272.7C425.5 256.3 429.7 239.7 432.5 222.8C433.9 214.4 434.9 205.9 435.2 197.4C435.5 188.9 435.1 180.3 433.1 172.1C432.6 170 432 168 431.2 166C430.4 164.1 429.6 162.1 428.5 160.3C428.2 159.8 428 159.4 427.7 159C427.4 158.6 427.1 158.1 426.8 157.7L424.8 155.2C424.1 154.4 423.4 153.6 422.6 152.9C421.8 152.2 421.1 151.5 420.2 150.9C418.5 149.7 416.6 148.8 414.5 148.5C412.5 148.1 410.3 148.3 408.3 148.8C404.3 149.9 400.4 151.8 396.5 153.5Z" fill="#5BA6D0"/>
<path d="M460.1 224.9C456 225.5 452.4 224.4 451.2 221.8C449.6 218.5 452.2 213.9 457.1 210.8C456.2 208.6 455.1 206.4 453.8 204.3C452.6 205.3 451.3 206.2 449.8 206.9C443.7 209.8 437.3 209.2 435.6 205.5C433.8 201.8 437.3 196.4 443.3 193.5C443.5 193.4 443.7 193.3 443.9 193.2C439.4 189.7 434.5 187.2 429.5 185.7C430.8 189.6 429.2 194.6 425.3 198.1C420.3 202.7 413.4 203.2 409.9 199.4C406.3 195.5 407.5 188.7 412.4 184.1C412.6 184 412.7 183.8 412.9 183.7C404.6 184.4 398.1 187.6 390.7 191.2C381.2 195.9 374.5 199.1 372 206.4C369.8 212.6 371.8 218.8 373.8 223.1C374.1 221.5 375.1 219.8 376.6 218.5C379.5 215.9 383.3 215.5 385.1 217.6C386.9 219.6 386 223.4 383.1 226C381 227.8 378.5 228.6 376.6 228.1C381.2 231.9 387.7 236.5 396 240.2C394.6 238.5 393.8 235.9 394.1 233C394.6 228.3 397.7 224.7 401.1 225.1C404.5 225.4 406.8 229.5 406.4 234.3C406 238.4 403.5 241.7 400.6 242.2C401.1 242.4 401.7 242.6 402.2 242.8C409.8 245.5 417 246.8 423.8 247.3C421.9 245.2 420.8 240.8 421.3 235.9C421.9 229.2 425.2 224 428.5 224.3C431.9 224.6 434.1 230.3 433.5 237C433.1 241.7 431.4 245.6 429.2 247.5C442.1 247.7 452.3 245 457.6 243.3C458.1 242 460.6 234.5 460.1 224.9ZM388 210.4C387.3 211.8 384.7 211.9 382.3 210.6C379.9 209.3 378.6 207.2 379.3 205.8C380 204.4 382.6 204.3 385 205.6C387.4 206.9 388.8 209 388 210.4ZM416.3 228.7C414.8 228.9 413.3 226.8 413 224.1C412.7 221.4 413.7 219.1 415.3 218.9C416.8 218.7 418.3 220.8 418.6 223.5C418.9 226.2 417.9 228.6 416.3 228.7ZM432 203.3C430.7 205.3 428.7 206.3 427.6 205.5C426.5 204.8 426.6 202.6 427.9 200.6C429.2 198.6 431.2 197.6 432.3 198.4C433.5 199.2 433.3 201.4 432 203.3ZM453.4 229.7C452.5 231.5 449.3 231.6 446.2 229.9C443.2 228.3 441.4 225.6 442.4 223.8C443.3 222.1 446.5 222 449.6 223.6C452.6 225.2 454.3 227.9 453.4 229.7Z" fill="#1E6C98"/>
<path d="M337.6 297.5C341.9 299.1 350.2 301.8 360.8 302.4C359.1 300.8 357.9 297.4 357.8 293.6C357.6 288 359.8 283.5 362.6 283.4C365.4 283.3 367.8 287.7 368 293.3C368.1 297.3 367 300.9 365.3 302.5C370.9 302.4 376.9 301.7 383.3 299.9C383.8 299.8 384.2 299.6 384.7 299.5C382.4 298.9 380.5 296.2 380.4 292.7C380.2 288.8 382.4 285.5 385.2 285.4C388 285.3 390.4 288.4 390.5 292.3C390.6 294.7 389.8 296.8 388.6 298.1C395.6 295.5 401.2 292.1 405.2 289.1C403.6 289.4 401.5 288.7 399.9 287.1C397.6 284.8 397.1 281.7 398.7 280.1C400.3 278.5 403.4 279 405.7 281.3C406.9 282.5 407.6 283.9 407.8 285.3C409.7 281.9 411.6 276.9 410.1 271.7C408.4 265.6 403.1 262.6 395.5 258.3C389.6 255 384.4 252 377.7 251.1C377.8 251.2 378 251.4 378.1 251.5C382 255.5 382.5 261.2 379.4 264.2C376.3 267.2 370.6 266.4 366.8 262.4C363.8 259.2 362.8 255.1 364 252C359.8 253 355.7 254.8 351.8 257.5C352 257.6 352.1 257.7 352.3 257.8C357.1 260.5 359.7 265.1 358.1 268.1C356.4 271.1 351.2 271.3 346.3 268.5C345.1 267.8 344 267 343.1 266.2C341.9 267.9 340.9 269.7 340 271.4C343.9 274.1 345.7 278.1 344.3 280.7C343.1 282.8 340.2 283.5 336.8 282.8C335.6 290.4 337.3 296.7 337.6 297.5ZM399.3 270.4C401.3 269.5 403.4 269.7 404 270.8C404.6 271.9 403.3 273.7 401.3 274.6C399.3 275.5 397.2 275.3 396.6 274.2C396 273.1 397.2 271.4 399.3 270.4ZM370.7 283.5C371.1 281.3 372.4 279.7 373.7 279.9C375 280.1 375.7 282.1 375.3 284.3C374.9 286.5 373.6 288.1 372.3 287.9C371.1 287.7 370.4 285.7 370.7 283.5ZM360.7 262.2C361.7 261.7 363.2 262.6 364.2 264.3C365.2 266 365.2 267.8 364.2 268.3C363.2 268.8 361.7 267.9 360.7 266.2C359.7 264.5 359.7 262.7 360.7 262.2ZM345.3 282C347.9 280.8 350.5 281.1 351.2 282.5C351.9 284 350.3 286.1 347.7 287.3C345.1 288.5 342.5 288.2 341.8 286.7C341.1 285.3 342.7 283.2 345.3 282Z" fill="#124A69"/>
<path d="M334.5 174.6C338.2 177.3 345.5 182.1 355.6 185.3C354.4 183.3 354.1 179.8 355 176C356.3 170.6 359.5 166.7 362.2 167.4C364.9 168 366.1 172.9 364.8 178.4C363.9 182.3 361.9 185.5 359.8 186.6C365.2 188 371.3 188.8 377.8 188.7C378.3 188.7 378.8 188.7 379.2 188.7C377.1 187.6 376 184.4 376.8 181C377.7 177.2 380.6 174.6 383.3 175.2C386 175.8 387.6 179.4 386.7 183.2C386.2 185.5 384.9 187.4 383.4 188.3C390.9 187.6 397.1 185.7 401.7 183.9C400.1 183.8 398.3 182.5 397.2 180.6C395.6 177.8 395.9 174.7 397.8 173.6C399.8 172.5 402.6 173.8 404.2 176.5C405 178 405.4 179.5 405.2 180.9C407.9 178.1 411 173.7 410.9 168.3C410.8 162 406.5 157.7 400.3 151.6C395.5 146.9 391.2 142.7 384.9 140C385 140.2 385.1 140.3 385.2 140.5C387.9 145.4 387 151 383.2 153.1C379.4 155.2 374.1 152.9 371.5 148.1C369.4 144.3 369.5 140 371.5 137.3C367.2 137.2 362.7 137.9 358.3 139.4C358.4 139.5 358.6 139.6 358.7 139.8C362.7 143.7 364 148.8 361.6 151.2C359.2 153.6 354.1 152.5 350.1 148.6C349.1 147.6 348.3 146.6 347.6 145.5C346 146.8 344.5 148.3 343.3 149.7C346.3 153.4 347.1 157.7 345 159.8C343.3 161.5 340.3 161.4 337.2 159.9C334.4 167.2 334.5 173.7 334.5 174.6ZM401.1 164.4C403.3 164 405.3 164.8 405.5 166C405.7 167.2 404.1 168.6 401.9 169C399.7 169.4 397.7 168.6 397.5 167.4C397.3 166.1 398.9 164.7 401.1 164.4ZM370.2 169.6C371.1 167.6 372.8 166.4 374 166.9C375.2 167.4 375.3 169.5 374.4 171.6C373.5 173.6 371.8 174.8 370.6 174.3C369.4 173.7 369.2 171.6 370.2 169.6ZM366 146.4C367.1 146.1 368.3 147.4 368.8 149.3C369.3 151.2 368.8 152.9 367.8 153.2C366.7 153.5 365.5 152.2 365 150.3C364.4 148.4 364.9 146.7 366 146.4ZM345.9 161.6C348.7 161.1 351.2 162.1 351.5 163.7C351.8 165.3 349.7 167 346.9 167.5C344.1 168 341.6 167 341.3 165.4C341.1 163.7 343.1 162 345.9 161.6Z" fill="#5BA6D0"/>
<path opacity="0.32" d="M41.5 106.7V240.3H31.4V240.7H17V81.3001H22.9V59.8H37.3V106.7H41.5Z" fill="#2A5C78"/>
<path opacity="0.63" d="M121.9 160.7V166.6H120.6V265.6H101.2V166.6H99.5V160.7H110.5V155.2H119.4V160.7H121.9Z" fill="#2A5C78"/>
<path opacity="0.32" d="M142 185H120.9V266H142V185Z" fill="#124A69"/>
<path opacity="0.63" d="M92 89.4001V257H44V89.4001H47.3V51.2001H51.3V39.0001H57.8V25.1001H63.5V12.1001H73.3V25.1001H79V39.0001H85.5V51.2001H88.7V89.4001H92Z" fill="#2A5C78"/>
<path d="M63 374C96.6894 374 124 367.956 124 360.5C124 353.044 96.6894 347 63 347C29.3106 347 2 353.044 2 360.5C2 367.956 29.3106 374 63 374Z" fill="#9FB6C2"/>
<path d="M118.1 69.6C118 69.7 118 69.9 118 70C118 70.1 118 70.2001 118.1 70.3001C118.2 70.7001 118.6 71.0001 119.1 71.4001C119.6 71.7001 120.1 72 120.7 72.2C122.5 73 124.7 73.7 124.5 74.5C124.4 75.2 122.4 75.8 120.5 75.5C120 75.4 119.6 75.3 119.2 75.1C118.8 74.9 118.4 74.7 118 74.5C117.1 73.9 116.4 73.3 115.5 73.5C114.1 73.7 113.2 75.2 112.5 76.5C110.7 79.6 108.1 82.3 106.5 85.5C104.8 89.1 100.1 96.5 87.5 113.5C84.7 110.3 81.8 107.2 79 104C82.5 99.7 86.2 95.4 90 91C97.7 82.1 105.4 73.8 113 66C113.8 65.3 114.8 64.6 116 64C117 63.5 118.1 63.1 119.1 62.8L118.1 69.6Z" fill="#97B9CC"/>
<path d="M149.9 118.9C149.6 118.9 149.3 118.8 149 118.6C148.9 118.5 148.9 118.5 148.8 118.4C148.3 117.8 148.1 116.9 148.4 116.2C148.8 115.2 150 115.5 150.9 114.4C151.9 113.3 152.1 111.4 151.6 111C151.1 110.6 149.9 112 147.8 113.8C147.8 113.8 147.3 114.3 144.4 116.3C143.6 116.9 142.7 117.5 141.5 118.4C139 120.2 136.3 121.6 126 125.9C120.9 128 118.4 129 114.3 130.6C108.5 132.8 100.7 135.7 91.1 138.9C90.6 143.1 90.2 147.3 89.7 151.5C102.9 149.1 111.9 144.5 117.7 140.6C119.7 139.2 127.8 133.7 137.4 128.1C142.8 125 144.3 124.4 145.8 123.9C149.4 122.8 152.1 122.7 156 120.9L149.9 118.9Z" fill="#AECFE1"/>
<path d="M67 101C70.1 100.8 74.3 100.8 79 102C81.3 102.6 83.3 103.3 85 104C87 104 89 104 91 104C91 105.7 91 107.3 91 109C91.9 109.6 93 110.6 94 112C94.6 112.9 96.6 116 96 120C95.5 123.1 93.8 125.1 92.5 126.5C88.8 130.6 86.4 129.5 83.5 132.5C79.3 136.9 82.1 141.8 78.5 145.5C76.7 147.3 73.3 149 66 148C66.6 144 67.1 139.9 67.5 135.5C68.6 122.7 68.1 111.1 67 101Z" fill="#AECFE1"/>
<path d="M35.5 344.5C35.5 346.5 35.5 348.5 35.5 350.5C35.5 351.5 35.5 352.5 35.5 353.5C37.8 353.5 40.2 353.5 42.5 353.5C42.5 350.2 42.5 346.8 42.5 343.5C40.2 343.8 37.8 344.2 35.5 344.5Z" fill="#AECFE1"/>
<path d="M58.5 344.5C58.8 347.5 59.2 350.5 59.5 353.5C62.2 353.5 64.8 353.5 67.5 353.5C66.8 350.2 66.2 346.8 65.5 343.5C63.2 343.8 60.8 344.2 58.5 344.5Z" fill="#AECFE1"/>
<path d="M33 200C30.8 222.1 29.4 246.6 29.5 273.2C29.6 299.3 31.2 323.3 33.5 345.1C34.2 345.6 36.1 346.8 38.5 346.5C41.1 346.2 42.9 344.4 43.5 343.7C46.5 310.5 49.5 277.4 52.5 244.2C53.5 232.7 54.5 221.2 55.5 209.7C48 206.4 40.5 203.2 33 200Z" fill="#1E6C98"/>
<path d="M52.5 209C50.5 237.6 49.7 270.1 51.5 305.8C52.2 319.5 53.2 332.6 54.5 345.1C55.6 345.7 57.7 346.8 60.5 346.5C63.4 346.2 65.5 344.6 66.5 343.7C71.3 299.5 76.2 255.2 81 211C71.5 210.3 62 209.7 52.5 209Z" fill="#5BA6D0"/>
<path d="M58.5 134.5C53.5 143.7 48.3 154.4 43.5 166.5C38.7 178.8 35.1 190.2 32.5 200.5C37.3 203.5 44 207 52.5 209.5C64.4 213 74.7 213 81.5 212.5C85 198.1 87.3 182.4 87.5 165.5C87.5 163.8 87.5 162.2 87.5 160.5C90.5 158.5 93.5 156.5 96.5 154.5C95.6 151.6 95.5 149.2 95.5 147.5C95.6 143.9 96.6 141.9 95.5 139.5C94.8 138 93.5 137 92.5 136.5C90.2 138.5 86.2 141.5 80.5 143.5C74.6 145.5 69.5 145.7 66.5 145.5C66.8 144.5 67.2 142.6 66.5 140.5C65.4 137.3 62.3 135 58.5 134.5Z" fill="#FFC852"/>
<path d="M65.1 362.5C65.1 363.3 65 364.3 64.5 365.5H34.5C34.3 364.6 34.1 363.6 33.9 362.5C33.6 360.6 33.4 358.2 33.5 355.5C33.6 351.7 33.6 349.9 34.5 349.5C35.8 349 37.2 351.9 39.5 351.5C40.8 351.2 42.1 349.9 43.5 350.5C44 350.7 44.5 351 45 351.2C45.7 351.5 46.4 351.9 47 352.2C47.9 352.6 48.6 353 49 353.2C49.3 353.4 49.5 353.5 49.5 353.5C50.1 353.8 50.6 354.1 51 354.4C52 355 52.5 355.4 53 355.7C53.4 356 53.8 356.2 54.5 356.6C54.7 356.7 54.8 356.8 55 356.8C60.2 359.2 63.1 358.3 64.5 360.6C64.8 360.9 65 361.6 65.1 362.5Z" fill="#124A69"/>
<path d="M65.1 362.5C65.1 363.3 65 364.3 64.5 365.5H34.5C34.3 364.6 34.1 363.6 33.9 362.5H65.1Z" fill="white"/>
<path d="M47 352.2V356.3C47 356.7 46.7 357 46.3 357H45.8C45.4 357 45.1 356.7 45.1 356.3V351.2C45.7 351.5 46.4 351.9 47 352.2Z" fill="white"/>
<path d="M51 354.4V357.3C51 357.7 50.7 358 50.3 358H49.8C49.4 358 49.1 357.7 49.1 357.3V353.3C49.4 353.5 49.6 353.6 49.6 353.6C50.1 353.8 50.6 354.1 51 354.4Z" fill="white"/>
<path d="M55 356.8V358.3C55 358.7 54.7 359 54.3 359H53.8C53.4 359 53.1 358.7 53.1 358.3V355.7C53.5 356 53.9 356.2 54.6 356.6C54.7 356.6 54.8 356.7 55 356.8Z" fill="white"/>
<path d="M91 363.5C91 364.3 90.9 365.3 90.4 366.5H58.6C58.4 365.6 58.2 364.6 58 363.5C57.7 361.6 57.5 359.2 57.5 356.5C57.6 352.7 57.6 350.9 58.6 350.5C60 350 61.5 352.9 63.9 352.5C65.3 352.2 66.7 350.9 68.1 351.5C68.6 351.7 69.2 352 69.7 352.2C70.5 352.5 71.2 352.9 71.8 353.2C72.7 353.6 73.5 354 73.9 354.2C74.2 354.4 74.4 354.5 74.4 354.5C75 354.8 75.6 355.1 76 355.4C77.1 356 77.6 356.4 78.1 356.7C78.5 357 79 357.2 79.7 357.6C79.9 357.7 80.1 357.8 80.2 357.8C85.7 360.2 88.8 359.3 90.3 361.6C90.7 361.9 91 362.6 91 363.5Z" fill="#1E6C98"/>
<path d="M91 363.5C91 364.3 90.9 365.3 90.4 366.5H58.6C58.4 365.6 58.2 364.6 58 363.5H91Z" fill="white"/>
<path d="M71.8 353.2V357.3C71.8 357.7 71.4 358 71 358H70.4C70 358 69.6 357.7 69.6 357.3V352.2C70.5 352.5 71.2 352.9 71.8 353.2Z" fill="white"/>
<path d="M76.1 355.4V358.3C76.1 358.7 75.7 359 75.3 359H74.7C74.3 359 73.9 358.7 73.9 358.3V354.3C74.2 354.5 74.4 354.6 74.4 354.6C75.1 354.8 75.6 355.1 76.1 355.4Z" fill="white"/>
<path d="M80.3 357.8V359.3C80.3 359.7 79.9 360 79.5 360H79C78.6 360 78.2 359.7 78.2 359.3V356.7C78.6 357 79.1 357.2 79.8 357.6C80 357.6 80.2 357.7 80.3 357.8Z" fill="white"/>
<path d="M75.5 108.5C74.9 106 73.4 105.4 73.5 103.5C73.6 101.7 75.3 100.3 76.5 99.5C76 99.4 72.4 98.8 70.5 95.5C69.3 93.4 69.4 91.3 69.5 90.5C68 93.3 67 94.7 66.5 94.5C66.1 94.4 66.1 93 66.5 90.5C65.8 92.8 65.2 95.2 64.5 97.5C63.8 95.8 63.2 94.2 62.5 92.5C62.4 94.2 62.1 96.5 60.5 98.5C58.8 100.7 57.1 100.6 54.5 102.5C53.7 103.1 49.3 106.3 48.5 111.5C47.7 116.5 50.7 120.5 51.5 121.5C51.1 122.9 50.7 125.1 51.5 127.5C53.5 133.8 61.7 135.8 64.5 136.5C66.8 137.1 71.1 137.7 76.5 136.5C72.9 134.8 70.5 131.8 70.5 128.5C70.5 127.8 70.5 125.2 72.5 123.5C75 121.4 78.3 122.4 78.5 122.5C75.3 119.6 74.6 117.2 74.5 115.5C74.4 112.6 76.2 111.4 75.5 108.5Z" fill="#1E6C98"/>
</g>
<defs>
<clipPath id="clip0_1104_18738">
<rect width="465" height="375" fill="white"/>
</clipPath>
</defs>
</svg>
