<svg xmlns="http://www.w3.org/2000/svg" fill="none" viewBox="0 0 600 600" height="600" width="600">
<path fill="#02142D" d="M211.28 372.03H173.65V378.03H211.28V372.03Z"></path>
<path fill="white" d="M219.66 386.26H141.45V390.75H219.66V386.26Z"></path>
<path fill="#02142D" d="M220.16 391.25H140.95V385.76H220.16V391.25ZM141.95 390.25H219.16V386.76H141.95V390.25Z"></path>
<path fill="white" d="M93.7 386.26H26.8V390.75H93.7V386.26Z"></path>
<path fill="#02142D" d="M94.2 391.25H26.3V385.76H94.2V391.25ZM27.3 390.25H93.2V386.76H27.3V390.25Z"></path>
<path fill="#02142D" d="M211.28 398.98H157.37V404.98H211.28V398.98Z"></path>
<path fill="white" d="M270.55 413.21H203.63V417.7H270.55V413.21Z"></path>
<path fill="#02142D" d="M271.04 418.2H203.12V412.71H271.04V418.2ZM204.12 417.2H270.04V413.71H204.12V417.2Z"></path>
<path fill="#02142D" d="M195.26 412.45H140.46V418.45H195.26V412.45Z"></path>
<path fill="#02142D" d="M94.72 412.45H54.59V418.45H94.72V412.45Z"></path>
<path fill="#02142D" d="M136.84 385.5H99.21V391.5H136.84V385.5Z"></path>
<path fill="#02142D" d="M69.27 372.03H18.38V378.03H69.27V372.03Z"></path>
<path fill="white" d="M132.78 413.21H100.64V417.7H132.78V413.21Z"></path>
<path fill="#02142D" d="M133.28 418.2H100.14V412.71H133.28V418.2ZM101.14 417.2H132.28V413.71H101.14V417.2Z"></path>
<path fill="#02142D" d="M147.45 398.98H39.92V404.98H147.45V398.98Z"></path>
<path fill="#02142D" d="M138.25 201.17C135.71 198.03 131.94 196.22 127.91 196.22C127.69 196.22 127.48 196.22 127.27 196.24L127.19 195.24C127.42 195.22 127.67 195.22 127.91 195.22C132.25 195.22 136.3 197.16 139.03 200.54L138.25 201.17Z"></path>
<path fill="black" d="M204.08 309.31H198.97V308.31H204.08V309.31ZM194.97 309.31H190.97V308.31H194.97V309.31ZM186.97 309.31H174.97V308.31H186.97V309.31ZM170.97 309.31H166.97V308.31H170.97V309.31ZM162.97 309.31H150.97V308.31H162.97V309.31ZM146.97 309.31H142.97V308.31H146.97V309.31ZM138.97 309.31H132.44V302.84H133.44V308.31H138.97V309.31ZM133.44 298.84H132.44V294.84H133.44V298.84ZM133.44 290.84H132.44V278.84H133.44V290.84ZM133.44 274.84H132.44V270.84H133.44V274.84ZM133.44 266.84H132.44V254.84H133.44V266.84Z"></path>
<path fill="#02142D" d="M117.82 278.97C116.01 278.97 114.54 277.5 114.54 275.69C114.54 273.88 116.01 272.41 117.82 272.41C119.63 272.41 121.1 273.88 121.1 275.69C121.1 277.5 119.63 278.97 117.82 278.97Z"></path>
<path fill="#02142D" d="M117.82 289.59C119.101 289.59 120.14 288.551 120.14 287.27C120.14 285.989 119.101 284.95 117.82 284.95C116.539 284.95 115.5 285.989 115.5 287.27C115.5 288.551 116.539 289.59 117.82 289.59Z"></path>
<path fill="white" d="M149.23 210.51C147.92 210.51 146.65 210.66 145.44 210.94C145.54 210.19 145.6 209.43 145.6 208.64C145.6 199.49 138.18 192.07 129.03 192.07C124.38 192.07 120.18 193.99 117.17 197.08C115.63 189.52 108.95 183.84 100.93 183.84C91.78 183.84 84.36 191.26 84.36 200.41C84.36 204.24 85.66 207.76 87.84 210.56C87.36 210.52 86.89 210.5 86.4 210.5C77.25 210.5 69.83 217.92 69.83 227.07C69.83 236.22 77.25 243.64 86.4 243.64C86.89 243.64 87.39 243.61 87.87 243.57H147.75C148.23 243.61 148.73 243.64 149.22 243.64C158.37 243.64 165.79 236.22 165.79 227.07C165.79 217.92 158.37 210.5 149.22 210.5L149.23 210.51Z"></path>
<path fill="#02142D" d="M149.23 244.14C148.75 244.14 148.24 244.12 147.72 244.07H87.89C87.41 244.12 86.9 244.14 86.42 244.14C77.01 244.14 69.35 236.48 69.35 227.07C69.35 217.66 77.01 210 86.42 210C86.56 210 86.7 210 86.83 210C84.9 207.17 83.88 203.88 83.88 200.41C83.88 191 91.54 183.34 100.95 183.34C108.73 183.34 115.54 188.65 117.47 196.1C120.63 193.17 124.71 191.57 129.04 191.57C138.45 191.57 146.11 199.23 146.11 208.64C146.11 209.18 146.08 209.74 146.03 210.3C147.09 210.1 148.17 210 149.24 210C158.65 210 166.31 217.66 166.31 227.07C166.31 236.48 158.65 244.14 149.24 244.14H149.23ZM147.76 243.07C148.27 243.11 148.75 243.14 149.23 243.14C158.09 243.14 165.3 235.93 165.3 227.07C165.3 218.21 158.09 211 149.23 211C148 211 146.76 211.14 145.55 211.42L144.84 211.58L144.94 210.86C145.05 210.09 145.1 209.36 145.1 208.63C145.1 199.77 137.89 192.56 129.03 192.56C124.67 192.56 120.58 194.28 117.53 197.42L116.87 198.1L116.68 197.17C115.17 189.73 108.54 184.34 100.93 184.34C92.07 184.34 84.86 191.55 84.86 200.41C84.86 204.01 86.03 207.42 88.23 210.25L88.94 211.16L87.79 211.06C87.33 211.02 86.87 211 86.4 211C77.54 211 70.33 218.21 70.33 227.07C70.33 235.93 77.54 243.14 86.4 243.14C86.88 243.14 87.36 243.12 87.83 243.07H147.75H147.76Z"></path>
<path fill="#02142D" d="M108.01 249.41H97.8V243.06H108.01V249.41ZM98.8 248.41H107.01V244.06H98.8V248.41Z"></path>
<path fill="#02142D" d="M105.02 254.95H100.79V248.6H105.02V254.95ZM101.79 253.95H104.02V249.6H101.79V253.95Z"></path>
<path fill="#02142D" d="M107.51 243.57H98.3V246.25H107.51V243.57Z"></path>
<path fill="#02142D" d="M122.93 249.41H112.72V243.06H122.93V249.41ZM113.72 248.41H121.93V244.06H113.72V248.41Z"></path>
<path fill="#02142D" d="M119.93 254.95H115.7V248.6H119.93V254.95ZM116.7 253.95H118.93V249.6H116.7V253.95Z"></path>
<path fill="#02142D" d="M122.43 243.57H113.22V246.25H122.43V243.57Z"></path>
<path fill="#02142D" d="M137.84 249.41H127.63V243.06H137.84V249.41ZM128.63 248.41H136.84V244.06H128.63V248.41Z"></path>
<path fill="#02142D" d="M134.84 254.95H130.61V248.6H134.84V254.95ZM131.61 253.95H133.84V249.6H131.61V253.95Z"></path>
<path fill="#02142D" d="M137.34 243.57H128.13V246.25H137.34V243.57Z"></path>
<path fill="#02142D" d="M89.1 239.11C81.23 239.11 74.82 232.7 74.82 224.83H75.82C75.82 232.15 81.78 238.11 89.1 238.11C89.49 238.11 89.89 238.09 90.28 238.06L90.36 239.06C89.94 239.09 89.52 239.11 89.09 239.11H89.1Z"></path>
<path fill="black" d="M209.58 287.57H206.68V286.57H209.58V287.57ZM202.68 287.57H190.68V286.57H202.68V287.57ZM186.68 287.57H182.68V286.57H186.68V287.57ZM178.68 287.57H166.68V286.57H178.68V287.57ZM162.68 287.57H158.68V286.57H162.68V287.57ZM154.68 287.57H142.68V286.57H154.68V287.57ZM138.68 287.57H134.68V286.57H138.68V287.57ZM130.68 287.57H118.68V286.57H130.68V287.57ZM114.68 287.57H110.68V286.57H114.68V287.57ZM106.68 287.57H102.41V278.84H103.41V286.57H106.68V287.57ZM103.41 274.84H102.41V270.84H103.41V274.84ZM103.41 266.84H102.41V254.84H103.41V266.84Z"></path>
<path fill="black" d="M205.5 299.06H193.5V298.06H205.5V299.06ZM189.5 299.06H185.5V298.06H189.5V299.06ZM181.5 299.06H169.5V298.06H181.5V299.06ZM165.5 299.06H161.5V298.06H165.5V299.06ZM157.5 299.06H145.5V298.06H157.5V299.06ZM141.5 299.06H137.5V298.06H141.5V299.06ZM133.5 299.06H121.5V298.06H133.5V299.06ZM118.06 298.5H117.06V294.5H118.06V298.5ZM118.06 290.5H117.06V278.5H118.06V290.5ZM118.06 274.5H117.06V270.5H118.06V274.5ZM118.06 266.5H117.06V254.5H118.06V266.5Z"></path>
<g opacity="0.2">
<path fill="#00D4AF" d="M331.59 344.46C304.76 344.46 282.93 322.63 282.93 295.8C282.93 268.97 304.76 247.14 331.59 247.14C358.42 247.14 380.25 268.97 380.25 295.8C380.25 322.63 358.42 344.46 331.59 344.46ZM331.59 267.14C315.79 267.14 302.93 280 302.93 295.8C302.93 311.6 315.79 324.46 331.59 324.46C347.39 324.46 360.25 311.6 360.25 295.8C360.25 280 347.39 267.14 331.59 267.14Z"></path>
<path fill="#00D4AF" d="M331.59 385C274.99 385 221.63 376.53 181.34 361.14C138.01 344.6 114.15 321.39 114.15 295.79C114.15 270.19 138.01 246.99 181.34 230.44C221.63 215.06 274.99 206.58 331.59 206.58C388.19 206.58 441.55 215.05 481.84 230.44C525.17 246.98 549.03 270.19 549.03 295.79C549.03 321.39 525.17 344.59 481.84 361.14C441.55 376.52 388.19 385 331.59 385ZM331.59 226.6C277.37 226.6 226.55 234.6 188.48 249.14C153.96 262.32 134.16 279.33 134.16 295.8C134.16 328.53 215.24 365 331.59 365C385.81 365 436.63 357 474.7 342.46C509.22 329.28 529.02 312.27 529.02 295.8C529.02 263.07 447.94 226.6 331.59 226.6Z"></path>
<path fill="#00D4AF" d="M418.17 489.77C398.82 489.77 375.45 479.18 350.11 458.59C316.64 431.39 282.63 389.42 254.33 340.4C226.03 291.39 206.69 240.94 199.87 198.36C192.53 152.57 200.7 120.3 222.87 107.5C245.04 94.6998 277.06 103.76 313.06 133.01C346.53 160.21 380.54 202.18 408.84 251.2C437.14 300.21 456.48 350.66 463.3 393.24C470.64 439.03 462.47 471.3 440.3 484.1C433.74 487.89 426.31 489.76 418.17 489.76V489.77ZM245.3 121.77C240.58 121.77 236.41 122.77 232.87 124.82C218.6 133.06 213.78 158.71 219.62 195.2C226.07 235.43 244.55 283.45 271.66 330.41C298.77 377.36 331.11 417.38 362.74 443.08C391.42 466.39 416.04 475.03 430.31 466.79C444.58 458.55 449.4 432.9 443.56 396.41C437.11 356.18 418.63 308.16 391.52 261.2C364.41 214.25 332.07 174.23 300.44 148.53C278.88 131 259.6 121.77 245.3 121.77Z"></path>
<path fill="#00D4AF" d="M245 489.77C236.86 489.77 229.43 487.9 222.87 484.11C200.7 471.31 192.54 439.04 199.87 393.25C206.69 350.67 226.04 300.22 254.33 251.21C282.63 202.2 316.64 160.22 350.11 133.02C386.1 103.77 418.13 94.7096 440.3 107.51C462.47 120.31 470.63 152.58 463.3 198.37C456.48 240.95 437.14 291.4 408.84 340.41C380.54 389.42 346.53 431.4 313.06 458.6C287.73 479.19 264.35 489.78 245 489.78V489.77ZM271.66 261.2C244.55 308.16 226.07 356.17 219.62 396.41C213.77 432.9 218.6 458.55 232.87 466.79C236.32 468.78 240.43 469.76 245.08 469.76C278.59 469.76 340.43 418.89 391.52 330.4C418.63 283.45 437.11 235.43 443.56 195.19C449.41 158.7 444.58 133.05 430.31 124.81C416.04 116.58 391.42 125.22 362.74 148.52C331.12 174.22 298.77 214.24 271.66 261.19V261.2Z"></path>
</g>
<path fill="white" d="M527.09 405.77H200.39C195.34 405.77 190.85 401.64 190.36 396.55L168.75 172.38C168.26 167.29 171.99 163.16 177.08 163.16H506.78C511.87 163.16 516.34 167.29 516.77 172.38L535.45 396.55C535.88 401.64 532.13 405.77 527.08 405.77H527.09Z"></path>
<path fill="#02142D" d="M527.08 406.27H200.39C195.1 406.27 190.38 401.93 189.86 396.59L168.25 172.42C168 169.81 168.78 167.35 170.46 165.5C172.13 163.66 174.48 162.65 177.08 162.65H506.78C512.12 162.65 516.82 166.99 517.27 172.33L535.95 396.5C536.17 399.13 535.35 401.59 533.65 403.44C531.98 405.26 529.65 406.26 527.09 406.26L527.08 406.27ZM177.09 163.65C174.78 163.65 172.69 164.55 171.21 166.17C169.72 167.81 169.03 169.99 169.25 172.32L190.86 396.49C191.33 401.33 195.6 405.26 200.39 405.26H527.07C529.35 405.26 531.42 404.37 532.9 402.76C534.41 401.12 535.14 398.92 534.94 396.58L516.26 172.41C515.86 167.58 511.6 163.65 506.77 163.65H177.09Z"></path>
<path fill="#02142D" d="M517.61 184.32H170.16V185.32H517.61V184.32Z"></path>
<path fill="white" d="M185.46 174.97C185.66 177.08 184.12 178.79 182.01 178.79C179.9 178.79 178.03 177.08 177.83 174.97C177.63 172.86 179.17 171.15 181.28 171.15C183.39 171.15 185.26 172.86 185.46 174.97Z"></path>
<path fill="#02142D" d="M182.01 179.29C179.66 179.29 177.56 177.37 177.33 175.02C177.22 173.86 177.57 172.76 178.32 171.93C179.07 171.11 180.12 170.65 181.28 170.65C183.63 170.65 185.73 172.57 185.96 174.92C186.07 176.08 185.72 177.18 184.97 178.01C184.22 178.83 183.17 179.29 182.01 179.29ZM181.28 171.66C180.4 171.66 179.62 172 179.06 172.61C178.5 173.23 178.24 174.05 178.33 174.93C178.51 176.79 180.16 178.3 182.01 178.3C182.89 178.3 183.67 177.96 184.23 177.35C184.79 176.73 185.05 175.91 184.96 175.03C184.78 173.17 183.13 171.66 181.28 171.66Z"></path>
<path fill="white" d="M196.73 174.97C196.93 177.08 195.39 178.79 193.28 178.79C191.17 178.79 189.3 177.08 189.11 174.97C188.92 172.86 190.45 171.15 192.56 171.15C194.67 171.15 196.54 172.86 196.73 174.97Z"></path>
<path fill="#02142D" d="M193.28 179.29C190.92 179.29 188.83 177.37 188.61 175.02C188.5 173.85 188.86 172.75 189.61 171.93C190.36 171.11 191.4 170.66 192.56 170.66C194.92 170.66 197.01 172.57 197.23 174.93C197.34 176.09 196.99 177.19 196.24 178.02C195.49 178.84 194.44 179.3 193.28 179.3V179.29ZM192.56 171.66C191.69 171.66 190.9 171.99 190.35 172.6C189.79 173.22 189.52 174.04 189.61 174.93C189.78 176.78 191.43 178.29 193.29 178.29C194.17 178.29 194.95 177.95 195.51 177.34C196.07 176.72 196.33 175.9 196.24 175.02C196.07 173.16 194.42 171.65 192.56 171.65V171.66Z"></path>
<path fill="white" d="M208.01 174.97C208.21 177.08 206.67 178.79 204.56 178.79C202.45 178.79 200.58 177.08 200.39 174.97C200.2 172.86 201.73 171.15 203.84 171.15C205.95 171.15 207.82 172.86 208.01 174.97Z"></path>
<path fill="#02142D" d="M204.56 179.29C202.2 179.29 200.11 177.37 199.89 175.02C199.78 173.85 200.14 172.75 200.89 171.93C201.64 171.11 202.68 170.66 203.84 170.66C206.2 170.66 208.29 172.57 208.51 174.93C208.62 176.09 208.27 177.19 207.52 178.02C206.77 178.84 205.72 179.3 204.56 179.3V179.29ZM203.84 171.66C202.97 171.66 202.18 171.99 201.63 172.6C201.07 173.22 200.8 174.04 200.89 174.93C201.06 176.78 202.71 178.29 204.57 178.29C205.45 178.29 206.23 177.95 206.79 177.34C207.35 176.72 207.61 175.9 207.52 175.02C207.35 173.16 205.7 171.65 203.84 171.65V171.66Z"></path>
<path fill="black" d="M428 282.42H286.65L286.59 281.99L275.36 199.64H416.71L416.77 200.07L428 282.42ZM287.53 281.42H426.86L415.84 200.63H276.51L287.53 281.42Z"></path>
<path fill="#02142D" d="M367.09 295.07H359.83V296.07H367.09V295.07Z"></path>
<path fill="#02142D" d="M353.08 295.07H314.92V296.07H353.08V295.07Z"></path>
<path fill="#02142D" d="M308.91 295.07H288.2V296.07H308.91V295.07Z"></path>
<path fill="#02142D" d="M367.89 308.55H348.36V309.55H367.89V308.55Z"></path>
<path fill="#02142D" d="M340.84 308.55H289.01V309.55H340.84V308.55Z"></path>
<path fill="#02142D" d="M436.58 322.021H289.81V323.021H436.58V322.021Z"></path>
<path fill="#02142D" d="M438.08 335.5H367.94V336.5H438.08V335.5Z"></path>
<path fill="#02142D" d="M358.12 335.5H290.62V336.5H358.12V335.5Z"></path>
<path fill="#02142D" d="M438.08 361.71H403.41V362.71H438.08V361.71Z"></path>
<path fill="#02142D" d="M390.06 361.71H298.06V362.71H390.06V361.71Z"></path>
<path fill="#02142D" d="M439.52 375.18H299.49V376.18H439.52V375.18Z"></path>
<path fill="#02142D" d="M440.95 388.66H374.03V389.66H440.95V388.66Z"></path>
<path fill="#02142D" d="M346.97 388.66H300.92V389.66H346.97V388.66Z"></path>
<path fill="black" d="M390.89 235.1C384.9 235.1 378.99 230.23 377.73 224.24C377.1 221.23 377.69 218.42 379.4 216.31C381.04 214.29 383.52 213.17 386.39 213.17C392.33 213.17 398.23 218.04 399.54 224.03C400.2 227.02 399.62 229.83 397.93 231.94C396.29 233.98 393.79 235.1 390.88 235.1H390.89ZM386.39 214.17C383.83 214.17 381.63 215.15 380.18 216.94C378.66 218.81 378.14 221.33 378.71 224.04C379.88 229.59 385.34 234.11 390.89 234.11C393.48 234.11 395.71 233.12 397.16 231.32C398.66 229.45 399.16 226.94 398.57 224.25C397.35 218.7 391.89 214.18 386.39 214.18V214.17Z"></path>
<path fill="black" d="M405.74 268.75L379.45 245.49C377.71 243.96 375.49 243.23 373.16 243.44C370.85 243.65 368.79 244.78 367.36 246.61L356.88 260.07C353.74 264.1 348.06 264.87 343.96 261.83L309.09 235.95C305.98 233.64 301.73 233.76 298.77 236.26L297.6 237.25L296.96 236.48L298.13 235.49C301.45 232.69 306.21 232.55 309.69 235.14L344.56 261.02C348.22 263.74 353.29 263.05 356.09 259.45L366.57 245.99C368.17 243.94 370.47 242.68 373.06 242.44C375.66 242.2 378.15 243.01 380.1 244.73L406.39 267.99L405.73 268.74L405.74 268.75Z"></path>
<path fill="#02142D" d="M520.34 194.921H494.61L492.34 182.281L493.33 182.101L495.45 193.921H520.34V194.921Z"></path>
<path fill="#02142D" d="M546.24 194.92H520.34V193.92H545.03L535.53 145.2H486.7L493.33 182.1L492.34 182.28L485.51 144.2H536.36L546.24 194.92Z"></path>
<path fill="white" d="M482.51 149.061H491.26L489.68 140.331H480.96L482.51 149.061Z"></path>
<path fill="#02142D" d="M491.86 149.56H482.09L480.36 139.84H490.1L491.86 149.56ZM482.92 148.56H490.66L489.26 140.84H481.55L482.92 148.56Z"></path>
<path fill="white" d="M532.42 149.061H541.17L539.45 140.331H530.72L532.42 149.061Z"></path>
<path fill="#02142D" d="M541.78 149.56H532L530.11 139.84H539.86L541.77 149.56H541.78ZM532.83 148.56H540.57L539.05 140.84H531.34L532.84 148.56H532.83Z"></path>
<path fill="white" d="M542.05 198.791H550.93L549.22 190.061H540.35L542.05 198.791Z"></path>
<path fill="#02142D" d="M551.54 199.29H541.64L539.75 189.57H549.63L551.54 199.29ZM542.46 198.29H550.32L548.81 190.57H540.96L542.46 198.29Z"></path>
<path fill="white" d="M491.37 198.791H500.26L498.68 190.061H489.82L491.37 198.791Z"></path>
<path fill="#02142D" d="M500.86 199.29H490.95L489.23 189.57H499.1L500.86 199.29ZM491.79 198.29H499.66L498.26 190.57H490.42L491.79 198.29Z"></path>
<path fill="white" d="M537.94 153.34C542.26 153.34 545.11 149.84 544.26 145.54C543.41 141.23 539.19 137.72 534.9 137.72C530.61 137.72 527.76 141.22 528.58 145.54C529.4 149.86 533.59 153.34 537.94 153.34Z"></path>
<path fill="#02142D" d="M537.94 153.84C533.37 153.84 528.95 150.16 528.09 145.63C527.66 143.37 528.15 141.24 529.48 139.64C530.77 138.08 532.7 137.22 534.9 137.22C539.44 137.22 543.86 140.91 544.75 145.44C545.19 147.68 544.71 149.8 543.4 151.4C542.11 152.97 540.17 153.84 537.94 153.84ZM534.9 138.22C533 138.22 531.35 138.95 530.25 140.28C529.12 141.65 528.7 143.48 529.08 145.45C529.86 149.53 533.84 152.85 537.95 152.85C539.87 152.85 541.53 152.11 542.63 150.77C543.75 149.41 544.16 147.58 543.77 145.64C542.96 141.55 538.98 138.22 534.9 138.22Z"></path>
<path fill="#02142D" d="M533.16 143.32C532.96 143.15 532.9 142.87 533.04 142.7C533.17 142.55 533.44 142.55 533.64 142.7L536.29 144.92L538.08 142.7C538.21 142.55 538.48 142.55 538.68 142.7C538.88 142.87 538.94 143.15 538.8 143.32L537.03 145.54L539.67 147.74C539.87 147.91 539.93 148.19 539.79 148.36C539.66 148.51 539.39 148.53 539.19 148.36L536.54 146.14L534.75 148.36C534.62 148.51 534.35 148.53 534.15 148.36C533.95 148.19 533.89 147.91 534.03 147.74L535.82 145.54L533.17 143.32H533.16Z"></path>
<path fill="white" d="M473.52 204.38L496.65 194.64L486.91 217.77L483.52 211.07L476.22 218.37L473.05 215.2L480.39 207.86L473.52 204.38Z"></path>
<path fill="#02142D" d="M476.22 219.08L472.34 215.2L479.55 207.99L472.33 204.34L497.59 193.7L486.95 218.96L483.38 211.91L476.21 219.08H476.22ZM473.76 215.2L476.22 217.66L483.66 210.22L486.87 216.57L495.72 195.57L474.72 204.42L481.24 207.72L473.76 215.2Z"></path>
<path fill="white" d="M261.54 275.75H213.4C210.158 275.75 207.53 278.378 207.53 281.62V327.38C207.53 330.622 210.158 333.25 213.4 333.25H261.54C264.782 333.25 267.41 330.622 267.41 327.38V281.62C267.41 278.378 264.782 275.75 261.54 275.75Z"></path>
<path fill="#02142D" d="M261.54 333.75H213.39C209.88 333.75 207.02 330.89 207.02 327.38V281.61C207.02 278.1 209.88 275.24 213.39 275.24H261.54C265.05 275.24 267.91 278.1 267.91 281.61V327.38C267.91 330.89 265.05 333.75 261.54 333.75ZM213.39 276.25C210.43 276.25 208.02 278.66 208.02 281.62V327.39C208.02 330.35 210.43 332.76 213.39 332.76H261.54C264.5 332.76 266.91 330.35 266.91 327.39V281.62C266.91 278.66 264.5 276.25 261.54 276.25H213.39Z"></path>
<path fill="#02142D" d="M267.4 284.82H207.53V285.82H267.4V284.82Z"></path>
<path fill="#02142D" d="M257.69 293.8L254.22 293.75L254.27 292.8L257.69 292.85V293.8ZM248.32 293.8L236.22 293.75L236.27 292.8L248.32 292.85V293.8ZM230.32 293.8L218.22 293.75L218.27 292.8L230.32 292.85V293.8Z"></path>
<path fill="#02142D" d="M257.69 323.66L254.22 323.61L254.27 322.66L257.69 322.71V323.66ZM248.32 323.66L236.22 323.61L236.27 322.66L248.32 322.71V323.66ZM230.32 323.66L218.22 323.61L218.27 322.66L230.32 322.71V323.66Z"></path>
<path fill="#02142D" d="M257.64 300.26H218.27V301.26H257.64V300.26Z"></path>
<path fill="#02142D" d="M257.69 308.73L254.22 308.68L254.27 307.73L257.69 307.78V308.73ZM248.32 308.73L236.22 308.68L236.27 307.73L248.32 307.78V308.73ZM230.32 308.73L218.22 308.68L218.27 307.73L230.32 307.78V308.73Z"></path>
<path fill="#02142D" d="M257.64 315.2H218.27V316.2H257.64V315.2Z"></path>
<path fill="#02142D" d="M272.72 279.52C272.72 274.11 268.34 269.74 262.94 269.74C257.54 269.74 253.16 274.12 253.16 279.52C253.16 284.92 257.54 289.3 262.94 289.3C268.34 289.3 272.72 284.92 272.72 279.52Z"></path>
<path fill="white" d="M261.62 283.28L258.2 279.87L258.91 279.16L261.62 281.87L267.39 276.09L268.1 276.8L261.62 283.28Z"></path>
<path fill="#02142D" d="M53.27 313.24H43.53C43.3 313.24 43.1 313.08 43.04 312.86C42.99 312.63 43.1 312.4 43.3 312.3L49.42 309.24C39.62 303.85 38.67 294.54 38.66 294.45C38.64 294.25 38.74 294.06 38.92 293.97C39.1 293.87 39.31 293.89 39.47 294.02L55.71 306.84L56.74 305.81C57.64 304.91 58.9 304.39 60.18 304.39H61.86C62.03 304.39 62.19 304.48 62.28 304.62C62.37 304.76 62.39 304.94 62.32 305.1L60.9 308.3C59.56 311.32 56.57 313.26 53.26 313.26L53.27 313.24ZM45.65 312.24H53.27C56.18 312.24 58.82 310.53 60 307.87L61.11 305.38H60.2C59.18 305.38 58.18 305.79 57.47 306.51L56.13 307.85C55.95 308.03 55.66 308.05 55.47 307.89L39.92 295.61C40.57 298.34 42.89 304.86 50.76 308.79C50.93 308.87 51.04 309.05 51.04 309.24C51.04 309.44 50.93 309.61 50.76 309.7L45.67 312.25L45.65 312.24Z"></path>
<path fill="#02142D" d="M56.15 307.2L55.17 307L57.89 293.41C57.93 293.23 58.06 293.08 58.24 293.03C58.41 292.98 58.61 293.03 58.74 293.15C58.84 293.25 61.16 295.61 61.47 300.31L61.5 300.81L60.5 300.88L60.47 300.38C60.28 297.57 59.32 295.67 58.66 294.67L56.16 307.19L56.15 307.2Z"></path>
<path fill="#02142D" d="M77.01 313.24C76.9 313.24 76.8 313.21 76.71 313.14L71.98 309.59L72.58 308.79L76.96 312.08L81.33 307.71L82.04 308.42L77.36 313.1C77.26 313.2 77.14 313.25 77.01 313.25V313.24Z"></path>
<path fill="white" d="M491.6 297.01L537.49 299.15C540.22 299.28 542.82 301.63 543.29 304.4L548.34 333.8C548.82 336.57 546.97 338.72 544.21 338.59L497.72 336.45C494.96 336.32 492.36 333.97 491.93 331.2L487.42 301.8C487 299.03 488.87 296.88 491.6 297.01Z"></path>
<path fill="#02142D" d="M544.44 339.11C544.35 339.11 544.27 339.11 544.18 339.11L497.69 336.97C494.71 336.83 491.9 334.29 491.43 331.29L486.92 301.89C486.69 300.37 487.07 298.97 488 297.94C488.89 296.95 490.16 296.43 491.62 296.52L537.51 298.66C540.46 298.8 543.27 301.34 543.78 304.33L548.83 333.73C549.09 335.24 548.74 336.63 547.84 337.66C547.01 338.6 545.81 339.12 544.44 339.12V339.11ZM491.37 297.5C490.32 297.5 489.39 297.89 488.74 298.6C488.02 299.4 487.73 300.51 487.91 301.72L492.42 331.12C492.82 333.67 495.2 335.83 497.74 335.95L544.23 338.09C545.4 338.14 546.41 337.75 547.09 336.98C547.79 336.19 548.06 335.09 547.85 333.88L542.8 304.47C542.37 301.92 539.98 299.75 537.47 299.63L491.58 297.49C491.51 297.49 491.44 297.49 491.37 297.49V297.5Z"></path>
<path fill="#02142D" d="M548.186 311.897L547.201 312.069L547.855 315.822L548.84 315.651L548.186 311.897Z"></path>
<path fill="#02142D" d="M491.17 309.37L489.61 299.18C489.38 297.66 489.76 296.26 490.69 295.24C491.58 294.25 492.87 293.74 494.3 293.82L540.15 295.96C543.09 296.1 545.9 298.64 546.42 301.63L547.49 307.9L546.5 308.07L545.43 301.81C544.99 299.26 542.6 297.09 540.1 296.97L494.25 294.83C493.12 294.79 492.11 295.17 491.43 295.93C490.71 296.73 490.42 297.84 490.6 299.05L492.16 309.24L491.17 309.39V309.37Z"></path>
<path fill="#02142D" d="M492.857 313.704L491.869 313.857L492.685 319.125L493.673 318.972L492.857 313.704Z"></path>
<path fill="#02142D" d="M576.39 341.32L567.66 333.96C562.16 329.32 555.49 326.37 548.37 325.42L529.6 322.92C520.52 321.71 512.26 317 506.94 309.99C506.71 309.68 506.47 309.36 506.25 309.04L504.56 306.65L505.38 306.07L507.07 308.46C507.29 308.77 507.52 309.08 507.74 309.38C512.9 316.17 520.92 320.74 529.74 321.92L548.51 324.42C555.82 325.39 562.67 328.43 568.31 333.19L577.04 340.55L576.4 341.31L576.39 341.32Z"></path>
<path fill="white" d="M506.46 309.67C504.34 309.57 502.19 307.75 501.67 305.61C501.41 304.5 501.59 303.49 502.21 302.75C502.79 302.04 503.68 301.69 504.72 301.74C506.84 301.84 508.99 303.66 509.51 305.8C509.77 306.91 509.59 307.92 508.97 308.66C508.39 309.37 507.5 309.72 506.46 309.67Z"></path>
<path fill="#02142D" d="M506.66 310.17C506.59 310.17 506.51 310.17 506.44 310.17C504.11 310.06 501.76 308.06 501.19 305.72C500.89 304.46 501.11 303.29 501.83 302.43C502.51 301.6 503.54 301.17 504.75 301.24C507.08 301.35 509.43 303.35 510 305.69C510.3 306.95 510.08 308.12 509.36 308.98C508.73 309.76 507.78 310.18 506.67 310.18L506.66 310.17ZM504.53 302.23C503.72 302.23 503.04 302.52 502.6 303.06C502.09 303.67 501.94 304.53 502.16 305.48C502.63 307.42 504.57 309.07 506.48 309.16C507.37 309.21 508.1 308.91 508.57 308.33C509.08 307.72 509.23 306.86 509.01 305.91C508.54 303.97 506.6 302.32 504.69 302.23C504.63 302.23 504.58 302.23 504.52 302.23H504.53Z"></path>
<path fill="white" d="M579.84 347.97C577.72 347.87 575.57 346.05 575.05 343.91C574.79 342.8 574.97 341.79 575.59 341.05C576.17 340.34 577.06 339.99 578.1 340.04C580.22 340.14 582.37 341.96 582.89 344.1C583.15 345.21 582.97 346.22 582.35 346.96C581.77 347.67 580.88 348.02 579.84 347.97Z"></path>
<path fill="#02142D" d="M580.04 348.48C579.97 348.48 579.89 348.48 579.82 348.48C577.49 348.37 575.14 346.37 574.57 344.03C574.27 342.77 574.49 341.6 575.21 340.74C575.89 339.91 576.93 339.48 578.13 339.55C580.46 339.66 582.81 341.66 583.38 344C583.68 345.26 583.46 346.43 582.74 347.29C582.1 348.07 581.15 348.49 580.04 348.49V348.48ZM577.91 340.54C577.1 340.54 576.42 340.83 575.98 341.37C575.47 341.98 575.32 342.84 575.54 343.79C576.01 345.73 577.95 347.38 579.86 347.47C580.75 347.5 581.48 347.22 581.96 346.64C582.47 346.03 582.62 345.17 582.4 344.22C581.93 342.28 579.99 340.63 578.08 340.54C578.02 340.54 577.97 340.54 577.91 340.54Z"></path>
<path fill="white" d="M536.79 327.22L540.37 322.47C541 321.64 542.37 321.66 543.43 322.53L549.51 327.46C550.57 328.33 550.93 329.7 550.3 330.53L546.72 335.28C546.09 336.11 544.72 336.09 543.66 335.22L537.58 330.29C536.52 329.42 536.16 328.05 536.79 327.22Z"></path>
<path fill="#02142D" d="M545.39 336.39C544.69 336.39 543.96 336.11 543.34 335.61L537.26 330.68C535.97 329.63 535.59 327.98 536.38 326.92L539.96 322.17C540.29 321.73 540.8 321.45 541.38 321.38C542.16 321.28 543.02 321.56 543.73 322.14L549.81 327.07C551.1 328.12 551.48 329.77 550.69 330.83L547.11 335.58C546.78 336.02 546.27 336.3 545.69 336.37C545.59 336.38 545.49 336.39 545.38 336.39H545.39ZM541.69 322.36C541.63 322.36 541.57 322.36 541.51 322.37C541.29 322.4 540.98 322.49 540.77 322.77L537.19 327.52C536.73 328.12 537.06 329.21 537.9 329.9L543.98 334.83C544.47 335.23 545.08 335.44 545.58 335.38C545.8 335.35 546.11 335.26 546.32 334.98L549.9 330.23C550.36 329.62 550.03 328.53 549.19 327.85L543.11 322.92C542.67 322.56 542.16 322.36 541.69 322.36Z"></path>
<path fill="white" d="M549.54 375.46L563.35 376.11C564 376.14 564.48 375.78 564.57 375.18L568.22 364.88C568.29 364.44 568.14 363.93 567.8 363.47L544.92 329.76C543.97 328.47 542.19 328.38 541.94 329.62L537.73 362.08C537.65 362.51 537.78 363.02 538.1 363.48L547.73 374.39C548.16 375.01 548.87 375.43 549.52 375.45L549.54 375.46ZM546.56 359.67C545.7 356.64 547.44 354.29 550.42 354.43C553.4 354.57 556.52 357.14 557.38 360.18C558.24 363.21 556.5 365.56 553.52 365.42C550.54 365.28 547.42 362.71 546.56 359.67Z"></path>
<path fill="#02142D" d="M563.42 376.6C563.42 376.6 563.35 376.6 563.31 376.6L549.28 375.93C548.55 375.82 547.8 375.35 547.33 374.67L537.73 363.8C537.3 363.19 537.13 362.54 537.24 361.97L541.44 329.55C541.57 328.87 542.02 328.42 542.66 328.28C543.57 328.07 544.66 328.56 545.32 329.46L568.21 363.19C568.62 363.75 568.79 364.38 568.71 364.96L565.04 375.35C564.93 376.08 564.28 376.61 563.43 376.61L563.42 376.6ZM549.77 374.96L563.37 375.6C563.55 375.6 564 375.58 564.08 375.1L567.75 364.71C567.77 364.49 567.66 364.11 567.4 363.76L544.52 330.03C544.05 329.39 543.35 329.15 542.9 329.25C542.65 329.31 542.5 329.46 542.45 329.71L538.25 362.13C538.19 362.46 538.3 362.84 538.54 363.18L548.14 374.05C548.52 374.58 549.08 374.93 549.57 374.94L549.79 374.96H549.77ZM553.76 365.92C553.67 365.92 553.58 365.92 553.49 365.92C550.31 365.78 546.98 363.03 546.07 359.81C545.6 358.16 545.84 356.57 546.72 355.46C547.56 354.4 548.88 353.85 550.43 353.93C553.61 354.07 556.94 356.81 557.85 360.04C558.32 361.69 558.08 363.28 557.2 364.39C556.41 365.39 555.2 365.93 553.76 365.93V365.92ZM550.17 354.92C549.04 354.92 548.1 355.33 547.51 356.08C546.82 356.95 546.65 358.18 547.04 359.54C547.84 362.38 550.76 364.8 553.54 364.92C554.76 364.97 555.79 364.57 556.42 363.77C557.11 362.9 557.28 361.67 556.89 360.31C556.09 357.47 553.17 355.05 550.39 354.93C550.31 354.93 550.24 354.93 550.17 354.93V354.92Z"></path>
<path fill="#02142D" d="M543.468 328.597L542.505 328.867L548.709 350.983L549.672 350.713L543.468 328.597Z"></path>
<path fill="#02142D" d="M554.21 387.09L565.2 387.6C567.21 387.69 568.38 386.11 567.8 384.06L567.43 382.77C566.85 380.72 564.75 378.99 562.74 378.89L551.75 378.38C549.74 378.29 548.57 379.87 549.15 381.92L549.52 383.21C550.1 385.26 552.2 386.99 554.21 387.09Z"></path>
<path fill="#02142D" d="M221.21 222.36C219.4 222.36 217.79 220.89 217.63 219.07C217.55 218.17 217.82 217.31 218.41 216.67C218.99 216.04 219.79 215.69 220.68 215.69C222.49 215.69 224.1 217.16 224.26 218.97C224.34 219.87 224.07 220.73 223.48 221.37C222.9 222 222.1 222.35 221.21 222.35V222.36ZM220.67 216.7C220.07 216.7 219.52 216.93 219.14 217.35C218.75 217.78 218.56 218.36 218.62 218.98C218.74 220.29 219.9 221.36 221.21 221.36C221.81 221.36 222.36 221.13 222.74 220.71C223.13 220.28 223.32 219.7 223.26 219.08C223.14 217.77 221.98 216.7 220.67 216.7Z"></path>
<path fill="#02142D" d="M221.49 225.34C212.78 225.34 205.67 222.59 205.32 219.08C205.23 218.22 205.54 217.38 206.24 216.61C208.38 214.25 213.93 212.72 220.38 212.72C229.13 212.72 236.24 215.47 236.55 218.98C236.63 219.85 236.31 220.68 235.6 221.45C233.45 223.81 227.9 225.33 221.48 225.33L221.49 225.34ZM220.38 213.73C214.29 213.73 208.9 215.16 206.98 217.29C206.48 217.85 206.25 218.42 206.31 218.99C206.57 221.58 212.73 224.35 221.49 224.35C227.55 224.35 232.93 222.92 234.87 220.8C235.38 220.24 235.61 219.67 235.56 219.09C235.33 216.51 229.17 213.74 220.38 213.74V213.73Z"></path>
<path fill="#02142D" d="M228.54 232.99C225.34 232.99 220.15 228.7 215.8 222.21C211.91 216.42 209.84 210.63 210.53 207.46C210.73 206.53 211.17 205.85 211.83 205.45C214.73 203.68 220.99 208.25 226.08 215.86C229.87 221.55 231.96 227.47 231.27 230.61C231.07 231.54 230.63 232.22 229.98 232.62C229.57 232.87 229.08 233 228.55 233L228.54 232.99ZM213.33 206.05C212.95 206.05 212.62 206.13 212.35 206.3C211.93 206.55 211.65 207.01 211.51 207.67C210.88 210.55 212.94 216.16 216.63 221.65C221.74 229.27 227.38 233.03 229.45 231.76C229.86 231.51 230.15 231.04 230.29 230.38C230.92 227.49 228.9 221.88 225.25 216.4C220.79 209.75 215.91 206.04 213.33 206.04V206.05Z"></path>
<path fill="#02142D" d="M215.93 233.01C215.38 233.01 214.87 232.88 214.41 232.63C211.22 230.87 211.56 223.53 215.2 215.92C217.82 210.46 221.51 206.29 224.62 205.29C225.72 204.94 226.69 204.99 227.52 205.44C230.61 207.13 230.35 214.07 226.99 221.44L226.66 222.16C224.03 227.64 220.35 231.81 217.28 232.8C216.81 232.95 216.36 233.03 215.94 233.03L215.93 233.01ZM225.98 206.06C225.65 206.06 225.3 206.12 224.92 206.24C222.11 207.15 218.56 211.21 216.1 216.35C212.81 223.25 212.26 230.3 214.89 231.75C215.46 232.06 216.16 232.09 216.97 231.83C219.62 230.98 222.95 227.25 225.4 222.43L225.75 221.71C229.09 214.8 229.68 207.75 227.04 206.31C226.73 206.14 226.38 206.05 225.99 206.05L225.98 206.06Z"></path>
<path fill="white" d="M260.42 290.61C259.12 291.47 258.7 294.26 261.29 297.37C263.87 300.47 266.24 299.42 267.15 300.97C268.07 302.52 276.46 322.94 279.37 326.31C283.56 331.16 301.78 329.24 305.59 328.72C309.4 328.2 305.11 311.69 305.11 311.69C305.11 311.69 295 316.91 290.07 316.99C283.13 317.11 273.47 299.94 272.8 298.68C272.13 297.42 269.87 290.27 267.52 288.37L261.2 283.6C260.89 283.37 260.43 283.39 260.14 283.64L259.95 283.79C259.8 283.92 259.77 284.13 259.89 284.29L263.58 288.59L260.42 290.6V290.61Z"></path>
<path fill="#02142D" d="M293.44 330.03C287.57 330.03 281.32 329.33 278.99 326.63C276.87 324.18 272.16 313.47 269.05 306.38C267.88 303.73 266.97 301.64 266.72 301.21C266.45 300.74 266 300.6 265.16 300.35C264.04 300.02 262.49 299.58 260.91 297.68C258.87 295.22 258.8 293.24 258.95 292.28C258.95 292.23 258.97 292.18 258.98 292.13L257.67 292.96L259.36 291.06C259.57 290.7 259.84 290.4 260.16 290.18L262.8 288.44L259.52 284.62C259.22 284.22 259.28 283.71 259.64 283.41L259.83 283.25C260.3 282.85 261 282.82 261.5 283.19L267.82 287.96C269.69 289.48 271.37 293.77 272.48 296.6C272.8 297.43 273.08 298.14 273.24 298.43C273.34 298.61 283.17 316.48 290 316.48C290.02 316.48 290.04 316.48 290.07 316.48C294.83 316.4 304.79 311.28 304.89 311.23L305.45 310.94L305.61 311.55C305.97 312.94 309.07 325.19 306.95 328.37C306.63 328.85 306.2 329.13 305.68 329.2C305.23 329.26 299.56 330.02 293.47 330.02L293.44 330.03ZM260.63 291.07C260.27 291.34 260.01 291.83 259.92 292.44C259.72 293.8 260.36 295.48 261.66 297.06C263.05 298.73 264.36 299.11 265.42 299.41C266.27 299.66 267.08 299.89 267.56 300.72C267.84 301.19 268.68 303.1 269.95 305.99C272.85 312.59 277.71 323.64 279.73 325.98C283.25 330.05 298.13 329.23 305.5 328.23C305.64 328.21 305.86 328.15 306.07 327.83C307.58 325.58 305.75 316.46 304.75 312.42C302.53 313.53 294.42 317.42 290.05 317.5C290.02 317.5 290 317.5 289.97 317.5C282.44 317.5 272.43 299.11 272.33 298.92C272.15 298.58 271.89 297.91 271.52 296.98C270.51 294.41 268.83 290.1 267.17 288.76L260.87 284C260.75 283.91 260.55 283.92 260.43 284.02L260.34 284.09L264.3 288.71L260.61 291.06L260.63 291.07Z"></path>
<path fill="white" d="M309.64 407.97L308.12 422.31L311.38 433.09C312.41 436.49 312.7 440.08 312.22 443.6C312.02 445.12 312 446.67 312.17 448.19C312.75 453.31 314.29 467.42 316.39 472.48C308.12 479.36 304.83 472.43 304.83 472.43C304.83 472.43 305.26 466.86 302.72 458.17C300.19 449.48 296.64 440.28 296.14 432.01C295.18 425.88 294.64 425.07 292.06 420.59C291.64 419.86 291.34 419.06 291.23 418.23C291.12 417.4 291.12 416.54 291.33 415.74C292 413.21 293.02 407.98 293.02 407.98H309.65L309.64 407.97Z"></path>
<path fill="#02142D" d="M309.74 476.02C309.3 476.02 308.88 475.97 308.46 475.88C305.64 475.26 304.41 472.74 304.36 472.64L304.3 472.52V472.39C304.31 472.34 304.69 466.8 302.22 458.31C301.62 456.26 300.96 454.15 300.31 452.1C298.19 445.38 296.01 438.42 295.62 432.05C294.7 426.22 294.2 425.36 291.81 421.2L291.61 420.85C291.13 420.01 290.83 419.15 290.71 418.3C290.58 417.3 290.62 416.4 290.82 415.61C291.48 413.12 292.49 407.93 292.5 407.88L292.58 407.48H310.17L310.12 408.03L308.61 422.27L311.84 432.95C312.88 436.4 313.18 440.11 312.7 443.67C312.5 445.15 312.49 446.65 312.65 448.14L312.71 448.67C313.34 454.29 314.83 467.47 316.83 472.29L316.97 472.63L316.69 472.87C314.16 474.97 311.83 476.03 309.73 476.03L309.74 476.02ZM305.33 472.31C305.58 472.75 306.65 474.46 308.7 474.9C310.73 475.34 313.11 474.47 315.79 472.31C313.8 467.11 312.36 454.3 311.74 448.76L311.68 448.23C311.51 446.66 311.52 445.08 311.73 443.52C312.19 440.1 311.91 436.54 310.9 433.22L307.62 422.34L309.09 408.45H293.43C293.18 409.73 292.37 413.73 291.81 415.84C291.64 416.5 291.6 417.27 291.72 418.14C291.82 418.86 292.08 419.59 292.49 420.32L292.69 420.67C295.11 424.86 295.68 425.86 296.63 431.92C297.01 438.22 299.18 445.12 301.28 451.78C301.93 453.83 302.59 455.95 303.19 458.01C305.52 466.01 305.38 471.34 305.33 472.3V472.31Z"></path>
<path fill="#02142D" d="M299.18 425.42L298.5 419.32L295.69 415.16L296.52 414.6L299.47 418.96L300.17 425.31L299.18 425.42Z"></path>
<path fill="white" d="M317.38 473.41C317.68 475.32 318.15 478.88 318.19 482.07C318.22 484.07 316.58 485.76 314.43 486.01C308.34 486.73 294.55 487.51 282.78 486.54C281.97 486.47 280.55 485.93 280.15 484.07C278.82 477.85 290.55 476.32 303.43 471.8C303.93 471.62 304.5 471.73 304.89 472.07L306.28 473.31C307.67 474.55 309.73 474.9 311.51 474.2L315.73 472.54C316.45 472.26 317.26 472.68 317.37 473.4L317.38 473.41Z"></path>
<path fill="#02142D" d="M295.04 487.5C290.96 487.5 286.75 487.37 282.74 487.04C281.58 486.94 280.09 486.14 279.67 484.18C278.55 478.96 285.64 476.82 294.6 474.1C297.39 473.26 300.27 472.38 303.27 471.33C303.93 471.09 304.7 471.24 305.23 471.7L306.62 472.94C307.87 474.06 309.72 474.37 311.33 473.74L315.56 472.08C316.06 471.88 316.62 471.92 317.09 472.19C317.52 472.44 317.8 472.85 317.88 473.32C318.11 474.79 318.65 478.6 318.69 482.05C318.72 484.3 316.91 486.21 314.49 486.5C310.33 487 302.96 487.49 295.04 487.49V487.5ZM303.93 472.22C303.82 472.22 303.71 472.24 303.6 472.28C300.58 473.34 297.68 474.22 294.88 475.06C286.07 477.73 279.71 479.65 280.63 483.97C281.02 485.8 282.51 486.02 282.81 486.04C294.44 487.01 308.33 486.23 314.36 485.52C316.27 485.29 317.7 483.81 317.68 482.08C317.63 478.7 317.11 474.96 316.88 473.5C316.84 473.26 316.67 473.13 316.58 473.08C316.38 472.96 316.14 472.95 315.92 473.03L311.7 474.69C309.74 475.46 307.49 475.07 305.96 473.7L304.58 472.46C304.41 472.31 304.18 472.23 303.95 472.23L303.93 472.22Z"></path>
<path fill="white" d="M315.91 475.08L317.53 468.47C318.3 465.38 318.48 462.16 318.09 459L316.65 447.28C316.38 445.09 316.28 442.88 316.33 440.67L316.5 433.62C316.57 430.94 316.09 428.28 315.11 425.79L314.79 424.97C313.46 422.25 312.72 410.64 312.72 410.64L328.49 411.38C328.49 411.38 328.44 424.13 330.22 431.1C332 438.07 329.78 451.71 327.55 462.24C325.32 472.77 326.36 475.59 326.36 475.59L315.92 475.09L315.91 475.08Z"></path>
<path fill="#02142D" d="M327.06 476.12L326.33 476.09L315.42 475.57V474.97L317.06 468.37C317.81 465.33 318 462.21 317.61 459.08L316.17 447.36C315.9 445.19 315.79 442.94 315.84 440.67L316.01 433.62C316.08 431 315.62 428.43 314.65 425.99L314.33 425.18C312.98 422.44 312.25 411.17 312.22 410.7L312.18 410.14L328.98 410.93V411.41C328.98 411.54 328.95 424.18 330.69 431.01C332.13 436.65 331.23 447.21 328.03 462.37C325.88 472.51 326.81 475.42 326.82 475.45L327.06 476.15V476.12ZM316.54 474.62L325.73 475.06C325.53 473.68 325.38 470.04 327.05 462.14C330.18 447.34 331.1 436.65 329.72 431.23C328.12 424.96 327.99 414.28 327.98 411.86L313.25 411.17C313.42 413.51 314.12 422.49 315.24 424.76L315.58 425.61C316.6 428.18 317.08 430.88 317.01 433.64L316.84 440.69C316.79 442.91 316.9 445.11 317.16 447.23L318.6 458.95C319 462.2 318.81 465.44 318.03 468.6L316.55 474.62H316.54Z"></path>
<path fill="#02142D" d="M324.346 422.683L321.311 430.976L322.25 431.319L325.285 423.027L324.346 422.683Z"></path>
<path fill="#02142D" d="M316.257 421.379L315.343 421.784L317.993 427.773L318.908 427.369L316.257 421.379Z"></path>
<path fill="white" d="M316.68 474.48C319.35 475.5 322.43 474.9 324.41 472.97L325.46 471.96C325.83 471.61 326.45 471.65 326.74 472.06L332.42 479.94C333.44 481.23 333.26 483.17 331.99 484.28C330.34 485.72 327.82 487.65 324.79 489.18C319.07 492.08 314.08 498.34 308.29 496.75C302.5 495.16 302.81 494.91 302.17 493.21C301.53 491.51 304.36 488.09 309.04 484.28C311.9 481.94 314.72 476.87 315.61 474.89C315.78 474.51 316.26 474.33 316.68 474.49V474.48Z"></path>
<path fill="#02142D" d="M310.16 497.5C309.5 497.5 308.83 497.42 308.16 497.23C302.72 495.74 302.41 495.34 301.83 493.72L301.71 493.39C300.77 490.88 305.7 486.36 308.73 483.89C311.46 481.65 314.24 476.72 315.16 474.68C315.42 474.09 316.13 473.79 316.77 473.99L316.87 474.02C319.34 474.97 322.24 474.4 324.07 472.62L325.12 471.61C325.41 471.34 325.8 471.2 326.2 471.24C326.59 471.28 326.93 471.47 327.15 471.78L332.83 479.66C334 481.14 333.78 483.4 332.33 484.66C330.74 486.05 328.18 488.04 325.03 489.63C323.26 490.53 321.52 491.78 319.85 492.99C316.77 495.22 313.59 497.51 310.18 497.51L310.16 497.5ZM316.36 474.92C316.23 474.92 316.11 474.98 316.06 475.08C315.3 476.76 312.45 482.12 309.35 484.66C303.78 489.21 302.25 492.01 302.63 493.03L302.76 493.38C303.2 494.6 303.29 494.86 308.42 496.26C312.15 497.29 315.6 494.8 319.25 492.17C320.96 490.94 322.72 489.66 324.57 488.73C327.63 487.18 330.12 485.24 331.67 483.89C332.73 482.97 332.89 481.33 332.03 480.24L326.34 472.34C326.27 472.24 326.16 472.22 326.11 472.21C326 472.21 325.89 472.23 325.82 472.3L324.78 473.31C322.7 475.34 319.43 476 316.61 474.96L316.51 474.93C316.51 474.93 316.42 474.91 316.37 474.91L316.36 474.92Z"></path>
<path fill="#02142D" d="M312.304 483.479L311.895 484.392L315.528 486.017L315.937 485.104L312.304 483.479Z"></path>
<path fill="#02142D" d="M313.919 481.046L313.512 481.959L317.138 483.577L317.545 482.663L313.919 481.046Z"></path>
<path fill="#02142D" d="M303.3 394.03L301.79 416.54L333.71 418.99L338.34 378.08L334.89 361.17L291.46 370.39L290.88 388.87L289.23 413.81L301.13 414.43"></path>
<path fill="white" d="M334.15 419.52L301.26 417L302.8 394L303.79 394.06L302.32 416.08L333.27 418.45L337.83 378.1L334.5 361.76L291.95 370.8L291.38 388.88L289.76 413.34L301.15 413.93L301.1 414.93L288.7 414.28L290.38 388.84L290.98 369.98L291.36 369.9L335.28 360.57L338.84 378.06L338.83 378.14L334.15 419.52Z"></path>
<path fill="white" d="M329.1 300.41L326.81 291.08L313.32 292.47L311.58 300.98L329.1 300.41Z"></path>
<path fill="#02142D" d="M310.97 301.5L312.9 292.01L327.19 290.53L329.74 300.89L310.97 301.5ZM313.74 292.93L312.2 300.46L328.47 299.93L326.43 291.62L313.74 292.93Z"></path>
<path fill="#00D4AF" d="M294.11 359.29L289.4 382.69L338.64 387.79L342.35 323.95C342.35 323.95 341.73 298.68 328.71 296.31C328.71 296.31 321.19 300.59 315.87 300.47C310.55 300.35 311.8 298 311.8 298L306.19 302.08C300.74 307.62 301.12 309.75 299.39 315.93L294.11 359.3V359.28V359.29Z"></path>
<path fill="#02142D" d="M339.1 388.34L288.8 383.13L293.6 359.24L298.88 315.87C299.2 314.69 299.45 313.71 299.67 312.81C300.7 308.66 301.26 306.37 305.82 301.73L313.24 296.33L312.23 298.24C312.23 298.24 312.06 298.6 312.27 298.95C312.49 299.31 313.24 299.91 315.87 299.97C320.96 300.11 328.37 295.92 328.45 295.88L328.61 295.79L328.79 295.82C334.32 296.82 338.5 302.03 340.89 310.89C342.67 317.48 342.84 323.88 342.85 323.94L339.11 388.34H339.1ZM289.99 382.25L338.16 387.24L341.84 323.92C341.84 323.71 341.09 299.3 328.78 296.84C327.62 297.48 320.86 301.1 315.85 300.97C313.46 300.92 311.96 300.4 311.4 299.44C311.32 299.3 311.26 299.16 311.23 299.03L306.48 302.49C302.17 306.88 301.63 309.07 300.65 313.06C300.43 313.96 300.18 314.95 299.87 316.07L294.93 356.68L295.28 356.02L290.01 382.24L289.99 382.25Z"></path>
<path fill="white" d="M308.79 346.77L326.18 328.94L310.49 324.13L306.17 329.94C306.17 329.94 300.9 327.18 294.27 326.62C287.98 326.1 281.59 323.3 281.59 323.3L275.8 320.79C275.8 320.79 267.81 315.33 265.08 314.68C263.26 314.89 259.65 318.72 259.65 318.72C259.65 318.72 259.57 327.27 261.84 329.07C264.31 331.02 272.97 328.37 272.97 328.37L308.79 346.77Z"></path>
<path fill="#02142D" d="M308.89 347.39L272.92 328.92C271.39 329.37 263.99 331.42 261.53 329.47C259.14 327.58 259.14 319.63 259.15 318.73V318.53L259.29 318.39C259.67 317.99 263.08 314.43 265.03 314.2H265.12L265.21 314.21C268 314.88 275.77 320.17 276.09 320.4L281.8 322.86C281.87 322.89 288.19 325.63 294.33 326.14C300.04 326.62 304.7 328.67 306.04 329.32L310.32 323.56L327.13 328.72L308.91 347.4L308.89 347.39ZM273.02 327.84L308.69 346.16L325.25 329.18L310.68 324.71L306.32 330.58L305.94 330.38C305.89 330.35 300.68 327.66 294.23 327.12C287.93 326.6 281.65 323.88 281.39 323.76L275.6 321.25C275.44 321.15 267.75 315.91 265.05 315.19C263.86 315.41 261.49 317.52 260.14 318.92C260.14 321.37 260.49 327.36 262.14 328.67C263.99 330.13 270.47 328.6 272.81 327.89L273 327.83L273.02 327.84Z"></path>
<path fill="#00D4AF" d="M306.07 325.11L315.36 310.47C317.16 307.63 320.11 305.76 323.44 305.34C326.77 304.91 330.1 305.99 332.55 308.28C336.6 312.05 337.3 318.14 334.24 322.75L324.6 337.24L306.08 325.12L306.07 325.11Z"></path>
<path fill="#02142D" d="M324.74 337.93L305.7 325.45L305.45 325.17L305.64 324.84L314.93 310.2C316.81 307.24 319.88 305.28 323.36 304.84C326.84 304.4 330.31 305.51 332.88 307.91C337.1 311.85 337.84 318.2 334.65 323.02L324.74 337.93ZM306.75 324.96L324.46 336.55L333.83 322.47C336.76 318.06 336.08 312.25 332.21 308.64C329.86 306.45 326.69 305.42 323.5 305.83C320.32 306.24 317.5 308.03 315.78 310.74L306.75 324.96Z"></path>
<path fill="white" d="M314.67 293.66L309.03 293.61L307.43 291.53L307.34 276.14C307.34 276.14 308.16 261.94 320.4 263.82C332.64 265.71 333.45 275.8 332.94 278.17C331.72 283.85 327.39 287.08 326.79 291.18"></path>
<path fill="#02142D" d="M314.67 294.16L308.79 294.11L306.94 291.7L306.85 276.14C306.87 275.82 307.31 268.95 311.81 265.31C314.1 263.46 317.02 262.79 320.48 263.33C325.31 264.08 328.91 266.13 331.19 269.43C333.49 272.77 333.79 276.63 333.44 278.28C332.78 281.33 331.24 283.71 329.89 285.81C328.64 287.74 327.57 289.4 327.3 291.25L326.31 291.1C326.61 289.04 327.8 287.2 329.05 285.26C330.43 283.13 331.85 280.94 332.47 278.06C332.74 276.81 332.58 273.19 330.38 269.99C328.27 266.92 324.89 265.01 320.34 264.31C317.17 263.82 314.51 264.42 312.45 266.08C308.29 269.44 307.86 276.1 307.85 276.16L307.93 291.35L309.28 293.11L314.67 293.16V294.16Z"></path>
<path fill="#02142D" d="M318.96 291.54C322.34 291.22 327.4 292.37 327.4 292.37C327.4 292.37 327.83 289.75 328.9 288.59C329.97 287.43 334.04 283.06 334.01 278.37C333.98 273.69 331.62 267.92 326.5 265.96C319.69 263.34 315.25 263.36 311.52 268.69L313.49 271.72L312.5 274.35C312.5 274.35 314.89 276.89 314.39 278.8C315.13 279.44 315.5 279.88 315.5 279.88C315.5 279.88 316.09 276.39 318.48 278.93C320.27 280.96 317.55 284.45 317.55 284.45"></path>
<path fill="#02142D" d="M331.75 280.9L333 280.68C333.94 280.86 334.89 280.68 335.65 280.21H335.68V280.18C336.48 279.69 337.1 278.9 337.35 277.91C337.67 276.64 337.32 275.37 336.5 274.46C337.04 273.89 337.46 273.19 337.66 272.38C338.31 269.83 336.77 267.24 334.22 266.59C334.1 266.56 333.98 266.56 333.86 266.54C333.64 263.79 331.7 261.35 328.87 260.62C327.48 260.26 326.08 260.38 324.84 260.87C323.88 259.55 322.48 258.56 320.78 258.12C316.9 257.13 312.97 259.48 311.98 263.35C311.83 263.95 311.76 264.56 311.77 265.15C309.97 264.72 308.63 265.61 308.06 266.77C308.06 266.77 306.45 269.52 310.21 272.1L312.51 274.35C312.51 274.35 317.47 272.33 322.64 273.87C327.61 275.36 329.08 277.64 330.34 279.54L331.73 280.88H331.75V280.9Z"></path>
<path fill="#02142D" d="M333.25 283.85C334.426 283.85 335.38 282.896 335.38 281.72C335.38 280.543 334.426 279.59 333.25 279.59C332.074 279.59 331.12 280.543 331.12 281.72C331.12 282.896 332.074 283.85 333.25 283.85Z"></path>
<path fill="#02142D" d="M331.41 286.42C332.459 286.42 333.31 285.569 333.31 284.52C333.31 283.471 332.459 282.62 331.41 282.62C330.361 282.62 329.51 283.471 329.51 284.52C329.51 285.569 330.361 286.42 331.41 286.42Z"></path>
<path fill="#02142D" d="M330.18 287.98C330.876 287.98 331.44 287.416 331.44 286.72C331.44 286.024 330.876 285.46 330.18 285.46C329.484 285.46 328.92 286.024 328.92 286.72C328.92 287.416 329.484 287.98 330.18 287.98Z"></path>
<path fill="#02142D" d="M308.97 293.91L306.09 291.29L306.36 287.71L310.78 287.04L313.79 280.56L314.87 281.53L313.34 292.31L312.92 293.97L308.97 293.91Z"></path>
<path fill="#02142D" d="M298.323 474.371L297.452 474.863L299.297 478.128L300.168 477.636L298.323 474.371Z"></path>
<path fill="#02142D" d="M295.666 475.288L294.78 475.751L296.015 478.118L296.902 477.655L295.666 475.288Z"></path>
<path fill="white" d="M145.24 351.65C132.97 349.94 105.41 346.79 88.8 348.62C74.91 350.15 69.04 353.16 66.84 355.32C65.98 356.17 65.9 357.63 66.62 358.63C69.06 361.99 75.91 370.99 80.46 373.08C81.17 373.4 82.85 373.71 85.27 374.01L125.95 376.28"></path>
<path fill="#02142D" d="M125.92 376.77L85.24 374.5C82.55 374.17 80.98 373.86 80.25 373.53C75.62 371.4 68.89 362.6 66.21 358.92C65.34 357.72 65.46 355.98 66.48 354.96C68.35 353.11 73.74 349.77 88.73 348.12C106.76 346.14 136.59 349.94 145.3 351.16L145.16 352.15C138.98 351.29 107.21 347.1 88.84 349.12C74.14 350.74 68.96 353.92 67.18 355.68C66.51 356.35 66.43 357.54 67.01 358.34C69.06 361.16 76.12 370.54 80.65 372.63C81.27 372.91 82.83 373.21 85.31 373.51L125.95 375.78L125.89 376.78L125.92 376.77Z"></path>
<path fill="black" d="M154.96 377.94L149.98 377.74L150.02 376.74C152.85 376.86 154.19 376.92 154.82 377.01V376.95C154.82 376.95 158.27 376.42 161.44 374.82L161.89 375.71C158.57 377.38 155.1 377.91 154.95 377.93L154.96 377.94ZM145.97 377.57L141.96 377.4L142 376.4L146.01 376.57L145.97 377.57ZM137.96 377.24C131.25 376.96 127.32 376.81 125.94 376.77L125.97 375.77C127.36 375.81 131.29 375.97 138 376.24L137.96 377.24ZM165.31 373.39L164.62 372.67C165.6 371.73 166.27 370.68 166.61 369.56L167.57 369.85C167.18 371.14 166.42 372.34 165.31 373.4V373.39ZM166.33 365.86C165.79 363.15 164.99 362.23 163.16 362.23C159.98 362.23 158.25 361.83 158.18 361.82L157.84 361.74L157.8 361.39C157.8 361.39 157.76 361.01 157.61 360.41L158.58 360.17C158.65 360.47 158.7 360.72 158.74 360.91C159.37 361.02 160.88 361.23 163.16 361.23C165.88 361.23 166.78 363.01 167.31 365.67L166.33 365.86ZM156.12 356.89C155.41 355.78 154.52 354.87 153.49 354.2L154.04 353.36C155.19 354.11 156.17 355.12 156.96 356.35L156.12 356.89ZM150 352.87H149.97C148.89 352.69 147.25 352.44 145.18 352.15L145.32 351.16C147.4 351.45 149.04 351.7 150.12 351.88L150 352.87Z"></path>
<path fill="#02142D" d="M120.38 364.74C120.31 364.72 112.93 362.74 89.45 362.74C71.48 362.74 67.93 359.54 67.79 359.41L68.48 358.68C68.48 358.68 72.08 361.74 89.45 361.74C113.13 361.74 120.35 363.69 120.65 363.77L120.38 364.73V364.74Z"></path>
<path fill="white" d="M91.71 354.64C91.71 354.64 101.67 350.63 105.92 350.09C110.17 349.55 118.92 352.36 118.92 352.36C118.92 352.36 137.88 347.01 139.7 343.13C134.12 342.33 118.92 340.32 114.43 341.52C109.93 342.72 96.7 350.08 96.7 350.08L91.71 354.63V354.64Z"></path>
<path fill="#02142D" d="M91.61 355.22L90.95 354.64L96.44 349.65C96.98 349.35 109.78 342.24 114.29 341.04C118.81 339.83 133.61 341.75 139.76 342.63L140.43 342.73L140.14 343.34C138.28 347.32 121.01 352.29 119.05 352.84L118.91 352.88L118.77 352.83C118.68 352.8 110.08 350.07 105.99 350.58C101.85 351.1 92 355.06 91.9 355.1L91.61 355.22ZM96.99 350.49L94 353.21C97.25 351.98 102.88 349.97 105.86 349.59C109.92 349.08 117.73 351.46 118.93 351.83C123.91 350.42 136.13 346.45 138.83 343.5C133.31 342.73 118.79 340.87 114.56 342C110.31 343.13 97.89 349.99 96.99 350.49Z"></path>
<path fill="#02142D" d="M115.58 358.73C114.46 358.73 113.13 358.62 111.56 358.34C109.24 357.92 107.1 357.43 105.02 356.95C101.18 356.06 97.54 355.23 93.78 355.14L93.8 354.14C97.67 354.23 101.34 355.08 105.24 355.98C107.3 356.46 109.44 356.95 111.73 357.36C116.8 358.27 119.18 357.28 119.91 356.86L118.45 352.53L119.4 352.21L121.09 357.2L120.85 357.42C120.78 357.49 119.36 358.74 115.58 358.74V358.73Z"></path>
<path fill="white" d="M121.63 360.96C118.62 360.85 116.51 360.78 116.51 360.78C116.51 360.78 77.25 358.87 69.9 357.27C62.56 355.67 78.41 351.21 78.41 351.21"></path>
<path fill="#02142D" d="M121.61 361.46C118.6 361.35 116.49 361.28 116.49 361.28C114.88 361.2 77.09 359.35 69.79 357.76C68.8 357.55 67.49 357.14 67.46 356.15C67.4 354.03 75 351.65 78.28 350.73L78.55 351.69C73.15 353.21 68.44 355.28 68.46 356.11C68.46 356.18 68.73 356.5 70.01 356.78C77.23 358.35 116.14 360.26 116.54 360.28C116.54 360.28 118.65 360.35 121.65 360.46L121.61 361.46Z"></path>
<path fill="black" d="M144.02 369.61V369.56C144.02 368.85 143.83 362.6 137.21 362.16L137.28 361.16C144.81 361.66 145.03 368.75 145.03 369.56L144.03 369.61H144.02ZM133.22 361.94C131.93 361.88 130.57 361.82 129.22 361.76L129.26 360.76C130.61 360.82 131.96 360.88 133.26 360.94L133.21 361.94H133.22ZM125.23 361.59C123.94 361.54 122.72 361.49 121.61 361.46L121.65 360.46C122.75 360.5 123.98 360.54 125.27 360.59L125.23 361.59Z"></path>
<path fill="black" d="M151.46 371.82L142.96 371.29L143.02 370.29L151.32 370.81C151.66 370.69 152.9 370.23 154.52 369.51L154.92 370.42C152.98 371.28 151.61 371.76 151.55 371.78L151.45 371.81L151.46 371.82ZM158.56 368.66L158.09 367.78C159.35 367.11 160.48 366.42 161.47 365.74L162.04 366.56C161.03 367.26 159.86 367.97 158.57 368.66H158.56ZM165.17 363.92L164.45 363.22H164.46L165.17 363.92Z"></path>
<path fill="black" d="M148.36 369.43L147.96 368.51C154.01 365.86 157.62 361.95 157.65 361.91L158.39 362.58C158.24 362.75 154.61 366.69 148.36 369.43Z"></path>
<path fill="#02142D" d="M125.55 372.01C125.55 372.01 117 363.54 98.02 364.26C79.04 364.97 76.19 362.7 69.99 361.08C73.33 363.46 74.61 367.19 93.39 367.44C112.17 367.69 113.69 371.99 113.69 371.99L125.55 372.02V372.01Z"></path>
<path fill="black" d="M139.46 368.68C139.04 368.68 138.78 368.66 138.78 368.66L138.28 368.63L138.33 367.63L138.85 367.66C138.85 367.66 139.72 367.74 140.89 367.59C140.32 367.61 139.64 367.61 138.85 367.54C137.13 367.4 132.72 366.9 129.32 366.5L129.44 365.51C132.83 365.91 137.23 366.41 138.94 366.55C139.9 366.63 140.69 366.62 141.31 366.57L141.39 367.52C141.64 367.47 141.89 367.41 142.13 367.33L142.44 368.28C141.4 368.62 140.25 368.69 139.48 368.69L139.46 368.68ZM134.28 368.41L125.33 367.92L121.88 364.75H123.16L125.44 365.02L125.32 366.01L124.64 365.93L125.74 366.94L134.33 367.41L134.28 368.41Z"></path>
<path fill="#02142D" d="M104.56 356.55L103.77 355.93C104.03 355.6 104.17 355.13 104.17 354.63C104.17 353.73 103.69 352.97 103.12 352.97C102.55 352.97 102.07 353.73 102.07 354.63C102.07 354.94 102.13 355.24 102.24 355.51L101.31 355.89C101.15 355.5 101.07 355.07 101.07 354.63C101.07 353.14 101.97 351.97 103.12 351.97C104.27 351.97 105.17 353.14 105.17 354.63C105.17 355.36 104.95 356.04 104.55 356.55H104.56Z"></path>
<path fill="#02142D" d="M111.84 357.92L110.87 357.68L111.88 353.56C111.92 353.41 111.86 353.28 111.8 353.21C111.76 353.17 111.71 353.12 111.62 353.13L109.04 353.51C108.94 353.52 108.85 353.62 108.83 353.75L108.09 357.12L107.11 356.91L107.85 353.53C107.97 352.99 108.39 352.59 108.9 352.52L111.48 352.14C111.88 352.08 112.27 352.22 112.55 352.53C112.86 352.87 112.97 353.34 112.87 353.79L111.86 357.91L111.84 357.92Z"></path>
<path fill="#02142D" d="M109.62 353.08L108.65 352.84L108.96 351.58C109.06 351.21 109.36 350.95 109.74 350.89L111.24 350.69C111.54 350.65 111.87 350.76 112.08 351C112.28 351.23 112.35 351.55 112.26 351.84L112 352.77L111.04 352.5L111.27 351.69L109.88 351.87L109.62 353.07V353.08Z"></path>
<path fill="#02142D" d="M120.5 356.597L120.441 357.596L132.509 358.317L132.569 357.319L120.5 356.597Z"></path>
</svg>
