<svg width="79" height="26" viewBox="0 0 79 26" fill="none" xmlns="http://www.w3.org/2000/svg">
<path d="M9.71331 0H10.4124C12.8394 0.0527612 15.2268 1.02884 16.9416 2.75677C16.3085 3.40309 15.6621 4.02304 15.0422 4.66936C14.0793 3.7988 12.9185 3.1261 11.6523 2.88867C9.77926 2.49296 7.76114 2.8491 6.1915 3.91752C4.47676 5.03869 3.31602 6.93809 3.0654 8.9694C2.7884 10.9743 3.35559 13.0848 4.66142 14.6412C5.9145 16.1581 7.82709 17.1078 9.80564 17.1738C11.6523 17.2793 13.5781 16.7121 14.9235 15.4194C15.9787 14.5093 16.4667 13.1243 16.625 11.7789C14.4354 11.7789 12.2458 11.7921 10.0563 11.7789V9.06173H19.2763C19.7511 11.9768 19.0652 15.2612 16.8493 17.3452C15.3719 18.8225 13.3274 19.6931 11.2434 19.8646C9.22526 20.0624 7.1412 19.6799 5.34732 18.7038C3.1973 17.5563 1.48257 15.6173 0.638387 13.3354C-0.15303 11.2381 -0.16622 8.86387 0.572436 6.75343C1.24514 4.82765 2.53779 3.1261 4.19976 1.93897C5.79579 0.765037 7.73476 0.118713 9.71331 0Z" fill="black"/>
<path d="M62.6055 0.685913H65.4282V19.5216C64.4917 19.5216 63.542 19.5348 62.6055 19.5085C62.6187 13.2431 62.6055 6.96449 62.6055 0.685913Z" fill="black"/>
<path fillRule="evenodd" clipRule="evenodd" d="M30.6207 8.29663C29.1829 7.2546 27.2967 6.88527 25.5556 7.21503C23.366 7.59755 21.427 9.21995 20.7411 11.3436C20.0552 13.3221 20.3586 15.6436 21.6117 17.332C22.7197 18.8621 24.5399 19.7986 26.413 19.9041C28.4575 20.036 30.5547 19.1654 31.8342 17.543C33.0213 16.0921 33.4698 14.0872 33.1136 12.2537C32.8366 10.6709 31.9265 9.21995 30.6207 8.29663ZM24.1047 10.8951C24.5795 10.3147 25.239 9.90585 25.9513 9.72118C27.0857 9.431 28.3387 9.76076 29.1961 10.5522C30.5283 11.7789 30.779 13.9421 29.9084 15.5117C29.4072 16.435 28.497 17.1341 27.455 17.3188C26.3338 17.543 25.1203 17.1605 24.3157 16.3427C22.9044 14.9182 22.8252 12.4252 24.1047 10.8951Z" fill="black"/>
<path fillRule="evenodd" clipRule="evenodd" d="M45.1945 8.78479C43.704 7.38662 41.5276 6.83263 39.5358 7.21515C37.3858 7.58447 35.4864 9.15412 34.7609 11.2118C34.0355 13.2299 34.3125 15.6042 35.5919 17.3321C36.7263 18.9017 38.6125 19.8514 40.5251 19.9042C42.53 19.9965 44.5613 19.126 45.8144 17.5431C47.8853 15.037 47.6215 10.9612 45.1945 8.78479ZM38.0849 10.882C38.5597 10.3149 39.2193 9.90597 39.9315 9.7213C41.0527 9.43111 42.3058 9.74768 43.1632 10.5391C44.5086 11.7658 44.7592 13.929 43.9018 15.5118C43.4006 16.4352 42.4773 17.1211 41.4484 17.3189C40.2877 17.5563 39.0346 17.1342 38.23 16.2769C36.8714 14.8391 36.8186 12.3857 38.0849 10.882Z" fill="black"/>
<path fillRule="evenodd" clipRule="evenodd" d="M56.5669 7.5844C54.9313 6.7666 52.9132 7.0304 51.3963 7.98011C49.5629 9.10128 48.3494 11.1722 48.3098 13.3222C48.2307 15.2216 49.0748 17.1342 50.4994 18.3741C51.9108 19.6139 53.9289 20.2471 55.7623 19.7327C56.6065 19.5348 57.3056 19.0072 57.9123 18.4136C57.9519 19.6403 57.9519 21.0121 57.1341 22.0146C56.3691 22.9907 55.0105 23.2808 53.8365 23.0698C52.6626 22.8588 51.7261 21.9354 51.2644 20.8538C50.9545 20.9888 50.6428 21.1162 50.3319 21.2431C49.8225 21.4512 49.3157 21.6583 48.8242 21.8959C49.6156 23.7821 51.3963 25.2726 53.4408 25.5759C55.3534 25.8661 57.4771 25.4309 58.862 24.0195C60.1283 22.74 60.5768 20.8802 60.59 19.1259V7.49206C60.1415 7.48547 59.6963 7.48547 59.2528 7.48547C58.8093 7.48547 58.3674 7.48547 57.9255 7.47887C57.9189 7.66354 57.9189 7.8482 57.9189 8.03122C57.9189 8.21423 57.9189 8.3956 57.9123 8.57367C57.5034 8.19115 57.0813 7.80863 56.5669 7.5844ZM52.0558 10.8688C52.5703 10.2488 53.3221 9.80036 54.1267 9.66846C55.2215 9.47061 56.3823 9.87951 57.1077 10.7105C58.2817 12.0559 58.4268 14.1532 57.5562 15.6964C57.0418 16.6066 56.0789 17.2661 55.0368 17.3716C53.9289 17.4903 52.7813 17.0155 52.069 16.1581C50.816 14.7072 50.816 12.3461 52.0558 10.8688Z" fill="black"/>
<path fillRule="evenodd" clipRule="evenodd" d="M74.8746 7.45255C72.8433 6.67432 70.4031 7.17555 68.8202 8.65286C66.3536 10.9348 66.1426 15.1821 68.3322 17.7146C69.6644 19.3238 71.854 20.1152 73.9117 19.8646C75.7715 19.6931 77.4994 18.6115 78.5283 17.0683C78.1655 16.8242 77.8028 16.5835 77.4401 16.3428C77.0773 16.1021 76.7146 15.8614 76.3519 15.6173C76.0617 15.9867 75.7583 16.3692 75.3758 16.6594C74.4129 17.4244 73.0411 17.5695 71.8936 17.1606C71.0758 16.8836 70.469 16.1977 70.0733 15.4459C71.5044 14.8523 72.9323 14.262 74.3601 13.6718C75.788 13.0815 77.2158 12.4912 78.647 11.8977C78.0271 10.0115 76.8004 8.17801 74.8746 7.45255ZM69.6116 13.309C69.5985 12.5308 69.7831 11.7394 70.2316 11.0931C70.9307 10.0642 72.2365 9.39152 73.4896 9.61576C74.2678 9.73447 75.0329 10.1829 75.3494 10.9216C73.4369 11.7262 71.5244 12.5175 69.6119 13.3089L69.6116 13.309Z" fill="black"/>
</svg>
