<svg width="600" height="400" viewBox="0 0 600 400" fill="none" xmlns="http://www.w3.org/2000/svg">
<path d="M309.049 116.864C308.912 116.943 307.695 114.92 305.24 111.448C304.015 109.713 302.467 107.624 300.544 105.305C298.38 102.682 296.023 100.224 293.493 97.952C292.035 96.6365 290.48 95.4327 288.841 94.351C287.125 93.1798 285.216 92.3215 283.202 91.816C282.205 91.5751 281.166 91.5603 280.162 91.7728C279.182 92.0126 278.311 92.5727 277.685 93.3644C277.018 94.23 276.553 95.234 276.324 96.3027C276.05 97.4522 275.905 98.6285 275.892 99.8101C275.893 102.327 276.168 104.836 276.713 107.293C277.265 109.887 277.987 112.442 278.873 114.941C282.71 125.512 288.378 135.324 295.618 143.929C297.338 145.949 299.185 147.856 301.149 149.64C303.005 151.342 305.041 152.837 307.22 154.098C308.253 154.674 309.344 155.137 310.475 155.481C311.517 155.812 312.618 155.91 313.702 155.769C314.701 155.621 315.622 155.142 316.316 154.408C317.004 153.65 317.511 152.746 317.8 151.765C318.369 149.767 318.579 147.685 318.419 145.614C318.313 143.655 318.055 141.707 317.648 139.788C316.936 136.46 315.973 133.191 314.768 130.008C313.723 127.185 312.686 124.801 311.8 122.871C310.022 119.003 308.876 116.943 309.013 116.864C309.408 117.285 309.747 117.754 310.022 118.261C310.612 119.219 311.462 120.652 312.456 122.546C313.45 124.441 314.616 126.803 315.747 129.626C317.064 132.832 318.122 136.139 318.909 139.514C319.371 141.492 319.679 143.502 319.831 145.528C320.037 147.78 319.84 150.05 319.247 152.233C318.9 153.446 318.285 154.566 317.447 155.51C316.522 156.512 315.286 157.175 313.939 157.389C312.617 157.59 311.266 157.494 309.986 157.108C308.734 156.743 307.526 156.241 306.385 155.61C304.073 154.311 301.913 152.758 299.946 150.98C297.899 149.157 295.974 147.201 294.185 145.124C286.76 136.392 280.978 126.388 277.116 115.597C276.22 113.007 275.498 110.36 274.956 107.675C274.396 105.072 274.128 102.415 274.156 99.7525C274.184 98.4433 274.358 97.1413 274.675 95.8706C274.977 94.5571 275.567 93.3272 276.403 92.2697C277.268 91.2151 278.459 90.4779 279.788 90.1739C281.026 89.9178 282.307 89.9449 283.533 90.2531C285.717 90.8316 287.78 91.7949 289.626 93.0979C291.304 94.2441 292.893 95.5153 294.379 96.9005C296.916 99.2923 299.257 101.884 301.379 104.65C303.252 107.062 304.721 109.23 305.866 111.038C307.011 112.846 307.832 114.3 308.358 115.294C308.656 115.785 308.889 116.313 309.049 116.864Z" fill="#A0BDFF"/>
<path d="M286.81 116.821C286.939 116.9 285.773 118.866 283.929 122.583C283.022 124.426 281.956 126.709 280.883 129.417C279.658 132.47 278.678 135.615 277.951 138.823C277.533 140.671 277.263 142.549 277.145 144.44C276.976 146.437 277.172 148.448 277.721 150.375C278.008 151.326 278.5 152.204 279.161 152.946C279.832 153.66 280.708 154.148 281.668 154.343C282.706 154.544 283.775 154.515 284.8 154.256C285.913 154 286.991 153.613 288.013 153.104C290.184 152.01 292.221 150.669 294.084 149.107C296.058 147.472 297.921 145.706 299.658 143.821C306.976 135.782 312.746 126.46 316.676 116.324C317.589 113.927 318.337 111.47 318.916 108.971C319.482 106.612 319.775 104.195 319.787 101.769C319.784 100.629 319.649 99.493 319.384 98.3841C319.158 97.351 318.708 96.38 318.066 95.5393C317.461 94.7656 316.631 94.1993 315.689 93.9189C314.731 93.6627 313.728 93.6185 312.751 93.7893C310.783 94.1565 308.897 94.8763 307.184 95.9138C305.547 96.8691 303.987 97.9502 302.517 99.1475C299.973 101.231 297.596 103.512 295.409 105.968C293.464 108.128 291.894 110.109 290.648 111.729C288.157 114.999 286.918 116.922 286.788 116.843C286.95 116.307 287.193 115.799 287.508 115.337C288.049 114.394 288.877 113.011 290.051 111.304C291.469 109.218 292.99 107.204 294.609 105.269C296.756 102.688 299.117 100.293 301.667 98.1104C303.161 96.8283 304.758 95.6721 306.442 94.6535C308.299 93.4841 310.354 92.664 312.506 92.2337C313.702 92.0183 314.93 92.0625 316.107 92.3633C317.372 92.722 318.494 93.4644 319.319 94.4879C320.121 95.5056 320.694 96.6849 320.997 97.9448C321.303 99.18 321.468 100.446 321.487 101.719C321.517 104.274 321.248 106.824 320.688 109.317C320.107 111.901 319.349 114.442 318.419 116.922C314.444 127.297 308.543 136.827 301.026 145.009C299.232 146.949 297.307 148.763 295.265 150.439C293.274 152.075 291.099 153.472 288.783 154.602C287.635 155.155 286.427 155.574 285.182 155.848C283.921 156.143 282.611 156.158 281.344 155.891C280.06 155.611 278.895 154.939 278.009 153.968C277.207 153.045 276.615 151.959 276.273 150.785C275.701 148.675 275.518 146.479 275.733 144.303C275.894 142.34 276.217 140.394 276.698 138.484C277.513 135.227 278.602 132.044 279.954 128.971C280.96 126.659 282.083 124.399 283.317 122.201C284.325 120.386 285.189 119.032 285.794 118.125C286.399 117.217 286.752 116.785 286.81 116.821Z" fill="#A0BDFF"/>
<path d="M296.511 108.532C296.511 108.69 294.221 108.726 290.123 109.122C288.077 109.324 285.578 109.626 282.712 110.13C279.472 110.702 276.281 111.525 273.169 112.593C271.379 113.212 269.641 113.97 267.97 114.862C266.182 115.764 264.574 116.984 263.224 118.463C262.564 119.204 262.072 120.078 261.783 121.027C261.529 121.978 261.575 122.984 261.913 123.908C262.292 124.895 262.879 125.789 263.634 126.529C264.442 127.334 265.338 128.044 266.306 128.646C268.377 129.917 270.589 130.944 272.896 131.707C275.328 132.529 277.814 133.184 280.335 133.666C291.019 135.664 301.981 135.664 312.665 133.666C315.186 133.186 317.672 132.534 320.104 131.715C322.414 130.953 324.628 129.926 326.701 128.654C327.669 128.051 328.566 127.341 329.373 126.536C330.128 125.796 330.716 124.902 331.094 123.915C331.432 122.991 331.478 121.985 331.224 121.034C330.935 120.085 330.443 119.211 329.784 118.47C328.433 116.992 326.825 115.771 325.038 114.869C323.369 113.972 321.63 113.213 319.838 112.601C316.726 111.532 313.535 110.709 310.295 110.138C307.414 109.633 304.93 109.331 302.885 109.129C298.787 108.733 296.496 108.697 296.504 108.539C297.044 108.399 297.602 108.34 298.16 108.366C299.248 108.33 300.861 108.308 302.935 108.402C305.009 108.496 307.537 108.69 310.461 109.122C313.785 109.588 317.064 110.335 320.263 111.355C322.138 111.956 323.961 112.707 325.715 113.602C327.688 114.563 329.467 115.879 330.965 117.484C331.784 118.39 332.395 119.464 332.758 120.631C333.116 121.894 333.076 123.237 332.643 124.477C332.201 125.696 331.498 126.805 330.583 127.725C329.698 128.639 328.706 129.444 327.63 130.123C325.453 131.492 323.123 132.602 320.688 133.429C318.184 134.295 315.624 134.985 313.025 135.496C302.108 137.589 290.892 137.589 279.975 135.496C277.376 134.985 274.816 134.295 272.312 133.429C269.877 132.602 267.547 131.492 265.37 130.123C264.295 129.442 263.304 128.637 262.417 127.725C261.5 126.806 260.797 125.697 260.357 124.477C259.924 123.237 259.884 121.894 260.242 120.631C260.606 119.465 261.218 118.391 262.035 117.484C263.533 115.879 265.313 114.564 267.285 113.602C269.037 112.705 270.861 111.956 272.737 111.362C275.934 110.336 279.214 109.587 282.539 109.122C285.463 108.704 287.998 108.51 290.065 108.402C292.132 108.294 293.752 108.33 294.84 108.366C295.402 108.338 295.965 108.394 296.511 108.532Z" fill="#A0BDFF"/>
<path d="M304.229 124.886C304.764 121.6 302.533 118.503 299.247 117.969C295.961 117.434 292.864 119.664 292.329 122.95C291.795 126.236 294.025 129.334 297.311 129.868C300.597 130.403 303.694 128.172 304.229 124.886Z" fill="#A0BDFF"/>
<path fillRule="evenodd" clipRule="evenodd" d="M489.416 116.744C492.652 118.433 495.649 120.545 498.328 123.024L507.856 119.64L516.8 133.768L509.672 140.968C510.77 144.45 511.397 148.064 511.536 151.712L520.672 156.048L517.008 172.368H506.904C505.213 175.607 503.098 178.607 500.616 181.288L504.008 190.808L489.88 199.76L482.68 192.632C479.217 193.718 475.626 194.342 472 194.488L467.664 203.624L451.336 199.96V189.856C448.091 188.166 445.086 186.051 442.4 183.568L432.872 186.96L423.92 172.832L431.056 165.632C429.963 162.148 429.333 158.536 429.184 154.888L420 150.584L423.664 134.264H433.768C435.457 131.024 437.572 128.024 440.056 125.344L436.664 115.824L450.792 106.872L457.992 114C461.475 112.905 465.088 112.279 468.736 112.136L473.072 103L489.392 106.664V116.768L489.416 116.744ZM475.016 135.944C471.553 135.171 467.939 135.442 464.63 136.723C461.321 138.004 458.466 140.237 456.426 143.14C454.385 146.043 453.252 149.486 453.168 153.033C453.084 156.58 454.054 160.073 455.954 163.069C457.855 166.065 460.601 168.431 463.846 169.866C467.091 171.302 470.688 171.744 474.184 171.135C477.68 170.527 480.916 168.896 483.485 166.448C486.054 164 487.84 160.846 488.616 157.384C489.131 155.084 489.188 152.706 488.784 150.384C488.379 148.062 487.521 145.843 486.259 143.853C484.997 141.863 483.355 140.14 481.427 138.785C479.5 137.429 477.324 136.467 475.024 135.952L475.016 135.944Z" fill="#E0E0E0"/>
<path d="M364.008 170.576C365.097 170.732 366.154 171.064 367.136 171.56C369.887 172.877 372.095 175.108 373.384 177.872C374.286 179.777 374.722 181.869 374.656 183.976C374.582 186.405 373.858 188.77 372.56 190.824C371.113 193.095 369.025 194.885 366.56 195.968C363.909 197.141 360.952 197.432 358.124 196.798C355.295 196.165 352.745 194.64 350.848 192.448C349.097 190.415 347.984 187.91 347.648 185.248C347.343 182.84 347.691 180.395 348.656 178.168C349.5 176.236 350.788 174.531 352.416 173.192C354.764 171.25 357.713 170.181 360.76 170.168C361.86 170.139 362.957 170.29 364.008 170.616C364.008 170.712 362.848 170.384 360.808 170.464C357.858 170.603 355.04 171.73 352.808 173.664C351.16 175.065 349.891 176.858 349.116 178.878C348.342 180.898 348.087 183.08 348.376 185.224C348.526 186.456 348.866 187.657 349.384 188.784C349.9 189.973 350.602 191.072 351.464 192.04C353.257 194.11 355.667 195.551 358.34 196.15C361.012 196.749 363.807 196.475 366.312 195.368C368.649 194.349 370.633 192.662 372.016 190.52C373.264 188.578 373.974 186.339 374.072 184.032C374.159 182.019 373.773 180.013 372.944 178.176C371.734 175.488 369.662 173.281 367.056 171.904C365.184 170.864 363.984 170.664 364.008 170.576Z" fill="#E0E0E0"/>
<path d="M374.632 156.4C374.623 156.243 374.623 156.085 374.632 155.928C374.632 155.584 374.632 155.128 374.632 154.52C374.632 153.224 374.608 151.357 374.56 148.92L374.656 149.04L362.584 146.4L362.8 146.296L359.6 153.048L359.544 153.176H359.408C356.734 153.296 354.087 153.766 351.536 154.576L351.392 154.624L351.288 154.512L345.984 149.28H346.32L335.92 155.912L336.04 155.56C336.84 157.736 337.68 160.136 338.56 162.592L338.624 162.768L338.488 162.912C336.679 164.872 335.14 167.065 333.912 169.432L333.824 169.608H333.624H326.16L326.496 169.344C325.648 173.128 324.736 177.216 323.808 181.4L323.608 181L330.352 184.2L330.552 184.288V184.568C330.661 187.228 331.121 189.861 331.92 192.4L331.992 192.616L331.832 192.768L326.568 198.064L326.616 197.6C328.712 200.904 330.96 204.44 333.232 208L332.784 207.848L339.816 205.344L340.04 205.264L340.208 205.416C342.156 207.225 344.338 208.764 346.696 209.992L346.904 210.328V217.784L346.608 217.408L358.664 220.12L358.24 220.32C359.307 218.053 360.373 215.808 361.44 213.584L361.544 213.376H361.768C364.428 213.274 367.062 212.817 369.6 212.016L369.816 211.952L369.976 212.112L375.256 217.384L374.784 217.368L385.184 210.776L385.04 211.184C384.192 208.784 383.368 206.456 382.544 204.152L382.48 203.952L382.616 203.8C384.432 201.849 385.979 199.665 387.216 197.304L387.304 197.128H394.968L394.656 197.376C395.616 193.136 396.528 189.136 397.384 185.328L397.544 185.656L390.816 182.456L390.664 182.384V182.168C390.566 179.499 390.114 176.854 389.32 174.304L389.272 174.16L389.384 174.048L394.664 168.776V169.056L388.104 158.6L388.304 158.664L381.256 161.128H381.184L381.128 161.072C379.652 159.689 378.045 158.454 376.328 157.384L375.048 156.584C374.902 156.507 374.76 156.421 374.624 156.328C374.781 156.383 374.933 156.45 375.08 156.528C375.376 156.68 375.816 156.912 376.392 157.248C378.144 158.284 379.785 159.499 381.288 160.872H381.168L388.184 158.32L388.312 158.272L388.384 158.392L395.04 168.792L395.136 168.944L395.008 169.072C393.408 170.672 391.664 172.448 389.76 174.384L389.816 174.128C390.644 176.719 391.12 179.41 391.232 182.128L391.08 181.888L397.832 185.088L398.04 185.192L397.984 185.416C397.184 189.232 396.248 193.232 395.312 197.472L395.256 197.72H395H387.536L387.832 197.544C386.576 199.962 385.002 202.2 383.152 204.2L383.224 203.856C384.04 206.16 384.877 208.504 385.736 210.888L385.824 211.152L385.592 211.304L375.192 217.92L374.944 218.072L374.744 217.872L369.448 212.608L369.816 212.696C367.224 213.52 364.533 213.99 361.816 214.096L362.144 213.888L358.944 220.632L358.816 220.904L358.52 220.832L346.424 218.168L346.128 218.104V217.8C346.128 216.56 346.128 215.32 346.128 214.08V210.344C346.536 211.016 346.24 210.528 346.328 210.68C343.913 209.414 341.675 207.835 339.672 205.984L340.056 206.064L333 208.568L332.712 208.664L332.552 208.408L325.952 198.008L325.792 197.76L326 197.544L331.272 192.256L331.184 192.632C330.368 190.039 329.9 187.349 329.792 184.632L329.992 184.944L323.256 181.744L323 181.624L323.064 181.344L325.784 169.344L325.84 169.072H333.576L333.288 169.248C334.542 166.801 336.122 164.535 337.984 162.512L337.92 162.832L335.424 155.768L335.344 155.544L335.552 155.416L345.984 148.856L346.168 148.744L346.32 148.896C348.184 150.744 349.984 152.568 351.584 154.168L351.328 154.104C353.922 153.296 356.613 152.838 359.328 152.744L359.136 152.864C360.304 150.464 361.392 148.176 362.336 146.144L362.4 146H362.552L374.552 148.776H374.648V148.872C374.648 151.272 374.632 153.117 374.6 154.408C374.6 155.016 374.6 155.488 374.6 155.84C374.623 156.026 374.634 156.213 374.632 156.4Z" fill="#E0E0E0"/>
<path d="M97.896 233.184C98.6178 233.409 99.2986 233.75 99.912 234.192C101.63 235.389 102.88 237.145 103.448 239.16C103.845 240.552 103.911 242.018 103.64 243.44C103.317 245.077 102.563 246.599 101.456 247.848C100.227 249.225 98.618 250.207 96.832 250.672C94.9055 251.174 92.8688 251.044 91.0214 250.303C89.1739 249.561 87.613 248.246 86.568 246.552C86.0719 245.755 85.7022 244.886 85.472 243.976C85.2386 243.106 85.1415 242.204 85.184 241.304C85.2512 239.637 85.7621 238.019 86.664 236.616C87.6239 235.133 88.9908 233.958 90.6011 233.231C92.2114 232.505 93.997 232.258 95.744 232.52C96.493 232.621 97.2201 232.846 97.896 233.184C97.896 233.248 97.096 232.904 95.72 232.72C93.7074 232.483 91.6735 232.928 89.944 233.984C88.7611 234.698 87.7612 235.679 87.024 236.848C86.1858 238.193 85.7167 239.736 85.664 241.32C85.6335 242.172 85.7306 243.024 85.952 243.848C86.1744 244.699 86.5309 245.509 87.008 246.248C87.9958 247.848 89.4702 249.09 91.2151 249.791C92.96 250.492 94.8837 250.616 96.704 250.144C98.3991 249.709 99.9291 248.785 101.104 247.488C102.096 246.386 102.797 245.053 103.144 243.612C103.49 242.17 103.471 240.665 103.088 239.232C102.568 237.275 101.408 235.549 99.792 234.328C99.1802 233.914 98.5474 233.532 97.896 233.184Z" fill="#E0E0E0"/>
<path d="M106.664 224.744C106.652 224.64 106.652 224.536 106.664 224.432C106.664 224.192 106.736 223.88 106.8 223.472C106.928 222.592 107.112 221.32 107.36 219.68L107.408 219.768L99.528 216.648L99.68 216.6C98.808 217.888 97.832 219.304 96.792 220.832L96.736 220.904H96.64C94.8181 220.684 92.9747 220.711 91.16 220.984H91.056L90.992 220.896L88 216.8L88.216 216.864L80.432 220.208L80.552 219.984C80.84 221.544 81.16 223.256 81.48 225.024V225.152L81.376 225.232C79.953 226.352 78.6835 227.653 77.6 229.104L77.52 229.216H77.384L72.32 228.416L72.576 228.272C71.584 230.744 70.52 233.416 69.424 236.144L69.336 235.856L73.552 238.768L73.68 238.848V239C73.4621 240.814 73.4837 242.648 73.744 244.456V244.608L73.624 244.704L69.472 247.704L69.552 247.4L72.888 255.2L72.6 255.048L77.64 254.128H77.8L77.896 254.248C79.0191 255.688 80.3293 256.971 81.792 258.064C81.84 258.176 81.696 257.816 81.896 258.32V258.4V258.56L81.84 258.88L81.744 259.512L81.536 260.784C81.4 261.624 81.264 262.472 81.128 263.304L80.968 263.024L88.84 266.184L88.528 266.28L91.44 262.064L91.528 261.936H91.688C93.5007 262.166 95.3364 262.147 97.144 261.88H97.296L97.384 262L100.384 266.16L100.088 266.072L107.888 262.752L107.744 263.016C107.44 261.304 107.136 259.624 106.832 257.976V257.832L106.944 257.752C108.388 256.625 109.676 255.312 110.776 253.848L110.856 253.736H110.992L116.048 254.536L115.808 254.664L119.008 246.808L119.08 247.048L114.872 244.12L114.776 244.056V243.944C115.002 242.123 114.986 240.281 114.728 238.464V238.36L114.816 238.304L118.976 235.312L118.928 235.496C117.648 232.472 116.528 229.896 115.632 227.688L115.76 227.752L110.712 228.64H110.664V228.6C109.819 227.501 108.868 226.488 107.824 225.576L107.024 224.904C106.84 224.76 106.76 224.688 106.768 224.68L107.048 224.872C107.232 225.008 107.512 225.216 107.848 225.504C108.919 226.401 109.897 227.404 110.768 228.496H110.68L115.72 227.536H115.808V227.624L119.168 235.408L119.216 235.52L119.12 235.592L114.976 238.608L115.048 238.448C115.324 240.303 115.348 242.187 115.12 244.048L115.04 243.872L119.264 246.776L119.4 246.864L119.336 247.008C118.344 249.504 117.296 252.112 116.192 254.888L116.128 255.048H115.952L110.896 254.248L111.112 254.16C109.995 255.662 108.682 257.007 107.208 258.16L107.296 257.928C107.6 259.587 107.907 261.267 108.216 262.968V263.16L108 263.2L100.2 266.536L100.024 266.616L99.904 266.456L96.896 262.304L97.136 262.408C95.2805 262.678 93.3972 262.7 91.536 262.472L91.776 262.36C90.816 263.752 89.8453 265.157 88.864 266.576L88.752 266.752L88.56 266.672L80.688 263.512L80.496 263.44V263.232L80.904 260.712L81.104 259.44L81.208 258.808L81.256 258.488V258.328V258.248V258.184C81.456 258.68 81.312 258.32 81.352 258.432C79.847 257.316 78.5012 256 77.352 254.52L77.6 254.616L72.56 255.536L72.352 255.576L72.272 255.384C71.128 252.704 70 250.056 68.952 247.584L68.872 247.392L69.032 247.272L73.192 244.272L73.088 244.52C72.8223 242.664 72.8034 240.781 73.032 238.92L73.136 239.16L68.928 236.24L68.768 236.128L68.84 235.952C69.936 233.216 71.008 230.552 72.04 228.088L72.112 227.912H72.296L77.352 228.712L77.136 228.8C78.256 227.298 79.5717 225.953 81.048 224.8L80.968 225.008C80.648 223.248 80.344 221.528 80.056 219.968V219.808L80.208 219.744L88.008 216.432L88.144 216.376L88.232 216.496L91.224 220.656L91.064 220.584C92.9205 220.32 94.8039 220.307 96.664 220.544L96.52 220.608L99.448 216.408L99.512 216.32L99.608 216.36L107.456 219.56H107.52V219.624L106.872 223.368C106.8 223.776 106.736 224.096 106.696 224.336C106.7 224.473 106.689 224.61 106.664 224.744Z" fill="#E0E0E0"/>
<path fillRule="evenodd" clipRule="evenodd" d="M173.552 267.264C176.148 269.204 178.473 271.483 180.464 274.04L189.264 272.44L195.096 286.104L187.816 291.368C188.286 294.578 188.323 297.836 187.928 301.056L195.312 306.16L189.768 319.944L180.904 318.52C178.967 321.121 176.687 323.448 174.128 325.44L175.728 334.24L162.064 340.072L156.848 332.8C153.637 333.263 150.38 333.298 147.16 332.904L142.064 340.288L128.272 334.752L129.696 325.888C127.097 323.946 124.77 321.664 122.776 319.104L113.936 320.704L108.112 307.04L115.384 301.776C114.921 298.565 114.886 295.308 115.28 292.088L107.896 286.984L113.432 273.2L122.296 274.624C124.238 272.025 126.52 269.698 129.08 267.704L127.48 258.864L141.144 253.032L146.408 260.312C149.618 259.845 152.876 259.81 156.096 260.208L161.2 252.824L174.968 258.4L173.552 267.264ZM158.192 282.048C155.266 280.872 152.057 280.59 148.97 281.237C145.884 281.885 143.059 283.433 140.853 285.687C138.646 287.94 137.158 290.797 136.575 293.896C135.993 296.996 136.342 300.198 137.58 303.099C138.818 305.999 140.888 308.468 143.528 310.192C146.169 311.916 149.262 312.818 152.415 312.784C155.569 312.751 158.641 311.783 161.245 310.003C163.848 308.222 165.865 305.71 167.04 302.784C168.616 298.861 168.569 294.472 166.91 290.584C165.25 286.695 162.115 283.625 158.192 282.048Z" fill="#E0E0E0"/>
<path d="M172.944 179.264H76.52V59.344L150.28 59.56L172.944 84.176V179.264Z" fill="#EBEBEB"/>
<path d="M105.36 127.76C105.24 127.88 103.64 126.432 101.152 124C98.664 121.568 95.28 118.144 91.6 114.304L91.192 113.872L91.6 113.44V113.4C95.264 109.536 98.632 106.08 101.12 103.624C103.608 101.168 105.2 99.704 105.32 99.824C105.44 99.944 104.08 101.616 101.76 104.232C99.44 106.848 96.16 110.392 92.504 114.264H92.464V113.44C96.144 117.28 99.416 120.8 101.744 123.392C104.072 125.984 105.488 127.64 105.36 127.76Z" fill="#263238"/>
<path d="M144.056 99.824C144.184 99.704 145.784 101.152 148.272 103.584C150.76 106.016 154.144 109.44 157.816 113.28L158.232 113.712L157.824 114.144H157.784C154.112 118.016 150.744 121.464 148.264 123.92C145.784 126.376 144.184 127.84 144.056 127.72C143.928 127.6 145.304 125.928 147.624 123.312C149.944 120.696 153.224 117.152 156.872 113.288V113.24V114.104C153.2 110.264 149.92 106.744 147.592 104.16C145.264 101.576 143.936 99.944 144.056 99.824Z" fill="#263238"/>
<path d="M112.976 132.168C112.688 131.992 117.688 123.272 124.176 112.696C130.664 102.12 136.12 93.696 136.416 93.88C136.712 94.064 131.712 102.776 125.216 113.352C118.72 123.928 113.272 132.352 112.976 132.168Z" fill="#263238"/>
<path d="M150.272 59.568L150.184 79.656C150.182 80.349 150.319 81.0354 150.587 81.6744C150.855 82.3134 151.249 82.8919 151.745 83.3756C152.242 83.8592 152.83 84.2381 153.476 84.4897C154.122 84.7412 154.811 84.8604 155.504 84.84L172.944 84.192L150.272 59.568Z" fill="#E0E0E0"/>
<path d="M108.024 140.576H65.264V166.568H108.024V140.576Z" fill="#407BFF"/>
<path d="M77.416 158.888L78.528 157.6C78.8226 158.081 79.2335 158.479 79.723 158.759C80.2124 159.039 80.7644 159.19 81.328 159.2C82.84 159.2 83.624 158.28 83.624 156.472V148.936H78.776V147.272H85.528V156.376C85.528 159.368 84.072 160.848 81.328 160.848C80.5658 160.863 79.8114 160.693 79.1298 160.351C78.4482 160.01 77.86 159.508 77.416 158.888Z" fill="white"/>
<path d="M88.208 159.136L88.92 157.64C90.1675 158.659 91.7331 159.209 93.344 159.192C95.672 159.192 96.664 158.288 96.664 157.12C96.664 153.84 88.536 155.912 88.536 150.928C88.536 148.856 90.136 147.088 93.672 147.088C95.1968 147.06 96.6972 147.474 97.992 148.28L97.352 149.816C96.2542 149.109 94.9778 148.729 93.672 148.72C91.392 148.72 90.416 149.68 90.416 150.848C90.416 154.128 98.544 152.08 98.544 157.008C98.544 159.056 96.896 160.824 93.344 160.824C91.488 160.874 89.6723 160.278 88.208 159.136Z" fill="white"/>
<path d="M522.12 249.984C521.968 250.072 520.616 247.824 517.888 243.968C516.528 242.04 514.808 239.72 512.672 237.144C510.268 234.23 507.65 231.5 504.84 228.976C503.22 227.515 501.493 226.178 499.672 224.976C497.767 223.675 495.646 222.722 493.408 222.16C492.3 221.892 491.147 221.876 490.032 222.112C488.943 222.378 487.975 223.001 487.28 223.88C486.539 224.842 486.022 225.957 485.768 227.144C485.464 228.421 485.303 229.728 485.288 231.04C485.289 233.836 485.595 236.623 486.2 239.352C486.814 242.233 487.615 245.071 488.6 247.848C492.862 259.59 499.158 270.49 507.2 280.048C509.111 282.292 511.163 284.411 513.344 286.392C515.406 288.282 517.667 289.943 520.088 291.344C521.235 291.984 522.447 292.499 523.704 292.88C524.861 293.248 526.084 293.357 527.288 293.2C528.398 293.036 529.421 292.504 530.192 291.688C530.956 290.846 531.519 289.842 531.84 288.752C532.473 286.533 532.705 284.22 532.528 281.92C532.41 279.744 532.124 277.58 531.672 275.448C530.881 271.751 529.811 268.12 528.472 264.584C527.312 261.448 526.16 258.8 525.176 256.656C523.2 252.36 521.928 250.072 522.08 249.984C522.519 250.451 522.895 250.973 523.2 251.536C523.856 252.6 524.8 254.192 525.904 256.296C527.008 258.4 528.304 261.024 529.56 264.16C531.023 267.721 532.198 271.394 533.072 275.144C533.586 277.341 533.928 279.574 534.096 281.824C534.326 284.325 534.106 286.848 533.448 289.272C533.062 290.62 532.379 291.864 531.448 292.912C530.421 294.026 529.048 294.761 527.552 295C526.083 295.223 524.583 295.116 523.16 294.688C521.769 294.282 520.428 293.724 519.16 293.024C516.592 291.581 514.193 289.856 512.008 287.88C509.734 285.856 507.596 283.683 505.608 281.376C497.361 271.676 490.938 260.564 486.648 248.576C485.653 245.699 484.851 242.76 484.248 239.776C483.626 236.885 483.328 233.933 483.36 230.976C483.391 229.522 483.584 228.075 483.936 226.664C484.272 225.205 484.928 223.839 485.856 222.664C486.817 221.493 488.139 220.674 489.616 220.336C490.992 220.051 492.414 220.082 493.776 220.424C496.202 221.067 498.494 222.137 500.544 223.584C502.408 224.857 504.173 226.269 505.824 227.808C508.642 230.465 511.242 233.343 513.6 236.416C515.68 239.096 517.312 241.504 518.584 243.512C519.856 245.52 520.768 247.136 521.352 248.24C521.683 248.785 521.942 249.371 522.12 249.984Z" fill="#407BFF"/>
<path d="M497.416 249.936C497.56 250.024 496.264 252.208 494.216 256.336C493.208 258.384 492.024 260.92 490.832 263.928C489.471 267.319 488.382 270.812 487.576 274.376C487.111 276.429 486.811 278.515 486.68 280.616C486.493 282.834 486.71 285.067 487.32 287.208C487.639 288.265 488.185 289.24 488.92 290.064C489.665 290.857 490.638 291.4 491.704 291.616C492.857 291.84 494.045 291.807 495.184 291.52C496.419 291.235 497.617 290.805 498.752 290.24C501.164 289.025 503.427 287.535 505.496 285.8C507.689 283.984 509.758 282.022 511.688 279.928C519.817 270.998 526.226 260.643 530.592 249.384C531.606 246.721 532.437 243.992 533.08 241.216C533.709 238.595 534.034 235.911 534.048 233.216C534.044 231.95 533.894 230.688 533.6 229.456C533.348 228.308 532.849 227.23 532.136 226.296C531.464 225.437 530.541 224.807 529.496 224.496C528.431 224.211 527.317 224.162 526.232 224.352C524.045 224.76 521.95 225.559 520.048 226.712C518.229 227.773 516.496 228.974 514.864 230.304C512.038 232.619 509.397 235.152 506.968 237.88C504.808 240.28 503.064 242.48 501.68 244.28C498.912 247.912 497.536 250.048 497.392 249.96C497.572 249.365 497.841 248.801 498.192 248.288C498.792 247.24 499.712 245.704 501.016 243.808C502.591 241.49 504.281 239.253 506.08 237.104C508.464 234.237 511.087 231.577 513.92 229.152C515.579 227.728 517.353 226.443 519.224 225.312C521.287 224.013 523.57 223.102 525.96 222.624C527.288 222.385 528.652 222.434 529.96 222.768C531.365 223.166 532.611 223.991 533.528 225.128C534.419 226.259 535.055 227.568 535.392 228.968C535.732 230.34 535.915 231.747 535.936 233.16C535.969 235.998 535.671 238.831 535.048 241.6C534.403 244.471 533.561 247.293 532.528 250.048C528.113 261.573 521.557 272.159 513.208 281.248C511.215 283.403 509.077 285.418 506.808 287.28C504.597 289.097 502.18 290.649 499.608 291.904C498.333 292.519 496.99 292.983 495.608 293.288C494.207 293.616 492.752 293.632 491.344 293.336C489.918 293.024 488.624 292.278 487.64 291.2C486.749 290.175 486.091 288.968 485.712 287.664C485.077 285.32 484.873 282.881 485.112 280.464C485.29 278.283 485.649 276.121 486.184 274C487.088 270.381 488.298 266.846 489.8 263.432C490.918 260.864 492.165 258.354 493.536 255.912C494.656 253.896 495.616 252.392 496.288 251.384C496.96 250.376 497.352 249.896 497.416 249.936Z" fill="#407BFF"/>
<path d="M508.192 240.728C508.192 240.904 505.648 240.944 501.096 241.384C498.824 241.608 496.048 241.944 492.864 242.504C489.265 243.139 485.721 244.053 482.264 245.24C480.275 245.927 478.344 246.77 476.488 247.76C474.502 248.762 472.716 250.118 471.216 251.76C470.483 252.583 469.937 253.554 469.616 254.608C469.334 255.664 469.384 256.781 469.76 257.808C470.181 258.905 470.833 259.898 471.672 260.72C472.569 261.614 473.565 262.403 474.64 263.072C476.941 264.483 479.397 265.624 481.96 266.472C484.662 267.385 487.423 268.112 490.224 268.648C502.092 270.867 514.268 270.867 526.136 268.648C528.937 268.115 531.698 267.391 534.4 266.48C536.966 265.634 539.425 264.493 541.728 263.08C542.803 262.411 543.799 261.622 544.696 260.728C545.535 259.906 546.187 258.913 546.608 257.816C546.984 256.789 547.034 255.672 546.752 254.616C546.431 253.562 545.885 252.591 545.152 251.768C543.652 250.126 541.866 248.77 539.88 247.768C538.027 246.771 536.095 245.928 534.104 245.248C530.647 244.061 527.103 243.147 523.504 242.512C520.304 241.952 517.544 241.616 515.272 241.392C510.72 240.952 508.176 240.912 508.184 240.736C508.784 240.58 509.405 240.516 510.024 240.544C511.232 240.504 513.024 240.48 515.328 240.584C517.632 240.688 520.44 240.904 523.688 241.384C527.381 241.902 531.023 242.732 534.576 243.864C536.659 244.531 538.684 245.366 540.632 246.36C542.824 247.428 544.801 248.889 546.464 250.672C547.374 251.679 548.053 252.872 548.456 254.168C548.854 255.571 548.809 257.063 548.328 258.44C547.837 259.795 547.056 261.026 546.04 262.048C545.056 263.063 543.955 263.958 542.76 264.712C540.342 266.233 537.753 267.466 535.048 268.384C532.267 269.346 529.423 270.113 526.536 270.68C514.409 273.005 501.951 273.005 489.824 270.68C486.937 270.113 484.093 269.346 481.312 268.384C478.607 267.466 476.018 266.233 473.6 264.712C472.406 263.956 471.305 263.061 470.32 262.048C469.302 261.028 468.521 259.796 468.032 258.44C467.551 257.063 467.506 255.571 467.904 254.168C468.308 252.873 468.988 251.68 469.896 250.672C471.56 248.89 473.537 247.428 475.728 246.36C477.674 245.364 479.7 244.532 481.784 243.872C485.335 242.733 488.978 241.9 492.672 241.384C495.92 240.92 498.736 240.704 501.032 240.584C503.328 240.464 505.128 240.504 506.336 240.544C506.96 240.513 507.586 240.575 508.192 240.728Z" fill="#407BFF"/>
<path d="M516.765 258.895C517.359 255.245 514.882 251.805 511.231 251.211C507.581 250.617 504.141 253.095 503.547 256.745C502.953 260.395 505.431 263.835 509.081 264.429C512.731 265.023 516.172 262.545 516.765 258.895Z" fill="#407BFF"/>
<path d="M161.704 188.376H399.664C401.094 188.376 402.465 188.944 403.477 189.955C404.488 190.966 405.056 192.338 405.056 193.768V341.768C405.056 344.859 403.828 347.824 401.642 350.01C399.456 352.196 396.491 353.424 393.4 353.424H167.16C164.069 353.424 161.104 352.196 158.918 350.01C156.732 347.824 155.504 344.859 155.504 341.768V194.568C155.506 192.925 156.16 191.35 157.323 190.189C158.485 189.028 160.061 188.376 161.704 188.376Z" fill="#455A64"/>
<path d="M145.072 341.2H415.472V344.664C415.472 346.105 415.188 347.533 414.637 348.864C414.085 350.196 413.276 351.406 412.257 352.425C411.238 353.444 410.028 354.253 408.696 354.805C407.365 355.356 405.937 355.64 404.496 355.64H156.048C154.607 355.64 153.179 355.356 151.848 354.805C150.516 354.253 149.306 353.444 148.287 352.425C147.268 351.406 146.459 350.196 145.907 348.864C145.356 347.533 145.072 346.105 145.072 344.664V341.2Z" fill="#455A64"/>
<path d="M397.656 194.936H162.2V334.296H397.656V194.936Z" fill="#E0E0E0"/>
<path d="M255.68 341.2L259.032 346.536H306.24L309.36 341.2H255.68Z" fill="#263238"/>
<path d="M405.096 341.144H155.544V341.936H405.096V341.144Z" fill="#263238"/>
<path d="M391.24 203.008H169.192V334.296H391.24V203.008Z" fill="#263238"/>
<path d="M186.224 330.44C186.112 330.44 186.016 302.48 186.016 267.992C186.016 233.504 186.112 205.544 186.224 205.544C186.336 205.544 186.4 233.496 186.4 268C186.4 302.504 186.336 330.44 186.224 330.44Z" fill="#E0E0E0"/>
<path d="M181.744 216.864C180.554 217.074 179.343 217.144 178.136 217.072C176.929 217.144 175.718 217.074 174.528 216.864C176.92 216.588 179.336 216.588 181.728 216.864H181.744Z" fill="#E0E0E0"/>
<path d="M182.024 209.776C180.834 209.986 179.623 210.056 178.416 209.984C177.209 210.056 175.998 209.986 174.808 209.776C177.2 209.5 179.616 209.5 182.008 209.776H182.024Z" fill="#E0E0E0"/>
<path d="M181.744 224.504C179.352 224.78 176.936 224.78 174.544 224.504C176.936 224.228 179.352 224.228 181.744 224.504Z" fill="#E0E0E0"/>
<path d="M181.744 232.144C179.352 232.42 176.936 232.42 174.544 232.144C175.734 231.934 176.945 231.864 178.152 231.936C179.353 231.866 180.559 231.935 181.744 232.144Z" fill="#E0E0E0"/>
<path d="M181.744 239.784C179.352 240.06 176.936 240.06 174.544 239.784C175.734 239.574 176.945 239.504 178.152 239.576C179.353 239.506 180.559 239.575 181.744 239.784Z" fill="#E0E0E0"/>
<path d="M181.744 247.424C179.352 247.7 176.936 247.7 174.544 247.424C175.734 247.214 176.945 247.144 178.152 247.216C179.353 247.146 180.559 247.215 181.744 247.424Z" fill="#E0E0E0"/>
<path d="M181.744 255.056C180.554 255.271 179.343 255.344 178.136 255.272C176.929 255.344 175.718 255.271 174.528 255.056C176.92 254.78 179.336 254.78 181.728 255.056H181.744Z" fill="#E0E0E0"/>
<path d="M181.744 262.696C180.554 262.906 179.343 262.976 178.136 262.904C176.929 262.976 175.718 262.906 174.528 262.696C176.92 262.42 179.336 262.42 181.728 262.696H181.744Z" fill="#E0E0E0"/>
<path d="M181.744 270.336C180.554 270.546 179.343 270.616 178.136 270.544C176.929 270.616 175.718 270.546 174.528 270.336C176.92 270.06 179.336 270.06 181.728 270.336H181.744Z" fill="#E0E0E0"/>
<path d="M181.744 277.976C180.554 278.186 179.343 278.256 178.136 278.184C176.929 278.256 175.718 278.186 174.528 277.976C176.92 277.7 179.336 277.7 181.728 277.976H181.744Z" fill="#E0E0E0"/>
<path d="M181.744 285.6C179.352 285.876 176.936 285.876 174.544 285.6C176.936 285.324 179.352 285.324 181.744 285.6Z" fill="#E0E0E0"/>
<path d="M181.744 293.256C179.352 293.532 176.936 293.532 174.544 293.256C175.734 293.046 176.945 292.976 178.152 293.048C179.353 292.978 180.559 293.047 181.744 293.256Z" fill="#E0E0E0"/>
<path d="M181.744 300.896C179.352 301.172 176.936 301.172 174.544 300.896C175.734 300.686 176.945 300.616 178.152 300.688C179.353 300.618 180.559 300.687 181.744 300.896Z" fill="#E0E0E0"/>
<path d="M181.744 308.536C179.352 308.812 176.936 308.812 174.544 308.536C175.734 308.326 176.945 308.256 178.152 308.328C179.353 308.258 180.559 308.327 181.744 308.536Z" fill="#E0E0E0"/>
<path d="M181.744 316.176C179.352 316.452 176.936 316.452 174.544 316.176C175.734 315.961 176.945 315.888 178.152 315.96C179.354 315.89 180.559 315.962 181.744 316.176Z" fill="#E0E0E0"/>
<path d="M181.744 323.808C180.554 324.018 179.343 324.088 178.136 324.016C176.929 324.088 175.718 324.018 174.528 323.808C176.92 323.532 179.336 323.532 181.728 323.808H181.744Z" fill="#E0E0E0"/>
<path d="M210.664 216.416C210.664 216.528 206.472 216.624 201.304 216.624C196.136 216.624 191.936 216.528 191.936 216.416C191.936 216.304 196.128 216.208 201.304 216.208C206.48 216.208 210.664 216.296 210.664 216.416Z" fill="#407BFF"/>
<path d="M210.664 323.808C210.664 323.928 206.472 324.016 201.304 324.016C196.136 324.016 191.936 323.928 191.936 323.808C191.936 323.688 196.128 323.6 201.304 323.6C206.48 323.6 210.664 323.696 210.664 323.808Z" fill="#407BFF"/>
<path d="M236.736 232.144C236.736 232.256 228.888 232.352 219.216 232.352C209.544 232.352 201.704 232.256 201.704 232.144C201.704 232.032 209.544 231.936 219.216 231.936C228.888 231.936 236.736 232 236.736 232.144Z" fill="#407BFF"/>
<path d="M277.24 232.144C277.24 232.256 269.392 232.352 259.72 232.352C250.048 232.352 242.208 232.256 242.208 232.144C242.208 232.032 250.048 231.936 259.72 231.936C269.392 231.936 277.24 232 277.24 232.144Z" fill="#E0E0E0"/>
<path d="M261.76 239.784C261.76 239.896 250.2 239.992 235.944 239.992C221.688 239.992 210.136 239.896 210.136 239.784C210.136 239.672 221.688 239.576 235.944 239.576C250.2 239.576 261.76 239.664 261.76 239.784Z" fill="#E0E0E0"/>
<path d="M261.76 247.424C261.76 247.536 250.2 247.632 235.944 247.632C221.688 247.632 210.136 247.536 210.136 247.424C210.136 247.312 221.688 247.216 235.944 247.216C250.2 247.216 261.76 247.304 261.76 247.424Z" fill="#E0E0E0"/>
<path d="M297.288 270.336C297.288 270.456 285.736 270.544 271.48 270.544C257.224 270.544 245.664 270.456 245.664 270.336C245.664 270.216 257.224 270.128 271.48 270.128C285.736 270.128 297.288 270.224 297.288 270.336Z" fill="#E0E0E0"/>
<path d="M281.96 255.056C281.96 255.176 270.4 255.272 256.144 255.272C241.888 255.272 230.336 255.176 230.336 255.056C230.336 254.936 241.888 254.848 256.144 254.848C270.4 254.848 281.96 254.944 281.96 255.056Z" fill="#E0E0E0"/>
<path d="M345.04 255.056C345.04 255.176 333.48 255.272 319.232 255.272C304.984 255.272 293.416 255.176 293.416 255.056C293.416 254.936 304.976 254.848 319.232 254.848C333.488 254.848 345.04 254.944 345.04 255.056Z" fill="#E0E0E0"/>
<path d="M323.104 239.784C323.104 239.896 311.544 239.992 297.288 239.992C283.032 239.992 271.48 239.896 271.48 239.784C271.48 239.672 283.032 239.576 297.288 239.576C311.544 239.576 323.104 239.664 323.104 239.784Z" fill="#FAFAFA"/>
<path d="M358.76 270.336C358.76 270.456 347.2 270.544 332.952 270.544C318.704 270.544 307.136 270.456 307.136 270.336C307.136 270.216 318.696 270.128 332.952 270.128C347.208 270.128 358.76 270.224 358.76 270.336Z" fill="#FAFAFA"/>
<path d="M351.64 247.424C351.64 247.536 333.696 247.632 311.56 247.632C289.424 247.632 271.48 247.536 271.48 247.424C271.48 247.312 289.424 247.216 311.56 247.216C333.696 247.216 351.64 247.304 351.64 247.424Z" fill="#455A64"/>
<path d="M210.664 224.504C210.664 224.616 206.472 224.712 201.304 224.712C196.136 224.712 191.936 224.616 191.936 224.504C191.936 224.392 196.128 224.296 201.304 224.296C206.48 224.296 210.664 224.392 210.664 224.504Z" fill="#FAFAFA"/>
<path d="M210.664 316.176C210.664 316.288 206.472 316.384 201.304 316.384C196.136 316.384 191.936 316.288 191.936 316.176C191.936 316.064 196.128 315.96 201.304 315.96C206.48 315.96 210.664 316.056 210.664 316.176Z" fill="#FAFAFA"/>
<path d="M219.936 255.056C219.936 255.176 215.744 255.272 210.576 255.272C205.408 255.272 201.216 255.176 201.216 255.056C201.216 254.936 205.4 254.848 210.576 254.848C215.752 254.848 219.936 254.944 219.936 255.056Z" fill="#FAFAFA"/>
<path d="M369.984 255.056C369.984 255.176 365.792 255.272 360.624 255.272C355.456 255.272 351.264 255.176 351.264 255.056C351.264 254.936 355.448 254.848 360.624 254.848C365.8 254.848 369.984 254.944 369.984 255.056Z" fill="#407BFF"/>
<path d="M236.736 285.6C236.736 285.72 228.888 285.808 219.216 285.808C209.544 285.808 201.704 285.72 201.704 285.6C201.704 285.48 209.544 285.392 219.216 285.392C228.888 285.392 236.736 285.456 236.736 285.6Z" fill="#407BFF"/>
<path d="M277.24 285.6C277.24 285.72 269.392 285.808 259.72 285.808C250.048 285.808 242.208 285.72 242.208 285.6C242.208 285.48 250.048 285.392 259.72 285.392C269.392 285.392 277.24 285.456 277.24 285.6Z" fill="#E0E0E0"/>
<path d="M261.76 293.208C261.76 293.328 250.2 293.416 235.944 293.416C221.688 293.416 210.136 293.328 210.136 293.208C210.136 293.088 221.688 293 235.944 293C250.2 293 261.76 293.096 261.76 293.208Z" fill="#E0E0E0"/>
<path d="M261.76 300.848C261.76 300.968 250.2 301.056 235.944 301.056C221.688 301.056 210.136 300.968 210.136 300.848C210.136 300.728 221.688 300.64 235.944 300.64C250.2 300.64 261.76 300.736 261.76 300.848Z" fill="#E0E0E0"/>
<path d="M281.96 308.488C281.96 308.6 270.4 308.696 256.144 308.696C241.888 308.696 230.336 308.6 230.336 308.488C230.336 308.376 241.888 308.28 256.144 308.28C270.4 308.28 281.96 308.376 281.96 308.488Z" fill="#E0E0E0"/>
<path d="M345.04 308.488C345.04 308.6 333.48 308.696 319.232 308.696C304.984 308.696 293.416 308.6 293.416 308.488C293.416 308.376 304.976 308.28 319.232 308.28C333.488 308.28 345.04 308.376 345.04 308.488Z" fill="#E0E0E0"/>
<path d="M323.104 293.208C323.104 293.328 311.544 293.416 297.288 293.416C283.032 293.416 271.48 293.328 271.48 293.208C271.48 293.088 283.032 293 297.288 293C311.544 293 323.104 293.096 323.104 293.208Z" fill="#FAFAFA"/>
<path d="M351.64 300.848C351.64 300.968 333.696 301.056 311.56 301.056C289.424 301.056 271.48 300.968 271.48 300.848C271.48 300.728 289.424 300.64 311.56 300.64C333.696 300.64 351.64 300.736 351.64 300.848Z" fill="#455A64"/>
<path d="M219.936 308.488C219.936 308.6 215.744 308.696 210.576 308.696C205.408 308.696 201.216 308.6 201.216 308.488C201.216 308.376 205.4 308.28 210.576 308.28C215.752 308.28 219.936 308.376 219.936 308.488Z" fill="#FAFAFA"/>
<path d="M369.984 308.488C369.984 308.6 365.792 308.696 360.624 308.696C355.456 308.696 351.264 308.6 351.264 308.488C351.264 308.376 355.448 308.28 360.624 308.28C365.8 308.28 369.984 308.376 369.984 308.488Z" fill="#407BFF"/>
<path d="M560.336 355.648C560.336 355.76 443.768 355.856 300.016 355.856C156.264 355.856 39.664 355.76 39.664 355.648C39.664 355.536 156.208 355.44 300.016 355.44C443.824 355.44 560.336 355.528 560.336 355.648Z" fill="#263238"/>
<path d="M454.944 310.496L458.144 320.488C458.76 322.515 459.921 324.334 461.502 325.745C463.082 327.156 465.02 328.105 467.104 328.488L488.432 332.488L494.232 332.304L488.432 325.104L472.432 319.64C471.67 319.467 470.969 319.09 470.405 318.549C469.841 318.008 469.435 317.323 469.232 316.568L462.832 302.68L454.744 307.64L454.944 310.496Z" fill="#FFBE9D"/>
<path d="M439.664 243.384C439.771 241.814 439.349 240.253 438.464 238.952C438.103 238.28 437.605 237.692 437.001 237.226C436.397 236.76 435.702 236.427 434.96 236.248C434.096 236.149 433.223 236.335 432.474 236.776C431.725 237.218 431.14 237.892 430.808 238.696C430.496 239.506 430.392 240.381 430.503 241.241C430.615 242.102 430.94 242.921 431.448 243.624C431.966 244.355 432.627 244.973 433.392 245.44C431.168 246.902 429.482 249.051 428.592 251.56C428.296 252.408 428.096 253.288 427.728 254.104C427.392 254.948 426.765 255.643 425.96 256.064C425.352 256.336 424.672 256.36 424.048 256.592C423.532 256.797 423.073 257.121 422.707 257.539C422.341 257.956 422.08 258.454 421.944 258.992C421.703 260.092 421.907 261.242 422.512 262.192C422.874 262.619 423.122 263.131 423.232 263.68C423.21 264.06 423.132 264.435 423 264.792C422.848 265.423 422.902 266.086 423.155 266.684C423.407 267.282 423.844 267.784 424.402 268.116C424.96 268.447 425.61 268.592 426.256 268.528C426.902 268.464 427.51 268.195 427.992 267.76C428.315 268.723 428.966 269.541 429.832 270.072C430.744 270.504 432.088 270.112 432.232 269.12C432.458 269.602 432.838 269.995 433.312 270.238C433.786 270.48 434.328 270.558 434.851 270.459C435.374 270.36 435.85 270.09 436.203 269.691C436.555 269.292 436.766 268.787 436.8 268.256L454 249.448C451.44 242.616 441.4 243.2 439.664 243.384Z" fill="#407BFF"/>
<path d="M436.752 249.92C436.219 249.98 435.727 250.235 435.372 250.638C435.017 251.04 434.825 251.56 434.832 252.096L436.048 281.056C436.096 284.48 442.304 288.528 445.96 288.448C449.664 288.368 448.576 284.448 448.624 281.192C448.72 275.752 448.712 273.712 448.72 273.744C448.728 273.776 453.392 272.944 454.36 266.872C454.84 263.84 454.688 258.872 454.432 254.808C454.2 251.152 451.776 246.664 448.136 247.048L436.752 249.92Z" fill="#FFBE9D"/>
<path d="M452.848 258.752C452.848 258.956 452.771 259.153 452.631 259.301C452.491 259.45 452.3 259.54 452.096 259.552C451.997 259.558 451.898 259.545 451.804 259.514C451.711 259.482 451.624 259.432 451.55 259.366C451.475 259.301 451.415 259.221 451.371 259.132C451.328 259.043 451.302 258.947 451.296 258.848C451.296 258.644 451.373 258.447 451.513 258.299C451.653 258.15 451.844 258.06 452.048 258.048C452.147 258.041 452.246 258.055 452.34 258.086C452.433 258.118 452.52 258.168 452.594 258.234C452.669 258.299 452.729 258.379 452.773 258.468C452.816 258.557 452.842 258.653 452.848 258.752Z" fill="#263238"/>
<path d="M453.352 257.392C453.256 257.496 452.664 257.056 451.824 257.056C450.984 257.056 450.36 257.48 450.272 257.376C450.184 257.272 450.328 257.152 450.592 256.952C450.957 256.702 451.389 256.568 451.832 256.568C452.272 256.57 452.7 256.71 453.056 256.968C453.312 257.16 453.4 257.344 453.352 257.392Z" fill="#263238"/>
<path d="M444.624 258.752C444.624 258.956 444.547 259.153 444.407 259.301C444.267 259.45 444.076 259.54 443.872 259.552C443.773 259.558 443.674 259.545 443.58 259.514C443.487 259.482 443.4 259.432 443.326 259.366C443.251 259.301 443.191 259.221 443.147 259.132C443.104 259.043 443.078 258.947 443.072 258.848C443.072 258.644 443.149 258.447 443.289 258.299C443.429 258.15 443.62 258.06 443.824 258.048C443.923 258.041 444.022 258.055 444.116 258.086C444.209 258.118 444.296 258.168 444.37 258.234C444.445 258.299 444.505 258.379 444.549 258.468C444.592 258.557 444.618 258.653 444.624 258.752Z" fill="#263238"/>
<path d="M445.08 257.552C444.984 257.648 444.392 257.216 443.552 257.216C442.712 257.216 442.096 257.64 442 257.536C441.904 257.432 442.056 257.304 442.328 257.112C442.691 256.857 443.125 256.723 443.568 256.728C444.004 256.728 444.43 256.865 444.784 257.12C445.04 257.32 445.128 257.504 445.08 257.552Z" fill="#263238"/>
<path d="M448.136 263.792C448.579 263.649 449.039 263.565 449.504 263.544C449.72 263.544 449.92 263.48 449.96 263.328C449.976 263.108 449.926 262.888 449.816 262.696C449.608 262.176 449.4 261.632 449.176 261.056C448.586 259.67 448.109 258.239 447.752 256.776C448.452 258.113 449.043 259.504 449.52 260.936C449.728 261.512 449.936 262.056 450.128 262.576C450.263 262.837 450.303 263.137 450.24 263.424C450.208 263.499 450.16 263.566 450.099 263.62C450.039 263.674 449.966 263.714 449.888 263.736C449.768 263.769 449.644 263.785 449.52 263.784C449.061 263.844 448.596 263.847 448.136 263.792Z" fill="#263238"/>
<path d="M448.72 273.744C445.849 273.788 443.021 273.034 440.552 271.568C440.552 271.568 442.536 275.752 448.632 275.184L448.72 273.744Z" fill="#EB996E"/>
<path d="M447.776 265.816C447.617 265.615 447.409 265.458 447.173 265.36C446.936 265.262 446.678 265.227 446.424 265.256C446.238 265.273 446.057 265.327 445.892 265.415C445.727 265.503 445.582 265.623 445.464 265.768C445.352 265.908 445.285 266.079 445.274 266.258C445.263 266.437 445.307 266.615 445.4 266.768C445.535 266.92 445.712 267.027 445.909 267.077C446.106 267.127 446.313 267.117 446.504 267.048C446.901 266.909 447.265 266.691 447.576 266.408C447.67 266.34 447.751 266.256 447.816 266.16C447.847 266.114 447.863 266.06 447.863 266.004C447.863 265.948 447.847 265.894 447.816 265.848" fill="#EB996E"/>
<path d="M445.656 264.368C445.8 264.368 445.8 265.28 446.576 265.968C447.352 266.656 448.336 266.512 448.344 266.64C448.352 266.768 448.12 266.816 447.712 266.832C447.177 266.834 446.658 266.654 446.24 266.32C445.845 265.992 445.59 265.526 445.528 265.016C445.496 264.592 445.6 264.368 445.656 264.368Z" fill="#263238"/>
<path d="M445.464 256.08C445.376 256.304 444.536 256.2 443.552 256.32C442.568 256.44 441.768 256.704 441.632 256.496C441.496 256.288 441.712 256.184 442.04 255.968C442.465 255.69 442.951 255.517 443.456 255.464C443.962 255.405 444.474 255.465 444.952 255.64C445.312 255.792 445.496 256 445.464 256.08Z" fill="#407BFF"/>
<path d="M453.04 254.96C452.896 255.152 452.312 254.96 451.616 254.96C450.92 254.96 450.328 255.088 450.192 254.888C450.056 254.688 450.192 254.6 450.488 254.416C450.834 254.196 451.239 254.087 451.648 254.104C452.057 254.111 452.454 254.245 452.784 254.488C453.024 254.672 453.112 254.864 453.04 254.96Z" fill="#407BFF"/>
<path d="M435.512 259.672C435.264 259.538 434.983 259.474 434.701 259.488C434.419 259.502 434.146 259.594 433.912 259.752C433.344 260.078 432.907 260.591 432.675 261.204C432.444 261.816 432.433 262.49 432.644 263.11C432.854 263.73 433.274 264.258 433.831 264.603C434.388 264.947 435.047 265.088 435.696 265" fill="#FFBE9D"/>
<path d="M445.096 245.016C447.169 245.121 449.183 245.745 450.952 246.832C452.949 247.869 454.454 249.656 455.136 251.8C455.222 252.021 455.262 252.256 455.254 252.493C455.245 252.729 455.189 252.962 455.088 253.176C454.893 253.42 454.621 253.588 454.316 253.654C454.011 253.72 453.693 253.678 453.416 253.536C452.869 253.232 452.403 252.801 452.056 252.28C451.91 252.845 451.579 253.344 451.116 253.698C450.653 254.053 450.085 254.242 449.502 254.235C448.919 254.229 448.355 254.027 447.9 253.663C447.445 253.298 447.125 252.792 446.992 252.224C446.943 252.808 446.672 253.351 446.234 253.741C445.797 254.131 445.226 254.338 444.64 254.32C444.055 254.27 443.497 254.049 443.037 253.685C442.576 253.321 442.232 252.83 442.048 252.272C441.901 253.328 441.536 254.341 440.976 255.248C440.686 255.696 440.267 256.044 439.773 256.245C439.28 256.447 438.736 256.493 438.216 256.376C438.448 257.27 438.448 258.21 438.216 259.104C438.075 259.542 437.778 259.913 437.381 260.144C436.983 260.376 436.514 260.453 436.064 260.36C435.216 260.072 434.888 259.072 434.696 258.2C434.259 256.531 434.039 254.813 434.04 253.088C433.982 251.313 434.558 249.574 435.665 248.185C436.772 246.795 438.337 245.845 440.08 245.504C441.818 245.106 443.602 244.941 445.384 245.016" fill="#407BFF"/>
<path d="M435.088 263.2C435.088 263.16 434.848 263.256 434.552 263.12C434.374 263.016 434.23 262.862 434.137 262.677C434.045 262.493 434.008 262.285 434.032 262.08C434.033 261.871 434.095 261.667 434.21 261.492C434.325 261.317 434.488 261.18 434.68 261.096C434.858 261.047 435.04 261.012 435.224 260.992C435.224 260.992 435.016 260.8 434.616 260.888C434.381 260.941 434.17 261.07 434.016 261.256C433.832 261.483 433.725 261.764 433.712 262.056C433.685 262.326 433.75 262.597 433.895 262.826C434.04 263.055 434.257 263.229 434.512 263.32C434.888 263.424 435.12 263.2 435.088 263.2Z" fill="#EB996E"/>
<path d="M432.8 263.504C432.8 263.504 432.712 263.504 432.544 263.568C431.433 263.972 430.494 264.742 429.88 265.752C429.55 266.308 429.363 266.938 429.336 267.584C429.317 268.331 429.494 269.07 429.848 269.728C430.227 270.452 430.776 271.072 431.448 271.536C432.18 272.042 433.046 272.321 433.936 272.336C434.792 272.32 435.627 272.071 436.352 271.618C437.078 271.164 437.667 270.522 438.056 269.76C438.399 269.095 438.549 268.346 438.488 267.6C438.423 266.959 438.221 266.34 437.896 265.784C437.439 264.97 436.732 264.325 435.88 263.944C435.653 263.842 435.414 263.769 435.168 263.728C434.997 263.696 434.909 263.696 434.904 263.728C434.904 263.728 435.256 263.808 435.824 264.08C436.621 264.487 437.277 265.126 437.704 265.912C437.997 266.448 438.174 267.039 438.224 267.648C438.266 268.344 438.117 269.039 437.792 269.656C437.424 270.366 436.872 270.963 436.193 271.385C435.515 271.808 434.735 272.039 433.936 272.056C433.141 272.028 432.367 271.792 431.691 271.37C431.016 270.949 430.463 270.358 430.088 269.656C429.768 269.087 429.601 268.445 429.601 267.792C429.601 267.139 429.768 266.497 430.088 265.928C430.536 265.153 431.175 264.506 431.944 264.048C432.44 263.648 432.8 263.528 432.8 263.504Z" fill="#263238"/>
<path d="M437.8 244.608C437.736 244.608 437.608 244.072 437.232 243.28C436.748 242.243 436.028 241.333 435.129 240.625C434.23 239.916 433.178 239.428 432.056 239.2C431.192 239.016 430.632 239.024 430.632 238.952C431.111 238.816 431.617 238.799 432.104 238.904C433.302 239.069 434.434 239.549 435.384 240.296C436.332 241.044 437.062 242.033 437.496 243.16C437.715 243.61 437.819 244.108 437.8 244.608Z" fill="#E0E0E0"/>
<path d="M423.784 267.768C423.784 267.768 423.68 267.768 423.568 267.568C423.426 267.327 423.375 267.043 423.424 266.768C423.47 266.543 423.56 266.33 423.69 266.141C423.819 265.951 423.984 265.789 424.176 265.664C424.664 265.368 425.169 265.101 425.688 264.864C425.98 264.727 426.231 264.516 426.416 264.253C426.601 263.989 426.714 263.681 426.744 263.36C426.707 262.58 426.567 261.808 426.328 261.064C426.219 260.625 426.176 260.172 426.2 259.72C426.24 259.226 426.442 258.759 426.776 258.392C427.496 257.72 428.383 257.253 429.344 257.04C430.234 256.854 431.041 256.389 431.648 255.712C432.063 254.985 432.2 254.132 432.032 253.312C431.899 252.519 431.843 251.716 431.864 250.912C432.009 249.162 432.84 247.54 434.176 246.4C434.386 246.22 434.614 246.062 434.856 245.928C434.937 245.872 435.026 245.828 435.12 245.8C435.12 245.8 434.8 246.04 434.32 246.52C433.6 247.202 433.04 248.036 432.68 248.96C432.431 249.592 432.283 250.258 432.24 250.936C432.236 251.722 432.303 252.506 432.44 253.28C432.638 254.198 432.487 255.156 432.016 255.968C431.364 256.725 430.481 257.248 429.504 257.456C428.61 257.649 427.782 258.074 427.104 258.688C426.854 259.013 426.688 259.395 426.623 259.8C426.557 260.205 426.593 260.62 426.728 261.008C426.968 261.786 427.098 262.594 427.112 263.408C427.075 263.805 426.925 264.182 426.68 264.496C426.461 264.765 426.189 264.986 425.88 265.144C425.304 265.456 424.76 265.632 424.36 265.944C424.003 266.155 423.742 266.496 423.632 266.896C423.569 267.195 423.623 267.508 423.784 267.768Z" fill="#E0E0E0"/>
<path d="M445.512 252C445.448 252 445.392 251.352 445.072 250.4C444.659 249.126 443.952 247.966 443.008 247.016C442.053 246.082 440.895 245.381 439.624 244.968C438.648 244.648 438.024 244.6 438.024 244.528C438.597 244.45 439.18 244.505 439.728 244.688C441.086 245.028 442.326 245.728 443.32 246.713C444.314 247.698 445.024 248.933 445.376 250.288C445.557 250.84 445.604 251.427 445.512 252Z" fill="#E0E0E0"/>
<path d="M450.4 249.36C450.091 248.706 449.735 248.075 449.336 247.472C448.28 246.093 446.82 245.078 445.16 244.568C443.486 244.083 441.73 243.941 440 244.152C438.664 244.296 437.848 244.48 437.832 244.416C438.508 244.123 439.226 243.937 439.96 243.864C441.736 243.557 443.559 243.661 445.288 244.168C447.03 244.7 448.541 245.805 449.576 247.304C449.886 247.753 450.126 248.247 450.288 248.768C450.367 248.955 450.405 249.157 450.4 249.36Z" fill="#E0E0E0"/>
<path d="M439.792 243.08C439.792 243.08 439.64 243.48 439.168 243.968C438.538 244.59 437.779 245.066 436.944 245.36C436.113 245.663 435.224 245.775 434.344 245.688C433.975 245.685 433.613 245.582 433.296 245.392C434.482 245.45 435.67 245.307 436.808 244.968C437.9 244.508 438.909 243.87 439.792 243.08Z" fill="#263238"/>
<path d="M444.072 355.696C429.424 350.848 439.464 331.472 439.464 331.472L503.464 337.496C504.687 337.485 505.9 337.717 507.033 338.178C508.165 338.639 509.196 339.32 510.064 340.181C510.932 341.043 511.621 342.068 512.09 343.197C512.56 344.326 512.801 345.537 512.8 346.76C512.796 349.211 511.82 351.56 510.086 353.292C508.353 355.024 506.003 355.998 503.552 356L444.072 355.68" fill="#263238"/>
<path d="M429.08 355.68C414.808 350.88 424.648 331.464 424.648 331.464L487.048 337.352C493.144 337.432 496.12 340.376 496.12 346.592C496.12 351.704 494.216 356.016 487.072 355.872L429.072 355.68" fill="#263238"/>
<path d="M443.568 334.744H443.744H444.264L446.264 334.824L453.6 335.2L477.816 336.528C479 336.584 480.168 336.688 481.32 336.704C482.472 336.72 483.616 336.768 484.728 336.84C485.84 336.912 486.944 336.992 488.016 337.104C489.08 337.177 490.129 337.392 491.136 337.744C492.106 338.118 492.99 338.684 493.736 339.408C494.449 340.123 494.995 340.986 495.336 341.936C495.655 342.818 495.872 343.733 495.984 344.664C496.098 345.521 496.154 346.384 496.152 347.248C496.182 348.735 495.909 350.213 495.352 351.592C494.917 352.613 494.251 353.519 493.408 354.24C492.888 354.682 492.288 355.019 491.64 355.232C491.2 355.376 491.192 355.328 491.64 355.168C492.269 354.932 492.85 354.582 493.352 354.136C494.159 353.411 494.794 352.515 495.208 351.512C495.757 350.158 496.029 348.709 496.008 347.248C496.001 346.397 495.937 345.547 495.816 344.704C495.702 343.795 495.487 342.902 495.176 342.04C494.845 341.139 494.324 340.321 493.648 339.64C492.936 338.935 492.083 338.39 491.144 338.04C490.161 337.696 489.135 337.489 488.096 337.424C487.032 337.312 485.936 337.232 484.824 337.168C483.712 337.104 482.576 337.056 481.432 337.04C480.288 337.024 479.104 336.92 477.92 336.864L453.6 335.432L446.256 334.96L444.264 334.816L443.744 334.768L443.568 334.744Z" fill="#455A64"/>
<path d="M465.76 336L460.632 333.48L457.056 321.6L456.712 306.4L463.96 303.344L458.208 288.904C457.16 286.768 455.008 281.112 449.6 279.256C449.514 278.451 449.58 277.637 449.792 276.856C450.216 276.144 436.52 275.72 435.744 276C434.968 276.28 435.872 278.784 435.784 279.2C430.912 280.544 426.184 282.552 424.4 289.248C423.712 291.856 423.944 297.36 424.32 300.016L428.12 320.12L425.984 326.72C425.984 326.72 418.504 342.304 421.344 348.392C424.184 354.48 429 355.856 429 355.856L466.264 355.776L465.76 336Z" fill="#407BFF"/>
<g opacity="0.3">
<path d="M428.368 312.16C429.07 315.387 429.984 318.565 431.104 321.672C431.815 323.643 432.824 325.494 434.096 327.16C435.985 329.329 438.501 330.859 441.296 331.536C444.074 332.21 446.954 332.351 449.784 331.952L435.68 323.952L431.928 310.92L428.368 312.16Z" fill="black"/>
</g>
<path d="M457.048 321.16C456.981 320.804 456.946 320.442 456.944 320.08C456.944 319.328 456.864 318.336 456.8 317.144C456.696 314.664 456.576 311.232 456.456 307.44C456.336 303.648 456.256 300.24 456.216 297.736C456.216 296.536 456.216 295.544 456.216 294.792C456.187 294.433 456.187 294.071 456.216 293.712C456.278 294.066 456.31 294.425 456.312 294.784C456.352 295.536 456.4 296.528 456.456 297.728C456.56 300.208 456.688 303.64 456.8 307.432C456.912 311.224 457 314.632 457.048 317.136C457.048 318.336 457.048 319.328 457.048 320.08C457.077 320.439 457.077 320.801 457.048 321.16Z" fill="#263238"/>
<path d="M443.248 306.96C443.167 307.007 443.081 307.044 442.992 307.072L442.192 307.36L439.12 308.44L427.872 312.32L427.688 312.384L427.648 312.192C426.888 308.104 425.992 303.32 425.024 298.144C424.872 295.592 424.36 292.928 424.576 290.144C424.667 289.468 424.853 288.808 425.128 288.184C425.37 287.562 425.681 286.968 426.056 286.416C426.803 285.328 427.824 284.456 429.016 283.888C430.135 283.321 431.394 283.092 432.641 283.227C433.887 283.361 435.068 283.855 436.04 284.648C436.848 285.47 437.487 286.443 437.92 287.512C438.345 288.492 438.711 289.496 439.016 290.52C439.608 292.488 440.064 294.352 440.504 296.064L442.544 304.064C442.776 304.984 442.952 305.704 443.08 306.232C443.136 306.456 443.176 306.64 443.216 306.784C443.256 306.928 443.216 306.976 443.216 306.968C443.184 306.904 443.16 306.837 443.144 306.768C443.096 306.613 443.04 306.421 442.976 306.192C442.824 305.664 442.624 304.936 442.36 304.016C441.84 302.104 441.096 299.392 440.184 296.064C439.72 294.4 439.264 292.544 438.656 290.592C438.347 289.584 437.978 288.596 437.552 287.632C437.139 286.614 436.53 285.687 435.76 284.904C434.843 284.169 433.733 283.714 432.564 283.593C431.395 283.472 430.216 283.692 429.168 284.224C428.039 284.763 427.073 285.591 426.368 286.624C426.011 287.152 425.713 287.719 425.48 288.312C425.222 288.904 425.047 289.528 424.96 290.168C424.752 292.864 425.24 295.528 425.4 298.112C426.344 303.288 427.216 308.072 427.96 312.168L427.736 312.04L438.936 308.352L442.08 307.344L442.88 307.08L443.248 306.96Z" fill="#263238"/>
<path d="M432 310.68C431.896 310.68 431.6 310.096 431.336 309.296C431.072 308.496 430.96 307.816 431.072 307.784C431.184 307.752 431.48 308.368 431.736 309.168C431.992 309.968 432.136 310.648 432 310.68Z" fill="#263238"/>
<path d="M435.696 309.648C435.584 309.648 435.336 309.072 435.152 308.296C434.968 307.52 434.896 306.88 435.008 306.848C435.12 306.816 435.368 307.424 435.552 308.2C435.736 308.976 435.808 309.6 435.696 309.648Z" fill="#263238"/>
<path d="M439.4 308.32C439.288 308.32 439.04 307.856 438.848 307.216C438.656 306.576 438.592 306.032 438.704 305.992C438.816 305.952 439.056 306.456 439.248 307.096C439.44 307.736 439.504 308.288 439.4 308.32Z" fill="#263238"/>
<path d="M459.432 305.256C459.336 305.312 458.912 304.784 458.632 304.008C458.352 303.232 458.304 302.56 458.408 302.544C458.512 302.528 458.744 303.128 459.024 303.864C459.304 304.6 459.536 305.192 459.432 305.256Z" fill="#263238"/>
<path d="M462.216 303.672C462.112 303.728 461.776 303.264 461.464 302.648C461.152 302.032 460.984 301.488 461.088 301.432C461.192 301.376 461.528 301.84 461.84 302.456C462.152 303.072 462.32 303.624 462.216 303.672Z" fill="#263238"/>
<path d="M437.896 279.832C437.896 279.832 437.96 279.968 437.968 280.192H437.752C437.622 279.564 437.537 278.928 437.496 278.288C437.361 277.534 437.361 276.762 437.496 276.008C437.768 276.726 437.904 277.488 437.896 278.256C437.958 278.894 437.977 279.535 437.952 280.176H437.736C437.808 279.952 437.856 279.824 437.896 279.832Z" fill="#263238"/>
<path d="M441.224 279.832C440.981 279.244 440.864 278.612 440.88 277.976C440.761 277.352 440.786 276.709 440.952 276.096C441.195 276.684 441.312 277.316 441.296 277.952C441.415 278.576 441.39 279.219 441.224 279.832Z" fill="#263238"/>
<path d="M444.712 280.584C444.493 279.859 444.411 279.099 444.472 278.344C444.396 277.59 444.456 276.829 444.648 276.096C444.867 276.821 444.949 277.581 444.888 278.336C444.964 279.09 444.904 279.851 444.712 280.584Z" fill="#263238"/>
<path d="M447.56 280.112C447.358 279.496 447.287 278.845 447.352 278.2C447.287 277.552 447.358 276.899 447.56 276.28C447.772 276.896 447.845 277.552 447.776 278.2C447.846 278.845 447.772 279.498 447.56 280.112Z" fill="#263238"/>
<path d="M466 336.432C466 336.544 459.048 336.168 450.488 335.584C441.928 335 435 334.432 435.008 334.32C435.016 334.208 441.96 334.584 450.52 335.168C459.08 335.752 466.008 336.32 466 336.432Z" fill="#263238"/>
<path d="M430.024 311.632L433.456 322.832C434.058 324.875 435.212 326.713 436.789 328.143C438.367 329.574 440.308 330.543 442.4 330.944L463.728 335L469.528 334.808L467.56 329.856L447.696 322C446.93 321.821 446.228 321.437 445.664 320.888C445.1 320.34 444.696 319.649 444.496 318.888L441.496 307.648L430.024 311.632Z" fill="#FFBE9D"/>
<path d="M448.88 335.144L449.064 333.76L465.448 333.12L473.488 312.84L504.12 314.92L493.784 337.432L448.88 335.144Z" fill="#455A64"/>
<path d="M485.544 325.992C485.375 326.259 485.13 326.47 484.841 326.599C484.551 326.727 484.231 326.766 483.919 326.712C483.607 326.658 483.318 326.513 483.089 326.295C482.86 326.077 482.701 325.795 482.631 325.487C482.562 325.178 482.586 324.856 482.699 324.56C482.813 324.265 483.012 324.01 483.271 323.828C483.529 323.646 483.836 323.544 484.153 323.536C484.469 323.529 484.781 323.615 485.048 323.784C485.226 323.896 485.379 324.043 485.5 324.214C485.621 324.386 485.707 324.58 485.753 324.785C485.799 324.99 485.805 325.202 485.769 325.409C485.733 325.617 485.656 325.814 485.544 325.992Z" fill="white"/>
<path d="M226.4 189.512C239.752 184.664 232.896 164.528 232.896 164.528L165.136 170.736C163.878 170.73 162.63 170.972 161.466 171.449C160.301 171.926 159.243 172.629 158.351 173.517C157.459 174.404 156.751 175.459 156.268 176.621C155.785 177.784 155.536 179.03 155.536 180.288C155.536 182.821 156.542 185.251 158.334 187.042C160.125 188.834 162.555 189.84 165.088 189.84L226.416 189.512" fill="#263238"/>
<path d="M139.144 245.272L139.008 238.552L151.896 233.968L152.432 243.328L151.704 243.68C148.504 245.208 135.144 251.224 132.656 251.456C129.88 251.704 139.144 245.272 139.144 245.272Z" fill="#407BFF"/>
<g opacity="0.4">
<path d="M134.688 248.592C134.688 248.592 131.536 251.072 132.224 251.48C132.912 251.888 146.624 246.312 152.432 243.328L152.304 243.064L136.384 249.704C136.384 249.704 135.4 248.336 134.688 248.592Z" fill="white"/>
</g>
<path d="M152.488 242.984L152.288 243.088L151.712 243.368L149.6 244.344C147.784 245.144 145.264 246.256 142.456 247.4C139.648 248.544 137.072 249.536 135.208 250.216L132.992 251.016L132.384 251.224L132.168 251.28L132.376 251.192L132.968 250.96L135.168 250.112C137.024 249.4 139.584 248.408 142.368 247.256C145.152 246.104 147.704 245.032 149.568 244.248L151.728 243.312L152.312 243.064C152.368 243.031 152.427 243.004 152.488 242.984Z" fill="#263238"/>
<path d="M136.464 249.888C136.226 249.573 135.958 249.281 135.664 249.016C135.322 248.798 134.957 248.618 134.576 248.48C135 248.496 135.41 248.638 135.752 248.889C136.095 249.14 136.354 249.488 136.496 249.888H136.464Z" fill="#263238"/>
<path d="M139.272 246.656C139.272 246.656 138.992 246.552 138.704 246.352C138.416 246.152 138.2 245.952 138.232 245.912C138.264 245.872 138.504 246.016 138.792 246.224C139.08 246.432 139.296 246.616 139.272 246.656Z" fill="#263238"/>
<path d="M140 245.744C140 245.784 139.744 245.744 139.464 245.632C139.184 245.52 138.96 245.416 138.976 245.376C138.992 245.336 139.232 245.376 139.512 245.488C139.792 245.6 140.048 245.704 140 245.744Z" fill="#263238"/>
<path d="M140.184 244.36C140.184 244.4 139.936 244.552 139.592 244.696C139.39 244.806 139.166 244.872 138.936 244.888C138.936 244.848 139.184 244.696 139.528 244.552C139.73 244.441 139.954 244.376 140.184 244.36Z" fill="#263238"/>
<path d="M140.072 243.48C139.918 243.699 139.704 243.868 139.456 243.968C139.229 244.111 138.963 244.178 138.696 244.16C138.916 244.029 139.146 243.917 139.384 243.824C139.602 243.689 139.833 243.574 140.072 243.48Z" fill="#263238"/>
<path d="M138.4 245.776C138.154 245.924 137.883 246.027 137.6 246.08C137.307 246.162 137.007 246.213 136.704 246.232C136.523 246.252 136.341 246.252 136.16 246.232C136.044 246.22 135.938 246.162 135.864 246.072C135.832 246.017 135.816 245.955 135.816 245.892C135.816 245.829 135.832 245.767 135.864 245.712C136.101 245.449 136.421 245.276 136.771 245.222C137.121 245.168 137.479 245.237 137.784 245.416C137.966 245.521 138.124 245.663 138.248 245.832C138.328 245.952 138.36 246.024 138.352 246.032C138.178 245.821 137.966 245.645 137.728 245.512C137.481 245.386 137.204 245.33 136.928 245.352C136.758 245.363 136.592 245.408 136.44 245.483C136.288 245.559 136.152 245.664 136.04 245.792C135.952 245.936 136.04 246.056 136.224 246.08C136.394 246.1 136.566 246.1 136.736 246.08C137.032 246.064 137.326 246.026 137.616 245.968C138.128 245.872 138.4 245.752 138.4 245.776Z" fill="#263238"/>
<path d="M138.248 245.896C138.091 245.768 137.984 245.59 137.944 245.392C137.891 245.179 137.891 244.957 137.944 244.744C137.958 244.602 138.01 244.466 138.094 244.35C138.179 244.235 138.293 244.144 138.424 244.088C138.51 244.074 138.598 244.093 138.669 244.143C138.741 244.192 138.791 244.267 138.808 244.352C138.836 244.484 138.836 244.62 138.808 244.752C138.773 244.961 138.714 245.165 138.632 245.36C138.57 245.548 138.463 245.718 138.32 245.856C138.32 245.856 138.416 245.656 138.528 245.32C138.596 245.129 138.642 244.93 138.664 244.728C138.704 244.52 138.664 244.2 138.448 244.248C138.232 244.296 138.128 244.576 138.072 244.776C138.028 244.971 138.028 245.173 138.072 245.368C138.115 245.549 138.174 245.725 138.248 245.896Z" fill="#263238"/>
<path d="M150.904 239.8C150.904 239.8 150.552 239.904 150.032 240.192C149.357 240.557 148.799 241.107 148.424 241.777C148.048 242.447 147.871 243.209 147.912 243.976C147.912 244.56 148.056 244.92 148.032 244.928C147.987 244.85 147.952 244.767 147.928 244.68C147.861 244.453 147.818 244.22 147.8 243.984C147.726 243.191 147.895 242.394 148.285 241.699C148.675 241.005 149.268 240.445 149.984 240.096C150.194 239.985 150.417 239.899 150.648 239.84C150.731 239.813 150.817 239.799 150.904 239.8Z" fill="#263238"/>
<path d="M147.632 235.312C148.046 236.09 148.415 236.891 148.736 237.712C149.108 238.518 149.428 239.346 149.696 240.192C149.28 239.415 148.912 238.613 148.592 237.792C148.226 236.984 147.905 236.156 147.632 235.312Z" fill="#263238"/>
<path d="M146.056 244.448C145.534 244.811 144.97 245.109 144.376 245.336C143.797 245.601 143.187 245.792 142.56 245.904C142.56 245.864 143.36 245.592 144.312 245.184C145.264 244.776 146.032 244.408 146.056 244.448Z" fill="#263238"/>
<path d="M148.408 243.488C148.448 243.488 148.408 243.68 148.408 243.888C148.408 244.096 148.408 244.28 148.408 244.296C148.408 244.312 148.264 244.128 148.272 243.88C148.28 243.632 148.368 243.464 148.408 243.488Z" fill="#263238"/>
<path d="M148.84 242.024C148.84 242.024 148.84 242.192 148.784 242.368C148.728 242.544 148.616 242.68 148.576 242.664C148.536 242.648 148.576 242.488 148.64 242.312C148.704 242.136 148.8 242.008 148.84 242.024Z" fill="#263238"/>
<path d="M149.904 241C149.904 241.048 149.752 241.112 149.6 241.24C149.448 241.368 149.36 241.52 149.32 241.504C149.28 241.488 149.32 241.288 149.496 241.128C149.672 240.968 149.904 240.96 149.904 241Z" fill="#263238"/>
<path d="M150.712 240.4C150.712 240.4 150.712 240.52 150.608 240.6C150.504 240.68 150.432 240.712 150.408 240.68C150.384 240.648 150.408 240.56 150.504 240.48C150.6 240.4 150.68 240.368 150.712 240.4Z" fill="#263238"/>
<path d="M190.872 169.824L153.032 170.536C150.106 170.589 147.297 171.698 145.123 173.657C142.949 175.617 141.556 178.295 141.2 181.2L133.696 242.184H154.248L160.52 189.512H190.4L190.872 169.824Z" fill="#263238"/>
<path d="M133.952 238.304C133.952 238.4 138.456 238.512 144.008 238.544C149.56 238.576 153.968 238.44 154.064 238.432C154.704 238.368 149.56 238.224 144.008 238.192C138.456 238.16 133.952 238.208 133.952 238.304Z" fill="#455A64"/>
<path d="M211.688 167.904H210.944L208.8 168L200.976 168.368L175.2 169.696C173.936 169.752 172.696 169.856 171.472 169.872C170.248 169.888 169.024 169.944 167.832 170.008C166.64 170.072 165.48 170.16 164.336 170.28C163.203 170.348 162.084 170.566 161.008 170.928C159.985 171.293 159.046 171.862 158.248 172.6C157.505 173.315 156.931 174.187 156.568 175.152C156.236 176.04 156.007 176.963 155.888 177.904C155.762 178.768 155.7 179.639 155.704 180.512C155.679 182.02 155.979 183.515 156.584 184.896C157.048 185.939 157.756 186.855 158.648 187.568C159.206 188.018 159.844 188.36 160.528 188.576C161 188.712 161.008 188.672 160.528 188.512C159.863 188.272 159.246 187.917 158.704 187.464C157.85 186.749 157.174 185.845 156.728 184.824C156.16 183.459 155.887 181.99 155.928 180.512C155.934 179.652 156.001 178.794 156.128 177.944C156.256 177.025 156.487 176.123 156.816 175.256C157.168 174.349 157.714 173.53 158.416 172.856C159.191 172.15 160.099 171.605 161.088 171.256C162.141 170.916 163.232 170.709 164.336 170.64C165.472 170.528 166.64 170.448 167.824 170.384C169.008 170.32 170.224 170.272 171.44 170.256C172.656 170.24 173.912 170.136 175.176 170.08L200.976 168.64L208.8 168.16L210.92 168.016L211.472 167.968C211.547 167.961 211.621 167.939 211.688 167.904Z" fill="#455A64"/>
<path d="M199.632 142.608L196.344 152.912C195.715 155.009 194.519 156.891 192.889 158.352C191.259 159.813 189.257 160.796 187.104 161.192L168 166.488L166.512 162.952L165.12 157.728L181.648 152.128C182.445 151.954 183.178 151.563 183.767 150.998C184.356 150.434 184.777 149.717 184.984 148.928L191.568 134.608L199.904 139.72L199.632 142.608Z" fill="#B78876"/>
<path d="M207.648 110.4C200.648 111.2 198.392 114.064 195.536 118.2C194.349 119.914 193.397 121.778 192.704 123.744L187.4 138.768L198.464 142.184L198.096 154.4L193.056 169.336L235.56 172.68L235.44 150.976L235.136 137.88C235.536 132.92 236.568 122.408 235.688 119.912C231.904 109.248 223.56 111.296 217.44 109.776C214.637 109.488 211.811 109.488 209.008 109.776" fill="#407BFF"/>
<path d="M235.56 149.6C235.56 149.712 227.248 149.808 216.992 149.808C206.736 149.808 198.4 149.736 198.4 149.6C198.4 149.464 206.712 149.392 216.968 149.392C227.224 149.392 235.56 149.504 235.56 149.6Z" fill="#FAFAFA"/>
<path d="M234.936 157.04C234.936 157.16 226.624 157.248 216.368 157.248C206.112 157.248 197.8 157.16 197.8 157.04C197.8 156.92 206.112 156.832 216.368 156.832C226.624 156.832 234.936 156.928 234.936 157.04Z" fill="#FAFAFA"/>
<path d="M235.136 165.552C235.136 165.672 226.336 165.76 215.504 165.76C204.672 165.76 195.864 165.672 195.864 165.552C195.864 165.432 204.664 165.344 215.504 165.344C226.344 165.344 235.136 165.44 235.136 165.552Z" fill="#FAFAFA"/>
<g opacity="0.3">
<path d="M229.976 144.88C229.424 147.752 229.176 150.856 228.2 153.616C227.554 155.678 226.597 157.628 225.36 159.4C223.513 161.705 220.998 163.382 218.16 164.2C215.352 165.072 201.856 168.088 198.96 167.864L223.648 156.176L226.624 143.888L229.976 144.88Z" fill="black"/>
</g>
<path d="M228.536 144.448L225.824 154.896C225.295 157.037 224.187 158.991 222.621 160.544C221.054 162.096 219.09 163.187 216.944 163.696L195.152 168.8L189.16 168.864V160.616L211.096 154.688C211.884 154.476 212.599 154.053 213.163 153.463C213.727 152.874 214.119 152.141 214.296 151.344L216.408 142.152L228.536 144.448Z" fill="#B78876"/>
<path d="M235.776 119.304C235.776 119.416 226.616 119.512 215.312 119.512C204.008 119.512 194.848 119.416 194.848 119.304C194.848 119.192 204.008 119.096 215.312 119.096C226.616 119.096 235.776 119.2 235.776 119.304Z" fill="#FAFAFA"/>
<path d="M236 126.4C236 126.52 226.128 126.608 213.944 126.608C201.76 126.608 191.888 126.52 191.888 126.4C191.888 126.28 201.76 126.192 213.944 126.192C226.128 126.192 236 126.272 236 126.4Z" fill="#FAFAFA"/>
<path d="M235.464 134.04C235.464 134.16 225.064 134.336 212.264 134.432C199.464 134.528 189.064 134.52 189.064 134.432C189.064 134.344 199.464 134.144 212.264 134.04C225.064 133.936 235.456 133.928 235.464 134.04Z" fill="#FAFAFA"/>
<path d="M235.136 142.152C235.136 142.264 226.824 142.36 216.568 142.36C206.312 142.36 198 142.264 198 142.152C198 142.04 206.312 141.944 216.568 141.944C226.824 141.944 235.136 142.04 235.136 142.152Z" fill="#FAFAFA"/>
<path d="M232.272 145.32C232.26 145.262 232.26 145.202 232.272 145.144L232.344 144.64C232.416 144.168 232.52 143.52 232.64 142.704C232.904 141.008 233.288 138.552 233.712 135.504C234.136 132.456 234.624 128.728 234.872 124.552C234.952 122.48 235.128 120.192 234.072 118.152C233.55 117.127 232.777 116.252 231.824 115.608C230.836 114.945 229.713 114.51 228.536 114.336H228.488C227.142 114.015 225.729 114.113 224.44 114.616C223.077 115.055 221.807 115.744 220.696 116.648C220.473 116.834 220.279 117.053 220.12 117.296C219.964 117.555 219.822 117.822 219.696 118.096C219.45 118.64 219.245 119.202 219.08 119.776C218.772 120.922 218.526 122.084 218.344 123.256C217.928 125.568 217.544 127.824 217.136 129.992C216.336 134.328 215.64 138.328 215 141.872L214.88 141.688L227.2 144.272L230.584 145.024L231.472 145.232C231.573 145.251 231.673 145.281 231.768 145.32L231.456 145.28L230.568 145.12L227.16 144.456L214.808 141.96H214.664V141.8C215.288 138.256 215.984 134.248 216.744 129.904C217.128 127.736 217.544 125.48 217.936 123.16C218.117 121.976 218.365 120.803 218.68 119.648C218.844 119.051 219.055 118.468 219.312 117.904C219.448 117.63 219.598 117.363 219.76 117.104C219.941 116.83 220.159 116.582 220.408 116.368C221.564 115.425 222.885 114.706 224.304 114.248C225.678 113.722 227.18 113.63 228.608 113.984H228.568C229.812 114.168 230.999 114.63 232.04 115.336C233.056 116.016 233.882 116.944 234.44 118.032C234.704 118.556 234.913 119.105 235.064 119.672C235.194 120.227 235.276 120.791 235.312 121.36L235.36 122.16C235.36 122.432 235.36 122.704 235.36 122.96C235.36 123.504 235.32 124.032 235.288 124.56C235.016 128.76 234.488 132.456 234.04 135.536C233.592 138.616 233.152 141.064 232.848 142.736C232.696 143.536 232.568 144.192 232.48 144.664L232.376 145.16C232.346 145.217 232.312 145.27 232.272 145.32Z" fill="#263238"/>
<path d="M198.344 154.232C198.391 153.863 198.41 153.492 198.4 153.12C198.4 152.32 198.4 151.32 198.4 150.08C198.4 147.52 198.4 143.984 198.328 140.072C198.256 136.16 198.224 132.624 198.16 130.064C198.12 128.824 198.088 127.808 198.064 127.024C198.065 126.652 198.038 126.28 197.984 125.912C197.932 126.28 197.913 126.652 197.928 127.024C197.928 127.824 197.928 128.824 197.928 130.064C197.928 132.624 197.928 136.168 198 140.072C198.072 143.976 198.112 147.528 198.176 150.088C198.176 151.32 198.248 152.344 198.272 153.12C198.262 153.492 198.286 153.864 198.344 154.232Z" fill="#263238"/>
<path d="M211.688 170.624L212.064 168.84L195.56 167.08L188.36 146.4L154.744 146.168L165.76 170.152L211.688 170.624Z" fill="#455A64"/>
<path d="M176.288 159.392C176.564 159.216 176.782 158.963 176.914 158.663C177.047 158.364 177.087 158.032 177.031 157.709C176.974 157.387 176.824 157.088 176.598 156.851C176.372 156.615 176.081 156.45 175.761 156.379C175.442 156.307 175.108 156.332 174.803 156.45C174.497 156.568 174.234 156.774 174.045 157.041C173.857 157.309 173.752 157.627 173.744 157.954C173.736 158.281 173.825 158.603 174 158.88C174.116 159.064 174.268 159.223 174.446 159.349C174.624 159.474 174.825 159.563 175.038 159.611C175.25 159.658 175.47 159.663 175.685 159.626C175.899 159.588 176.104 159.509 176.288 159.392Z" fill="white"/>
<path d="M199.2 76.328C198.294 76.4704 197.454 76.8884 196.794 77.5252C196.134 78.162 195.686 78.9866 195.511 79.887C195.336 80.7874 195.443 81.7197 195.817 82.5573C196.19 83.3948 196.813 84.0969 197.6 84.568C197.925 84.7922 198.3 84.9329 198.692 84.9775C199.084 85.0222 199.481 84.9694 199.848 84.824C200.158 84.6263 200.425 84.3688 200.633 84.0666C200.842 83.7644 200.989 83.4235 201.064 83.064C201.76 80.7878 201.568 78.3328 200.528 76.192" fill="#263238"/>
<path d="M213.032 117.16C212.082 117.16 211.141 116.972 210.264 116.607C209.386 116.241 208.59 115.706 207.921 115.031C207.252 114.357 206.722 113.557 206.364 112.677C206.005 111.797 205.825 110.854 205.832 109.904C205.832 107.416 205.896 105.256 205.896 105.256C205.896 105.256 200.136 104.72 199.712 99.016C199.288 93.312 199.472 80.144 199.472 80.144C202.632 78.5528 206.159 77.8326 209.69 78.0575C213.221 78.2825 216.628 79.4446 219.56 81.424L220.44 82.024L220.168 110.024C220.151 111.911 219.394 113.717 218.059 115.051C216.725 116.386 214.919 117.143 213.032 117.16Z" fill="#B78876"/>
<path d="M205.912 105.176C208.551 105.064 211.097 104.167 213.224 102.6C213.224 102.6 211.72 106.816 206.024 106.656L205.912 105.176Z" fill="#AA6550"/>
<path d="M219 88.328C219.112 88.328 222.616 87.832 222.28 91.976C221.944 96.12 217.88 94.376 217.88 94.288C217.88 94.2 219 88.328 219 88.328Z" fill="#B78876"/>
<path d="M219.264 92.936C219.264 92.936 219.336 92.992 219.456 93.064C219.622 93.1495 219.814 93.1667 219.992 93.112C220.272 92.9653 220.509 92.7462 220.676 92.4776C220.843 92.2089 220.936 91.9004 220.944 91.584C220.983 91.2275 220.942 90.8666 220.824 90.528C220.798 90.3955 220.739 90.2717 220.652 90.1682C220.565 90.0647 220.454 89.9848 220.328 89.936C220.248 89.9058 220.159 89.9054 220.078 89.9347C219.998 89.9641 219.93 90.0213 219.888 90.096C219.824 90.208 219.84 90.296 219.816 90.304C219.792 90.312 219.736 90.224 219.816 90.056C219.848 89.955 219.913 89.8677 220 89.808C220.06 89.7695 220.127 89.7434 220.197 89.731C220.267 89.7186 220.339 89.7203 220.408 89.736C220.575 89.7836 220.726 89.8734 220.848 89.9967C220.97 90.12 221.058 90.2727 221.104 90.44C221.256 90.8093 221.311 91.2114 221.264 91.608C221.255 91.9778 221.137 92.3367 220.925 92.6398C220.713 92.9429 220.416 93.1767 220.072 93.312C219.958 93.3348 219.84 93.3322 219.726 93.3046C219.613 93.277 219.507 93.2249 219.416 93.152C219.264 93.04 219.248 92.944 219.264 92.936Z" fill="#AA6550"/>
<path d="M203.44 82.504C204.4 81.9492 205.301 81.2978 206.128 80.56C206.475 81.1066 206.939 81.5691 207.486 81.914C208.034 82.259 208.651 82.4777 209.294 82.5543C209.937 82.6309 210.588 82.5635 211.202 82.3569C211.815 82.1503 212.375 81.8098 212.84 81.36C212.864 81.7299 212.98 82.0881 213.177 82.4022C213.374 82.7164 213.646 82.9768 213.968 83.16C214.293 83.3372 214.658 83.43 215.028 83.43C215.398 83.43 215.763 83.3372 216.088 83.16L216.176 89.76C216.118 90.3967 216.263 91.0355 216.592 91.584C216.68 91.7092 216.795 91.8135 216.927 91.8897C217.06 91.9659 217.208 92.0121 217.36 92.0251C217.513 92.0381 217.666 92.0175 217.81 91.9648C217.954 91.912 218.084 91.8285 218.192 91.72C218.05 90.9144 218.128 90.0855 218.416 89.32C218.574 88.9475 218.868 88.6488 219.237 88.484C219.607 88.3192 220.025 88.3007 220.408 88.432C220.641 87.1446 220.719 85.8339 220.64 84.528C220.623 84.1244 220.678 83.721 220.8 83.336C221.024 82.968 221.128 83.248 221.552 83.16C222.157 83.0077 222.697 82.6679 223.097 82.1893C223.496 81.7108 223.734 81.118 223.776 80.496C223.8 79.8711 223.666 79.2503 223.386 78.691C223.106 78.1317 222.69 77.6519 222.176 77.296C221.142 76.5881 219.883 76.2862 218.64 76.448C219.012 76.0352 219.217 75.4994 219.217 74.944C219.217 74.3886 219.012 73.8528 218.64 73.44C218.255 73.0406 217.784 72.7338 217.263 72.5426C216.742 72.3514 216.184 72.2807 215.632 72.336C214.52 72.408 213.272 73.024 213.136 74.12C212.998 73.041 212.479 72.0467 211.673 71.3167C210.866 70.5867 209.826 70.169 208.738 70.139C207.651 70.1091 206.589 70.4689 205.743 71.1534C204.898 71.838 204.325 72.8022 204.128 73.872C202.8 73.28 200.928 72.632 199.616 73.232C198.844 73.5384 198.176 74.0587 197.69 74.7319C197.204 75.4051 196.92 76.2031 196.872 77.032C196.872 77.032 196.536 81.56 199.408 82.472C202.28 83.384 203.44 82.504 203.44 82.504Z" fill="#263238"/>
<path d="M201.008 89.28C201.008 89.4922 201.092 89.6957 201.242 89.8457C201.392 89.9957 201.596 90.08 201.808 90.08C202.007 90.081 202.199 90.0078 202.347 89.8746C202.495 89.7415 202.588 89.558 202.608 89.36C202.608 89.1478 202.524 88.9443 202.374 88.7943C202.224 88.6443 202.02 88.56 201.808 88.56C201.609 88.559 201.417 88.6322 201.269 88.7654C201.121 88.8985 201.028 89.082 201.008 89.28Z" fill="#263238"/>
<path d="M200.8 88.376C200.896 88.48 201.504 88.032 202.4 88.04C203.296 88.048 203.888 88.472 204 88.368C204.112 88.264 203.944 88.128 203.672 87.928C203.298 87.6705 202.854 87.5337 202.4 87.536C201.951 87.5365 201.514 87.6794 201.152 87.944C200.872 88.144 200.8 88.336 200.8 88.376Z" fill="#263238"/>
<path d="M209.44 89.48C209.44 89.6922 209.524 89.8957 209.674 90.0457C209.824 90.1957 210.028 90.28 210.24 90.28C210.439 90.281 210.631 90.2078 210.779 90.0746C210.927 89.9415 211.02 89.758 211.04 89.56C211.04 89.3478 210.956 89.1443 210.806 88.9943C210.656 88.8443 210.452 88.76 210.24 88.76C210.041 88.759 209.849 88.8322 209.701 88.9654C209.553 89.0985 209.46 89.282 209.44 89.48Z" fill="#263238"/>
<path d="M209.296 88.536C209.392 88.648 210 88.192 210.896 88.2C211.792 88.208 212.384 88.632 212.496 88.528C212.608 88.424 212.44 88.288 212.168 88.088C211.794 87.8305 211.35 87.6938 210.896 87.696C210.447 87.6965 210.01 87.8394 209.648 88.104C209.336 88.304 209.248 88.496 209.296 88.536Z" fill="#263238"/>
<path d="M206.168 94.928C205.717 94.7841 205.249 94.6981 204.776 94.672C204.552 94.672 204.344 94.608 204.304 94.456C204.287 94.2295 204.34 94.0032 204.456 93.808L205.104 92.128C205.707 90.7103 206.196 89.2471 206.568 87.752C205.849 89.1168 205.242 90.5374 204.752 92C204.536 92.592 204.328 93.152 204.136 93.688C203.993 93.9522 203.951 94.2589 204.016 94.552C204.05 94.6279 204.099 94.6957 204.161 94.7508C204.224 94.806 204.297 94.8473 204.376 94.872C204.499 94.9053 204.625 94.9214 204.752 94.92C205.222 94.9805 205.697 94.9832 206.168 94.928Z" fill="#263238"/>
<path d="M208.704 95.52C208.568 95.52 208.56 96.448 207.76 97.12C206.96 97.792 205.968 97.68 205.96 97.808C205.952 97.936 206.184 97.992 206.6 98C207.147 98.0122 207.681 97.8277 208.104 97.48C208.512 97.146 208.776 96.6675 208.84 96.144C208.872 95.744 208.8 95.512 208.704 95.52Z" fill="#263238"/>
<path d="M209.072 85.168C209.16 85.4 210.016 85.288 211.024 85.408C212.032 85.528 212.856 85.808 212.992 85.6C213.128 85.392 212.904 85.28 212.576 85.048C212.138 84.7665 211.639 84.5937 211.12 84.544C210.604 84.4776 210.079 84.538 209.592 84.72C209.224 84.872 209.04 85.056 209.072 85.168Z" fill="#263238"/>
<path d="M201.152 85.888C201.304 86.08 201.896 85.888 202.608 85.888C203.32 85.888 203.92 86.016 204.064 85.816C204.208 85.616 204.064 85.52 203.768 85.336C203.413 85.1143 203 85.0029 202.581 85.0157C202.163 85.0285 201.757 85.165 201.416 85.408C201.168 85.6 201.08 85.792 201.152 85.888Z" fill="#263238"/>
<path d="M202.784 76.056C202.784 76.056 202.704 76.056 202.56 75.992C202.456 75.9734 202.35 75.9774 202.247 76.0036C202.145 76.0299 202.05 76.0777 201.968 76.144C201.842 76.2446 201.749 76.381 201.702 76.5352C201.655 76.6893 201.656 76.8542 201.704 77.008C201.764 77.2201 201.872 77.4153 202.021 77.5779C202.169 77.7404 202.354 77.8658 202.56 77.944C202.808 78.0404 203.073 78.0817 203.339 78.0651C203.604 78.0485 203.862 77.9745 204.096 77.848C204.358 77.6933 204.578 77.4782 204.74 77.2207C204.901 76.9632 204.999 76.6708 205.024 76.368C205.056 76.0311 205.008 75.6913 204.883 75.3769C204.758 75.0624 204.559 74.7824 204.304 74.56C204.035 74.3126 203.715 74.1266 203.367 74.0147C203.019 73.9029 202.651 73.8678 202.288 73.912C201.542 74.0039 200.851 74.3483 200.328 74.888C199.847 75.3967 199.523 76.0325 199.392 76.72C199.153 77.9124 199.361 79.1511 199.976 80.2C200.374 80.9146 200.919 81.5363 201.576 82.024C202.048 82.36 202.376 82.504 202.376 82.536C202.073 82.4623 201.786 82.335 201.528 82.16C200.794 81.7081 200.177 81.0885 199.728 80.352C199.037 79.2495 198.785 77.9273 199.024 76.648C199.158 75.8801 199.514 75.1683 200.048 74.6C200.63 73.9879 201.409 73.5999 202.248 73.504C202.67 73.4522 203.098 73.4926 203.503 73.6225C203.907 73.7523 204.279 73.9685 204.592 74.256C204.887 74.5253 205.113 74.861 205.252 75.2353C205.391 75.6095 205.439 76.0115 205.392 76.408C205.356 76.7695 205.234 77.117 205.034 77.4207C204.835 77.7244 204.565 77.9754 204.248 78.152C203.967 78.2957 203.658 78.3759 203.343 78.3869C203.028 78.398 202.714 78.3396 202.424 78.216C202.182 78.117 201.968 77.9603 201.801 77.7594C201.633 77.5586 201.518 77.3198 201.464 77.064C201.414 76.8682 201.426 76.6618 201.497 76.4729C201.569 76.284 201.697 76.1217 201.864 76.008C201.965 75.9375 202.082 75.8915 202.204 75.8734C202.326 75.8554 202.451 75.8658 202.568 75.904C202.744 76 202.792 76.048 202.784 76.056Z" fill="#455A64"/>
<path d="M68.84 340.8C69.376 338.672 67.976 336.552 66.44 335.016C64.904 333.48 63 332.112 62.176 330.08C60.84 326.784 62.584 322.496 60.32 319.76C58.992 318.16 56.616 317.616 55.44 315.888C54.8762 314.938 54.4962 313.891 54.32 312.8C53.0303 307.321 50.2954 302.287 46.4 298.224C46.1819 303.12 47.2873 307.984 49.6 312.304C50.52 314.032 51.648 315.712 51.96 317.648C52.472 320.784 50.736 324.048 51.52 327.104C52.424 330.624 56.4 332.96 56.608 336.592C56.784 339.656 54.12 342.368 54.344 345.432C54.5097 346.736 54.9842 347.981 55.728 349.064C58.128 352.992 61.624 355.688 66.928 355.568L73.4 355.76L68.84 340.8Z" fill="#407BFF"/>
<g opacity="0.3">
<path d="M68.84 340.8C69.376 338.672 67.976 336.552 66.44 335.016C64.904 333.48 63 332.112 62.176 330.08C60.84 326.784 62.584 322.496 60.32 319.76C58.992 318.16 56.616 317.616 55.44 315.888C54.8762 314.938 54.4962 313.891 54.32 312.8C53.0303 307.321 50.2954 302.287 46.4 298.224C46.1819 303.12 47.2873 307.984 49.6 312.304C50.52 314.032 51.648 315.712 51.96 317.648C52.472 320.784 50.736 324.048 51.52 327.104C52.424 330.624 56.4 332.96 56.608 336.592C56.784 339.656 54.12 342.368 54.344 345.432C54.5097 346.736 54.9842 347.981 55.728 349.064C58.128 352.992 61.624 355.688 66.928 355.568L73.4 355.76L68.84 340.8Z" fill="black"/>
</g>
<path d="M74.656 355.92C75.2461 356.01 75.8476 355.994 76.432 355.872C77.1499 355.762 77.8548 355.58 78.536 355.328C79.4714 354.999 80.3448 354.515 81.12 353.896C81.5851 353.512 81.9502 353.02 82.184 352.464C82.3753 351.836 82.4724 351.184 82.472 350.528C82.4815 349.83 82.5296 349.133 82.616 348.44C82.7415 347.698 83.0134 346.988 83.416 346.352C84.168 345.008 85.432 343.728 85.816 341.912C86.2 340.096 85.92 338.184 85.608 336.24C85.296 334.296 84.992 332.184 85.72 330.16C86.448 328.136 87.816 326.296 88.512 324.016C89.208 321.736 88.856 319.216 88.992 316.816C89.0265 315.579 89.2981 314.359 89.792 313.224C90.312 312.072 91.032 310.992 91.592 309.784C92.728 307.336 92.912 304.576 93.192 301.864C93.336 300.504 93.488 299.12 93.632 297.728C93.7235 296.327 93.9567 294.938 94.328 293.584C94.7577 292.222 95.2679 290.886 95.856 289.584C96.1585 288.907 96.4046 288.206 96.592 287.488C96.6972 286.751 96.764 286.008 96.792 285.264C96.8532 283.768 96.7863 282.269 96.592 280.784C96.408 279.288 96.128 277.816 95.96 276.32V276.056V275.76L95.696 275.896C94.3289 276.603 93.1435 277.616 92.232 278.856C91.3401 280.065 90.6262 281.396 90.112 282.808C89.048 285.6 88.672 288.512 88.144 291.296C87.7557 294.047 86.8692 296.703 85.528 299.136C84.832 300.288 83.976 301.344 83.232 302.472C82.4311 303.57 81.8845 304.833 81.632 306.168C81.264 308.912 82.784 311.304 82.488 313.728C82.3475 314.921 81.9519 316.07 81.328 317.096C80.744 318.128 80.056 319.096 79.408 320.064C78.7447 321.007 78.169 322.008 77.688 323.056C77.2322 324.083 76.9614 325.183 76.888 326.304C76.744 328.488 77.064 330.552 76.888 332.512C76.7075 334.373 76.1639 336.18 75.288 337.832C74.488 339.432 73.688 340.872 72.888 342.272C72.528 342.976 72.192 343.656 71.92 344.344C71.6639 345.005 71.4789 345.692 71.368 346.392C71.1886 347.615 71.1886 348.857 71.368 350.08C71.5483 351.792 72.199 353.42 73.248 354.784C73.4078 354.985 73.5844 355.173 73.776 355.344C73.9059 355.477 74.0478 355.597 74.2 355.704C74.44 355.88 74.576 355.96 74.576 355.96C74.1105 355.597 73.6866 355.184 73.312 354.728C72.3045 353.364 71.6878 351.752 71.528 350.064C71.3748 348.854 71.3964 347.628 71.592 346.424C71.7087 345.74 71.8964 345.069 72.152 344.424C72.4412 343.727 72.7669 343.046 73.128 342.384C73.856 340.992 74.728 339.552 75.528 337.952C76.4132 336.267 76.957 334.424 77.128 332.528C77.288 330.536 76.976 328.456 77.128 326.328C77.209 325.241 77.4797 324.177 77.928 323.184C78.4098 322.16 78.9799 321.181 79.632 320.256C80.28 319.296 80.976 318.328 81.568 317.264C82.2211 316.2 82.636 315.007 82.784 313.768C83.08 311.184 81.576 308.768 81.944 306.224C82.1896 304.947 82.7141 303.739 83.48 302.688C84.208 301.584 85.08 300.528 85.792 299.336C87.1612 296.854 88.0666 294.143 88.464 291.336C89 288.536 89.376 285.656 90.416 282.928C90.9175 281.551 91.6125 280.253 92.48 279.072C93.3527 277.884 94.4892 276.914 95.8 276.24L95.504 276.072V276.336C95.672 277.848 95.952 279.328 96.136 280.8C96.3231 282.261 96.3874 283.736 96.328 285.208C96.288 285.936 96.248 286.688 96.144 287.368C95.9615 288.062 95.7206 288.739 95.424 289.392C94.8345 290.713 94.3217 292.068 93.888 293.448C93.5106 294.823 93.2747 296.233 93.184 297.656C93.04 299.056 92.896 300.432 92.752 301.8C92.456 304.52 92.272 307.24 91.152 309.6C90.616 310.768 89.896 311.856 89.36 313.04C88.8572 314.223 88.5857 315.491 88.56 316.776C88.432 319.272 88.768 321.712 88.104 323.928C87.44 326.144 86.048 327.976 85.344 330.064C84.64 332.152 84.92 334.36 85.24 336.296C85.56 338.232 85.888 340.136 85.48 341.856C85.072 343.576 83.88 344.864 83.128 346.24C82.7252 346.905 82.4536 347.641 82.328 348.408C82.2462 349.112 82.2061 349.82 82.208 350.528C82.2114 351.167 82.1198 351.804 81.936 352.416C81.7234 352.945 81.3824 353.412 80.944 353.776C80.2078 354.38 79.3783 354.861 78.488 355.2C77.8171 355.457 77.1233 355.65 76.416 355.776C75.9828 355.854 75.5441 355.897 75.104 355.904L74.656 355.92Z" fill="#263238"/>
<path d="M94.664 279.592C94.632 279.652 94.6103 279.717 94.6 279.784C94.6 279.944 94.52 280.136 94.456 280.368C94.336 280.88 94.184 281.648 93.952 282.608C93.72 283.568 93.152 284.656 92.624 286C92.096 287.344 91.592 288.864 91.112 290.592C90.632 292.32 90.2 294.24 89.76 296.296C89.3783 298.49 88.6917 300.62 87.72 302.624C87.2 303.68 86.608 304.752 86.12 305.912C85.6609 307.109 85.3544 308.359 85.208 309.632C84.8972 312.265 84.4459 314.879 83.856 317.464C82.592 322.776 81.384 327.864 80.28 332.44C79.176 337.016 78.144 341.16 77.288 344.648C76.432 348.136 75.776 350.904 75.304 352.888C75.08 353.832 74.904 354.584 74.784 355.128C74.728 355.368 74.688 355.56 74.656 355.72C74.6454 355.786 74.6454 355.854 74.656 355.92L74.72 355.728C74.768 355.573 74.824 355.381 74.888 355.152L75.48 352.928C75.992 350.952 76.712 348.128 77.592 344.72L80.68 332.528C81.784 327.92 83.008 322.864 84.288 317.552C84.8786 314.957 85.3273 312.332 85.632 309.688C85.7716 308.448 86.0673 307.23 86.512 306.064C86.96 304.928 87.544 303.864 88.064 302.8C89.0379 300.772 89.7219 298.618 90.096 296.4C90.528 294.344 90.896 292.4 91.4 290.704C91.904 289.008 92.352 287.44 92.84 286.112C93.328 284.784 93.872 283.712 94.104 282.688C94.336 281.664 94.44 280.936 94.544 280.416C94.544 280.176 94.616 279.984 94.64 279.824C94.6555 279.748 94.6635 279.67 94.664 279.592Z" fill="#263238"/>
<path d="M75.792 355.936C80.008 353.4 81.176 345.768 79.384 341.192C77.592 336.616 74.488 332.432 73.984 327.544C73.6 323.784 74.784 319.92 73.912 316.248C72.704 311.296 67.832 307.448 67.864 302.376C67.864 299.52 69.464 296.776 69.344 293.96C69.168 290.448 66.456 287.688 64.776 284.608C62.192 279.896 61.992 274.304 61.096 269.008C60.2 263.712 58.136 258.048 53.424 255.464C52.8 260 51.592 263.064 52 269.16C52.144 271.344 54.712 275.52 55.08 280.32C55.304 283.184 55.464 286.056 55.656 288.928C55.848 291.8 56.04 294.528 57.056 297.168C57.856 299.168 59.08 300.976 59.664 303.04C60.752 306.928 59.368 311.144 60.256 315.08C61.008 318.416 63.336 321.28 63.832 324.68C64.52 329.432 61.432 334.392 63.032 338.92C63.832 341.16 65.688 342.96 66.232 345.28C66.648 347.088 66.232 349 66.6 350.808C67.208 353.72 72.792 355.96 75.76 355.76" fill="#407BFF"/>
<path d="M54.616 259.928C54.6071 260.013 54.6071 260.099 54.616 260.184C54.616 260.368 54.68 260.616 54.72 260.92C54.816 261.568 54.936 262.52 55.16 263.76C55.384 265 56.048 266.392 56.568 268.072C57.088 269.752 57.664 271.68 58.168 273.848C58.672 276.016 59.08 278.416 59.52 280.992C59.8756 283.773 60.6217 286.491 61.736 289.064C62.336 290.416 63.008 291.76 63.512 293.2C64.009 294.675 64.3181 296.207 64.432 297.76C64.6853 301.061 65.1179 304.346 65.728 307.6C67.056 314.256 68.328 320.6 69.48 326.376L72.68 341.672C73.64 346 74.4 349.52 74.928 352C75.192 353.192 75.4 354.128 75.552 354.8C75.6267 355.093 75.6827 355.333 75.72 355.52C75.7337 355.605 75.7579 355.689 75.792 355.768C75.8044 355.683 75.8044 355.597 75.792 355.512C75.792 355.328 75.72 355.088 75.664 354.784C75.536 354.112 75.352 353.184 75.12 351.968C74.616 349.504 73.912 345.976 73.032 341.64C72.152 337.304 71.072 332.08 69.888 326.32L66.168 307.552C65.5399 304.301 65.0833 301.019 64.8 297.72C64.6827 296.134 64.3656 294.57 63.856 293.064C63.328 291.6 62.648 290.248 62.048 288.912C60.9396 286.361 60.1911 283.669 59.824 280.912C59.376 278.336 58.936 275.928 58.424 273.76C57.9811 271.814 57.4391 269.891 56.8 268C56.256 266.312 55.584 264.928 55.328 263.72C55.072 262.512 54.936 261.552 54.808 260.912C54.752 260.608 54.704 260.36 54.672 260.176C54.6604 260.092 54.6417 260.009 54.616 259.928Z" fill="#263238"/>
<path d="M530.32 334.704C529.344 336.096 527.448 335.632 526.568 334.784C525.762 333.855 525.211 332.734 524.968 331.528C524.168 328.84 523.416 326.024 523.992 323.296C524.129 322.467 524.492 321.692 525.04 321.056C525.319 320.744 525.675 320.511 526.072 320.379C526.469 320.247 526.894 320.221 527.304 320.304C527.763 320.489 528.177 320.769 528.519 321.126C528.862 321.483 529.124 321.909 529.288 322.376C530.549 325.006 531.21 327.883 531.224 330.8C531.319 332.164 530.998 333.526 530.304 334.704" fill="#407BFF"/>
<g opacity="0.2">
<path d="M530.32 334.704C529.344 336.096 527.448 335.632 526.568 334.784C525.762 333.855 525.211 332.734 524.968 331.528C524.168 328.84 523.416 326.024 523.992 323.296C524.129 322.467 524.492 321.692 525.04 321.056C525.319 320.744 525.675 320.511 526.072 320.379C526.469 320.247 526.894 320.221 527.304 320.304C527.763 320.489 528.177 320.769 528.519 321.126C528.862 321.483 529.124 321.909 529.288 322.376C530.549 325.006 531.21 327.883 531.224 330.8C531.319 332.164 530.998 333.526 530.304 334.704" fill="black"/>
</g>
<path d="M526.664 341.752C525.03 340.984 523.193 340.763 521.424 341.12C520.455 341.203 519.543 341.609 518.832 342.272C518.498 342.619 518.312 343.082 518.312 343.564C518.312 344.046 518.498 344.509 518.832 344.856C519.301 345.176 519.867 345.323 520.432 345.272C521.816 345.272 523.36 345.016 524.432 345.848C525.064 346.32 525.48 347.112 526.24 347.344C526.617 347.432 527.013 347.395 527.367 347.237C527.72 347.08 528.013 346.811 528.2 346.472C528.561 345.78 528.642 344.974 528.424 344.224C528.339 343.705 528.136 343.212 527.831 342.784C527.525 342.356 527.126 342.003 526.664 341.752Z" fill="#407BFF"/>
<path d="M533 336.696C532.496 336.044 532.16 335.279 532.021 334.468C531.881 333.656 531.943 332.822 532.2 332.04C532.735 330.478 533.69 329.094 534.96 328.04C536.406 326.755 538.087 325.763 539.912 325.12C540.618 324.837 541.376 324.708 542.136 324.744C542.515 324.766 542.883 324.88 543.208 325.076C543.533 325.273 543.805 325.546 544 325.872C544.52 326.864 544 328.072 543.48 329.072C542.529 330.805 541.443 332.461 540.232 334.024C539.342 335.347 538.108 336.403 536.664 337.08C535.176 337.648 533.632 337.584 532.848 336.552" fill="#407BFF"/>
<path d="M530.4 355.712C530.35 355.502 530.321 355.288 530.312 355.072C530.312 354.616 530.216 354.04 530.144 353.352C530.059 352.501 529.931 351.654 529.76 350.816C529.532 349.796 529.224 348.796 528.84 347.824C528.457 346.857 527.943 345.947 527.312 345.12C526.798 344.448 526.139 343.901 525.384 343.52C524.881 343.267 524.341 343.094 523.784 343.008C523.574 342.999 523.365 342.97 523.16 342.92C523.373 342.896 523.587 342.896 523.8 342.92C524.388 342.961 524.962 343.111 525.496 343.36C526.287 343.73 526.982 344.278 527.528 344.96C528.196 345.795 528.736 346.725 529.128 347.72C529.518 348.705 529.824 349.722 530.04 350.76C530.204 351.606 530.316 352.461 530.376 353.32C530.432 354.056 530.456 354.648 530.464 355.064C530.47 355.282 530.449 355.5 530.4 355.712Z" fill="#263238"/>
<path d="M530.264 354.4C530.257 354.304 530.257 354.208 530.264 354.112C530.264 353.888 530.264 353.608 530.264 353.272C530.264 352.544 530.264 351.488 530.224 350.184C530.16 347.584 529.936 343.984 529.504 340.032C529.072 336.08 528.488 332.528 527.96 329.976C527.832 329.336 527.712 328.76 527.592 328.256C527.472 327.752 527.384 327.32 527.288 326.968L527.096 326.168C527.064 326.072 527.045 325.973 527.04 325.872C527.086 325.961 527.121 326.055 527.144 326.152L527.392 326.952C527.496 327.304 527.608 327.752 527.736 328.24C527.864 328.728 528 329.312 528.144 329.952C528.851 333.279 529.385 336.641 529.744 340.024C530.176 343.984 530.376 347.584 530.392 350.2C530.392 351.504 530.392 352.56 530.344 353.288C530.344 353.632 530.344 353.904 530.296 354.128C530.248 354.352 530.28 354.4 530.264 354.4Z" fill="#263238"/>
<path d="M530.248 347.424C530.225 347.134 530.225 346.842 530.248 346.552C530.298 345.748 530.389 344.947 530.52 344.152C530.72 342.983 530.987 341.826 531.32 340.688C531.705 339.29 532.189 337.921 532.768 336.592C533.771 334.143 535.214 331.898 537.024 329.968C537.336 329.637 537.67 329.327 538.024 329.04C538.176 328.912 538.312 328.784 538.448 328.68L538.84 328.408C539.072 328.231 539.318 328.073 539.576 327.936C538.731 328.604 537.929 329.326 537.176 330.096C535.43 332.045 534.028 334.276 533.032 336.696C532.456 338.014 531.97 339.369 531.576 340.752C531.2 342.024 530.944 343.152 530.776 344.176C530.608 345.2 530.496 345.976 530.432 346.536C530.393 346.836 530.332 347.133 530.248 347.424Z" fill="#263238"/>
</svg>
