<svg width="1200" height="1200" viewBox="0 0 1200 1200" fill="none" xmlns="http://www.w3.org/2000/svg">
<g clip-path="url(#clip0_12_5190)">
<ellipse rx="109.5" ry="20" transform="matrix(-1 0 0 1 965.5 1022)" fill="#B4D4FF" fill-opacity="0.1"/>
<path d="M143.914 834.007C84.4496 713.335 63.2676 574.015 135.273 504.952C207.596 436.765 373.391 438.254 485.705 375.306C598.305 311.777 657.423 183.809 752.671 143.447C848.804 102.799 980.18 150.041 1031.85 240.96C1083.21 331.004 1054.59 465.306 1021.05 565.508C986.919 665.415 948.762 730.938 903.07 792.039C857.979 853.436 806.524 909.546 721.251 970.652C635.661 1030.88 515.937 1095.23 408.088 1076.11C299.954 1057.57 203.094 955.26 143.914 834.007Z" fill="#B4D4FF" fill-opacity="0.1"/>
<path d="M842.685 668.382C973.037 707.863 938.777 993.233 803.798 1011.09C624.982 1034.75 431.949 757.907 491.289 624.202C550.629 490.497 725.432 463.931 761.692 492.334" stroke="white" stroke-opacity="0.5" stroke-dasharray="25 25"/>
<path d="M429.848 364.793C449.792 251.423 246.714 82.737 186.769 160.71C107.356 264.007 223.9 578.449 334.442 628.634C444.983 678.819 524.916 580.149 518.81 536.922" stroke="white" stroke-opacity="0.5" stroke-dasharray="25 25"/>
<path d="M1015 539.531C1151.08 525.088 1168.49 237.442 1038.13 194.514C865.439 137.644 624.652 374.229 659.333 517.123C694.013 660.018 862.211 719.002 903.198 697.817" stroke="white" stroke-opacity="0.5" stroke-dasharray="25 25"/>
<path d="M793.646 846.488C797.476 844.2 801.568 842.429 805.79 841.263L808.27 829.345L828.597 829L831.513 840.832C835.778 841.868 839.913 843.466 843.831 845.625L854.102 838.932L868.727 852.922L862.372 863.329C864.679 867.129 866.464 871.188 867.639 875.376L879.652 877.838L880 898.003L868.074 900.896C867.03 905.128 865.419 909.23 863.243 913.117L869.989 923.307L855.887 937.816L845.397 931.512C841.567 933.8 837.476 935.571 833.254 936.737L830.773 948.655L810.447 949L807.531 937.168C803.265 936.132 799.13 934.534 795.213 932.375L784.941 939.068L770.316 925.078L776.671 914.671C774.364 910.871 772.58 906.812 771.405 902.624L759.348 900.162L759 879.997L770.926 877.104C771.97 872.872 773.581 868.77 775.757 864.883L769.011 854.693L783.113 840.184L793.646 846.488ZM804.484 873.347C796.127 881.94 796.345 895.628 805.006 903.919C813.668 912.21 827.465 911.994 835.822 903.401C844.179 894.808 843.961 881.119 835.3 872.829C826.638 864.538 812.841 864.754 804.484 873.347Z" fill="#243560"/>
<path d="M1037.65 480.488C1041.48 478.2 1045.57 476.429 1049.79 475.263L1052.27 463.345L1072.6 463L1075.51 474.832C1079.78 475.868 1083.91 477.466 1087.83 479.625L1098.1 472.932L1112.73 486.922L1106.37 497.329C1108.68 501.129 1110.46 505.188 1111.64 509.376L1123.65 511.838L1124 532.003L1112.07 534.896C1111.03 539.128 1109.42 543.23 1107.24 547.117L1113.99 557.307L1099.89 571.816L1089.4 565.512C1085.57 567.8 1081.48 569.571 1077.25 570.737L1074.77 582.655L1054.45 583L1051.53 571.168C1047.27 570.132 1043.13 568.534 1039.21 566.375L1028.94 573.068L1014.32 559.078L1020.67 548.671C1018.36 544.871 1016.58 540.812 1015.4 536.624L1003.35 534.162L1003 513.997L1014.93 511.104C1015.97 506.872 1017.58 502.77 1019.76 498.883L1013.01 488.693L1027.11 474.184L1037.65 480.488ZM1048.48 507.347C1040.13 515.94 1040.34 529.628 1049.01 537.919C1057.67 546.21 1071.47 545.994 1079.82 537.401C1088.18 528.808 1087.96 515.119 1079.3 506.829C1070.64 498.538 1056.84 498.754 1048.48 507.347Z" fill="#243560"/>
<path d="M717.852 193.279C728.631 193.474 739.165 195.135 749.259 198.115L769.739 176.965L811.436 202.169L802.126 230.011C809.427 237.582 815.796 246.13 820.941 255.557L850.388 255.02L862 302.205L835.64 315.296C835.444 326.042 833.778 336.544 830.789 346.606L852.005 367.023L826.723 408.591L798.794 399.31C791.2 406.588 782.625 412.938 773.169 418.067L773.659 447.424L726.328 459L713.148 432.721C702.369 432.526 691.835 430.865 681.741 427.885L661.261 449.035L619.565 423.831L628.874 395.989C621.573 388.418 615.204 379.87 610.059 370.443L580.612 370.98L569 323.795L595.36 310.704C595.556 299.958 597.222 289.456 600.211 279.394L578.995 258.977L604.278 217.409L632.206 226.69C639.8 219.412 648.375 213.11 657.831 207.933L657.292 178.576L704.623 167L717.852 193.279ZM705.162 261.858C677.087 268.697 659.938 296.93 666.797 324.918C673.657 352.907 701.977 370.003 730.052 363.165C758.127 356.326 775.276 328.093 768.417 300.105C761.557 272.116 733.237 255.02 705.162 261.858Z" fill="#243560"/>
<path d="M195.439 309.44C199.743 309.517 203.95 310.177 207.98 311.361L216.159 302.959L232.809 312.971L229.091 324.032C232.007 327.039 234.55 330.435 236.604 334.18L248.363 333.967L253 352.712L242.474 357.912C242.396 362.181 241.73 366.353 240.537 370.35L249.009 378.461L238.913 394.975L227.761 391.288C224.728 394.179 221.304 396.702 217.528 398.739L217.724 410.401L198.824 415L193.561 404.56C189.256 404.483 185.05 403.823 181.02 402.639L172.841 411.041L156.191 401.029L159.909 389.968C156.993 386.961 154.45 383.565 152.396 379.82L140.637 380.033L136 361.288L146.526 356.088C146.604 351.819 147.27 347.647 148.463 343.65L139.991 335.539L150.087 319.025L161.239 322.712C164.272 319.821 167.696 317.318 171.472 315.261L171.257 303.599L190.157 299L195.439 309.44ZM190.372 336.684C179.161 339.4 172.313 350.616 175.052 361.735C177.791 372.853 189.1 379.645 200.311 376.928C211.522 374.212 218.37 362.996 215.63 351.877C212.891 340.758 201.583 333.967 190.372 336.684Z" fill="#243560"/>
<rect x="120" y="720" width="280" height="180" rx="10" fill="#EAF1FC"/>
<path d="M120 730C120 724.477 124.477 720 130 720H390C395.523 720 400 724.477 400 730V750H120V730Z" fill="#00786E"/>
<circle cx="185" cy="735" r="5" fill="white"/>
<circle cx="165" cy="735" r="5" fill="white"/>
<circle cx="145" cy="735" r="5" fill="white"/>
<rect x="270" y="366" width="660" height="470.137" rx="20" fill="#86A9DB"/>
<rect x="288.082" y="384.082" width="623.836" height="397.808" rx="10" fill="#446EA8"/>
<rect x="490" y="643" width="220" height="100" rx="15" fill="#FFDF33"/>
<rect x="575" y="693" width="30" height="30" rx="5" fill="white" fill-opacity="0.5"/>
<rect x="510" y="663" width="30" height="60" rx="5" fill="white" fill-opacity="0.5"/>
<rect x="515" y="693" width="20" height="25" rx="5" fill="white" fill-opacity="0.5"/>
<g opacity="0.9">
<mask id="mask0_12_5190" style="mask-type:alpha" maskUnits="userSpaceOnUse" x="515" y="668" width="20" height="20">
<path d="M535 678C535 683.523 530.523 688 525 688C519.477 688 515 683.523 515 678C515 672.477 519.477 668 525 668C530.523 668 535 672.477 535 678Z" fill="#D9D9D9"/>
</mask>
<g mask="url(#mask0_12_5190)">
<path d="M535 678C535 683.523 530.523 688 525 688C519.477 688 515 683.523 515 678C515 672.477 519.477 668 525 668C530.523 668 535 672.477 535 678Z" fill="white"/>
<path d="M530.188 684.636C530.188 687.56 527.818 689.93 524.894 689.93C521.97 689.93 519.6 687.56 519.6 684.636C519.6 681.713 521.97 679.342 524.894 679.342C527.818 679.342 530.188 681.713 530.188 684.636Z" fill="#FFDF33"/>
<path d="M527.781 675.369C527.781 676.964 526.488 678.257 524.894 678.257C523.299 678.257 522.006 676.964 522.006 675.369C522.006 673.774 523.299 672.481 524.894 672.481C526.488 672.481 527.781 673.774 527.781 675.369Z" fill="#FFDF33"/>
<path d="M533 678C533 682.418 529.418 686 525 686C520.582 686 517 682.418 517 678C517 673.582 520.582 670 525 670C529.418 670 533 673.582 533 678Z" stroke="white" stroke-width="4"/>
</g>
</g>
<rect x="550" y="663" width="54.9999" height="8" rx="4" fill="white" fill-opacity="0.35"/>
<rect x="550" y="675.996" width="54.9999" height="8" rx="4" fill="white" fill-opacity="0.35"/>
<rect x="620" y="715" width="70" height="8" rx="4" fill="white" fill-opacity="0.35"/>
<rect x="550" y="698" width="15" height="8" rx="4" fill="white" fill-opacity="0.35"/>
<rect x="550" y="711" width="15" height="8" rx="4" fill="white" fill-opacity="0.35"/>
<g clip-path="url(#clip1_12_5190)">
<rect x="620" y="663" width="70" height="40" fill="#FFB82E"/>
<path d="M690 702.75H620L655.5 675.5L690 702.75Z" fill="#FF9D2B"/>
<path d="M690 663H620L655.5 690.25L690 663Z" fill="#FFC656"/>
</g>
<circle cx="599.124" cy="807.966" r="12.2246" fill="#FCFCFC"/>
<path d="M551.907 835.618H646.085L655.503 929.646H542.489L551.907 835.618Z" fill="#7092C4"/>
<path fill-rule="evenodd" clip-rule="evenodd" d="M646.085 835.618H551.907L544.184 912.721L646.085 835.618Z" fill="#5B7EAE"/>
<path d="M458.408 939.646C458.408 934.123 462.885 929.646 468.408 929.646H730.49C736.013 929.646 740.49 934.123 740.49 939.646V947.728H458.408V939.646Z" fill="#86A9DB"/>
<path d="M490 358.308H710V592.154C710 603.199 701.046 612.154 690 612.154H510C498.954 612.154 490 603.199 490 592.154V358.308Z" fill="white"/>
<path d="M490 336C490 324.954 498.954 316 510 316H667.692V358.308H490V336Z" fill="white"/>
<rect x="515" y="443" width="169.231" height="84.6154" rx="10" fill="#00786E"/>
<path d="M558.164 499L552.004 488.12H549.364V499H543.764V471.08H554.244C556.404 471.08 558.244 471.467 559.764 472.24C561.284 472.987 562.417 474.013 563.164 475.32C563.937 476.6 564.324 478.04 564.324 479.64C564.324 481.48 563.791 483.147 562.724 484.64C561.657 486.107 560.071 487.12 557.964 487.68L564.644 499H558.164ZM549.364 483.92H554.044C555.564 483.92 556.697 483.56 557.444 482.84C558.191 482.093 558.564 481.067 558.564 479.76C558.564 478.48 558.191 477.493 557.444 476.8C556.697 476.08 555.564 475.72 554.044 475.72H549.364V483.92ZM589.989 487.44C589.989 488.24 589.936 488.96 589.829 489.6H573.629C573.762 491.2 574.322 492.453 575.309 493.36C576.296 494.267 577.509 494.72 578.949 494.72C581.029 494.72 582.509 493.827 583.389 492.04H589.429C588.789 494.173 587.562 495.933 585.749 497.32C583.936 498.68 581.709 499.36 579.069 499.36C576.936 499.36 575.016 498.893 573.309 497.96C571.629 497 570.309 495.653 569.349 493.92C568.416 492.187 567.949 490.187 567.949 487.92C567.949 485.627 568.416 483.613 569.349 481.88C570.282 480.147 571.589 478.813 573.269 477.88C574.949 476.947 576.882 476.48 579.069 476.48C581.176 476.48 583.056 476.933 584.709 477.84C586.389 478.747 587.682 480.04 588.589 481.72C589.522 483.373 589.989 485.28 589.989 487.44ZM584.189 485.84C584.162 484.4 583.642 483.253 582.629 482.4C581.616 481.52 580.376 481.08 578.909 481.08C577.522 481.08 576.349 481.507 575.389 482.36C574.456 483.187 573.882 484.347 573.669 485.84H584.189ZM592.636 487.84C592.636 485.6 593.076 483.613 593.956 481.88C594.863 480.147 596.076 478.813 597.596 477.88C599.143 476.947 600.863 476.48 602.756 476.48C604.41 476.48 605.85 476.813 607.076 477.48C608.33 478.147 609.33 478.987 610.076 480V476.84H615.716V499H610.076V495.76C609.356 496.8 608.356 497.667 607.076 498.36C605.823 499.027 604.37 499.36 602.716 499.36C600.85 499.36 599.143 498.88 597.596 497.92C596.076 496.96 594.863 495.613 593.956 493.88C593.076 492.12 592.636 490.107 592.636 487.84ZM610.076 487.92C610.076 486.56 609.81 485.4 609.276 484.44C608.743 483.453 608.023 482.707 607.116 482.2C606.21 481.667 605.236 481.4 604.196 481.4C603.156 481.4 602.196 481.653 601.316 482.16C600.436 482.667 599.716 483.413 599.156 484.4C598.623 485.36 598.356 486.507 598.356 487.84C598.356 489.173 598.623 490.347 599.156 491.36C599.716 492.347 600.436 493.107 601.316 493.64C602.223 494.173 603.183 494.44 604.196 494.44C605.236 494.44 606.21 494.187 607.116 493.68C608.023 493.147 608.743 492.4 609.276 491.44C609.81 490.453 610.076 489.28 610.076 487.92ZM619.746 487.92C619.746 485.627 620.212 483.627 621.146 481.92C622.079 480.187 623.372 478.853 625.026 477.92C626.679 476.96 628.572 476.48 630.706 476.48C633.452 476.48 635.719 477.173 637.506 478.56C639.319 479.92 640.532 481.84 641.146 484.32H635.106C634.786 483.36 634.239 482.613 633.466 482.08C632.719 481.52 631.786 481.24 630.666 481.24C629.066 481.24 627.799 481.827 626.866 483C625.932 484.147 625.466 485.787 625.466 487.92C625.466 490.027 625.932 491.667 626.866 492.84C627.799 493.987 629.066 494.56 630.666 494.56C632.932 494.56 634.412 493.547 635.106 491.52H641.146C640.532 493.92 639.319 495.827 637.506 497.24C635.692 498.653 633.426 499.36 630.706 499.36C628.572 499.36 626.679 498.893 625.026 497.96C623.372 497 622.079 495.667 621.146 493.96C620.212 492.227 619.746 490.213 619.746 487.92ZM651.768 481.44V492.16C651.768 492.907 651.942 493.453 652.288 493.8C652.662 494.12 653.275 494.28 654.128 494.28H656.728V499H653.208C648.488 499 646.128 496.707 646.128 492.12V481.44H643.488V476.84H646.128V471.36H651.768V476.84H656.728V481.44H651.768Z" fill="white"/>
<rect x="515.385" y="416.692" width="84.6154" height="8.46154" rx="4.23077" fill="#BED6F6" fill-opacity="0.7"/>
<rect x="515.385" y="398.077" width="84.6154" height="8.46154" rx="4.23077" fill="#BED6F6" fill-opacity="0.7"/>
<rect x="515.385" y="379.462" width="84.6154" height="8.46154" rx="4.23077" fill="#BED6F6" fill-opacity="0.7"/>
<rect x="515.385" y="360.846" width="84.6154" height="8.46154" rx="4.23077" fill="#BED6F6" fill-opacity="0.7"/>
<rect x="515.385" y="342.231" width="84.6154" height="8.46154" rx="4.23077" fill="#BED6F6" fill-opacity="0.7"/>
<rect x="515.385" y="544.461" width="59.2308" height="42.3077" rx="10" fill="#BED6F7" fill-opacity="0.6"/>
<rect x="616.923" y="341.385" width="67.6923" height="84.6154" rx="10" fill="#D4E3F8" fill-opacity="0.5"/>
<path d="M673.4 384.268C673.4 389.571 663.371 393.868 651 393.868C638.629 393.868 628.6 389.571 628.6 384.268C628.6 378.966 638.629 374.668 651 374.668C663.371 374.668 673.4 378.966 673.4 384.268Z" stroke="#86A9DB" stroke-width="3"/>
<path d="M640.331 403.965C644.994 406.493 653.547 399.718 659.442 388.841C665.333 377.961 666.331 367.097 661.669 364.573C657.006 362.045 648.453 368.819 642.558 379.696C636.667 390.576 635.669 401.44 640.331 403.965V403.965Z" stroke="#86A9DB" stroke-width="3"/>
<path d="M661.669 403.965C657.006 406.493 648.453 399.718 642.558 388.841C636.667 377.961 635.669 367.097 640.331 364.573C644.994 362.045 653.547 368.819 659.442 379.696C665.333 390.576 666.331 401.44 661.669 403.965Z" stroke="#86A9DB" stroke-width="3"/>
<path d="M647.8 384.268C647.8 385.117 648.137 385.931 648.738 386.531C649.338 387.131 650.152 387.468 651 387.468C651.849 387.468 652.663 387.131 653.263 386.531C653.863 385.931 654.2 385.117 654.2 384.268C654.2 383.42 653.863 382.606 653.263 382.006C652.663 381.406 651.849 381.068 651 381.068C650.152 381.068 649.338 381.406 648.738 382.006C648.137 382.606 647.8 383.42 647.8 384.268Z" stroke="#86A9DB" stroke-width="3"/>
<rect x="591.539" y="544.461" width="93.0769" height="42.3077" rx="10" fill="#D4E3F8" fill-opacity="0.5"/>
<path d="M667.692 316L710 358.308H667.692V316Z" fill="#ACC7EB"/>
<rect x="740" y="286" width="350" height="250" rx="20" fill="#EAF1FC"/>
<circle cx="848" cy="429" r="60" fill="#DBE8FC"/>
<rect x="945" y="356" width="115" height="150" rx="10" fill="#C7DEFF"/>
<rect x="965" y="409" width="30" height="40" rx="5" fill="white" fill-opacity="0.9"/>
<rect x="1010" y="458" width="30" height="28" rx="5" fill="white" fill-opacity="0.9"/>
<rect x="1005" y="412" width="35" height="8" rx="4" fill="white" fill-opacity="0.5"/>
<rect x="965" y="376" width="75" height="8" rx="4" fill="white" fill-opacity="0.7"/>
<rect x="1005" y="425" width="35" height="8" rx="4" fill="white" fill-opacity="0.5"/>
<rect x="965" y="461" width="35" height="8" rx="4" fill="white" fill-opacity="0.5"/>
<rect x="965" y="391" width="75" height="8" rx="4" fill="white" fill-opacity="0.7"/>
<rect x="1005" y="438" width="35" height="8" rx="4" fill="white" fill-opacity="0.5"/>
<rect x="965" y="474" width="35" height="8" rx="4" fill="white" fill-opacity="0.5"/>
<path d="M882.688 442.42C885.253 442.658 887.733 443.242 890.085 444.133L895.34 439.439L904.827 446.203L902.114 452.695C903.718 454.634 905.084 456.79 906.142 459.135L913.167 459.528L915.095 471.014L908.582 473.677C908.345 476.243 907.761 478.724 906.87 481.076L911.562 486.333L904.799 495.823L898.31 493.109C896.372 494.715 894.216 496.081 891.872 497.14L891.467 504.166L879.984 506.095L877.311 499.579C874.747 499.342 872.266 498.758 869.915 497.867L864.659 502.56L855.173 495.796L857.886 489.305C856.281 487.366 854.916 485.209 853.857 482.865L846.832 482.471L844.904 470.985L851.417 468.323C851.655 465.757 852.239 463.276 853.13 460.924L848.438 455.667L855.2 446.177L861.689 448.89C863.628 447.285 865.783 445.931 868.128 444.86L868.521 437.833L880.004 435.904L882.688 442.42ZM878.446 458.591C871.635 459.728 867.048 466.174 868.185 472.986C869.321 479.799 875.765 484.388 882.575 483.25C889.386 482.113 893.973 475.667 892.836 468.854C891.7 462.042 885.256 457.453 878.446 458.591Z" fill="#B9D6FF"/>
<circle cx="880" cy="471" r="12.5" transform="rotate(4.2524 880 471)" fill="#EAF1FC" stroke="#FE654D" stroke-width="10"/>
<path d="M820.803 365C824.482 365.067 828.077 365.635 831.522 366.656L838.512 359.413L852.743 368.044L849.565 377.579C852.057 380.172 854.231 383.099 855.987 386.328L866.037 386.144L870 402.303L861.003 406.786C860.936 410.466 860.368 414.063 859.348 417.509L866.589 424.501L857.96 438.737L848.428 435.558C845.836 438.051 842.91 440.225 839.682 441.982L839.849 452.035L823.696 456L819.197 447C815.518 446.933 811.923 446.365 808.478 445.344L801.488 452.587L787.258 443.956L790.435 434.421C787.943 431.828 785.769 428.901 784.013 425.672L773.963 425.856L770 409.697L778.997 405.214C779.064 401.534 779.632 397.937 780.652 394.491L773.411 387.499L782.04 373.263L791.572 376.442C794.164 373.949 797.09 371.791 800.318 370.018L800.134 359.965L816.288 356L820.803 365ZM816.472 388.486C806.89 390.828 801.037 400.496 803.378 410.082C805.719 419.667 815.385 425.522 824.967 423.18C834.549 420.838 840.401 411.169 838.06 401.584C835.719 391.999 826.054 386.144 816.472 388.486Z" fill="#B9D6FF"/>
<circle cx="820" cy="406" r="17.5" fill="#EAF1FC" stroke="#FE654D" stroke-width="15"/>
<path d="M740 306C740 294.954 748.954 286 760 286H1070C1081.05 286 1090 294.954 1090 306V326H740V306Z" fill="#FFDF33"/>
<circle cx="810" cy="306" r="6" fill="white"/>
<circle cx="788" cy="306" r="6" fill="white"/>
<circle cx="766" cy="306" r="6" fill="white"/>
<rect x="210" y="269" width="200" height="140" rx="10" fill="#EAF1FC"/>
<path d="M314.5 325L304.5 369M334 334L346 346L334 358M284 334L272 346L284.5 358.5" stroke="#86A9DB" stroke-width="10" stroke-linecap="round" stroke-linejoin="round"/>
<path d="M210 279C210 273.477 214.477 269 220 269H400C405.523 269 410 273.477 410 279V299H210V279Z" fill="#FE654D"/>
<circle cx="275" cy="284" r="5" fill="white"/>
<circle cx="255" cy="284" r="5" fill="white"/>
<circle cx="235" cy="284" r="5" fill="white"/>
<rect x="790" y="613" width="300" height="140" rx="15" fill="white"/>
<rect x="935" y="643" width="80" height="8" rx="4" fill="#E7F0FF"/>
<rect x="1025" y="643" width="40" height="8" rx="4" fill="#D4E4FF"/>
<rect x="935" y="656" width="80" height="8" rx="4" fill="#E7F0FF"/>
<rect x="1025" y="656" width="40" height="8" rx="4" fill="#D4E4FF"/>
<rect x="935" y="669" width="80" height="8" rx="4" fill="#E7F0FF"/>
<rect x="1025" y="669" width="40" height="8" rx="4" fill="#D4E4FF"/>
<g clip-path="url(#clip2_12_5190)">
<rect x="930" y="693" width="180" height="115.714" rx="10" fill="#ECF3FF"/>
<path d="M1029.81 736.5C1031.74 733.167 1036.55 733.167 1038.47 736.5L1096.62 837.214C1098.54 840.548 1096.14 844.714 1092.29 844.714H975.995C972.146 844.714 969.741 840.548 971.665 837.214L1029.81 736.5Z" fill="#D6E5FC"/>
<path d="M987.384 719.786C989.309 716.452 994.12 716.452 996.044 719.786L1054.19 820.5C1056.12 823.833 1053.71 828 1049.86 828H933.567C929.718 828 927.312 823.833 929.237 820.5L987.384 719.786Z" fill="#C9D9F3"/>
<ellipse cx="1071.43" cy="731.571" rx="12.8571" ry="12.8571" fill="#C9D9F3"/>
</g>
<rect x="935" y="698" width="170" height="105.714" rx="5" stroke="#ECF3FF" stroke-width="10"/>
<rect x="810" y="633" width="100" height="100" rx="10" fill="#ECF3FF"/>
<g opacity="0.9">
<mask id="mask1_12_5190" style="mask-type:alpha" maskUnits="userSpaceOnUse" x="840" y="663" width="40" height="40">
<path d="M880 683C880 694.046 871.046 703 860 703C848.954 703 840 694.046 840 683C840 671.954 848.954 663 860 663C871.046 663 880 671.954 880 683Z" fill="#D9D9D9"/>
</mask>
<g mask="url(#mask1_12_5190)">
<path d="M880 683C880 694.046 871.046 703 860 703C848.954 703 840 694.046 840 683C840 671.954 848.954 663 860 663C871.046 663 880 671.954 880 683Z" fill="#C5D6F2"/>
<path d="M870.375 696.273C870.375 702.12 865.634 706.861 859.786 706.861C853.939 706.861 849.198 702.12 849.198 696.273C849.198 690.425 853.939 685.685 859.786 685.685C865.634 685.685 870.375 690.425 870.375 696.273Z" fill="#E7F0FF"/>
<path d="M865.562 677.738C865.562 680.928 862.976 683.514 859.786 683.514C856.596 683.514 854.011 680.928 854.011 677.738C854.011 674.549 856.596 671.963 859.786 671.963C862.976 671.963 865.562 674.549 865.562 677.738Z" fill="#E7F0FF"/>
<path d="M878 683C878 692.941 869.941 701 860 701C850.059 701 842 692.941 842 683C842 673.059 850.059 665 860 665C869.941 665 878 673.059 878 683Z" stroke="#C5D6F2" stroke-width="4"/>
</g>
</g>
<mask id="mask2_12_5190" style="mask-type:alpha" maskUnits="userSpaceOnUse" x="740" y="556" width="88" height="114">
<path fill-rule="evenodd" clip-rule="evenodd" d="M814.699 556H750C744.477 556 740 560.477 740 566V659.37C740 664.893 744.477 669.37 750 669.37H817.367C822.89 669.37 827.367 664.893 827.367 659.37V568.645L814.699 556Z" fill="#D9D9D9"/>
</mask>
<g mask="url(#mask2_12_5190)">
<rect x="740" y="556" width="87.3675" height="113.37" fill="#FE654D"/>
<rect x="740" y="556" width="87.3675" height="19.1856" fill="#E43C22"/>
<rect x="815.136" y="556" width="12.2314" height="12.209" fill="#FF9887"/>
</g>
<path d="M809.372 804.486C809.372 812.626 815.971 819.225 824.111 819.225H936.758C946.352 819.225 954.129 811.448 954.129 801.854V732.371C954.129 722.777 946.352 715 936.758 715H899.947C895.34 715 890.922 716.83 887.664 720.088L813.689 794.063C810.925 796.827 809.372 800.576 809.372 804.486Z" fill="#FFCA01"/>
<rect x="771.136" y="715.199" width="176.455" height="117.636" rx="10" transform="rotate(4.91483 771.136 715.199)" fill="#CDE2FF"/>
<path d="M754.902 746.028C754.416 740.198 759.017 735.198 764.868 735.198H954.877C960.727 735.198 965.328 740.198 964.842 746.028L954.745 867.192C954.314 872.375 949.981 876.361 944.78 876.361H774.964C769.764 876.361 765.431 872.375 764.999 867.192L754.902 746.028Z" fill="#FFDF33"/>
<rect x="240" y="559" width="220" height="130" rx="15" fill="#B4D5FF"/>
<rect x="385" y="651" width="54.9999" height="8" rx="4" fill="white" fill-opacity="0.35"/>
<rect x="385" y="663.996" width="54.9999" height="8" rx="4" fill="white" fill-opacity="0.35"/>
<path d="M353.295 625.44C353.295 651.205 332.41 672.091 306.647 672.091C280.885 672.091 260 651.205 260 625.44C260 599.675 280.885 578.789 306.647 578.789C332.41 578.789 353.295 599.675 353.295 625.44ZM272.934 625.44C272.934 644.061 288.028 659.156 306.647 659.156C325.267 659.156 340.361 644.061 340.361 625.44C340.361 606.819 325.267 591.724 306.647 591.724C288.028 591.724 272.934 606.819 272.934 625.44Z" fill="#D4E7FF"/>
<path d="M440 606.5C440 621.688 427.688 634 412.5 634C397.312 634 385 621.688 385 606.5C385 591.312 397.312 579 412.5 579C427.688 579 440 591.312 440 606.5ZM398.75 606.5C398.75 614.094 404.906 620.25 412.5 620.25C420.094 620.25 426.25 614.094 426.25 606.5C426.25 598.906 420.094 592.75 412.5 592.75C404.906 592.75 398.75 598.906 398.75 606.5Z" fill="#D4E7FF"/>
<path d="M391.194 589.113C387.579 593.543 385.435 598.989 385.059 604.694C384.684 610.399 386.096 616.079 389.099 620.944C392.101 625.809 396.546 629.617 401.814 631.839C407.082 634.06 412.911 634.585 418.491 633.34L415.495 619.92C412.706 620.542 409.791 620.28 407.157 619.169C404.523 618.059 402.301 616.154 400.799 613.722C399.298 611.289 398.592 608.449 398.78 605.597C398.967 602.744 400.04 600.021 401.847 597.807L391.194 589.113Z" fill="white"/>
<path d="M347.663 603.219C343.269 595.106 336.567 588.479 328.407 584.175C320.246 579.871 310.992 578.084 301.816 579.04C292.639 579.996 283.952 583.651 276.853 589.544C269.754 595.438 264.562 603.304 261.934 612.148L274.332 615.833C276.231 609.442 279.984 603.757 285.115 599.497C290.245 595.238 296.523 592.596 303.155 591.906C309.787 591.215 316.475 592.506 322.373 595.617C328.271 598.727 333.115 603.517 336.291 609.381L347.663 603.219Z" fill="#98C6FF"/>
<path d="M353.557 647.484C357.039 640.074 358.716 631.945 358.451 623.762C358.186 615.579 355.986 607.575 352.032 600.406C348.078 593.237 342.483 587.106 335.703 582.516C328.924 577.927 321.154 575.008 313.029 574L311.801 583.903C318.361 584.717 324.635 587.074 330.109 590.78C335.584 594.486 340.102 599.436 343.295 605.225C346.488 611.014 348.264 617.477 348.478 624.085C348.692 630.692 347.338 637.257 344.526 643.24L353.557 647.484Z" fill="white"/>
<path d="M288.648 619.296V615.48H295.296V633H291.024V619.296H288.648Z" fill="#5C8ECD"/>
<path d="M309.288 618.552L303.264 633H299.064L305.16 619.008H297.696V615.504H309.288V618.552Z" fill="#5C8ECD"/>
<path d="M310.612 619.896C310.612 618.6 310.98 617.6 311.716 616.896C312.468 616.192 313.436 615.84 314.62 615.84C315.804 615.84 316.764 616.192 317.5 616.896C318.236 617.6 318.604 618.6 318.604 619.896C318.604 621.192 318.236 622.192 317.5 622.896C316.764 623.6 315.804 623.952 314.62 623.952C313.436 623.952 312.468 623.6 311.716 622.896C310.98 622.192 310.612 621.192 310.612 619.896ZM326.908 616.104L317.668 633H313.708L322.948 616.104H326.908ZM314.596 618.24C313.828 618.24 313.444 618.792 313.444 619.896C313.444 620.984 313.828 621.528 314.596 621.528C314.964 621.528 315.252 621.392 315.46 621.12C315.668 620.848 315.772 620.44 315.772 619.896C315.772 618.792 315.38 618.24 314.596 618.24ZM322.036 629.208C322.036 627.912 322.404 626.912 323.14 626.208C323.876 625.504 324.836 625.152 326.02 625.152C327.204 625.152 328.164 625.504 328.9 626.208C329.636 626.912 330.004 627.912 330.004 629.208C330.004 630.504 329.636 631.504 328.9 632.208C328.164 632.912 327.204 633.264 326.02 633.264C324.836 633.264 323.876 632.912 323.14 632.208C322.404 631.504 322.036 630.504 322.036 629.208ZM325.996 627.552C325.628 627.552 325.34 627.688 325.132 627.96C324.94 628.232 324.844 628.648 324.844 629.208C324.844 630.296 325.228 630.84 325.996 630.84C326.364 630.84 326.652 630.704 326.86 630.432C327.068 630.16 327.172 629.752 327.172 629.208C327.172 628.664 327.068 628.256 326.86 627.984C326.652 627.696 326.364 627.552 325.996 627.552Z" fill="#5C8ECD"/>
<path d="M270 513C324.113 655.015 371.289 728.906 528 836H270V513Z" fill="#003C91" fill-opacity="0.15"/>
<rect x="110" y="380" width="220" height="129" rx="15" fill="#C9E1FF"/>
<circle cx="220" cy="435" r="30" fill="white"/>
<path d="M235 435L212.5 447.99L212.5 422.01L235 435Z" fill="#00786E"/>
<rect x="130" y="479" width="180" height="10" rx="5" fill="white"/>
<rect x="130" y="479" width="47" height="10" rx="5" fill="#86A9DB"/>
<circle cx="176" cy="484" r="7.5" fill="white" stroke="#00786E" stroke-width="5"/>
<circle cx="410" cy="482" r="40" fill="white"/>
<g clip-path="url(#clip3_12_5190)">
<path d="M416.923 479.231C416.923 476.562 415.975 474.28 414.078 472.383C412.181 470.487 409.899 469.538 407.231 469.538C404.562 469.538 402.28 470.487 400.383 472.383C398.487 474.28 397.538 476.562 397.538 479.231C397.538 481.899 398.487 484.181 400.383 486.078C402.28 487.975 404.562 488.923 407.231 488.923C409.899 488.923 412.181 487.975 414.078 486.078C415.975 484.181 416.923 481.899 416.923 479.231ZM428 497.231C428 497.981 427.726 498.63 427.178 499.178C426.63 499.726 425.981 500 425.231 500C424.452 500 423.803 499.726 423.284 499.178L415.863 491.779C413.281 493.567 410.404 494.462 407.231 494.462C405.168 494.462 403.196 494.061 401.314 493.261C399.431 492.46 397.809 491.379 396.446 490.016C395.083 488.653 394.001 487.03 393.201 485.148C392.4 483.266 392 481.293 392 479.231C392 477.168 392.4 475.196 393.201 473.314C394.001 471.431 395.083 469.809 396.446 468.446C397.809 467.083 399.431 466.001 401.314 465.201C403.196 464.4 405.168 464 407.231 464C409.293 464 411.266 464.4 413.148 465.201C415.03 466.001 416.653 467.083 418.016 468.446C419.379 469.809 420.46 471.431 421.261 473.314C422.061 475.196 422.462 477.168 422.462 479.231C422.462 482.404 421.567 485.281 419.779 487.863L427.2 495.284C427.733 495.817 428 496.466 428 497.231Z" fill="#193761"/>
</g>
<rect x="162.151" y="822" width="181.818" height="200" fill="#004741"/>
<path d="M147 828.394C147 825.046 149.713 822.333 153.061 822.333H353.061C356.408 822.333 359.121 825.046 359.121 828.394V870.818C359.121 874.165 356.408 876.878 353.061 876.878H153.061C149.713 876.878 147 874.165 147 870.818V828.394Z" fill="#00786E"/>
<path d="M222.758 870.818H283.364L289.425 876.878H216.697L222.758 870.818Z" fill="#005E56"/>
<rect x="253.061" y="831.424" width="93.9394" height="6.06061" rx="3.0303" fill="#FFDF33"/>
<rect x="253.061" y="842.333" width="72.7273" height="6.06061" rx="3.0303" fill="white"/>
<path d="M253.061 856.272C253.061 854.599 254.417 853.242 256.091 853.242H260.939C262.613 853.242 263.97 854.599 263.97 856.272V862.333C263.97 864.007 262.613 865.363 260.939 865.363H256.091C254.417 865.363 253.061 864.007 253.061 862.333V856.272Z" fill="white" fill-opacity="0.5"/>
<path d="M269.425 856.272C269.425 854.599 270.782 853.242 272.455 853.242H277.304C278.977 853.242 280.334 854.599 280.334 856.272V862.333C280.334 864.007 278.977 865.363 277.304 865.363H272.455C270.782 865.363 269.425 864.007 269.425 862.333V856.272Z" fill="white" fill-opacity="0.5"/>
<path d="M286.394 856.272C286.394 854.599 287.751 853.242 289.424 853.242H294.273C295.946 853.242 297.303 854.599 297.303 856.272V862.333C297.303 864.007 295.946 865.363 294.273 865.363H289.424C287.751 865.363 286.394 864.007 286.394 862.333V856.272Z" fill="white" fill-opacity="0.5"/>
<path d="M302.757 856.272C302.757 854.599 304.114 853.242 305.788 853.242H310.636C312.31 853.242 313.666 854.599 313.666 856.272V862.333C313.666 864.007 312.31 865.363 310.636 865.363H305.788C304.114 865.363 302.757 864.007 302.757 862.333V856.272Z" fill="white" fill-opacity="0.5"/>
<path d="M319.122 856.272C319.122 854.599 320.478 853.242 322.152 853.242H327C328.674 853.242 330.031 854.599 330.031 856.272V862.333C330.031 864.007 328.674 865.363 327 865.363H322.152C320.478 865.363 319.122 864.007 319.122 862.333V856.272Z" fill="white" fill-opacity="0.5"/>
<path d="M336.091 856.272C336.091 854.599 337.448 853.242 339.121 853.242H343.97C345.643 853.242 347 854.599 347 856.272V862.333C347 864.007 345.643 865.363 343.97 865.363H339.121C337.448 865.363 336.091 864.007 336.091 862.333V856.272Z" fill="#FE654D"/>
<circle cx="174.272" cy="849.606" r="12.1212" fill="#FFDF33"/>
<circle cx="203.363" cy="849.606" r="4.84848" fill="white" fill-opacity="0.5"/>
<circle cx="219.727" cy="849.606" r="4.84848" fill="white" fill-opacity="0.5"/>
<circle cx="236.091" cy="849.606" r="4.84848" fill="white" fill-opacity="0.5"/>
<path d="M147 894.394C147 891.046 149.713 888.333 153.061 888.333H353.061C356.408 888.333 359.121 891.046 359.121 894.394V936.818C359.121 940.165 356.408 942.878 353.061 942.878H153.061C149.713 942.878 147 940.165 147 936.818V894.394Z" fill="#00786E"/>
<path d="M222.758 936.818H283.364L289.425 942.878H216.697L222.758 936.818Z" fill="#005E56"/>
<rect x="253.061" y="897.424" width="93.9394" height="6.06061" rx="3.0303" fill="#FFDF33"/>
<rect x="253.061" y="908.333" width="72.7273" height="6.06061" rx="3.0303" fill="white"/>
<path d="M253.061 922.272C253.061 920.599 254.417 919.242 256.091 919.242H260.939C262.613 919.242 263.97 920.599 263.97 922.272V928.333C263.97 930.007 262.613 931.363 260.939 931.363H256.091C254.417 931.363 253.061 930.007 253.061 928.333V922.272Z" fill="white" fill-opacity="0.5"/>
<path d="M269.425 922.272C269.425 920.599 270.782 919.242 272.455 919.242H277.304C278.977 919.242 280.334 920.599 280.334 922.272V928.333C280.334 930.007 278.977 931.363 277.304 931.363H272.455C270.782 931.363 269.425 930.007 269.425 928.333V922.272Z" fill="white" fill-opacity="0.5"/>
<path d="M286.394 922.272C286.394 920.599 287.751 919.242 289.424 919.242H294.273C295.946 919.242 297.303 920.599 297.303 922.272V928.333C297.303 930.007 295.946 931.363 294.273 931.363H289.424C287.751 931.363 286.394 930.007 286.394 928.333V922.272Z" fill="white" fill-opacity="0.5"/>
<path d="M302.757 922.272C302.757 920.599 304.114 919.242 305.788 919.242H310.636C312.31 919.242 313.666 920.599 313.666 922.272V928.333C313.666 930.007 312.31 931.363 310.636 931.363H305.788C304.114 931.363 302.757 930.007 302.757 928.333V922.272Z" fill="white" fill-opacity="0.5"/>
<path d="M319.122 922.272C319.122 920.599 320.478 919.242 322.152 919.242H327C328.674 919.242 330.031 920.599 330.031 922.272V928.333C330.031 930.007 328.674 931.363 327 931.363H322.152C320.478 931.363 319.122 930.007 319.122 928.333V922.272Z" fill="white" fill-opacity="0.5"/>
<path d="M336.091 922.272C336.091 920.599 337.448 919.242 339.121 919.242H343.97C345.643 919.242 347 920.599 347 922.272V928.333C347 930.007 345.643 931.363 343.97 931.363H339.121C337.448 931.363 336.091 930.007 336.091 928.333V922.272Z" fill="#FE654D"/>
<circle cx="174.272" cy="915.606" r="12.1212" fill="#FFDF33"/>
<circle cx="203.363" cy="915.606" r="4.84848" fill="white" fill-opacity="0.5"/>
<circle cx="219.727" cy="915.606" r="4.84848" fill="white" fill-opacity="0.5"/>
<circle cx="236.091" cy="915.606" r="4.84848" fill="white" fill-opacity="0.5"/>
<path d="M147 961.394C147 958.047 149.713 955.333 153.061 955.333H353.061C356.408 955.333 359.121 958.047 359.121 961.394V1003.82C359.121 1007.17 356.408 1009.88 353.061 1009.88H153.061C149.713 1009.88 147 1007.17 147 1003.82V961.394Z" fill="#00786E"/>
<path d="M222.758 1003.82H283.364L289.425 1009.88H216.697L222.758 1003.82Z" fill="#005E56"/>
<rect x="253.061" y="964.424" width="93.9394" height="6.06061" rx="3.0303" fill="#FFDF33"/>
<rect x="253.061" y="975.333" width="72.7273" height="6.06061" rx="3.0303" fill="white"/>
<path d="M253.061 989.273C253.061 987.599 254.417 986.243 256.091 986.243H260.939C262.613 986.243 263.97 987.599 263.97 989.273V995.334C263.97 997.007 262.613 998.364 260.939 998.364H256.091C254.417 998.364 253.061 997.007 253.061 995.334V989.273Z" fill="white" fill-opacity="0.5"/>
<path d="M269.425 989.273C269.425 987.599 270.782 986.243 272.455 986.243H277.304C278.977 986.243 280.334 987.599 280.334 989.273V995.334C280.334 997.007 278.977 998.364 277.304 998.364H272.455C270.782 998.364 269.425 997.007 269.425 995.334V989.273Z" fill="white" fill-opacity="0.5"/>
<path d="M286.394 989.273C286.394 987.599 287.751 986.243 289.424 986.243H294.273C295.946 986.243 297.303 987.599 297.303 989.273V995.334C297.303 997.007 295.946 998.364 294.273 998.364H289.424C287.751 998.364 286.394 997.007 286.394 995.334V989.273Z" fill="white" fill-opacity="0.5"/>
<path d="M302.757 989.273C302.757 987.599 304.114 986.243 305.788 986.243H310.636C312.31 986.243 313.666 987.599 313.666 989.273V995.334C313.666 997.007 312.31 998.364 310.636 998.364H305.788C304.114 998.364 302.757 997.007 302.757 995.334V989.273Z" fill="white" fill-opacity="0.5"/>
<path d="M319.122 989.273C319.122 987.599 320.478 986.243 322.152 986.243H327C328.674 986.243 330.031 987.599 330.031 989.273V995.334C330.031 997.007 328.674 998.364 327 998.364H322.152C320.478 998.364 319.122 997.007 319.122 995.334V989.273Z" fill="white" fill-opacity="0.5"/>
<path d="M336.091 989.273C336.091 987.599 337.448 986.243 339.121 986.243H343.97C345.643 986.243 347 987.599 347 989.273V995.334C347 997.007 345.643 998.364 343.97 998.364H339.121C337.448 998.364 336.091 997.007 336.091 995.334V989.273Z" fill="#FE654D"/>
<circle cx="174.272" cy="982.606" r="12.1212" fill="#FFDF33"/>
<circle cx="203.363" cy="982.606" r="4.84848" fill="white" fill-opacity="0.5"/>
<circle cx="219.727" cy="982.606" r="4.84848" fill="white" fill-opacity="0.5"/>
<circle cx="236.091" cy="982.606" r="4.84848" fill="white" fill-opacity="0.5"/>
<path d="M383.266 714.357L380.045 713.928L373.602 713.069C369.307 712.424 364.798 711.78 360.503 710.921C351.698 709.418 343.108 707.915 334.733 706.197C331.942 705.552 329.15 704.908 326.358 704.479C325.714 704.264 325.284 704.264 324.64 704.049C323.781 703.834 322.922 703.62 322.063 703.405C317.983 702.331 313.903 701.257 309.823 700.184C307.46 699.54 305.313 698.681 302.951 698.036C302.092 697.822 301.233 697.392 300.589 697.177C299.944 696.963 299.3 696.748 298.656 696.318C296.938 695.674 295.435 694.815 293.931 694.171C292.858 693.527 291.784 692.882 291.14 692.453L290.71 691.809L288.992 689.232C288.348 688.373 287.919 687.514 287.489 686.655C286.415 684.937 285.342 683.004 284.483 681.286C284.053 680.427 283.409 679.353 282.979 678.494C282.55 677.635 281.906 676.776 281.476 675.703C279.543 672.052 277.826 668.187 276.108 664.536C274.39 660.67 272.886 656.805 271.383 652.94C268.377 645.209 265.8 637.263 263.652 629.317C262.579 625.237 261.505 621.372 260.646 617.292C260.216 615.359 259.787 613.212 259.572 611.279C259.357 610.205 259.143 609.346 259.143 608.272L258.928 606.984L258.713 605.91L220.488 610.205L220.703 611.494L220.918 612.567L221.133 614.5C221.347 615.788 221.562 617.077 221.777 618.151C222.206 620.513 222.636 623.09 223.28 625.452C224.354 630.176 225.642 634.901 226.931 639.625C229.722 648.859 232.944 658.093 236.594 667.113C238.527 671.623 240.46 675.917 242.607 680.427C243.681 682.575 244.755 684.722 245.828 686.869C246.473 687.943 246.902 689.017 247.546 690.091L249.264 693.312C249.909 694.386 250.553 695.459 251.197 696.533C251.841 697.607 252.485 698.681 253.13 699.754C254.418 701.902 255.707 703.834 256.995 705.982C257.639 707.056 258.284 708.129 258.928 708.988L261.075 711.995L261.505 712.854L261.72 713.283L262.149 713.928C262.579 714.572 263.008 715.001 263.438 715.645C263.867 716.075 264.297 716.719 264.726 717.149C266.444 719.081 268.162 720.37 269.665 721.444C272.886 723.591 275.678 725.094 278.255 726.383C280.188 727.242 281.906 727.886 283.624 728.745C284.053 728.96 284.697 729.174 285.127 729.389C285.342 729.604 285.771 729.604 285.986 729.604C290.925 731.322 295.864 732.825 300.589 733.899C303.38 734.543 306.172 735.187 308.964 735.832C309.393 736.046 310.037 736.046 310.467 736.261C316.48 737.55 322.493 738.623 328.291 739.482C337.525 740.986 346.759 742.059 355.778 742.918C360.288 743.348 365.012 743.777 369.522 744.207C371.884 744.421 374.032 744.636 376.394 744.636L379.83 744.851L383.266 745.066L385.843 715.431L383.266 714.357ZM290.71 692.023C290.71 692.023 290.925 692.238 290.71 692.023C290.925 692.238 290.925 692.238 290.925 692.238C290.925 692.238 290.925 692.238 290.71 692.023C290.496 692.023 290.496 691.809 290.71 692.023Z" fill="#FFDF33"/>
<path fill-rule="evenodd" clip-rule="evenodd" d="M280.306 727.262C271.45 703.765 275.108 694.208 282.412 677.49C282.086 676.942 281.74 676.363 281.476 675.703C280.009 672.931 278.665 670.035 277.351 667.203C276.934 666.305 276.521 665.414 276.108 664.536C274.39 660.67 272.886 656.805 271.383 652.94C268.377 645.209 265.8 637.263 263.652 629.317C263.466 628.61 263.28 627.908 263.095 627.211C262.212 623.89 261.356 620.664 260.646 617.292C260.216 615.359 259.787 613.212 259.572 611.279C259.541 611.122 259.509 610.97 259.479 610.821C259.299 609.95 259.143 609.189 259.143 608.272L258.928 606.984L258.713 605.91L220.488 610.205L220.703 611.494L220.918 612.567L221.133 614.5C221.347 615.788 221.562 617.077 221.777 618.151C221.834 618.463 221.89 618.779 221.948 619.097C222.324 621.19 222.721 623.402 223.28 625.452C224.354 630.176 225.642 634.901 226.931 639.625C229.722 648.859 232.944 658.093 236.594 667.113C238.527 671.623 240.46 675.917 242.607 680.427L245.828 686.869C246.15 687.406 246.419 687.943 246.687 688.48C246.956 689.017 247.224 689.554 247.546 690.091L249.264 693.312L251.197 696.533L253.13 699.754C253.774 700.828 254.418 701.848 255.062 702.868C255.707 703.888 256.351 704.908 256.995 705.982C257.639 707.056 258.284 708.129 258.928 708.988L261.075 711.995L261.505 712.854L261.72 713.283L262.149 713.928C262.364 714.25 262.579 714.518 262.793 714.787C263.008 715.055 263.223 715.323 263.438 715.645C263.652 715.86 263.867 716.129 264.082 716.397C264.297 716.666 264.511 716.934 264.726 717.149C266.444 719.081 268.162 720.37 269.665 721.444C272.886 723.591 275.678 725.094 278.255 726.383C278.964 726.698 279.644 726.984 280.306 727.262Z" fill="#FFCA01"/>
<path d="M366.306 746.355H366.091C365.447 746.355 365.017 745.711 365.017 745.067L368.453 710.278C368.453 709.634 369.097 709.204 369.741 709.204C370.386 709.204 370.815 709.848 370.815 710.493L367.379 745.281C367.165 745.926 366.735 746.355 366.306 746.355Z" fill="#AE8A66"/>
<path d="M383.699 738.411C383.484 738.411 383.484 738.411 383.269 738.411L367.378 736.478C366.734 736.478 366.304 735.834 366.304 735.189C366.304 734.545 366.948 734.116 367.593 734.116L383.484 736.048C384.128 736.048 384.558 736.693 384.558 737.337C384.558 737.766 384.128 738.196 383.699 738.411Z" fill="#AE8A66"/>
<path d="M378.976 727.029C379.62 728.317 378.976 729.82 377.687 730.464C376.399 731.109 374.896 730.464 374.251 729.176C373.607 727.887 374.251 726.384 375.54 725.74C376.828 725.096 378.331 725.74 378.976 727.029Z" fill="#AE8A66"/>
<path d="M377.461 916.005L383.689 932.326L407.096 928.89L402.157 911.71L377.461 916.005Z" fill="#DB956C"/>
<path d="M467.879 958.098L383.054 969.909C382.195 968.835 381.765 967.332 381.336 965.399C379.833 958.313 380.477 946.502 380.692 939.2C380.692 938.341 380.692 937.482 380.692 936.838C380.692 935.55 380.692 934.691 380.477 933.832C379.618 928.034 384.987 928.248 384.987 928.248C394.65 935.55 402.811 921.591 409.038 924.812C409.038 924.812 411.83 926.316 419.346 931.255C426.862 936.409 438.888 938.771 449.196 941.563C462.51 944.998 466.805 949.938 468.093 953.374C468.952 955.951 467.879 958.098 467.879 958.098Z" fill="#FFDF33"/>
<path d="M467.873 958.099L383.048 969.91C382.189 968.836 381.76 967.333 381.33 965.4L468.088 953.375C468.947 955.951 467.873 958.099 467.873 958.099Z" fill="#FFCA01"/>
<path d="M410.753 928.028C410.753 928.028 411.827 924.163 415.263 924.807C418.699 925.451 419.128 931.034 419.128 931.034C419.128 931.034 418.054 936.403 410.753 928.028Z" fill="white"/>
<path d="M412.048 944.782C411.189 944.997 410.544 944.353 410.544 943.494C409.471 935.118 413.98 929.75 414.195 929.535C414.625 928.891 415.698 928.891 416.128 929.32C416.772 929.75 416.772 930.824 416.343 931.253C416.128 931.468 412.477 935.763 413.336 942.849C413.336 944.138 412.907 944.782 412.048 944.782Z" fill="white"/>
<path d="M428.152 931.478C427.722 931.478 427.507 931.478 427.078 931.263C425.145 929.975 419.776 930.404 416.985 931.048C416.126 931.263 415.481 930.619 415.267 929.975C415.052 929.116 415.696 928.471 416.34 928.257C417.199 928.042 424.93 926.539 428.581 928.901C429.225 929.33 429.44 930.189 429.011 930.833C429.011 931.263 428.581 931.478 428.152 931.478Z" fill="white"/>
<path d="M415.908 927.602C415.694 927.602 415.479 927.172 415.049 926.958C414.62 926.528 413.976 926.099 413.117 925.669C412.902 925.669 412.902 925.454 412.687 925.454C410.755 924.166 407.963 922.877 405.386 922.233C403.883 921.804 402.594 921.804 401.306 922.019H401.091C399.373 922.233 397.87 923.092 397.011 924.595C395.937 925.884 395.937 927.602 396.581 929.105C396.581 929.105 396.581 929.32 396.796 929.32C397.011 929.749 397.44 930.179 397.655 930.608C399.373 932.326 402.594 933.4 406.245 933.4C408.822 933.4 410.969 933.185 412.472 932.971C412.687 932.971 412.902 932.971 413.117 932.971C414.405 932.756 415.264 932.541 415.694 932.541C415.908 932.541 415.908 932.541 415.908 932.541L414.835 929.749L415.479 928.89L415.908 927.602ZM405.815 930.179C404.312 930.179 403.238 929.964 402.165 929.749C400.447 929.32 399.588 928.461 399.158 927.817V927.602C398.943 927.172 399.158 926.743 399.373 926.313C399.802 925.669 400.447 925.24 401.52 925.025C402.165 925.025 402.809 925.025 403.453 925.025C404.312 925.24 405.171 925.454 406.03 925.669C407.748 926.313 409.251 927.172 410.755 928.031C411.828 928.676 412.687 929.105 413.331 929.535C413.117 929.535 412.687 929.535 412.258 929.749C410.969 929.964 408.822 930.179 405.815 930.179Z" fill="white"/>
<path d="M417.841 930.395L416.124 927.818C418.7 926.1 420.848 922.234 420.418 920.087C420.204 919.657 419.989 919.013 418.7 918.798C417.841 918.584 417.412 919.013 416.982 919.228C415.694 920.516 415.694 924.382 416.124 926.529L413.117 926.959C412.902 926.314 412.043 919.872 414.835 916.866C415.479 916.007 416.982 915.148 419.13 915.577C422.351 916.007 423.21 918.154 423.425 919.228C424.284 923.308 421.063 928.247 417.841 930.395Z" fill="white"/>
<path d="M391.853 968.622L389.276 969.051C391.424 965.83 393.142 961.106 391.853 954.878C390.35 946.503 384.552 941.564 380.472 939.202C380.472 938.343 380.472 937.484 380.472 936.839C384.552 939.202 391.853 944.57 393.786 954.663C395.074 960.247 393.786 965.186 391.853 968.622Z" fill="#FFCA01"/>
<path d="M418.482 936.402C417.837 936.402 417.193 936.188 416.978 935.543C416.764 934.899 416.978 934.04 417.837 933.611L422.991 931.463C423.635 931.248 424.494 931.463 424.924 932.322C425.139 932.966 424.924 933.825 424.065 934.255L418.911 936.402C418.696 936.402 418.696 936.402 418.482 936.402Z" fill="white"/>
<path d="M424.286 938.769C423.642 938.769 422.997 938.554 422.783 937.91C422.568 937.266 422.783 936.407 423.642 935.977L428.795 933.83C429.44 933.615 430.299 933.83 430.728 934.689C430.943 935.333 430.728 936.192 429.869 936.622L424.715 938.769C424.501 938.769 424.286 938.769 424.286 938.769Z" fill="white"/>
<path d="M430.082 940.916C429.438 940.916 428.794 940.701 428.579 940.057C428.364 939.412 428.579 938.553 429.438 938.124L434.592 935.976C435.236 935.762 436.095 935.976 436.525 936.835C436.739 937.48 436.525 938.339 435.666 938.768L430.512 940.916C430.297 940.916 430.082 940.916 430.082 940.916Z" fill="white"/>
<path d="M436.094 942.858C435.45 942.858 434.806 942.643 434.591 941.999C434.376 941.355 434.591 940.496 435.45 940.066L440.604 937.919C441.248 937.704 442.107 937.919 442.537 938.778C442.751 939.422 442.537 940.281 441.678 940.71L436.524 942.858C436.309 942.858 436.309 942.858 436.094 942.858Z" fill="white"/>
<path d="M442.748 944.355C442.103 944.355 441.459 944.14 441.244 943.496C441.03 942.852 441.244 941.993 442.103 941.563L447.257 939.416C447.902 939.201 448.761 939.416 449.19 940.275C449.405 940.919 449.19 941.778 448.331 942.208L443.177 944.355C442.962 944.355 442.748 944.355 442.748 944.355Z" fill="white"/>
<path d="M465.944 906.342L474.964 917.294L494.935 905.053L485.916 894.101L465.944 906.342Z" fill="#DB956C"/>
<path d="M562.356 907.418L489.342 952.085C488.268 951.441 486.98 950.152 485.906 948.649C481.611 942.851 477.531 931.684 474.739 924.812C474.31 923.953 474.095 923.309 473.88 922.665C473.451 921.591 473.021 920.732 472.592 920.088C469.586 914.934 474.525 913.216 474.525 913.216C486.336 916.008 488.054 899.902 495.14 900.546C495.14 900.546 498.147 900.761 507.166 902.479C516.185 904.197 528.211 901.62 538.734 899.902C552.263 897.754 558.276 900.546 560.638 903.123C562.571 905.27 562.356 907.418 562.356 907.418Z" fill="#FFDF33"/>
<path d="M562.364 907.42L489.35 952.088C488.277 951.443 486.988 950.155 485.915 948.652L560.646 903.125C562.579 905.273 562.364 907.42 562.364 907.42Z" fill="#FFCA01"/>
<path d="M498.154 902.696C498.154 902.696 497.51 898.615 500.946 897.971C504.382 897.112 507.174 902.266 507.174 902.266C507.174 902.266 508.033 907.635 498.154 902.696Z" fill="white"/>
<path d="M505.886 917.728C505.241 918.158 504.382 917.943 503.953 917.299C499.443 909.997 501.591 903.34 501.805 903.125C502.02 902.481 502.879 902.052 503.523 902.266C504.168 902.481 504.597 903.34 504.382 903.984C504.382 904.199 502.664 909.782 506.315 915.795C506.745 916.44 506.53 917.299 505.886 917.728Z" fill="white"/>
<path d="M515.335 898.831C515.121 899.046 514.691 899.046 514.262 899.046C511.9 898.616 507.175 901.193 504.813 902.697C504.169 903.126 503.31 902.911 502.88 902.267C502.451 901.623 502.665 900.764 503.31 900.334C503.954 899.905 510.611 895.395 514.906 896.039C515.765 896.254 516.194 896.898 515.98 897.757C515.98 898.402 515.765 898.616 515.335 898.831Z" fill="white"/>
<path d="M502.456 900.332C502.241 900.332 501.811 900.117 501.382 900.117C500.738 899.903 500.093 899.903 499.02 899.688C498.805 899.688 498.59 899.688 498.375 899.688C496.013 899.473 493.007 899.258 490.215 899.688C488.712 899.903 487.423 900.332 486.35 900.976C484.846 901.835 483.987 903.339 483.558 904.842C483.128 906.56 483.773 908.063 484.846 909.137L485.061 909.351C485.491 909.781 485.92 909.996 486.35 910.211C488.712 911.07 491.933 910.855 495.369 909.351C497.731 908.278 499.664 907.419 500.952 906.56C501.167 906.56 501.382 906.345 501.382 906.345C502.67 905.701 503.315 905.057 503.529 904.842C503.744 904.627 503.744 904.627 503.744 904.627L501.811 902.48L502.026 901.406L502.456 900.332ZM494.295 906.56C493.007 907.204 491.718 907.419 490.645 907.634C488.927 907.848 487.638 907.634 486.994 906.989L486.779 906.775C486.564 906.345 486.35 906.13 486.564 905.486C486.779 904.627 487.209 903.983 488.068 903.553C488.497 903.124 489.141 902.909 490 902.694C490.859 902.48 491.718 902.265 492.577 902.265C494.295 902.265 496.228 902.265 497.731 902.48C498.805 902.694 499.879 902.694 500.738 902.909C500.523 903.124 500.308 903.339 499.879 903.553C498.805 904.412 497.087 905.486 494.295 906.56Z" fill="white"/>
<path d="M505.454 902.268L502.877 900.55C504.595 897.973 505.024 893.463 503.736 891.745C503.521 891.316 502.877 890.886 501.588 891.316C500.729 891.53 500.3 891.96 500.3 892.389C499.655 894.107 501.159 897.758 502.447 899.476L499.87 901.194C499.441 900.55 496.005 895.181 497.508 891.316C497.937 890.242 498.796 888.954 500.944 888.524C503.95 887.665 505.668 889.168 506.313 890.242C508.46 893.034 507.601 898.832 505.454 902.268Z" fill="white"/>
<path d="M496.862 947.572L494.715 948.86C495.359 944.995 495.144 940.056 491.494 934.687C486.769 927.6 479.468 925.453 474.958 924.809C474.529 923.95 474.314 923.305 474.099 922.661C478.824 923.091 487.628 925.238 493.426 933.613C496.433 938.552 497.292 943.492 496.862 947.572Z" fill="#FFCA01"/>
<path d="M508.464 907.204C507.82 907.633 507.176 907.418 506.746 906.989C506.102 906.345 506.102 905.486 506.746 905.056L510.612 901.191C511.256 900.546 512.115 900.546 512.545 901.191C513.189 901.835 513.189 902.694 512.545 903.123L508.679 906.989C508.679 907.204 508.679 907.204 508.464 907.204Z" fill="white"/>
<path d="M514.688 907.204C514.044 907.633 513.4 907.418 512.97 906.989C512.326 906.345 512.326 905.486 512.97 905.056L516.836 901.191C517.48 900.546 518.339 900.546 518.769 901.191C519.413 901.835 519.413 902.694 518.769 903.123L514.903 906.989C514.903 906.989 514.688 906.989 514.688 907.204Z" fill="white"/>
<path d="M520.708 906.993C520.064 907.423 519.42 907.208 518.991 906.778C518.346 906.134 518.346 905.275 518.991 904.846L522.856 900.98C523.5 900.336 524.359 900.336 524.789 900.98C525.433 901.624 525.433 902.483 524.789 902.913L520.923 906.778C520.923 906.778 520.923 906.778 520.708 906.993Z" fill="white"/>
<path d="M527.142 906.132C526.498 906.562 525.854 906.347 525.424 905.918C524.78 905.273 524.78 904.414 525.424 903.985L529.29 900.119C529.934 899.475 530.793 899.475 531.222 900.119C531.866 900.764 531.866 901.623 531.222 902.052L527.357 905.918C527.357 906.132 527.357 906.132 527.142 906.132Z" fill="white"/>
<path d="M533.795 904.841C533.151 905.27 532.506 905.056 532.077 904.626C531.433 903.982 531.433 903.123 532.077 902.693L535.942 898.828C536.587 898.184 537.446 898.184 537.875 898.828C538.519 899.472 538.519 900.331 537.875 900.761L534.01 904.626C534.01 904.841 534.01 904.841 533.795 904.841Z" fill="white"/>
<path d="M392.282 738.844C383.263 732.831 257.851 725.959 220.7 744.642C217.908 754.091 279.326 779.216 297.364 796.825C350.622 795.107 382.834 806.918 382.834 806.918C382.834 806.918 409.462 845.787 423.206 859.102C437.164 872.631 466.37 911.714 466.37 911.714L492.354 892.602C492.569 892.602 416.549 754.95 392.282 738.844Z" fill="#282828"/>
<path d="M177.11 743.136C177.11 743.136 153.918 840.631 266.874 825.384C317.984 818.512 340.532 806.056 340.532 806.056C340.532 806.056 350.411 850.509 356.423 868.762C362.436 887.23 375.965 919.442 375.965 919.442L406.245 913.644C406.245 913.644 391.642 773.63 364.154 763.322C336.882 753.014 292.214 750.008 231.012 755.806C231.012 755.591 186.774 745.713 177.11 743.136Z" fill="#2F2F2F"/>
<path d="M256.994 760.526L378.111 755.586C378.54 755.586 378.755 755.372 378.755 754.942L378.111 740.125C378.111 739.695 377.896 739.48 377.467 739.48L256.35 744.42C255.92 744.42 255.706 744.634 255.706 745.064L256.35 759.881C256.35 760.311 256.565 760.526 256.994 760.526Z" fill="#D6422B"/>
<path d="M391.422 754.942C395.932 754.727 400.012 751.506 400.871 746.996L420.198 660.239C421.487 654.87 417.192 649.931 411.823 650.146L357.063 652.508C353.412 652.723 350.191 655.3 349.332 658.95L325.925 757.734L391.422 754.942Z" fill="#FE654D"/>
<path d="M385.84 703.84C384.551 709.423 379.397 714.577 374.243 715.007C369.089 715.436 366.083 711.141 367.371 705.558C368.66 699.974 373.814 694.82 378.968 694.391C383.907 693.961 387.128 698.256 385.84 703.84Z" fill="white" fill-opacity="0.5"/>
<path d="M349.334 658.951L326.141 756.875L319.914 757.09L343.106 659.165C343.965 655.515 347.186 652.938 350.837 652.723L357.065 652.508C353.414 652.723 350.193 655.3 349.334 658.951Z" fill="#D6422B"/>
<path d="M278.899 673.773C278.899 673.988 278.899 673.988 278.899 673.988C278.47 675.061 278.255 676.35 277.611 677.424C274.819 684.081 270.095 689.664 268.162 691.597C267.732 692.241 267.303 692.456 267.303 692.456C267.303 692.456 267.303 692.456 267.303 692.671C267.303 693.1 267.303 693.315 267.518 693.744C267.732 695.247 267.947 696.965 268.377 698.683C273.101 720.158 274.175 723.809 276.108 733.043C247.976 773.845 180.76 748.075 177.324 743.136C174.318 721.232 174.318 721.232 170.882 700.187C169.379 689.879 165.084 674.632 159.5 659.385C159.286 658.741 159.071 658.096 158.856 657.667C157.138 653.157 155.42 648.648 153.487 644.353C149.407 635.119 147.904 626.314 148.548 618.798C148.548 617.724 148.763 616.865 148.978 615.791C150.266 609.564 153.273 604.41 157.997 600.974C161.218 598.826 169.808 596.035 175.392 594.532C176.251 594.317 176.895 594.102 177.539 594.102C177.754 594.102 177.969 594.102 178.183 593.887C179.472 593.673 180.975 593.243 182.263 593.028C189.35 591.74 194.933 590.881 194.933 590.881L229.293 591.096C232.729 591.525 235.735 591.955 238.527 592.384C240.889 592.814 243.037 593.243 244.969 593.887C246.687 594.317 248.191 594.746 249.479 595.391C250.123 595.605 250.982 596.035 251.627 596.25C262.793 601.403 263.652 610.208 266.444 624.381C266.444 624.811 266.659 625.24 266.659 625.67C266.873 626.314 266.873 626.743 267.088 627.388C267.947 630.609 268.806 634.045 269.665 637.051C269.88 637.481 269.88 637.91 270.095 638.125C270.095 638.34 270.309 638.555 270.309 638.769C270.739 640.058 271.168 641.131 271.598 642.205C274.604 651.01 277.826 659.17 279.114 665.398C279.329 666.042 279.329 666.472 279.329 667.116C279.329 669.693 279.329 671.84 278.899 673.773Z" fill="#FFDF33"/>
<path d="M231.224 585.936L204.38 582.715C193.643 581.427 184.409 573.696 182.261 563.173C181.617 559.952 180.329 552.221 183.765 547.282C191.496 536.76 187.201 535.901 191.496 517.862C195.79 499.823 223.278 507.769 223.278 507.769C223.278 507.769 261.073 523.66 262.362 535.256C264.295 553.295 254.846 547.926 259.141 561.67C261.288 568.542 256.778 574.984 250.766 580.138C245.612 584.863 238.31 587.01 231.224 585.936Z" fill="#42302D"/>
<path d="M227.576 510.991C227.576 510.991 233.375 482 206.961 482C180.332 482 181.191 517.218 204.813 519.795C228.006 522.372 227.576 510.991 227.576 510.991Z" fill="#42302D"/>
<path d="M230.366 604.192C222.635 623.519 195.792 602.259 195.792 592.596C201.804 579.496 202.019 564.894 202.019 564.894L233.372 580.57C233.157 581.429 232.943 582.503 232.728 583.362C231.869 587.871 231.01 592.381 230.366 597.105C230.58 599.468 230.366 601.83 230.366 604.192Z" fill="#DB956C"/>
<path d="M230.795 597.108C214.045 591.31 205.025 572.197 205.025 572.197L233.157 583.364C232.083 587.874 231.224 592.383 230.795 597.108Z" fill="#C07B52"/>
<path d="M243.682 557.167C243.682 557.167 247.118 549.436 253.56 552.013C260.002 554.59 257.64 576.494 245.185 574.346L243.682 557.167Z" fill="#C07B52"/>
<path d="M253.557 556.949C253.557 557.593 253.342 558.452 253.128 559.311C252.913 560.17 252.698 561.244 252.483 562.103C252.269 563.176 251.839 564.465 251.41 565.539C251.195 566.183 250.98 567.042 250.765 567.686C246.9 579.068 241.317 583.792 235.304 585.939C225.425 589.375 203.951 576.705 201.374 567.686C199.656 561.029 199.226 563.606 200.73 546.856C202.018 529.891 210.178 521.516 210.178 521.516C220.701 512.067 237.236 515.717 247.115 524.093C256.993 532.038 255.06 545.138 253.557 556.949Z" fill="#DB956C"/>
<path d="M205.238 544.924C205.238 544.924 202.232 537.623 194.931 539.77C187.629 541.918 187.844 566.184 201.803 565.11L205.238 544.924Z" fill="#DB956C"/>
<path d="M208.031 532.252C208.031 532.252 211.682 537.621 208.676 541.486C204.166 547.285 206.958 554.371 206.958 554.371C206.958 554.371 198.368 546.211 201.589 536.332C204.81 526.454 208.031 532.252 208.031 532.252Z" fill="#42302D"/>
<path d="M201.155 555.661C201.155 556.091 200.94 556.305 200.511 556.305C200.511 556.305 200.511 556.305 200.296 556.305C200.081 556.305 199.652 556.091 199.652 555.661C199.652 555.661 199.222 553.299 197.934 551.152C196.431 552.225 195.357 553.084 195.357 553.084C195.142 553.299 195.142 553.299 194.927 553.299C194.713 553.299 194.498 553.299 194.498 553.084C194.283 552.87 194.283 552.44 194.498 552.225C194.498 552.225 195.786 551.152 197.29 550.078C196.431 549.004 195.142 547.93 193.424 547.501C192.995 547.286 192.995 547.071 192.995 546.642C193.209 546.212 193.424 546.212 193.854 546.212C200.081 548.36 200.94 555.446 201.155 555.661Z" fill="#C07B52"/>
<path d="M226.498 498.753C226.498 498.753 253.127 502.619 261.287 518.081C269.447 533.328 260.213 542.562 260.213 542.562C260.213 542.562 246.04 549.219 230.364 527.1C230.364 527.1 225.424 539.985 211.895 539.126C198.366 538.267 203.091 526.026 203.091 526.026C203.091 526.026 211.466 499.612 226.498 498.753Z" fill="#42302D"/>
<path d="M295.005 735.407C295.005 735.407 316.48 725.743 326.358 730.683L322.493 747.003C322.493 747.003 313.903 751.083 310.038 752.801C306.172 754.519 305.957 761.821 291.569 761.821L295.005 735.407Z" fill="#DB956C"/>
<path d="M291.78 734.758L288.559 734.114L281.902 732.825C277.392 731.966 273.097 731.107 268.587 730.248C264.937 729.604 261.501 728.745 257.85 728.101C257.421 727.886 256.776 727.886 256.347 727.671C251.623 726.598 246.898 725.524 242.388 724.45C239.811 723.806 237.02 723.162 234.443 722.303C233.584 722.088 232.725 721.873 231.866 721.659C226.927 720.37 221.988 718.867 217.263 717.149C213.398 715.86 209.532 714.357 206.096 712.639C204.378 711.78 202.875 711.136 201.801 710.277C201.157 709.848 200.728 709.633 200.513 709.203C200.083 708.344 199.439 707.485 199.01 706.626C198.151 704.908 197.077 703.19 196.433 701.472C195.574 699.754 194.715 697.822 194.071 696.104C193.426 694.171 192.567 692.453 191.923 690.52C191.279 688.588 190.635 686.87 190.205 684.937C189.561 683.004 189.131 681.072 188.702 679.139C188.272 677.206 187.843 675.273 187.413 673.341C186.984 671.408 186.769 669.475 186.34 667.328C185.266 659.382 184.836 651.222 185.266 643.061C185.481 638.981 185.695 634.901 186.125 630.821C186.34 628.888 186.554 626.741 186.984 624.808C187.199 623.734 187.199 622.875 187.413 622.016L187.628 620.728L187.843 619.869L167.013 614.715L165.509 614.285L150.692 610.635L150.477 611.494L150.262 612.138L150.048 613.212C149.833 613.856 149.833 614.5 149.618 615.359C149.618 615.789 149.403 616.433 149.403 616.862C149.189 617.721 149.189 618.58 148.974 619.225C148.544 621.802 148.33 624.379 147.9 626.955C147.685 629.318 147.471 631.68 147.256 634.042C147.256 634.686 147.256 635.116 147.256 635.76C147.041 637.908 147.041 640.27 147.041 642.417C146.826 651.007 147.471 659.382 148.544 667.972C148.544 668.401 148.759 669.046 148.759 669.475C148.974 670.764 149.189 672.052 149.403 673.126C149.833 675.488 150.262 677.85 150.692 680.213C150.907 680.857 150.907 681.286 151.121 681.931C152.839 689.232 154.987 696.318 157.564 703.405C158.423 705.767 159.496 708.13 160.57 710.492V710.707C160.785 711.351 161.214 711.995 161.429 712.424C162.288 714.142 163.147 716.075 164.006 717.793C164.221 718.008 164.221 718.223 164.436 718.437C165.509 720.585 166.798 722.518 167.872 724.665C168.516 725.739 169.16 727.027 170.019 728.101L170.234 728.53L170.448 728.745L170.878 729.175C171.307 729.819 171.737 730.463 172.166 730.893C173.025 731.966 173.884 733.04 174.743 733.684C176.461 735.402 177.965 736.691 179.468 737.765C180.971 738.838 182.474 739.697 183.763 740.556C185.91 741.845 188.058 742.918 190.205 743.777C190.849 743.992 191.279 744.207 191.923 744.422C193.426 745.066 194.93 745.71 196.648 746.354C197.077 746.569 197.721 746.784 198.151 746.999C201.157 748.072 203.949 748.931 206.955 749.79C213.183 751.723 219.196 753.226 225.424 754.515C226.068 754.729 226.712 754.729 227.356 754.944C229.289 755.374 231.007 755.803 232.94 756.018C233.369 756.233 234.013 756.233 234.443 756.233C234.872 756.233 235.087 756.447 235.517 756.447C244.965 758.165 254.199 759.669 263.648 760.957C264.937 761.172 266.011 761.387 267.299 761.387C267.943 761.387 268.373 761.601 269.017 761.601C272.023 762.031 274.815 762.246 277.822 762.675C280.184 762.89 282.546 763.319 284.908 763.534L288.344 763.964L291.995 764.393L295.646 734.758H291.78ZM200.083 709.203L200.298 709.418C200.083 709.418 199.869 709.203 200.083 709.203Z" fill="#FFDF33"/>
<path d="M256.346 727.671C251.622 726.597 246.897 725.523 242.388 724.45C241.962 724.343 241.531 724.237 241.095 724.129C238.894 723.587 236.593 723.019 234.442 722.302L231.865 721.658C226.926 720.369 221.987 718.866 217.262 717.148C213.397 715.86 209.531 714.356 206.095 712.638C205.741 712.461 205.395 712.293 205.061 712.13C203.775 711.504 202.653 710.958 201.801 710.276C201.686 710.2 201.579 710.131 201.478 710.066C201.011 709.764 200.689 709.556 200.512 709.203C200.297 708.773 200.029 708.344 199.76 707.914C199.492 707.485 199.224 707.055 199.009 706.626C198.723 706.053 198.412 705.48 198.102 704.908C197.482 703.762 196.861 702.617 196.432 701.472C195.573 699.754 194.714 697.821 194.07 696.103C193.748 695.137 193.372 694.224 192.996 693.311C192.62 692.399 192.244 691.486 191.922 690.52C191.792 690.128 191.661 689.745 191.532 689.367C191.026 687.881 190.547 686.477 190.204 684.936C189.56 683.004 189.131 681.071 188.701 679.138L187.413 673.34C187.179 672.289 187.009 671.237 186.833 670.151C186.686 669.241 186.535 668.306 186.339 667.327C185.826 663.535 185.461 659.694 185.265 655.828C185.555 656.789 185.838 657.734 186.117 658.662L186.125 658.688C199.083 701.806 201.434 709.629 263.647 729.265L263.218 729.174C261.447 728.798 259.675 728.422 257.849 728.1C257.635 727.993 257.366 727.939 257.098 727.885C256.829 727.832 256.561 727.778 256.346 727.671Z" fill="#FFCA01"/>
<circle cx="528.557" cy="206.332" r="46.3322" fill="#779FD9"/>
<circle cx="465.808" cy="231.14" r="24.8078" fill="#779FD9"/>
<circle cx="592.492" cy="239.44" r="16.5081" fill="#779FD9"/>
<rect x="465.808" y="222.932" width="126.775" height="33.0163" fill="#779FD9"/>
<rect x="465.808" y="206.332" width="62.7491" height="49.6156" fill="#779FD9"/>
<path d="M592.583 255.948C597.93 255.919 602.676 253.347 605.672 249.381C601.159 249.528 596.798 249.644 592.583 249.729V255.948Z" fill="#5C86C4"/>
<path d="M579.714 249.893C582.735 253.581 587.321 255.938 592.458 255.948C592.469 255.948 592.481 255.948 592.492 255.948L592.527 255.948C592.546 255.948 592.564 255.948 592.583 255.948V249.729C588.134 249.818 583.847 249.873 579.714 249.893Z" fill="#5C86C4"/>
<path d="M528.557 252.664V255.948L592.458 255.948C587.321 255.938 582.735 253.581 579.714 249.893C567.268 249.954 556.217 249.7 546.339 249.13C540.863 251.407 534.857 252.664 528.557 252.664Z" fill="#5C86C4"/>
<path d="M528.557 247.623V252.664C534.857 252.664 540.863 251.407 546.339 249.13C539.939 248.76 534.032 248.258 528.557 247.623Z" fill="#5C86C4"/>
<path d="M498.58 241.661C506.66 248.524 517.125 252.664 528.557 252.664V247.623C516.76 246.255 506.969 244.269 498.58 241.661Z" fill="#5C86C4"/>
<path d="M465.808 255.948H528.557V252.664C517.125 252.664 506.66 248.524 498.58 241.661C495.372 240.664 492.369 239.576 489.537 238.397C486.434 248.557 476.984 255.948 465.808 255.948Z" fill="#5C86C4"/>
<path d="M465.808 223.673V255.948C476.984 255.948 486.434 248.557 489.537 238.397C480.158 234.491 472.657 229.586 465.808 223.673Z" fill="#5C86C4"/>
<path d="M441 231.14C441 244.841 452.107 255.948 465.808 255.948V223.673C461.167 219.667 456.825 215.198 452.401 210.264C445.542 214.677 441 222.378 441 231.14Z" fill="#5C86C4"/>
<ellipse cx="553.834" cy="184.589" rx="6.84038" ry="16.5993" transform="rotate(-37.9952 553.834 184.589)" fill="white" fill-opacity="0.35"/>
<ellipse cx="599.527" cy="231.901" rx="3.04305" ry="7.38447" transform="rotate(-37.9952 599.527 231.901)" fill="white" fill-opacity="0.35"/>
<ellipse cx="482.237" cy="218.95" rx="3.04305" ry="7.38447" transform="rotate(-37.9952 482.237 218.95)" fill="white" fill-opacity="0.35"/>
<path d="M523.1 217.865L550.796 246.798H495.403L523.1 217.865Z" fill="#F7DF1E"/>
<path d="M515.104 243.583H531.095V269.301H515.104V243.583Z" fill="#F7DF1E"/>
<path opacity="0.7" d="M971.033 230.161L971.54 237.975L978.036 242.858L969.914 243.126L965.013 249.233L964.506 241.419L958.01 236.536L966.132 236.268L971.033 230.161Z" fill="white"/>
<path opacity="0.7" d="M120.033 237.161L120.54 244.975L127.036 249.858L118.914 250.126L114.013 256.233L113.506 248.419L107.01 243.536L115.132 243.268L120.033 237.161Z" fill="white"/>
<path opacity="0.7" d="M792.033 1039.16L792.54 1046.98L799.036 1051.86L790.914 1052.13L786.013 1058.23L785.506 1050.42L779.01 1045.54L787.132 1045.27L792.033 1039.16Z" fill="white"/>
<ellipse cx="813.887" cy="115.56" rx="8" ry="7.5" transform="rotate(17.5202 813.887 115.56)" fill="#FFDF34"/>
<ellipse cx="607.887" cy="1001.56" rx="8" ry="7.5" transform="rotate(17.5202 607.887 1001.56)" fill="#FFDF34"/>
<ellipse cx="369.75" cy="153.424" rx="5.5" ry="5" transform="rotate(17.5202 369.75 153.424)" fill="#69AEA9"/>
<ellipse cx="1082.75" cy="885.424" rx="5.5" ry="5" transform="rotate(17.5202 1082.75 885.424)" fill="#69AEA9"/>
<path d="M1058.64 864.998C1058.64 864.998 1031.01 885.545 1025.62 884.3C1020.23 883.056 1045.81 862.126 1045.81 862.126C1036.19 857.494 1006.26 860.348 1006.26 860.348C1006.26 860.348 996.295 892.498 991.378 889.964C986.461 887.43 1001.66 861.948 1001.66 861.948C990.933 861.308 977.783 869.265 977.783 869.265C959.779 883.491 978.966 905.861 978.966 905.861C978.966 905.861 975.276 916.931 963.904 927.004C963.904 927.004 947.669 939.016 946.54 960.471L949.492 960.728C949.492 960.728 954.213 940.546 962.784 931.157L964.056 929.867C965.425 928.587 966.385 927.636 967.043 926.924C971.266 922.861 977.117 917.678 979.935 917.144C979.832 916.68 979.79 916.205 979.811 915.73C979.811 916.184 979.891 916.62 979.935 917.144C980.895 928.454 1002.84 938.332 1016.34 940.368C1029.85 942.404 1025.67 936.811 1021.02 928.623C1016.37 920.434 1001.65 916.709 998.286 912.921C994.926 909.133 1001.84 909.115 1010 912.832C1018.17 916.548 1019.25 926.453 1032.3 932.704C1045.36 938.954 1064.99 917.295 1064.99 917.295C1054.59 916.771 1039.74 905.479 1040.28 902.02C1040.82 898.562 1065.49 907.986 1069.7 908.44C1073.91 908.893 1083.52 903.639 1085 886.648C1086.49 869.657 1058.64 864.998 1058.64 864.998Z" fill="#015E56"/>
<path d="M911.894 877.756C911.894 877.756 942.408 860.667 928.174 837.47C928.174 837.47 916.775 823.245 904.568 819.572C904.568 819.572 911.076 854.159 904.568 854.968C898.06 855.777 900.122 815.909 900.122 815.909C900.122 815.909 867.972 800.448 855.356 801.684C855.356 801.684 875.298 835.47 868.79 834.643C862.282 833.816 839.894 799.647 839.894 799.647C839.894 799.647 806.935 793.548 801.662 813.073C796.39 832.598 804.916 842.414 809.797 843.596C814.679 844.779 846.02 844.414 845.202 848.478C844.384 852.541 823.232 859.058 811.416 855.395C811.416 855.395 824.441 887.545 841.53 885.918C858.619 884.291 863.909 873.71 874.489 872.892C885.07 872.074 892.805 874.929 887.515 877.774C882.224 880.619 864.318 878.663 855.773 885.971C847.229 893.28 840.312 897.716 856.182 900.971C872.053 904.225 900.531 902.189 906.23 889.981C906.479 889.448 906.72 888.95 906.942 888.461C906.775 888.998 906.536 889.509 906.23 889.981C909.165 891.697 913.566 899.859 916.606 906.11C917.042 907.168 917.718 908.626 918.731 910.608C919.096 911.4 919.398 912.067 919.621 912.565C925.329 926.533 922.341 950.948 922.341 950.948L925.729 951.837C933.242 927.475 920.065 907.461 920.065 907.461C911.485 891.59 911.894 877.756 911.894 877.756Z" fill="#05897E"/>
<path d="M1105.8 768.902C1098.83 743.118 1055.38 751.2 1055.38 751.2C1055.38 751.2 1025.88 796.26 1017.3 797.336C1008.72 798.412 1035 753.885 1035 753.885C1018.37 752.276 975.995 772.654 975.995 772.654C975.995 772.654 978.662 825.227 970.1 824.152C961.538 823.076 970.1 777.482 970.1 777.482C954.007 782.31 938.981 801.088 938.981 801.088C920.212 831.665 960.444 854.186 960.444 854.186C960.444 854.186 960.978 872.43 949.713 893.307C949.713 893.307 932.339 919.687 942.244 951.801L946.69 950.601C946.69 950.601 942.778 918.744 950.157 900.286C950.459 899.61 950.895 898.632 951.446 897.432C952.78 894.765 953.687 892.871 954.256 891.475C958.275 883.233 964.036 872.502 967.922 870.243C967.524 869.617 967.21 868.942 966.988 868.234C967.29 868.874 967.593 869.541 967.922 870.243C975.435 886.336 1012.98 889.021 1033.9 884.727C1054.82 880.432 1045.7 874.538 1034.44 864.962C1023.17 855.386 999.574 857.911 992.594 854.15C985.615 850.389 995.813 846.646 1009.76 847.713C1023.71 848.78 1030.68 862.739 1053.21 864.882C1075.74 867.025 1092.9 824.65 1092.9 824.65C1077.35 829.477 1049.45 820.897 1048.39 815.536C1047.32 810.175 1088.61 810.708 1095.05 809.099C1101.48 807.49 1112.78 794.651 1105.8 768.902Z" fill="#00786E"/>
<path d="M880.28 943.168C880.278 961.541 886.696 979.336 898.424 993.479C910.152 1007.62 926.454 1017.22 944.509 1020.62C947.74 1021.23 951.007 1021.63 954.29 1021.83C955.881 1021.92 957.481 1021.97 959.091 1021.97C979.99 1021.97 1000.03 1013.67 1014.81 998.889C1029.59 984.111 1037.89 964.068 1037.89 943.168H880.28Z" fill="#FFDF33"/>
<path d="M944.509 1020.62C947.74 1021.23 951.007 1021.63 954.289 1021.83C974.321 1020.6 993.132 1011.79 1006.88 997.168C1020.63 982.55 1028.29 963.237 1028.29 943.168H1008.73C1008.72 961.538 1002.31 979.329 990.58 993.47C978.855 1007.61 962.56 1017.21 944.509 1020.62Z" fill="#FFCA01"/>
<path d="M1039.69 942.67H877.7V945.088H1039.69V942.67Z" fill="#FFCA01"/>
</g>
<defs>
<clipPath id="clip0_12_5190">
<rect width="1200" height="1200" fill="white"/>
</clipPath>
<clipPath id="clip1_12_5190">
<rect x="620" y="663" width="70" height="40" rx="5" fill="white"/>
</clipPath>
<clipPath id="clip2_12_5190">
<rect x="930" y="693" width="180" height="115.714" rx="10" fill="white"/>
</clipPath>
<clipPath id="clip3_12_5190">
<rect width="36" height="36" fill="white" transform="translate(392 464)"/>
</clipPath>
</defs>
</svg>
