<svg xmlns="http://www.w3.org/2000/svg" xmlns:xlink="http://www.w3.org/1999/xlink" width="467" height="449" viewBox="0 0 467 449">
  <defs>
    <linearGradient id="linear-gradient" x1="0.714" y1="0.477" x2="0.996" y2="0.496" gradientUnits="objectBoundingBox">
      <stop offset="0" stop-color="#444b8c"/>
      <stop offset="0.996" stop-color="#26264f"/>
    </linearGradient>
    <linearGradient id="linear-gradient-2" x1="0.496" y1="0.034" x2="1.191" y2="1.514" xlink:href="#linear-gradient"/>
    <linearGradient id="linear-gradient-3" x1="7.082" y1="-1.493" x2="36.299" y2="78.646" gradientUnits="objectBoundingBox">
      <stop offset="0" stop-color="#ffc444"/>
      <stop offset="0.996" stop-color="#f36f56"/>
    </linearGradient>
    <filter id="Path_4019" x="246.685" y="289.69" width="39.111" height="44.47" filterUnits="userSpaceOnUse">
      <feOffset dx="-4" dy="5" input="SourceAlpha"/>
      <feGaussianBlur stdDeviation="1.5" result="blur"/>
      <feFlood flood-opacity="0.161"/>
      <feComposite operator="in" in2="blur"/>
      <feComposite in="SourceGraphic"/>
    </filter>
    <linearGradient id="linear-gradient-4" x1="0.689" y1="0.692" x2="-0.188" y2="-0.285" xlink:href="#linear-gradient"/>
    <linearGradient id="linear-gradient-5" x1="0.252" y1="-0.336" x2="0.9" y2="1.804" gradientUnits="objectBoundingBox">
      <stop offset="0" stop-color="#fff"/>
      <stop offset="0.004" stop-color="#fff"/>
      <stop offset="1" stop-color="#4500ff"/>
    </linearGradient>
    <linearGradient id="linear-gradient-6" x1="1" y1="0.5" x2="0" y2="0.5" gradientUnits="objectBoundingBox">
      <stop offset="0" stop-color="#8e8e8e"/>
      <stop offset="0.004" stop-color="#878787"/>
      <stop offset="1" stop-color="#d8d8d8"/>
    </linearGradient>
    <clipPath id="clip-react">
      <rect width="467" height="449"/>
    </clipPath>
  </defs>
  <g id="react" clip-path="url(#clip-react)">
    <g id="Group_661" data-name="Group 661" transform="translate(33.39 9.298)">
      <g id="Group_659" data-name="Group 659" transform="translate(35.316 41.426)">
        <path id="Path_3991" data-name="Path 3991" d="M452.231,601.8c9.368-61.319,47.777-136.653,123.659-144.537,0,0,57.613-7.008,114.407,3.613,33.707,6.3,63.263,25.068,81.965,52.036a112.852,112.852,0,0,1,17.368,91.205c-4.924,20.363-8.252,41.437-7.339,62.362,1.151,26.389,3.32,54.135-8.345,78.743-17.093,36.055-58.8,46.675-95.187,50.063-13.41,1.248-26.87,1.752-40.291,2.813-25.748,2.036-54.623-1.259-79.439-7.962C432.558,755.977,442.863,663.123,452.231,601.8Z" transform="translate(-447.148 -455)" fill="#f4f7fa"/>
        <g id="Group_625" data-name="Group 625" transform="translate(54.15 36.21)">
          <g id="Group_624" data-name="Group 624" transform="translate(0 0)">
            <path id="Path_3992" data-name="Path 3992" d="M1715.9,822.247v6.189a4.213,4.213,0,0,1-4.087,4.265l-8.768.109a61.414,61.414,0,0,1-4.367,15.834l7.854,4.443a4.233,4.233,0,0,1,1.51,5.748l-3.033,5.5a4.2,4.2,0,0,1-5.679,1.762l-8.122-4.495a64.046,64.046,0,0,1-11.54,11.854l4.87,8.3a4.471,4.471,0,0,1-1.563,5.969l-5.457,3.464a4.191,4.191,0,0,1-5.909-1.274l-5.016-8.438a64.578,64.578,0,0,1-16.1,4.978v10.241a4.788,4.788,0,0,1-4.489,4.684l-6.645.4a4.2,4.2,0,0,1-4.559-4.192V887.228a64.154,64.154,0,0,1-16.837-3.49l-5.406,9.287a5.019,5.019,0,0,1-6.471,2.008L1600.008,892a4.321,4.321,0,0,1-1.758-6.163l5.451-9.248a63.059,63.059,0,0,1-13.048-11.663l-9.456,5.484a5.019,5.019,0,0,1-6.751-1.456l-3.655-5.8a4.577,4.577,0,0,1,1.824-6.419l9.349-5.306a60.831,60.831,0,0,1-5.17-17.05l-10.592.132a4.8,4.8,0,0,1-5.035-4.63v-6.892a4.886,4.886,0,0,1,5.035-4.7l10.318-.018a61.426,61.426,0,0,1,4.7-17.537l-8.6-4.76a4.538,4.538,0,0,1-1.824-6.393l3.655-5.853a5.057,5.057,0,0,1,6.751-1.552l8.313,4.7a64.182,64.182,0,0,1,13.336-12.641l-4.6-7.731a4.359,4.359,0,0,1,1.758-6.187l6.077-3.116a4.971,4.971,0,0,1,6.47,1.916l4.436,7.557a64.618,64.618,0,0,1,17.808-4.07v-8.359a4.275,4.275,0,0,1,4.559-4.257l6.645.3a4.705,4.705,0,0,1,4.489,4.621v8.268a63.877,63.877,0,0,1,17.006,5.186l4.11-6.972a4.222,4.222,0,0,1,5.909-1.358l5.457,3.386a4.434,4.434,0,0,1,1.563,5.947l-4.1,7.044a62.76,62.76,0,0,1,11.764,12.448l7.129-4.046a4.162,4.162,0,0,1,5.679,1.682l3.033,5.455a4.27,4.27,0,0,1-1.51,5.77l-7.219,4.186a60.842,60.842,0,0,1,3.962,16.14l8.538-.015A4.141,4.141,0,0,1,1715.9,822.247Zm-29.62,2.342c0-23.629-19.185-43.25-43.591-43.844-25.265-.615-46.407,19.264-46.407,44.419s21.143,44.764,46.407,43.826C1667.094,868.085,1686.279,848.218,1686.279,824.589Z" transform="translate(-1561.167 -749.989)" fill="#bfc8d6"/>
            <path id="Path_3993" data-name="Path 3993" d="M2396.073,804.645l-6.081-.21-2.1,5.452Z" transform="translate(-2342.823 -797.752)" fill="#bfc8d6"/>
            <path id="Path_3994" data-name="Path 3994" d="M1839.524,826.643l7.012.07v5.172Z" transform="translate(-1725.973 -817.234)" fill="#bfc8d6"/>
            <path id="Path_3995" data-name="Path 3995" d="M1622,1029.911l6.99.282-1.748,3.914Z" transform="translate(-1481.724 -995.55)" fill="#bfc8d6"/>
            <path id="Path_3996" data-name="Path 3996" d="M1532.026,1304.973l7.06.559-2.307,3.425Z" transform="translate(-1380.778 -1236.849)" fill="#bfc8d6"/>
            <path id="Path_3997" data-name="Path 3997" d="M1622.567,1666.625l6.85.979.839-5.592Z" transform="translate(-1483.062 -1550.061)" fill="#bfc8d6"/>
            <path id="Path_3998" data-name="Path 3998" d="M1844.649,1880.686l6.151,1.118.49-4.543Z" transform="translate(-1731.355 -1738.888)" fill="#bfc8d6"/>
            <path id="Path_3999" data-name="Path 3999" d="M2154.822,1936.548l-5.522-.979,4.753-7.06Z" transform="translate(-2072.283 -1783.847)" fill="#bfc8d6"/>
            <path id="Path_4000" data-name="Path 4000" d="M2399.451,1893.141l-6.431-1.328,4.963-6.011Z" transform="translate(-2346.829 -1746.381)" fill="#bfc8d6"/>
            <path id="Path_4001" data-name="Path 4001" d="M2632.755,1007.155l6.71.21-2.656,4.893Z" transform="translate(-2616.27 -975.588)" fill="#bfc8d6"/>
            <path id="Path_4002" data-name="Path 4002" d="M2746.073,1406.471l6.151.909-.489-5.033Z" transform="translate(-2742.94 -1322.27)" fill="#bfc8d6"/>
            <path id="Path_4003" data-name="Path 4003" d="M2635.6,1714.558l6.011.979.49-3.984Z" transform="translate(-2619.258 -1593.521)" fill="#bfc8d6"/>
          </g>
          <path id="Path_4004" data-name="Path 4004" d="M1660.707,822.835v6.24a4.247,4.247,0,0,1-4.121,4.3l-8.841.11a61.91,61.91,0,0,1-4.4,15.964l7.919,4.479a4.268,4.268,0,0,1,1.523,5.8l-3.059,5.543a4.237,4.237,0,0,1-5.726,1.777l-8.189-4.531a64.581,64.581,0,0,1-11.636,11.95l4.91,8.363a4.507,4.507,0,0,1-1.575,6.018l-5.5,3.492a4.226,4.226,0,0,1-5.958-1.285l-5.058-8.507a65.136,65.136,0,0,1-16.233,5.019v10.324a4.828,4.828,0,0,1-4.526,4.723l-6.7.4a4.24,4.24,0,0,1-4.6-4.226V888.346a64.683,64.683,0,0,1-16.976-3.519l-5.451,9.363a5.062,5.062,0,0,1-6.524,2.024l-6.127-3.055a4.356,4.356,0,0,1-1.772-6.213l5.5-9.323a63.573,63.573,0,0,1-13.156-11.758l-9.534,5.529a5.06,5.06,0,0,1-6.807-1.468l-3.685-5.849a4.614,4.614,0,0,1,1.839-6.471l9.426-5.349a61.3,61.3,0,0,1-5.213-17.189l-10.68.133a4.842,4.842,0,0,1-5.077-4.667v-6.948a4.926,4.926,0,0,1,5.077-4.739l10.4-.018a61.917,61.917,0,0,1,4.736-17.68l-8.673-4.8a4.574,4.574,0,0,1-1.839-6.445l3.685-5.9a5.1,5.1,0,0,1,6.807-1.564l8.382,4.741a64.706,64.706,0,0,1,13.446-12.743l-4.634-7.794a4.394,4.394,0,0,1,1.772-6.238l6.127-3.142a5.013,5.013,0,0,1,6.524,1.932l4.472,7.618a65.175,65.175,0,0,1,17.955-4.1v-8.427a4.311,4.311,0,0,1,4.6-4.291l6.7.306a4.744,4.744,0,0,1,4.526,4.659v8.335a64.408,64.408,0,0,1,17.147,5.228l4.144-7.029a4.257,4.257,0,0,1,5.958-1.369l5.5,3.414a4.47,4.47,0,0,1,1.575,6l-4.134,7.1a63.273,63.273,0,0,1,11.861,12.549L1644,785.1a4.2,4.2,0,0,1,5.726,1.7l3.059,5.5a4.3,4.3,0,0,1-1.523,5.817l-7.279,4.221a61.326,61.326,0,0,1,3.995,16.272l8.609-.015A4.175,4.175,0,0,1,1660.707,822.835Zm-29.866,2.362c0-23.821-19.344-43.6-43.952-44.2-25.474-.62-46.792,19.42-46.792,44.781s21.318,45.128,46.792,44.183C1611.5,869.047,1630.842,849.018,1630.842,825.2Z" transform="translate(-1499.044 -749.989)" fill="#eaedf3"/>
        </g>
        <g id="Group_629" data-name="Group 629" transform="translate(121.829 26.922)">
          <g id="Group_627" data-name="Group 627" transform="translate(0 0)">
            <path id="Path_4005" data-name="Path 4005" d="M726.689,684.715l-32.171,267.4a7.046,7.046,0,0,0,6.152,7.987l134,14.711c8.209.51,12.7-3.683,13.21-7.947l33.776-284.294c.5-4.24-3.523-8.079-11.767-8.079l-135.217,2.848A8.524,8.524,0,0,0,726.689,684.715Z" transform="translate(-688.255 -674.476)" fill="url(#linear-gradient)"/>
            <path id="Path_4006" data-name="Path 4006" d="M771.015,684.1l-32.348,268.74a7.079,7.079,0,0,0,6.173,8.029L883.758,974.7a8.122,8.122,0,0,0,8.856-7L926.58,681.939a6.741,6.741,0,0,0-7.1-7.613L779.027,676.7A8.563,8.563,0,0,0,771.015,684.1Z" transform="translate(-738.612 -674.326)" fill="url(#linear-gradient-2)"/>
            <path id="Path_4007" data-name="Path 4007" d="M824.563,815.521,794.581,1064.7a6.6,6.6,0,0,0,5.78,7.487l130.648,12.7a7.574,7.574,0,0,0,8.233-6.536l31.39-263.978a6.315,6.315,0,0,0-6.588-7.135l-131.989,1.406A7.946,7.946,0,0,0,824.563,815.521Z" transform="translate(-789.524 -790.918)" fill="#d8dee8"/>
            <path id="Path_4008" data-name="Path 4008" d="M1371.528,733.7a2.223,2.223,0,0,0,2.295,2.558,3.063,3.063,0,0,0,2.921-2.628,2.223,2.223,0,0,0-2.3-2.558A3.064,3.064,0,0,0,1371.528,733.7Z" transform="translate(-1266.429 -724.107)" fill="url(#linear-gradient-3)"/>
            <g id="Group_626" data-name="Group 626" transform="translate(35.899)" style="mix-blend-mode: soft-light;isolation: isolate">
              <path id="Path_4009" data-name="Path 4009" d="M760.34,866.19c26.747-49.45,66.7-64.252,78.732-115.217,6.5-27.548,2.072-53.915-5.39-75.8l49.9-.842a6.741,6.741,0,0,1,7.1,7.613L856.716,967.7a8.121,8.121,0,0,1-8.856,7l-109.2-10.872C737.848,919.523,748.417,888.233,760.34,866.19Z" transform="translate(-738.612 -674.326)" fill="#fff"/>
            </g>
          </g>
          <g id="Group_628" data-name="Group 628" transform="translate(19.088 43.07)">
            <path id="Path_4010" data-name="Path 4010" d="M947.253,1052.82c-1.077,9.473,4.871,17.351,13.337,17.583,8.522.234,16.335-7.359,17.4-16.945,1.062-9.57-5.017-17.414-13.525-17.534C956.01,1035.8,948.328,1043.363,947.253,1052.82Z" transform="translate(-834.77 -1034.606)" fill="#bfc8d6"/>
            <path id="Path_4011" data-name="Path 4011" d="M1716.665,1041.5c-1.114,9.132,4.324,16.72,12.191,16.936,7.917.217,15.268-7.105,16.37-16.343,1.1-9.222-4.454-16.778-12.36-16.89C1725.01,1025.094,1717.777,1032.384,1716.665,1041.5Z" transform="translate(-1696.471 -1025.203)" fill="#bfc8d6"/>
            <path id="Path_4012" data-name="Path 4012" d="M1346.274,1026.092l16.166.225c3.183.044,5.431,3.017,5.013,6.641l-2.193,19.012c-.42,3.639-3.35,6.522-6.538,6.437l-16.189-.429c-3.139-.083-5.335-3.07-4.911-6.67l2.215-18.806C1340.261,1028.917,1343.139,1026.048,1346.274,1026.092Z" transform="translate(-1272.092 -1025.982)" fill="#bfc8d6"/>
            <path id="Path_4013" data-name="Path 4013" d="M1391.677,1499.53c-1.107,9.391,4.585,17.343,12.763,17.748,8.231.408,15.832-6.975,16.927-16.478,1.093-9.487-4.724-17.407-12.943-17.7C1400.258,1482.8,1392.782,1490.154,1391.677,1499.53Z" transform="translate(-1332.712 -1426.883)" fill="#bfc8d6"/>
            <path id="Path_4014" data-name="Path 4014" d="M1770.179,1485.78c-1.124,9.22,4.318,17.021,12.2,17.412,7.935.393,15.309-6.86,16.423-16.188,1.112-9.313-4.449-17.084-12.373-17.369C1778.557,1469.351,1771.3,1476.574,1770.179,1485.78Z" transform="translate(-1756.619 -1415.073)" fill="#bfc8d6"/>
            <path id="Path_4015" data-name="Path 4015" d="M1006.7,1491.091l16.818.6c3.312.119,5.668,3.237,5.254,6.967l-2.173,19.568c-.416,3.746-3.449,6.653-6.766,6.491l-16.843-.819c-3.266-.159-5.566-3.292-5.145-7l2.2-19.35C1000.457,1493.868,1003.435,1490.974,1006.7,1491.091Z" transform="translate(-891.695 -1433.9)" fill="#bfc8d6"/>
            <path id="Path_4016" data-name="Path 4016" d="M1051.03,1979.4c-1.1,9.665,4.866,18.006,13.375,18.619,8.566.617,16.433-6.824,17.519-16.608,1.084-9.767-5.014-18.078-13.566-18.576C1059.862,1962.337,1052.127,1969.748,1051.03,1979.4Z" transform="translate(-951.449 -1847.718)" fill="#bfc8d6"/>
            <path id="Path_4017" data-name="Path 4017" d="M1451.988,1932.922l16.244.943c3.2.186,5.452,3.332,5.026,7.029l-2.237,19.4c-.428,3.712-3.378,6.538-6.581,6.311l-16.266-1.156c-3.154-.224-5.355-3.384-4.922-7.055l2.259-19.181C1445.941,1935.553,1448.838,1932.739,1451.988,1932.922Z" transform="translate(-1390.863 -1821.492)" fill="#bfc8d6"/>
            <path id="Path_4018" data-name="Path 4018" d="M1830.793,1911.3l15.659.91c3.083.179,5.237,3.265,4.8,6.893l-2.274,19.036c-.436,3.643-3.3,6.42-6.384,6.2l-15.679-1.114c-3.041-.216-5.145-3.314-4.705-6.917l2.294-18.829C1824.945,1913.886,1827.756,1911.121,1830.793,1911.3Z" transform="translate(-1815.382 -1802.522)" fill="#bfc8d6"/>
            <g transform="matrix(1, 0, 0, 1, -209.62, -120.72)" filter="url(#Path_4019)">
              <path id="Path_4019-2" data-name="Path 4019" d="M1498.512,2417.915c-1.129,9.579,4.576,17.984,12.792,18.763,8.271.784,15.922-6.449,17.04-16.145,1.115-9.679-4.716-18.057-12.974-18.725C1507.164,2401.145,1499.639,2408.351,1498.512,2417.915Z" transform="translate(-1243.18 -2112.08)" fill="#8b6be0"/>
            </g>
            <path id="Path_4020" data-name="Path 4020" d="M1111.482,2424.326l16.9,1.363c3.329.268,5.693,3.571,5.27,7.378l-2.218,19.972c-.424,3.823-3.479,6.67-6.813,6.357l-16.93-1.589c-3.282-.308-5.589-3.623-5.16-7.4l2.243-19.745C1105.207,2426.9,1108.2,2424.062,1111.482,2424.326Z" transform="translate(-1009.437 -2252.569)" fill="#bfc8d6"/>
            <path id="Path_4021" data-name="Path 4021" d="M1885.334,2363l15.694,1.266c3.09.249,5.246,3.421,4.808,7.086l-2.3,19.224c-.439,3.679-3.31,6.428-6.4,6.138l-15.714-1.474c-3.047-.286-5.153-3.469-4.709-7.108l2.317-19.014C1879.47,2365.49,1882.291,2362.751,1885.334,2363Z" transform="translate(-1876.653 -2198.769)" fill="#bfc8d6"/>
          </g>
        </g>
        <g id="Group_636" data-name="Group 636" transform="translate(132.839 79.392)">
          <path id="Path_4022" data-name="Path 4022" d="M1060.643,1101.78h85.294a21.541,21.541,0,0,1,4.708.615c.046.01.091.076.137.087-.014-.093-.028-.162-.042-.261a19.105,19.105,0,0,1,15.057,21.03l-.026.262-8.956,86.871-.026.257c-1.222,11.85-12.06,20.9-24.093,20.228l-84.644-4.738a18.917,18.917,0,0,1-9.882-3.391,19.385,19.385,0,0,1-8-18.011l8.332-82.489C1039.641,1111,1049.507,1101.78,1060.643,1101.78Z" transform="translate(-1024.674 -1101.78)" fill="url(#linear-gradient-4)"/>
          <g id="Group_635" data-name="Group 635" transform="translate(0)">
            <path id="Path_4023" data-name="Path 4023" d="M1088.066,1122.19l-8.3,82.235a19.283,19.283,0,0,0,7.8,17.984,18.275,18.275,0,0,0,9.679,3.386l84.2,4.72c11.968.67,23.083-8.337,24.3-20.156l8.951-86.9a19.322,19.322,0,0,0-15.208-21.069,22.893,22.893,0,0,0-4.848-.612h-84.841C1098.715,1101.78,1089.2,1110.979,1088.066,1122.19Z" transform="translate(-1079.65 -1101.78)" fill="url(#linear-gradient-5)"/>
            <g id="Group_634" data-name="Group 634" transform="translate(14.911 17.126)">
              <g id="Group_630" data-name="Group 630" transform="translate(22.939)">
                <path id="Path_4024" data-name="Path 4024" d="M1462.394,1334.528a9.605,9.605,0,0,0,4.7-.915c5.24-2.532,7.769-9.883,7.1-20.68-.635-10.316-4.068-22.684-9.644-34.782-10-21.693-24.181-36.769-34.493-36.847a9.4,9.4,0,0,0-4.537,1.081c-5.018,2.666-7.435,9.894-6.821,20.371.588,10.035,3.85,22.09,9.209,33.985C1437.672,1318.4,1451.851,1334.017,1462.394,1334.528Zm-32.613-90.467c4.289.038,9.816,3.448,15.576,9.627,6.022,6.461,11.92,15.614,16.6,25.781,5.431,11.8,8.772,23.823,9.384,33.806.576,9.388-1.393,15.892-5.391,17.83a6.692,6.692,0,0,1-3.269.623c-4.41-.208-10.046-3.871-15.856-10.287-6.008-6.634-11.825-15.863-16.389-25.979-5.245-11.625-8.437-23.365-9.008-33.1-.536-9.134,1.354-15.534,5.2-17.569A6.546,6.546,0,0,1,1429.781,1244.061Z" transform="translate(-1418.609 -1241.304)" fill="#fff"/>
              </g>
              <g id="Group_631" data-name="Group 631" transform="translate(0 26.262)">
                <path id="Path_4025" data-name="Path 4025" d="M1268.289,1495.143c13.307.49,26.133-.947,36.057-4.069,10.5-3.3,16.667-8.206,17.307-13.787.653-5.694-4.536-11.122-14.541-15.255-9.489-3.92-22.269-6.3-35.919-6.716-.538-.017-1.079-.03-1.613-.04-13.152-.251-25.544,1.374-34.951,4.552-9.78,3.305-15.461,8.051-16.061,13.385-.612,5.439,4.128,10.664,13.407,14.742,8.953,3.934,21.253,6.469,34.7,7.119C1267.215,1495.1,1267.755,1495.123,1268.289,1495.143Zm1.007-37.089c.524.011,1.053.025,1.581.041,13.324.425,25.755,2.744,34.94,6.552,8.7,3.6,13.431,8.178,12.933,12.525-.487,4.249-6.018,8.344-15.119,11.219-9.6,3.032-22.071,4.435-35.058,3.974-.524-.019-1.053-.04-1.58-.065-13.137-.619-25.117-3.064-33.8-6.867-8.093-3.545-12.438-7.952-11.97-12.115.458-4.07,5.569-8.038,14.071-10.9C1244.405,1459.35,1256.46,1457.792,1269.3,1458.053Z" transform="translate(-1218.515 -1455.25)" fill="#fff"/>
              </g>
              <g id="Group_632" data-name="Group 632" transform="translate(16.654 0.272)">
                <path id="Path_4026" data-name="Path 4026" d="M1373.817,1333.776h0c10.253.422,27.373-13.332,41.724-34.318,8.012-11.716,13.94-23.655,16.681-33.89,2.87-10.717,1.851-18.1-2.847-20.916a8.728,8.728,0,0,0-4.5-1.131c-10.6-.08-27.9,14.711-42.015,35.735-7.742,11.532-13.427,23.342-16.042,33.275-2.728,10.365-1.762,17.334,2.682,20.256A7.637,7.637,0,0,0,1373.817,1333.776Zm50.772-87.4a6.092,6.092,0,0,1,3.128.8c3.584,2.155,4.213,8.746,1.719,18.066-2.65,9.9-8.428,21.677-16.234,33.107-6.721,9.841-14.443,18.6-21.737,24.674-6.974,5.81-13.154,8.881-17.421,8.68h0a5.873,5.873,0,0,1-2.99-.9c-3.4-2.233-3.986-8.685-1.606-17.721,2.538-9.635,8.089-21.124,15.664-32.392a126.611,126.611,0,0,1,21.592-24.951C1413.8,1249.671,1420.156,1246.335,1424.589,1246.373Z" transform="translate(-1365.301 -1243.522)" fill="#fff"/>
              </g>
              <g id="Group_633" data-name="Group 633" transform="translate(41.722 37.528)">
                <path id="Path_4027" data-name="Path 4027" d="M1577.085,1555.478a7.968,7.968,0,0,0,7.767,8.923,9.516,9.516,0,0,0,9.6-8.438,7.966,7.966,0,0,0-7.833-8.928A9.523,9.523,0,0,0,1577.085,1555.478Z" transform="translate(-1577.039 -1547.033)" fill="#fff"/>
              </g>
            </g>
            <path id="Path_4028" data-name="Path 4028" d="M1079.428,1225.438a18.741,18.741,0,0,0,9.845,3.274l84.2,4.7c11.969.668,22.925-8.126,24.142-19.945l8.951-86.9a19.159,19.159,0,0,0-15.141-20.964c.126.876.159,1.532.184,1.87a35.515,35.515,0,0,1-4.512,20.629c-7.346,12.446-20.669,15.505-32.937,19.963-13.118,4.761-27.127,15.435-31.748,28.832-2.015,5.841-2.084,12.045-3.549,17.974-4.393,17.806-16.535,32.38-35.584,31.033C1082.032,1225.809,1080.74,1225.623,1079.428,1225.438Z" transform="translate(-1071.506 -1105.129)" opacity="0.3" fill="url(#linear-gradient-6)" style="mix-blend-mode: multiply;isolation: isolate"/>
          </g>
        </g>
      </g>
      <g id="Group_660" data-name="Group 660" transform="translate(17.698 206.209)">
        <path id="Path_4063" data-name="Path 4063" d="M1926.913,1109.374l-31.215.026a3.458,3.458,0,0,1-3.462-3.456h0a3.458,3.458,0,0,1,3.455-3.461l31.216-.026a3.459,3.459,0,0,1,3.461,3.456h0A3.458,3.458,0,0,1,1926.913,1109.374Z" transform="translate(-1840.801 -1055.654)" fill="#2f2f3b"/>
        <path id="Path_4070" data-name="Path 4070" d="M1944.4,1447.743l-48.421.039a3.457,3.457,0,0,1-3.461-3.455h0a3.457,3.457,0,0,1,3.455-3.461l48.421-.04a3.459,3.459,0,0,1,3.461,3.456h0A3.458,3.458,0,0,1,1944.4,1447.743Z" transform="translate(-1841.022 -1323.401)" fill="#2f2f3b"/>
        <path id="Path_4071" data-name="Path 4071" d="M1925.719,1496.163l-29.7.025a3.459,3.459,0,0,1-3.462-3.456h0a3.459,3.459,0,0,1,3.456-3.46l29.7-.025a3.459,3.459,0,0,1,3.461,3.455h0A3.458,3.458,0,0,1,1925.719,1496.163Z" transform="translate(-1841.051 -1361.716)" fill="#2f2f3b"/>
        <path id="Path_4076" data-name="Path 4076" d="M1659.948,1482.706h-3.422l12.753-66.264,2.845.541Z" transform="translate(-1654.285 -1304.107)" fill="#47c5ff"/>
        <path id="Path_4077" data-name="Path 4077" d="M2078.409,1482.408l2.844-.541-12.293-65.426-2.845.541Z" transform="translate(-1978.39 -1304.107)" fill="#47c5ff"/>
        <path id="Path_4078" data-name="Path 4078" d="M1960.127,1482.706h-3.422l12.753-66.264,2.845.541Z" transform="translate(-1891.814 -1304.107)" fill="#47c5ff"/>
        <path id="Path_4079" data-name="Path 4079" d="M1775.707,1483.835l2.779.033-12.227-66-2.845.542Z" transform="translate(-1738.865 -1305.235)" fill="#47c5ff"/>
        <path id="Path_4080" data-name="Path 4080" d="M1695.045,987.779c-11.266,1.211-25.845,2.488-40.481,27.41-16,27.238-7.576,67.926,5.05,79.232s53.861,25.267,88.525,4.368c0,0,20.93-12.666,10.189-33.686-16.53-32.348-14.195-39.093-21.586-51.771S1718.959,985.209,1695.045,987.779Z" transform="translate(-1645.791 -964.687)" fill="#ffc063"/>
        <path id="Path_4081" data-name="Path 4081" d="M1654.564,1023.574c9.99-17.01,19.953-23,28.854-25.481a74.72,74.72,0,0,0-10.427,14.123c-16,27.239-7.576,67.925,5.049,79.232,11.2,10.027,44.893,22.137,76.553,10.174a32.212,32.212,0,0,1-6.454,5.551c-34.664,20.9-75.9,6.939-88.525-4.368S1638.568,1050.812,1654.564,1023.574Z" transform="translate(-1645.791 -973.072)" fill="#efab50"/>
        <path id="Path_4082" data-name="Path 4082" d="M2032.606,1187.218l2.895,8.717-8.825-3.483Z" transform="translate(-1947.181 -1122.725)" fill="#f79c8d"/>
        <path id="Path_4083" data-name="Path 4083" d="M1990.144,1062.937c.588.024,2.2.563,4.557,5.019,3.011,5.689,7.411,22.876,7.411,22.876l-13.134,4.891-1.687-3.587-2.779-27.617S1989.981,1062.93,1990.144,1062.937Z" transform="translate(-1913.818 -1024.382)" fill="#f5fcff"/>
        <path id="Path_4084" data-name="Path 4084" d="M1840,1051.068c3.756,0,13.049,1.1,17.361,2.478,0,0,3.169,27.232-2.852,47.925-1.348,4.632,1.114,19.2,1.114,19.2l-38.916-.513s4.611-35.223,2.874-40.912-1.778-25.519-1.778-25.519.266-.041,8.743-1.506A87.95,87.95,0,0,1,1840,1051.068Z" transform="translate(-1781.033 -1014.991)" fill="#eaf5f9"/>
        <path id="Path_4085" data-name="Path 4085" d="M1864.648,1626.747s.861,9.937,2.445,12.688-.084,7.43-.167,8.072-3.333,1.559-8.5,1.009-5.082-1.743-4.665-3.669,3.165-4.4,3.332-6.237-1.582-8.438-1.582-8.438Z" transform="translate(-1810.218 -1470.52)" fill="#f7a491"/>
        <path id="Path_4086" data-name="Path 4086" d="M1848.716,1342.962s26.864-1.492,32.863,2.141-1.085,11.094-1.085,11.094-21.87,9.509-58.484,11.621c-8.67.5-9.417-22.607-7.8-24.52S1848.716,1342.962,1848.716,1342.962Z" transform="translate(-1778.519 -1245.481)" fill="#c7000c"/>
        <path id="Path_4087" data-name="Path 4087" d="M1856.583,1699.663c-5.319-.567-4.661-3.18-4.233-5.164.269-1.242,1.795-2.706,2.7-4.091a8.881,8.881,0,0,0,3.559,1.729c2.4.708,5.687-.694,7.782-1.572a25.633,25.633,0,0,1,.711,6.861C1867.021,1698.088,1861.9,1700.229,1856.583,1699.663Z" transform="translate(-1809.018 -1520.894)" fill="#2f2f3b"/>
        <path id="Path_4088" data-name="Path 4088" d="M1810.577,1363.194c1.073,8.122,6.387,48.553,6.387,48.553l-12.33,1.53s-15.164-52.773-14.385-60.845,6.454-8.751,6.454-8.751S1807.736,1341.695,1810.577,1363.194Z" transform="translate(-1760.076 -1246.494)" fill="#da000d"/>
        <path id="Path_4089" data-name="Path 4089" d="M1796.916,1078.167c3.639-1.365,5.419,31.42,5.909,44.915,6.444.62,17.675,0,20.472-.205,1.314-.1,4.348-1.21,5.655-1.381a13.15,13.15,0,0,1,3.215-.152c.241.042,6.957,2.789,7.532,3.391.713.747,2.639,2.631,2.314,3.446s-3.7-2.27-3.7-2.27l-1.652-.926c2.056,2.009,5.978,4.654,5.413,5.617-.552.939-4.088-1.745-6.61-3.575,2.163,1.953,4.849,5.449,4.231,5.993-.557.49-3.613-3.557-6.879-4.722-1.21-.432-2.417.764-3.369.909a6.826,6.826,0,0,1-2.466.137l-3.536-1c-1.205.109-1.235.821-2.452,1.08-1.412.3-3.73.617-5.528,1.057-10.356,2.531-13.811,3.705-16.982,3.7C1788.874,1134.175,1788.316,1081.393,1796.916,1078.167Z" transform="translate(-1760.572 -1036.401)" fill="#f7a491"/>
        <path id="Path_4090" data-name="Path 4090" d="M1785.842,1097.331c-.682-13.822-.582-30.859,7.166-33.766,3.057-1.147,8.447,5.75,7.478,34.047C1796.349,1097.953,1790.277,1098.228,1785.842,1097.331Z" transform="translate(-1756.403 -1024.786)" fill="#f5fcff"/>
        <path id="Path_4091" data-name="Path 4091" d="M1946.531,1197.343h-.789l-11.875,29.179.818-.125Z" transform="translate(-1873.742 -1130.737)" fill="#f79c8d"/>
        <path id="Path_4092" data-name="Path 4092" d="M2042.7,1667.473s-1.077,3.45.851,5.73,9.931,4.52,10.982,5.755a3.46,3.46,0,0,1,.971,2.288l-22.467-.618.245-6.785,1.034-4.876Z" transform="translate(-1952.218 -1502.746)" fill="#f7a491"/>
        <path id="Path_4093" data-name="Path 4093" d="M2040.185,1698.42s-5.772,2.336-8.561.953-2.7-1.766-3.511-1.251-1.1,6.877-1.1,6.877l25.265.743c1.758-.042,2.647-1.335,1.218-2.444a20.616,20.616,0,0,0-2.754-1.638C2048.769,1700.526,2040.185,1698.42,2040.185,1698.42Z" transform="translate(-1947.45 -1526.825)" fill="#2f2f3b"/>
        <path id="Path_4094" data-name="Path 4094" d="M2043.5,1351.428c1.737-3.654,5.686-8.412,12.634-5.547,6.629,2.733,8.407,9.45,6.316,16.329s-15.858,47.314-16.338,52.874l-10.992.073s2-32.018,2.488-39.757C2038.079,1367.953,2040.493,1357.752,2043.5,1351.428Z" transform="translate(-1953.863 -1247.579)" fill="#da000d"/>
        <path id="Path_4095" data-name="Path 4095" d="M1889.47,1197.343h-36.743a2.4,2.4,0,0,0-2.217,1.492l-11.314,27.687H1818.94a1.027,1.027,0,0,0-1.026,1.028h0a1.027,1.027,0,0,0,1.026,1.028h57.652a4.025,4.025,0,0,0,3.672-2.384l11.392-25.463A2.4,2.4,0,0,0,1889.47,1197.343Z" transform="translate(-1781.99 -1130.737)" fill="#151b3d"/>
        <path id="Path_4096" data-name="Path 4096" d="M2050.88,1264.426a2.023,2.023,0,1,1-1.516-2.646A2.162,2.162,0,0,1,2050.88,1264.426Z" transform="translate(-1963.183 -1181.697)" fill="#f5fcff"/>
        <path id="Path_4097" data-name="Path 4097" d="M1892.611,881.028a28.019,28.019,0,0,1-3.251-1.3,16.3,16.3,0,0,0-3.706-1.4c-2.051-.316-5.574-.1-7.519,2-2.423,2.629-6.731.475-5.863,14.245.983,15.586,9.648,13.876,9.859,13.611s7.729-9.971,7.729-9.971,2.629,5.751,2.629,5.539S1905.913,885.508,1892.611,881.028Z" transform="translate(-1824.913 -878.212)" fill="#2f2f3b"/>
        <path id="Path_4098" data-name="Path 4098" d="M1904.879,994.11l.748,5.569s1.676,8.023-.48,9.57-9.169-9.8-9.169-9.8l.741-14.112Z" transform="translate(-1843.762 -962.98)" fill="#f7a491"/>
        <path id="Path_4099" data-name="Path 4099" d="M1898.383,989.911a15.973,15.973,0,0,0,9.033,8.919l-.634-4.722-8.16-8.771Z" transform="translate(-1845.665 -962.979)" fill="#f47458"/>
        <path id="Path_4100" data-name="Path 4100" d="M1900.805,911.4a7.425,7.425,0,0,1,8.552,7.51,56.431,56.431,0,0,1-.625,7.143c-.994,6.429-5.38,12.09-8.281,11.584s-10.2-6.051-8.913-15.2C1892.333,916.792,1896.01,912.176,1900.805,911.4Z" transform="translate(-1840.13 -904.399)" fill="#f7a491"/>
        <path id="Path_4101" data-name="Path 4101" d="M1885.756,958.7a2.162,2.162,0,1,1-1.643-2.924A2.392,2.392,0,0,1,1885.756,958.7Z" transform="translate(-1832.335 -939.563)" fill="#f7a491"/>
        <path id="Path_4102" data-name="Path 4102" d="M1889.68,912.519s3.506.872,4.808-1.384,5.954-7.122,11.869-5.1-5.2-4.906-5.679-4.906-6.152-.04-6.152-.04-4.376,3.6-4.535,4-1.42,4.708-1.42,4.708Z" transform="translate(-1837.901 -896.31)" fill="#2f2f3b"/>
        <path id="Path_4103" data-name="Path 4103" d="M1924.551,1000.958a13.49,13.49,0,0,0,3.286,1.22,8.971,8.971,0,0,0,3.094,0,10.2,10.2,0,0,1-1.023,1.04,3.258,3.258,0,0,1-4.566-.381A4.38,4.38,0,0,1,1924.551,1000.958Z" transform="translate(-1866.357 -975.339)" fill="#f5fcff"/>
        <path id="Path_4105" data-name="Path 4105" d="M1.02.375c.563,0,1.02.265,1.02.828S1.583,2,1.02,2,0,1.766,0,1.2.456.375,1.02.375Z" transform="translate(58.165 16.585)"/>
        <path id="Path_4106" data-name="Path 4106" d="M1.02.375c.563,0,1.02.265,1.02.828S1.583,2,1.02,2,0,1.766,0,1.2.456.375,1.02.375Z" transform="translate(65.301 16.918)"/>
        <path id="Path_4107" data-name="Path 4107" d="M3.347.658c.7.135.95-.149.8-.334A1.5,1.5,0,0,0,3.491.037,2.518,2.518,0,0,0,2.308.1a5.188,5.188,0,0,0-1.3.554s-1.143.76-.991.8.547-.318,1.6-.63S2.646.522,3.347.658Z" transform="matrix(0.996, 0.087, -0.087, 0.996, 57.161, 15.136)" fill="#414141"/>
        <path id="Path_4108" data-name="Path 4108" d="M6247.979,266.524c-.7.135-.95-.149-.8-.334a1.486,1.486,0,0,1,.658-.286,2.526,2.526,0,0,1,1.186.066,5.244,5.244,0,0,1,1.3.554c.2.1,1.082.956.339.556a4.223,4.223,0,0,0-.943-.383C6248.664,266.385,6248.68,266.388,6247.979,266.524Z" transform="translate(-6181.997 -250.151)" fill="#414141"/>
        <path id="Path_4109" data-name="Path 4109" d="M1.261,3.04l-.028,0L1.2,3.033l-.027-.008-.021-.009L.808,2.794A.087.087,0,0,1,.78,2.777a.011.011,0,0,1,0-.013.03.03,0,0,1,.009-.011L.8,2.744l.044-.015.034-.013L.913,2.7.965,2.67H.988l.266.173H1.29L2.368,2.2l.007,0a.012.012,0,0,0,0-.006.034.034,0,0,0,0-.008s0-.006,0-.009L2.415.869s0-.006,0-.009a.033.033,0,0,0,0-.008.011.011,0,0,0,0-.006L2.4.845,1.361.2H1.326L.247.843a.008.008,0,0,0-.007,0,.025.025,0,0,0,0,.008.058.058,0,0,0,0,.008v0L.2,2.152s0,.006,0,.009a.033.033,0,0,0,0,.008.011.011,0,0,0,0,.006l.007,0,.29.173a.231.231,0,0,0,.1.033.152.152,0,0,0,.082-.019.15.15,0,0,0,.076-.125L.8.979A.034.034,0,0,1,.8.968.048.048,0,0,1,.808.956.039.039,0,0,1,.819.946a.032.032,0,0,1,.016,0H.976l.01,0L1,.952a.036.036,0,0,1,.009.012.034.034,0,0,1,0,.016L.976,2.251A.476.476,0,0,1,.951,2.4a.3.3,0,0,1-.065.108.273.273,0,0,1-.1.067A.379.379,0,0,1,.649,2.6H.6a.286.286,0,0,1-.049-.008.459.459,0,0,1-.064-.022C.467,2.554.438,2.54.4,2.522L.125,2.349a.161.161,0,0,1-.045-.036.2.2,0,0,1-.032-.05A.26.26,0,0,1,.029,2.2a.307.307,0,0,1,0-.064L.058.88A.242.242,0,0,1,.068.817.27.27,0,0,1,.092.761.311.311,0,0,1,.127.711.343.343,0,0,1,.17.67L1.248.029A.251.251,0,0,1,1.3.008.241.241,0,0,1,1.361,0a.237.237,0,0,1,.111.028L2.515.672A.161.161,0,0,1,2.56.708a.2.2,0,0,1,.032.05A.26.26,0,0,1,2.61.818a.307.307,0,0,1,0,.064L2.581,2.165a.242.242,0,0,1-.01.062.27.27,0,0,1-.024.056.311.311,0,0,1-.035.05.343.343,0,0,1-.043.041l-1.077.641-.04.009-.034.008-.029.006-.027,0ZM1.6,2.152a.948.948,0,0,1-.286-.038.419.419,0,0,1-.17-.1.315.315,0,0,1-.08-.131.429.429,0,0,1-.018-.142.034.034,0,0,1,0-.011.048.048,0,0,1,.007-.012.039.039,0,0,1,.011-.01.032.032,0,0,1,.016,0h.141l.009,0,.007.006a.027.027,0,0,1,.005.008.022.022,0,0,1,0,.009.348.348,0,0,0,.025.1A.166.166,0,0,0,1.33,1.9a.274.274,0,0,0,.106.042.882.882,0,0,0,.173.014.918.918,0,0,0,.144-.01.323.323,0,0,0,.1-.03.143.143,0,0,0,.058-.054.162.162,0,0,0,.02-.079.111.111,0,0,0-.008-.051.1.1,0,0,0-.046-.043.441.441,0,0,0-.112-.036,2.058,2.058,0,0,0-.207-.03,1.276,1.276,0,0,1-.2-.03.472.472,0,0,1-.147-.06.248.248,0,0,1-.09-.1A.334.334,0,0,1,1.1,1.276a.345.345,0,0,1,.036-.15.32.32,0,0,1,.1-.113A.46.46,0,0,1,1.384.943.791.791,0,0,1,1.59.918a.93.93,0,0,1,.223.024.431.431,0,0,1,.159.072.318.318,0,0,1,.1.123.492.492,0,0,1,.04.176s0,.005,0,.007a.015.015,0,0,1,0,.005l0,.005L2.1,1.338l0,0-.005,0-.008,0-.009,0H1.955l-.009,0-.007-.006a.027.027,0,0,1-.005-.008.022.022,0,0,1,0-.009.325.325,0,0,0-.034-.1.192.192,0,0,0-.06-.065.267.267,0,0,0-.094-.037.657.657,0,0,0-.136-.012.619.619,0,0,0-.147.015.207.207,0,0,0-.083.038.115.115,0,0,0-.037.052.182.182,0,0,0-.009.056.107.107,0,0,0,.009.054.09.09,0,0,0,.047.038A.51.51,0,0,0,1.5,1.4c.049.009.113.017.2.027a1.923,1.923,0,0,1,.214.042.525.525,0,0,1,.149.062.229.229,0,0,1,.086.1.321.321,0,0,1,.025.146.425.425,0,0,1-.053.164A.37.37,0,0,1,2,2.054a.523.523,0,0,1-.171.074A.946.946,0,0,1,1.6,2.152Z" transform="translate(84.405 80.808)" fill="#539e43"/>
      </g>
    </g>
  </g>
</svg>
