<svg aria-hidden="true" style="position: absolute; width: 0; height: 0; overflow: hidden;" version="1.1" xmlns="http://www.w3.org/2000/svg" xmlns:xlink="http://www.w3.org/1999/xlink">
<defs>
<symbol id="icon-key" viewBox="0 0 53 32">
<path d="M38.899 0.039c0.291-0.104 1.827 0.057 2.398 0.252 0.97 0.331 2.012 1.070 2.635 1.867 0.292 0.374 0.547 0.68 0.566 0.68s0.165-0.149 0.325-0.33c0.16-0.182 0.422-0.385 0.583-0.452 0.376-0.156 0.923-0.054 1.177 0.218 0.366 0.393 0.167 1.249-0.29 1.249-0.212 0-0.396-0.191-0.396-0.411 0-0.097-0.066-0.176-0.147-0.176-0.214 0-0.185 0.455 0.050 0.785 0.108 0.152 0.421 0.442 0.695 0.643l0.498 0.366 0.504-0.129c0.277-0.071 0.57-0.164 0.65-0.207s0.312-0.151 0.514-0.241c0.495-0.219 0.48-0.401-0.029-0.353-0.513 0.049-0.778-0.174-0.778-0.653 0-0.534 0.308-0.798 0.93-0.798 0.45 0 0.543 0.039 0.862 0.357 0.196 0.196 0.385 0.447 0.421 0.558 0.092 0.29 0.314 0.484 0.715 0.623 0.422 0.147 1.245 0.164 1.33 0.027 0.033-0.054 0.149-0.098 0.257-0.098 0.521 0 0.683 0.843 0.207 1.079-0.393 0.195-0.993 0.782-1.162 1.135-0.135 0.283-0.131 0.332 0.055 0.636 0.303 0.496 0.283 1.383-0.039 1.704-0.334 0.334-0.947 0.334-1.281 0-0.404-0.404-0.274-0.873 0.24-0.858 0.345 0.010 0.377-0.047 0.132-0.234-0.24-0.182-0.484-0.167-1.102 0.068-0.295 0.112-0.614 0.228-0.709 0.256s-0.195 0.168-0.224 0.31c-0.028 0.142-0.092 0.39-0.142 0.551-0.155 0.502-0.223 1.11-0.146 1.293 0.065 0.153 0.083 0.144 0.138-0.069 0.062-0.235 0.607-0.686 0.829-0.686 0.059 0 0.229 0.104 0.377 0.232 0.22 0.189 0.269 0.313 0.269 0.673 0 0.394-0.044 0.482-0.404 0.807-0.382 0.345-0.433 0.363-0.934 0.321-0.322-0.027-0.556-0.002-0.596 0.062-0.036 0.058-0.078 0.721-0.092 1.473l-0.026 1.367-0.417 0.835c-0.634 1.267-1.483 2.026-2.864 2.561-0.503 0.195-1.621 0.278-2.355 0.176-1.277-0.178-2.282-0.731-3.338-1.838l-0.605-0.634-0.426 0.163c-0.234 0.090-0.503 0.163-0.598 0.163-0.313 0-0.906-0.372-1.032-0.646-0.176-0.387 0.109-0.761 0.614-0.804 0.407-0.034 0.427-0.191 0.050-0.384-0.502-0.256-1.069-0.107-1.069 0.283 0 0.275-0.209 0.658-0.381 0.696-0.087 0.019-0.334-0.027-0.549-0.103-0.567-0.2-1.428-0.405-1.719-0.409-0.149-0.002-0.338 0.095-0.463 0.24-0.184 0.212-0.266 0.235-0.638 0.185-0.409-0.056-0.434-0.045-0.635 0.295-0.166 0.282-0.268 0.354-0.503 0.354-0.259 0-0.634 0.111-1.326 0.391-0.108 0.044-0.504 0.199-0.881 0.346s-0.817 0.321-0.979 0.386c-0.161 0.065-0.448 0.177-0.636 0.247s-0.384 0.165-0.435 0.21c-0.051 0.045-0.15 0.082-0.221 0.082s-0.356 0.11-0.635 0.245c-0.279 0.135-0.542 0.245-0.584 0.245-0.075 0-1.035 0.415-1.377 0.596-0.093 0.049-0.213 0.089-0.266 0.089s-0.351 0.115-0.662 0.255c-0.311 0.14-0.653 0.291-0.761 0.336s-0.372 0.155-0.587 0.244c-0.215 0.090-0.48 0.198-0.587 0.241-0.558 0.222-0.997 0.411-1.148 0.494-0.093 0.051-0.217 0.093-0.275 0.093s-0.356 0.114-0.662 0.253c-0.56 0.254-0.88 0.392-1.242 0.537-0.491 0.196-0.924 0.381-1.446 0.618-0.311 0.141-0.621 0.256-0.69 0.256s-0.166 0.037-0.218 0.082c-0.051 0.045-0.555 0.271-1.12 0.501-1.858 0.758-3.149 1.358-3.252 1.512-0.080 0.119-0.025 0.359 0.179 0.782 0.235 0.489 0.174 0.674-0.352 1.067-0.487 0.364-0.644 0.625-0.318 0.531 1.083-0.313 1.094-0.314 1.226-0.133 0.28 0.382 1.245 2.431 1.245 2.642 0 0.066 0.048 0.169 0.108 0.228 0.284 0.284-0.297 0.727-1.722 1.311-1.132 0.464-1.296 0.48-1.585 0.162-0.68-0.747-0.533-1.255 0.533-1.839 0.405-0.222 0.556-0.485 0.277-0.485-0.076 0-0.344 0.088-0.595 0.196-0.604 0.259-0.995 0.257-1.078-0.005-0.037-0.117 0.001-0.298 0.091-0.436 0.142-0.216 0.14-0.275-0.019-0.705-0.166-0.45-0.19-0.47-0.59-0.499-0.45-0.033-0.975 0.217-1.234 0.588-0.161 0.229-0.109 0.42 0.208 0.763 0.124 0.134 0.225 0.277 0.225 0.318s0.084 0.074 0.188 0.074c0.33 0 0.497 0.113 0.497 0.335 0 0.208-0.273 0.413-1.101 0.827-0.148 0.074-0.269 0.178-0.269 0.231 0 0.102 0.29 0.070 1.167-0.13l0.531-0.121 0.266 0.319c0.146 0.175 0.282 0.436 0.301 0.579 0.081 0.602 0.025 0.663-1.122 1.224-1.703 0.832-1.786 0.861-1.955 0.667-0.278-0.319-1.44-2.846-1.44-3.13 0-0.231 0.065-0.32 0.323-0.442 0.363-0.172 0.719-0.523 0.625-0.617-0.034-0.034-0.189-0.009-0.344 0.056-0.437 0.181-0.882 0.16-1.073-0.051-0.093-0.102-0.279-0.4-0.413-0.661-0.334-0.651-0.311-0.646-1.32-0.263-0.108 0.041-0.36 0.146-0.561 0.232s-0.432 0.132-0.514 0.101c-0.236-0.091-1.094-1.97-1.148-2.516-0.024-0.245 0.032-0.311 0.462-0.542 0.269-0.145 0.675-0.338 0.901-0.428 0.517-0.207 1.296-0.549 1.52-0.667 0.093-0.049 0.213-0.090 0.266-0.090s0.34-0.11 0.637-0.245 0.784-0.355 1.082-0.489c0.298-0.135 0.584-0.245 0.637-0.245s0.173-0.039 0.266-0.087c0.182-0.093 0.7-0.32 1.1-0.48 0.135-0.054 0.443-0.186 0.685-0.292s0.903-0.38 1.468-0.608c0.565-0.228 1.26-0.52 1.544-0.648s0.56-0.233 0.613-0.233c0.053 0 0.173-0.040 0.266-0.090 0.267-0.141 0.878-0.4 0.944-0.4 0.057 0 0.362-0.131 1.504-0.647 0.284-0.128 0.551-0.233 0.593-0.233s0.305-0.11 0.584-0.245c0.279-0.135 0.543-0.245 0.587-0.245s0.308-0.11 0.587-0.245c0.279-0.135 0.552-0.245 0.607-0.245s0.176-0.040 0.27-0.089c0.382-0.201 1.307-0.596 1.397-0.596 0.053 0 0.173-0.041 0.266-0.092 0.339-0.183 1.285-0.593 1.369-0.593 0.047 0 0.314-0.11 0.593-0.245s0.552-0.245 0.607-0.245c0.055 0 0.187-0.044 0.294-0.098s0.271-0.135 0.366-0.181c0.094-0.046 1.008-0.425 2.031-0.843s2.092-0.865 2.376-0.993c0.284-0.129 0.552-0.234 0.597-0.234s0.208-0.061 0.364-0.136 0.618-0.295 1.027-0.489c0.408-0.194 0.823-0.44 0.92-0.549 0.129-0.143 0.302-0.197 0.63-0.197 0.384 0 0.493-0.046 0.72-0.306 0.222-0.252 0.318-0.295 0.556-0.248 0.42 0.084 0.812-0.293 1.242-1.193 0.197-0.412 0.406-0.781 0.464-0.821 0.169-0.114 0.474-0.086 0.778 0.072 0.594 0.31 0.923 0.141 1.012-0.522 0.061-0.454-0.12-0.641-0.261-0.27-0.182 0.478-1.050 0.445-1.181-0.044-0.174-0.65 0.164-1.232 0.906-1.56l0.44-0.195-0.003-1.2c-0.003-1.265 0.092-1.678 0.629-2.722 0.506-0.985 1.841-2.021 3.023-2.345 0.242-0.066 0.484-0.137 0.538-0.156zM38.677 2.44c-0.756 0.258-1.455 0.917-1.926 1.816-0.446 0.853-0.322 2.061 0.273 2.66 0.112 0.113 0.397 0.162 0.823 0.141 0.352-0.017 0.254-0.207-0.107-0.207-0.415 0-0.651-0.255-0.651-0.702 0-0.828 1.175-1.014 1.938-0.307 0.233 0.216 0.264 0.317 0.263 0.857-0.001 0.513-0.045 0.668-0.266 0.959-0.323 0.424-0.954 0.661-1.755 0.661h-0.57v0.301c0 0.166-0.115 0.59-0.256 0.942l-0.256 0.641 0.172 0.55c0.095 0.303 0.184 0.597 0.197 0.653s0.216 0.164 0.451 0.238c0.234 0.074 0.543 0.215 0.686 0.313 0.243 0.166 0.572 0.155 0.572-0.019 0-0.042 0.225-0.222 0.501-0.398 0.421-0.27 0.596-0.322 1.101-0.328 0.684-0.008 1.219 0.249 1.415 0.68 0.189 0.415 0.145 1.152-0.085 1.398-0.272 0.292-0.776 0.286-1.056-0.012-0.24-0.256-0.267-0.472-0.094-0.749 0.159-0.254 0.036-0.354-0.265-0.217-0.207 0.095-0.245 0.178-0.245 0.542 0 0.237 0.066 0.588 0.146 0.779 0.161 0.384 0.871 1.133 1.236 1.302 0.128 0.059 0.359 0.168 0.513 0.241 0.175 0.084 0.632 0.134 1.223 0.135 0.843 0.001 1.001-0.028 1.481-0.274 0.678-0.347 1.331-1.029 1.629-1.703 0.336-0.761 0.327-1.834-0.020-2.384-0.29-0.459-0.8-0.718-1.227-0.624-0.405 0.089-0.35 0.242 0.086 0.242 0.52 0 0.805 0.225 0.805 0.637 0 0.649-0.96 1.053-1.687 0.71-0.324-0.153-0.76-0.814-0.76-1.152 0-0.388 0.353-1.036 0.714-1.312 0.489-0.373 1.514-0.429 2.613-0.144 0.119 0.031 0.157-0.114 0.199-0.757 0.042-0.639 0.112-0.91 0.361-1.384 0.315-0.601 0.319-0.708 0.024-0.708-0.346 0-1.087-0.416-1.575-0.885-0.279-0.267-0.538-0.485-0.577-0.485s-0.124 0.143-0.19 0.318c-0.319 0.85-0.633 1.155-1.39 1.358-0.598 0.16-1.161-0.018-1.669-0.525-0.32-0.32-0.368-0.427-0.368-0.824 0-0.623 0.361-1.11 0.822-1.11 0.477 0 0.685 0.277 0.622 0.829-0.051 0.455 0.021 0.534 0.317 0.347 0.199-0.126 0.169-0.972-0.051-1.449-0.2-0.433-0.865-1.153-1.256-1.358-0.847-0.445-1.989-0.538-2.879-0.235zM50.053 4.773c-0.156 0.11-0.438 0.587-0.438 0.741 0 0.077 0.121 0.16 0.269 0.185s0.346 0.079 0.44 0.12c0.214 0.092 0.237-0.163 0.030-0.335-0.078-0.064-0.155-0.267-0.171-0.45-0.018-0.203-0.069-0.305-0.13-0.262zM33.761 11.156c-0.399 0.399-0.142 1.076 0.408 1.076 0.497 0 0.735-0.601 0.418-1.055-0.19-0.272-0.566-0.282-0.826-0.022z"></path>

</symbol>
</defs>
</svg>
